<svg width="476" height="283" viewBox="0 0 476 283" xmlns="http://www.w3.org/2000/svg" xmlns:xlink="http://www.w3.org/1999/xlink"><title>Logo Outline</title><desc>Created with Sketch.</desc><defs><path d="M73.16 136.217h-52.785l-19.617 141.627h45.706l5.865-42.407h12.741c46.515 0 63.706-32.262 63.706-57.422 0-27.189-21.033-41.798-55.616-41.798z" id="a"/><mask id="j" x="0" y="0" width="128.019" height="141.627"><use xlink:href="#a"/></mask><path d="M64.464 202.77h-7.685l4.854-34.291h6.674c10.112 0 13.348 5.073 13.348 12.377 0 7.102-3.236 21.914-17.19 21.914z" id="b"/><mask id="k" x="0" y="0" width="24.876" height="34.291"><use xlink:href="#b"/></mask><path d="M252.75 136.217h-45.706l-12.943 91.712c-2.022 14.203-6.472 21.102-16.584 21.102-10.112 0-12.337-6.493-10.314-20.899l12.943-91.915h-45.909l-12.741 92.93c-4.449 31.45 11.528 53.161 52.178 53.161 40.448 0 62.29-23.943 66.335-52.958l12.741-93.133z" id="c"/><mask id="l" x="0" y="0" width="131.976" height="146.09"><use xlink:href="#c"/></mask><path d="M306.749 136.217h-54.201l-19.617 141.627h45.909l6.674-48.291h5.056l16.988 48.291h40.329l2.362-16.157-17.411-39.845c25.28-15.015 28.516-29.218 28.516-47.682 0-25.972-18.606-37.943-54.605-37.943z" id="d"/><mask id="m" x="0" y="0" width="128.423" height="141.627"><use xlink:href="#d"/></mask><path d="M294.007 168.073h6.876c8.494 0 13.55 3.652 13.55 10.551 0 8.116-3.236 19.885-16.382 19.885h-8.292l4.247-30.436z" id="e"/><mask id="n" x="0" y="0" width="24.673" height="30.436"><use xlink:href="#e"/></mask><path d="M475.62 174.16c0-25.972-18.606-37.943-54.605-37.943h-54.201l-19.617 141.627h45.909l6.674-48.291h5.056l16.988 48.291h49.751l-24.471-56.001c25.28-15.015 28.516-29.218 28.516-47.682z" id="f"/><mask id="o" x="0" y="0" width="128.423" height="141.627"><use xlink:href="#f"/></mask><path d="M408.273 168.073h6.876c8.494 0 13.55 3.652 13.55 10.551 0 8.116-3.236 19.885-16.382 19.885h-8.292l4.247-30.436z" id="g"/><mask id="p" x="0" y="0" width="24.673" height="30.436"><use xlink:href="#g"/></mask><path id="h" d="M195.39.957h-49.498l-64.237 89.277h53.114l30.311-49.661 18.075 49.661h51.445z"/><mask id="q" x="0" y="0" width="152.945" height="89.277"><use xlink:href="#h"/></mask><path id="i" d="M365.272.957h-49.498l-64.237 89.277h53.114l30.311-49.661 18.075 49.661h51.445z"/><mask id="r" x="0" y="0" width="152.945" height="89.277"><use xlink:href="#i"/></mask></defs><g transform="translate(-362 -259) translate(362 259)" stroke="#000" stroke-width="2" fill="none"><use mask="url(#j)" xlink:href="#a"/><use id="Path" mask="url(#k)" xlink:href="#b"/><use mask="url(#l)" xlink:href="#c"/><use id="R" mask="url(#m)" xlink:href="#d"/><use id="Path" mask="url(#n)" xlink:href="#e"/><use mask="url(#o)" xlink:href="#f"/><use mask="url(#p)" xlink:href="#g"/><use mask="url(#q)" xlink:href="#h"/><use mask="url(#r)" xlink:href="#i"/></g></svg>