<?xml version="1.0" encoding="UTF-8" standalone="no"?>
<svg width="476px" height="419px" viewBox="0 0 476 419" version="1.1" xmlns="http://www.w3.org/2000/svg" xmlns:xlink="http://www.w3.org/1999/xlink">
    <!-- Generator: Sketch 3.7 (28169) - http://www.bohemiancoding.com/sketch -->
    <title>Logo Outline</title>
    <desc>Created with Sketch.</desc>
    <defs>
        <path d="M73.1602458,136.217369 L20.3753589,136.217369 L0.757987072,277.843934 L46.4644409,277.843934 L52.3294284,235.437126 L65.070608,235.437126 C111.586026,235.437126 128.776506,203.175487 128.776506,178.015467 C128.776506,150.826413 107.743448,136.217369 73.1602458,136.217369 L73.1602458,136.217369 Z" id="path-1"></path>
        <mask id="mask-2" maskContentUnits="userSpaceOnUse" maskUnits="objectBoundingBox" x="0" y="0" width="128.018519" height="141.626566" fill="white">
            <use xlink:href="#path-1"></use>
        </mask>
        <path d="M64.4638851,202.76968 L56.7787292,202.76968 L61.6325119,168.479007 L68.3064631,168.479007 C78.4185104,168.479007 81.6543656,173.551592 81.6543656,180.856114 C81.6543656,187.957733 78.4185104,202.76968 64.4638851,202.76968 L64.4638851,202.76968 Z" id="path-3"></path>
        <mask id="mask-4" maskContentUnits="userSpaceOnUse" maskUnits="objectBoundingBox" x="0" y="0" width="24.8756364" height="34.2906728" fill="white">
            <use xlink:href="#path-3"></use>
        </mask>
        <path d="M252.750206,136.217369 L207.043752,136.217369 L194.100332,227.9297 C192.077922,242.132938 187.628621,249.031653 177.516574,249.031653 C167.404527,249.031653 165.179876,242.538745 167.202286,228.132604 L180.145706,136.217369 L134.237012,136.217369 L121.495832,229.147121 C117.046531,260.597146 133.023566,282.307809 173.673996,282.307809 C214.122185,282.307809 235.964208,258.365209 240.009027,229.350024 L252.750206,136.217369 Z" id="path-5"></path>
        <mask id="mask-6" maskContentUnits="userSpaceOnUse" maskUnits="objectBoundingBox" x="0" y="0" width="131.975845" height="146.09044" fill="white">
            <use xlink:href="#path-5"></use>
        </mask>
        <path d="M306.748539,136.217369 L252.547965,136.217369 L232.930593,277.843934 L278.839288,277.843934 L285.513239,229.552928 L290.569263,229.552928 L307.557503,277.843934 L347.88663,277.843934 L350.248787,261.687412 L332.837621,221.842599 C358.117739,206.827748 361.353594,192.624511 361.353594,174.160302 C361.353594,148.188669 342.747427,136.217369 306.748539,136.217369 Z" id="path-7"></path>
        <mask id="mask-8" maskContentUnits="userSpaceOnUse" maskUnits="objectBoundingBox" x="0" y="0" width="128.423001" height="141.626566" fill="white">
            <use xlink:href="#path-7"></use>
        </mask>
        <path d="M294.007359,168.073201 L300.883551,168.073201 C309.377671,168.073201 314.433695,171.725462 314.433695,178.624177 C314.433695,186.740312 311.19784,198.508709 298.052178,198.508709 L289.760299,198.508709 L294.007359,168.073201 Z" id="path-9"></path>
        <mask id="mask-10" maskContentUnits="userSpaceOnUse" maskUnits="objectBoundingBox" x="-1" y="-1" width="26.6733954" height="32.4355084">
            <rect x="288.760299" y="167.073201" width="26.6733954" height="32.4355084" fill="white"></rect>
            <use xlink:href="#path-9" fill="black"></use>
        </mask>
        <path d="M475.619729,174.160302 C475.619729,148.188669 457.013562,136.217369 421.014673,136.217369 L366.8141,136.217369 L347.196728,277.843934 L393.105423,277.843934 L399.779374,229.552928 L404.835398,229.552928 L421.823637,277.843934 L471.57491,277.843934 L447.103755,221.842599 C472.383874,206.827748 475.619729,192.624511 475.619729,174.160302 L475.619729,174.160302 Z" id="path-11"></path>
        <mask id="mask-12" maskContentUnits="userSpaceOnUse" maskUnits="objectBoundingBox" x="0" y="0" width="128.423001" height="141.626566" fill="white">
            <use xlink:href="#path-11"></use>
        </mask>
        <path d="M408.273494,168.073201 L415.149686,168.073201 C423.643806,168.073201 428.699829,171.725462 428.699829,178.624177 C428.699829,186.740312 425.463974,198.508709 412.318313,198.508709 L404.026434,198.508709 L408.273494,168.073201 Z" id="path-13"></path>
        <mask id="mask-14" maskContentUnits="userSpaceOnUse" maskUnits="objectBoundingBox" x="-1" y="-1" width="26.6733954" height="32.4355084">
            <rect x="403.026434" y="167.073201" width="26.6733954" height="32.4355084" fill="white"></rect>
            <use xlink:href="#path-13" fill="black"></use>
        </mask>
        <polygon id="path-15" points="195.389618 0.956896729 145.891146 0.956896729 81.6543656 90.234388 134.767894 90.234388 165.078756 40.5737835 183.15404 90.234388 234.599081 90.234388"></polygon>
        <mask id="mask-16" maskContentUnits="userSpaceOnUse" maskUnits="objectBoundingBox" x="0" y="0" width="152.944716" height="89.2774912" fill="white">
            <use xlink:href="#path-15"></use>
        </mask>
        <polygon id="path-17" points="365.272013 0.956896729 315.773541 0.956896729 251.53676 90.234388 304.650289 90.234388 334.961151 40.5737835 353.036435 90.234388 404.481476 90.234388"></polygon>
        <mask id="mask-18" maskContentUnits="userSpaceOnUse" maskUnits="objectBoundingBox" x="0" y="0" width="152.944716" height="89.2774912" fill="white">
            <use xlink:href="#path-17"></use>
        </mask>
        <path d="M23.22,304.468 C16.416,304.468 10.908,309.328 10.044,315.592 C9.18,322.288 13.392,327.364 20.412,327.364 C27.216,327.364 32.724,322.504 33.588,316.24 C34.452,309.544 30.24,304.468 23.22,304.468 L23.22,304.468 Z M29.376,336.328 L8.424,336.328 L0.432,394 L21.384,394 L29.376,336.328 Z M59.508,334.168 C42.984,334.168 33.588,342.916 33.588,354.04 C33.588,363.004 38.556,368.08 47.844,371.428 C56.916,374.668 58.752,375.316 58.752,377.8 C58.752,380.5 55.836,381.364 52.38,381.364 C45.792,381.364 40.716,378.556 37.044,375.316 L26.892,386.008 C32.184,392.056 42.012,396.16 52.38,396.16 C73.548,396.16 79.38,384.604 79.38,375.208 C79.38,366.136 74.196,360.628 65.124,357.604 C55.728,354.472 54.324,353.932 54.324,351.88 C54.324,350.152 55.728,348.964 59.724,348.964 C63.936,348.964 68.904,350.476 72.9,352.96 L81.864,341.728 C76.464,337.3 68.472,334.168 59.508,334.168 L59.508,334.168 Z M136.404,311.488 L115.236,313.648 L106.272,377.584 C104.544,389.572 110.16,396.16 121.068,396.16 C125.496,396.16 130.356,395.296 133.596,393.892 L131.652,378.988 C130.896,379.204 130.032,379.42 129.492,379.42 C128.088,379.42 127.008,378.664 127.44,375.532 L136.404,311.488 Z M169.128,334.168 C143.856,334.168 135.648,354.04 135.648,371.212 C135.648,386.872 145.044,396.16 160.92,396.16 C186.192,396.16 194.4,376.18 194.508,359.116 C194.616,343.78 185.112,334.168 169.128,334.168 L169.128,334.168 Z M167.4,349.504 C171.396,349.504 173.232,351.88 173.124,358.036 C173.016,365.488 171.828,380.824 162.648,380.824 C158.76,380.824 157.032,378.448 157.032,372.292 C157.032,364.84 158.22,349.504 167.4,349.504 L167.4,349.504 Z M231.66,334.168 C206.172,334.168 197.208,355.768 197.208,372.724 C197.208,387.088 203.58,396.16 216.324,396.16 C224.316,396.16 229.608,391.948 233.28,386.224 C235.548,392.38 241.812,395.296 248.508,395.728 L254.556,382.12 C252.72,381.364 251.964,380.284 251.964,378.016 C251.964,377.26 252.072,376.396 252.18,375.424 L257.148,340.972 C249.156,336.22 239.76,334.168 231.66,334.168 L231.66,334.168 Z M230.796,348.856 C232.524,348.856 233.712,349.072 235.332,349.504 L231.66,374.344 C229.068,378.772 226.152,380.824 223.344,380.824 C220.968,380.824 218.7,379.744 218.7,372.616 C218.7,362.464 221.616,348.856 230.796,348.856 L230.796,348.856 Z M303.804,311.488 L300.024,338.812 C297.216,335.896 293.004,334.168 288.684,334.168 C267.192,334.168 259.74,356.524 259.74,372.724 C259.74,387.412 265.356,396.16 277.776,396.16 C285.876,396.16 291.276,391.3 294.732,386.548 L294.624,394 L313.308,394 L324.54,313.648 L303.804,311.488 Z M292.572,349.396 C295.056,349.396 296.568,350.152 298.188,351.988 L295.38,371.86 C292.788,376.072 289.224,380.824 285.768,380.824 C283.392,380.824 281.34,379.636 281.34,372.508 C281.34,363.976 283.716,349.396 292.572,349.396 L292.572,349.396 Z M344.952,304.468 C338.148,304.468 332.64,309.328 331.776,315.592 C330.912,322.288 335.124,327.364 342.144,327.364 C348.948,327.364 354.456,322.504 355.32,316.24 C356.184,309.544 351.972,304.468 344.952,304.468 L344.952,304.468 Z M351.108,336.328 L330.156,336.328 L322.164,394 L343.116,394 L351.108,336.328 Z M397.656,334.168 C390.312,334.168 382.86,338.812 378.324,345.832 L378.216,336.328 L359.964,336.328 L351.972,394 L372.924,394 L377.244,363.976 C381.024,355.876 384.048,351.556 386.64,351.556 C388.044,351.556 389.016,352.636 388.368,357.172 L383.184,394 L404.136,394 L410.076,351.556 C411.588,340.54 406.62,334.168 397.656,334.168 L397.656,334.168 Z M448.2,334.168 C422.172,334.168 413.316,355.984 413.316,371.212 C413.316,384.604 419.688,394 432.432,394 C438.588,394 443.448,391.192 447.012,387.196 L446.256,391.732 C444.852,401.236 439.776,402.856 434.268,402.856 C429.948,402.856 424.98,401.776 418.5,398.32 L411.696,411.712 C418.392,415.924 427.14,418.516 434.376,418.516 C455.328,418.516 464.076,409.012 467.1,387.736 L473.688,340.972 C465.696,336.22 456.3,334.168 448.2,334.168 L448.2,334.168 Z M447.444,348.856 C449.064,348.856 450.252,349.072 451.872,349.504 L448.416,372.184 C445.824,376.072 442.8,378.448 439.776,378.448 C437.4,378.448 434.808,377.26 434.808,370.456 C434.808,362.464 437.724,348.856 447.444,348.856 L447.444,348.856 Z" id="path-19"></path>
        <mask id="mask-20" maskContentUnits="userSpaceOnUse" maskUnits="objectBoundingBox" x="0" y="0" width="473.688" height="114.048" fill="white">
            <use xlink:href="#path-19"></use>
        </mask>
    </defs>
    <g id="Website" stroke="none" stroke-width="1" fill="none" fill-rule="evenodd">
        <g id="Loading" transform="translate(-362.000000, -191.000000)" stroke="#FFFFFF" stroke-width="2">
            <g id="Logo-Outline" transform="translate(362.000000, 191.000000)">
                <use id="P" mask="url(#mask-2)" xlink:href="#path-1"></use>
                <use id="Path" mask="url(#mask-4)" xlink:href="#path-3"></use>
                <use id="U" mask="url(#mask-6)" xlink:href="#path-5"></use>
                <use id="R" mask="url(#mask-8)" xlink:href="#path-7"></use>
                <use id="Path" mask="url(#mask-10)" xlink:href="#path-9"></use>
                <use id="R" mask="url(#mask-12)" xlink:href="#path-11"></use>
                <use id="Path" mask="url(#mask-14)" xlink:href="#path-13"></use>
                <use id="left" mask="url(#mask-16)" xlink:href="#path-15"></use>
                <use id="right" mask="url(#mask-18)" xlink:href="#path-17"></use>
                <use id="is-loading" mask="url(#mask-20)" xlink:href="#path-19"></use>
            </g>
        </g>
    </g>
</svg>