<?xml version="1.0" encoding="UTF-8" standalone="no"?>
<svg width="475px" height="280px" viewBox="0 0 475 280" version="1.1" xmlns="http://www.w3.org/2000/svg" xmlns:xlink="http://www.w3.org/1999/xlink">
    <!-- Generator: Sketch 3.8.2 (29753) - http://www.bohemiancoding.com/sketch -->
    <title>Logo-dark</title>
    <desc>Created with Sketch.</desc>
    <defs></defs>
    <g id="Logos-V2" stroke="none" stroke-width="1" fill="none" fill-rule="evenodd">
        <g id="PURR-Outline-V2" transform="translate(-263.000000, -548.000000)" stroke="#4A4A4A" stroke-width="2">
            <g id="Logo-dark" transform="translate(265.000000, 549.000000)">
                <path d="M71.6,133.4 L19.4,133.4 L0,273 L45.2,273 L51,231.2 L63.6,231.2 C109.6,231.2 126.6,199.4 126.6,174.6 C126.6,147.8 105.8,133.4 71.6,133.4 L71.6,133.4 Z M63,199 L55.4,199 L60.2,165.2 L66.8,165.2 C76.8,165.2 80,170.2 80,177.4 C80,184.4 76.8,199 63,199 L63,199 Z" id="P"></path>
                <path d="M250.2,133.4 L205,133.4 L192.2,223.8 C190.2,237.8 185.8,244.6 175.8,244.6 C165.8,244.6 163.6,238.2 165.6,224 L178.4,133.4 L133,133.4 L120.4,225 C116,256 131.8,277.4 172,277.4 C212,277.4 233.6,253.8 237.6,225.2 L250.2,133.4 Z" id="U"></path>
                <path d="M303.6,133.4 L250,133.4 L230.6,273 L276,273 L282.6,225.4 L287.6,225.4 L304.4,273 L344.692071,273 L346.713178,257.291216 L329.4,217.8 C354.4,203 357.6,189 357.6,170.8 C357.6,145.2 339.2,133.4 303.6,133.4 Z M291,164.8 L297.8,164.8 C306.2,164.8 311.2,168.4 311.2,175.2 C311.2,183.2 308,194.8 295,194.8 L286.8,194.8 L291,164.8 Z" id="R"></path>
                <path d="M471.6,170.8 C471.6,145.2 453.2,133.4 417.6,133.4 L364,133.4 L344.6,273 L390,273 L396.6,225.4 L401.6,225.4 L418.4,273 L467.6,273 L443.4,217.8 C468.4,203 471.6,189 471.6,170.8 L471.6,170.8 Z M405,164.8 L411.8,164.8 C420.2,164.8 425.2,168.4 425.2,175.2 C425.2,183.2 422,194.8 409,194.8 L400.8,194.8 L405,164.8 Z" id="R"></path>
                <polygon id="^-" points="192.475 0.075 143.525 0.075 80 88.075 132.525 88.075 162.5 39.125 180.375 88.075 231.25 88.075"></polygon>
                <polygon id="--^" points="360.475 0.075 311.525 0.075 248 88.075 300.525 88.075 330.5 39.125 348.375 88.075 399.25 88.075"></polygon>
            </g>
        </g>
    </g>
</svg>