<?xml version="1.0" encoding="UTF-8" standalone="no"?>
<svg width="16px" height="16px" viewBox="0 0 16 16" version="1.1" xmlns="http://www.w3.org/2000/svg" xmlns:xlink="http://www.w3.org/1999/xlink">
    <!-- Generator: Sketch 3.7.1 (28215) - http://www.bohemiancoding.com/sketch -->
    <title>Safari Mask Icon</title>
    <desc>Created with Sketch.</desc>
    <defs></defs>
    <g id="Evolution" stroke="none" stroke-width="1" fill="none" fill-rule="evenodd">
        <g id="Safari-Mask-Icon" fill="#000000">
            <path d="M0,1.99406028 C0,0.892771196 0.894513756,0 1.99406028,0 L14.0059397,0 C15.1072288,0 16,0.894513756 16,1.99406028 L16,14.0059397 C16,15.1072288 15.1054862,16 14.0059397,16 L1.99406028,16 C0.892771196,16 0,15.1054862 0,14.0059397 L0,1.99406028 Z M5.60623053,4.00373832 L3.16635514,4.00373832 L0,8.39003115 L2.61806854,8.39003115 L4.11214953,5.95015576 L5.00311526,8.39003115 L7.53894081,8.39003115 L5.60623053,4.00373832 Z M14.0299065,4.00373832 L11.5900312,4.00373832 L8.42367601,8.39003115 L11.0417445,8.39003115 L12.5358255,5.95015576 L13.4267913,8.39003115 L15.9626168,8.39003115 L14.0299065,4.00373832 Z" id="Rectangle-7"></path>
        </g>
    </g>
</svg>