<?xml version="1.0" encoding="UTF-8" standalone="no"?>
<svg width="4000px" height="3000px" viewBox="0 0 4000 3000" version="1.1" xmlns="http://www.w3.org/2000/svg" xmlns:xlink="http://www.w3.org/1999/xlink">
    <!-- Generator: Sketch 3.8.3 (29802) - http://www.bohemiancoding.com/sketch -->
    <title>Mask</title>
    <desc>Created with Sketch.</desc>
    <defs></defs>
    <g id="Application" stroke="none" stroke-width="1" fill="none" fill-rule="evenodd">
        <g id="PURR-Cover-Wallpapaer">
            <g id="Mask">
                <path d="M2319.93674,1880.91286 L2194.44018,1880.91286 L2146.74013,1745.76272 L2132.54369,1745.76272 L2113.80438,1880.91286 L1984.90068,1880.91286 L2001.10114,1764.3363 C1983.29818,1836.66581 1923.02722,1893.40573 1818.51836,1893.40573 C1704.37896,1893.40573 1659.5182,1832.64495 1672.01107,1744.627 L1685.05436,1649.80432 C1667.17618,1707.35649 1615.39868,1762.23059 1513.57876,1762.23059 L1477.80372,1762.23059 L1461.33585,1880.91286 L1333,1880.91286 L1388.0822,1484.54816 L1536.29307,1484.54816 C1631.28698,1484.54816 1689.86972,1523.67657 1692.37052,1596.61697 L1707.7861,1484.54816 L1836.68981,1484.54816 L1800.34691,1741.78771 C1794.66834,1782.10561 1800.91477,1800.27706 1829.30766,1800.27706 C1857.70054,1800.27706 1870.19342,1780.9699 1875.87199,1741.21986 L1912.21489,1484.54816 L2040.26681,1484.54816 L2192.16875,1484.54816 C2293.24743,1484.54816 2345.49034,1518.05177 2345.49034,1590.73756 C2345.49034,1592.18009 2345.48326,1593.61333 2345.46795,1595.03759 L2360.8225,1484.54816 L2513.00837,1484.54816 C2614.08704,1484.54816 2666.32996,1518.05177 2666.32996,1590.73756 C2666.32996,1642.41261 2657.24423,1682.16265 2586.26202,1724.18412 L2654.9728,1880.91286 L2515.2798,1880.91286 L2467.57975,1745.76272 L2453.38331,1745.76272 L2434.644,1880.91286 L2319.93674,1880.91286 Z M2312.57419,1831.73698 L2265.4224,1724.18412 C2308.96502,1698.40689 2329.21622,1673.48439 2338.36638,1646.13963 L2312.57419,1831.73698 Z M0,0 L4000,0 L4000,3000 L0,3000 L0,0 Z M1511.87519,1670.8055 L1490.29659,1670.8055 L1503.92518,1574.83754 L1522.66448,1574.83754 C1551.05737,1574.83754 1560.14309,1589.03398 1560.14309,1609.47686 C1560.14309,1629.35188 1551.05737,1670.8055 1511.87519,1670.8055 Z M2156.39371,1573.70182 L2175.70088,1573.70182 C2199.5509,1573.70182 2213.74734,1583.92326 2213.74734,1603.23043 C2213.74734,1625.94474 2204.66162,1658.88048 2167.75087,1658.88048 L2144.4687,1658.88048 L2156.39371,1573.70182 Z M2477.23333,1573.70182 L2496.54049,1573.70182 C2520.39052,1573.70182 2534.58696,1583.92326 2534.58696,1603.23043 C2534.58696,1625.94474 2525.50124,1658.88048 2488.59049,1658.88048 L2465.30832,1658.88048 L2477.23333,1573.70182 Z M1879.49209,1106 L1740.50891,1106 L1560.14309,1355.8574 L1709.27673,1355.8574 L1794.38441,1216.87422 L1845.13669,1355.8574 L1989.5855,1355.8574 L1879.49209,1106 Z M2356.49258,1106 L2217.5094,1106 L2037.14359,1355.8574 L2186.27723,1355.8574 L2271.3849,1216.87422 L2322.13719,1355.8574 L2466.586,1355.8574 L2356.49258,1106 Z" id="Rectangle-14" fill="#4A4A4A"></path>
                <path d="M1707.7861,1484.54816 L1672.01107,1744.627 C1659.5182,1832.64495 1707.7861,1484.54816 1707.7861,1484.54816 Z" id="U-Line" stroke="#979797"></path>
                <path d="M2039.98288,1484.54816 L1984.90068,1880.91286 L2039.98288,1484.54816 Z" id="R-Line" stroke="#979797"></path>
                <path d="M2360.8225,1484.54816 L2305.7403,1880.91286 L2360.8225,1484.54816 Z" id="R-Line" stroke="#979797"></path>
            </g>
        </g>
    </g>
</svg>