<?xml version="1.0" encoding="UTF-8"?>
<svg xmlns="http://www.w3.org/2000/svg" xmlns:xlink="http://www.w3.org/1999/xlink" version="1.2" >
<font id="Mairy ExtraBold">
<font-face  font-family="Mairy" units-per-em="1000" ascent="750" descent="-250" font-style="normal" font-weight="800" font-stretch="normal" cap-height="568" x-height="405" underline-position="-91" underline-thickness="35" />
<missing-glyph  horiz-adv-x="567" d="M534 0 L534 626 L23 626 L23 0 L534 0 Z M87 43 L87 64 L68 64 L66 44 C67 44 68 44 68 43 L87 43 Z M488 582 C489 582 490 581 490 580 L488 580 L488 582 Z M470 580 L470 562 L488 562 L488 580 L470 580 Z M488 64 L470 64 L470 45 L490 45 L488 64 Z M69 562 L87 562 L87 582 L68 583 C68 582 68 582 69 582 L69 562 Z M87 562 L470 562 L470 64 L87 64 L87 562 Z " />
<glyph glyph-name="space" unicode="&#x20;" horiz-adv-x="189" d="" />
<glyph glyph-name="exclam" unicode="&#x21;" horiz-adv-x="223" d="M178 536 C178 555 165 568 146 568 L76 568 C57 568 45 555 45 536 L56 205 C56 186 68 173 87 173 L135 173 C154 173 167 186 167 205 L178 536 Z M40 67 C40 27 71 -5 111 -5 C151 -5 183 27 183 67 C183 107 151 138 111 138 C71 138 40 107 40 67 L40 67 Z " />
<glyph glyph-name="quotedbl" unicode="&#x22;" horiz-adv-x="390" d="M72 568 C53 568 40 554 40 535 L53 380 C54 361 66 349 85 349 L135 349 C154 349 166 361 167 380 L180 535 C180 554 167 568 148 568 L72 568 Z M242 568 C223 568 210 554 210 535 L223 380 C224 361 236 349 255 349 L305 349 C324 349 336 361 337 380 L350 535 C350 554 337 568 318 568 L242 568 Z " />
<glyph glyph-name="numbersign" unicode="&#x23;" horiz-adv-x="734" d="M620 451 L650 536 C650 555 637 568 618 568 L545 568 C526 568 520 557 513 544 C502 515 491 482 480 451 L378 451 L408 536 C408 555 395 568 376 568 L304 568 C285 568 278 557 271 544 L238 451 L126 451 C107 451 94 438 94 419 L94 361 C94 342 107 329 126 329 L197 329 C186 298 176 274 167 243 L72 243 C53 243 40 231 40 212 L40 153 C40 134 53 121 72 121 L123 121 L93 35 C93 15 106 0 125 0 L198 0 C217 0 223 12 230 25 C241 56 253 90 264 121 L365 121 L335 35 C335 15 348 0 367 0 L439 0 C458 0 464 12 472 25 C483 56 495 90 506 121 L608 121 C627 121 640 134 640 153 L640 212 C640 231 627 243 608 243 L548 243 C559 275 569 298 578 329 L662 329 C681 329 694 342 694 361 L694 419 C694 438 681 451 662 451 L620 451 Z M408 243 L307 243 C318 275 326 298 337 329 L438 329 L408 243 Z " />
<glyph glyph-name="dollar" unicode="&#x24;" horiz-adv-x="516" d="M476 165 C476 295 388 330 308 349 L308 444 L385 435 C406 435 421 439 424 464 C427 496 428 509 428 517 C428 534 411 544 396 549 C365 558 335 564 308 567 L308 640 C308 659 300 672 281 672 L238 672 C219 672 213 659 213 640 L213 568 C74 555 40 486 40 387 C40 283 130 254 213 235 L213 117 C185 121 148 129 120 140 C113 143 111 142 108 142 C95 142 81 136 76 121 L55 72 C54 68 53 65 53 62 C53 46 67 32 78 27 C117 8 172 -3 213 -6 L213 -63 C213 -82 219 -95 238 -95 L281 -95 C300 -95 308 -82 308 -63 L308 -2 C420 13 476 65 476 165 L476 165 Z M176 405 C176 428 189 437 213 444 L213 370 C190 377 176 386 176 405 L176 405 Z M308 207 C328 196 340 184 340 164 C340 144 327 132 308 124 L308 207 Z " />
<glyph glyph-name="percent" unicode="&#x25;" horiz-adv-x="713" d="M181 32 C181 13 194 0 213 0 L280 0 C300 0 306 11 313 24 L531 536 C531 555 518 568 499 568 L431 568 C412 568 405 559 398 544 L181 32 Z M161 416 C153 416 138 420 138 444 C138 468 153 473 161 473 C169 473 184 468 184 444 C184 420 169 416 161 416 L161 416 Z M161 318 C233 318 282 356 282 444 C282 532 233 572 161 572 C89 572 40 532 40 444 C40 356 89 318 161 318 L161 318 Z M552 93 C544 93 529 97 529 121 C529 145 544 150 552 150 C560 150 575 145 575 121 C575 97 560 93 552 93 L552 93 Z M552 -5 C624 -5 673 33 673 121 C673 209 624 249 552 249 C480 249 431 209 431 121 C431 33 480 -5 552 -5 L552 -5 Z " />
<glyph glyph-name="ampersand" unicode="&#x26;" horiz-adv-x="601" d="M265 116 C210 116 183 130 183 159 C183 186 187 202 226 211 L310 128 C296 120 281 116 265 116 L265 116 Z M400 40 C433 13 459 -5 490 -5 C505 -5 535 1 551 14 C566 25 581 41 581 57 C581 64 578 71 572 79 L552 106 C545 115 537 119 526 119 C513 119 507 121 496 132 L259 367 C246 379 239 392 239 407 C239 434 249 449 278 449 C323 449 325 425 325 406 C325 390 325 382 324 371 C323 360 320 351 320 344 C320 323 333 316 350 316 L409 316 C454 316 468 378 468 407 C468 511 414 572 278 572 C147 572 96 511 96 412 C96 381 105 342 130 309 C58 288 40 223 40 160 C40 48 128 -5 263 -5 C326 -5 369 13 400 40 L400 40 Z " />
<glyph glyph-name="quotesingle" unicode="&#x27;" horiz-adv-x="220" d="M72 568 C53 568 40 554 40 535 L53 380 C54 361 66 349 85 349 L135 349 C154 349 166 361 167 380 L180 535 C180 554 167 568 148 568 L72 568 Z " />
<glyph glyph-name="parenleft" unicode="&#x28;" horiz-adv-x="277" d="M91 -117 C96 -134 104 -146 123 -146 L195 -146 C214 -146 227 -131 227 -112 C203 12 184 160 184 281 C184 406 200 565 227 678 C227 698 214 712 195 712 L123 712 C104 712 96 702 91 683 C59 565 50 462 50 288 C50 159 67 4 91 -117 L91 -117 Z " />
<glyph glyph-name="parenright" unicode="&#x29;" horiz-adv-x="277" d="M186 -117 C210 4 227 159 227 288 C227 462 218 565 186 683 C181 702 173 712 154 712 L82 712 C63 712 50 698 50 678 C77 565 93 406 93 281 C93 160 74 12 50 -112 C50 -131 63 -146 82 -146 L154 -146 C173 -146 181 -134 186 -117 L186 -117 Z " />
<glyph glyph-name="asterisk" unicode="&#x2a;" horiz-adv-x="434" d="M182 568 C176 568 170 566 164 561 C157 556 153 548 153 536 L163 460 L119 492 C112 497 103 497 100 497 C88 497 79 491 73 479 L43 416 C41 412 40 408 40 403 C40 392 46 378 57 375 L122 361 L84 326 C79 321 77 315 77 307 C77 296 81 284 88 279 C142 239 152 238 156 238 C167 238 178 241 185 252 L217 312 L249 252 C256 241 267 238 278 238 C282 238 293 239 346 279 C353 284 357 296 357 307 C357 315 355 321 350 326 L312 361 L377 375 C388 378 394 392 394 403 C394 408 393 412 391 416 L361 479 C355 491 346 497 334 497 C331 497 322 497 315 492 L271 460 L281 536 C281 548 277 556 270 561 C264 566 258 568 252 568 L182 568 Z " />
<glyph glyph-name="plus" unicode="&#x2b;" horiz-adv-x="393" d="M321 268 L263 268 L263 336 C263 355 250 368 231 368 L162 368 C143 368 130 355 130 336 L130 268 L72 268 C53 268 40 255 40 236 L40 179 C40 160 53 147 72 147 L130 147 L130 80 C130 61 143 48 162 48 L231 48 C250 48 263 61 263 80 L263 147 L321 147 C340 147 353 160 353 179 L353 236 C353 255 340 268 321 268 L321 268 Z " />
<glyph glyph-name="comma" unicode="&#x2c;" horiz-adv-x="187" d="M136 114 L64 114 C49 114 31 101 31 86 C31 62 39 43 39 23 C39 -32 23 -38 15 -81 C15 -100 28 -115 47 -115 L111 -115 C159 -115 172 -6 172 25 C172 51 172 114 136 114 L136 114 Z " />
<glyph glyph-name="hyphen" unicode="&#x2d;" horiz-adv-x="395" d="M323 143 C342 143 355 156 355 175 L355 232 C355 251 342 264 323 264 L72 264 C53 264 40 251 40 232 L40 175 C40 156 53 143 72 143 L323 143 Z " />
<glyph glyph-name="period" unicode="&#x2e;" horiz-adv-x="223" d="M40 67 C40 27 71 -5 111 -5 C151 -5 183 27 183 67 C183 107 151 138 111 138 C71 138 40 107 40 67 L40 67 Z " />
<glyph glyph-name="slash" unicode="&#x2f;" horiz-adv-x="440" d="M15 -114 C15 -133 28 -146 47 -146 L114 -146 C134 -146 140 -135 147 -122 L425 678 C425 697 412 710 393 710 L325 710 C306 710 299 701 292 686 L15 -114 Z " />
<glyph glyph-name="zero" unicode="0" horiz-adv-x="554" d="M278 116 C238 116 173 131 173 280 C173 442 237 450 277 450 C317 450 381 442 381 280 C381 131 315 116 278 116 L278 116 Z M276 -5 C413 -5 514 59 514 280 C514 516 412 572 277 572 C142 572 40 516 40 280 C40 59 141 -5 276 -5 L276 -5 Z " />
<glyph glyph-name="one" unicode="1" horiz-adv-x="348" d="M17 459 C12 455 10 446 10 438 L10 349 C10 330 24 317 43 317 L175 404 L175 32 C175 13 188 0 207 0 L276 0 C295 0 308 13 308 32 L308 536 C308 555 295 568 276 568 L183 568 L17 459 Z " />
<glyph glyph-name="two" unicode="2" horiz-adv-x="457" d="M90 554 C75 550 59 539 59 522 C59 514 60 500 63 468 C66 441 81 439 102 439 C140 442 191 449 205 449 C268 449 289 447 289 416 C289 309 30 361 30 125 L30 32 C30 13 43 0 62 0 L380 0 C399 0 412 13 412 32 L412 89 C412 108 399 121 380 121 L163 121 L163 128 C163 248 422 223 422 400 C422 496 395 572 212 572 C190 572 137 567 90 554 L90 554 Z " />
<glyph glyph-name="three" unicode="3" horiz-adv-x="432" d="M184 223 C233 222 259 194 259 171 C259 131 240 116 184 116 C176 116 138 116 103 121 L63 126 C42 126 27 122 24 97 C21 64 20 48 20 41 C20 24 36 13 52 9 C101 -2 162 -5 184 -5 C321 -5 392 61 392 172 C392 216 374 256 345 283 C374 307 392 352 392 399 C392 503 321 572 184 572 C162 572 101 570 52 559 C36 556 20 545 20 528 C20 520 21 503 24 471 C27 446 42 442 63 442 C101 445 171 450 184 450 C233 450 259 429 259 405 C259 366 240 344 184 344 L140 344 C121 344 108 331 108 312 L108 255 C108 236 121 223 140 223 L184 223 Z " />
<glyph glyph-name="four" unicode="4" horiz-adv-x="477" d="M430 131 C449 131 462 144 462 163 L462 220 C462 239 449 252 430 252 L404 252 L404 536 C404 555 391 568 370 568 L307 568 C291 568 276 554 265 542 L15 246 L15 163 C15 144 28 131 47 131 L271 131 L271 32 C271 13 284 0 303 0 L372 0 C391 0 404 13 404 32 L404 131 L430 131 Z M197 252 L271 341 L271 252 L197 252 Z " />
<glyph glyph-name="five" unicode="5" horiz-adv-x="448" d="M173 345 L173 447 L375 447 C394 447 407 460 407 479 L407 536 C407 555 394 568 375 568 L72 568 C53 568 40 555 40 536 L40 254 C40 235 53 222 72 222 L226 222 C273 222 290 193 290 175 C290 131 271 116 215 116 C206 116 158 117 124 122 L83 127 C63 127 48 123 45 98 C42 65 41 49 41 42 C41 25 57 14 73 10 C121 -1 183 -5 205 -5 C341 -5 423 61 423 172 C423 220 418 345 222 345 L173 345 Z " />
<glyph glyph-name="six" unicode="6" horiz-adv-x="465" d="M40 189 C40 64 101 -5 238 -5 C375 -5 435 64 435 189 C435 324 374 364 245 364 C224 364 192 356 173 347 L173 371 C173 435 232 451 267 451 C290 451 313 451 348 434 C353 431 360 430 364 430 C376 430 388 436 393 449 L412 498 C413 500 413 503 413 507 C413 519 408 524 397 531 C352 566 303 572 258 572 C122 572 40 495 40 360 L40 189 Z M238 244 C299 244 302 204 302 180 C302 156 293 117 238 117 C185 117 173 157 173 180 C173 204 179 244 238 244 L238 244 Z " />
<glyph glyph-name="seven" unicode="7" horiz-adv-x="397" d="M37 568 C18 568 5 555 5 536 L5 479 C5 460 18 447 37 447 L227 447 L59 33 C59 14 72 0 91 0 L169 0 C188 0 194 14 201 30 L372 451 L372 536 C372 555 359 568 340 568 L37 568 Z " />
<glyph glyph-name="eight" unicode="8" horiz-adv-x="474" d="M237 118 C184 118 173 140 173 171 C173 200 190 221 237 221 C284 221 301 200 301 171 C301 140 290 118 237 118 L237 118 Z M237 345 C190 345 173 361 173 398 C173 429 194 449 237 449 C280 449 301 429 301 398 C301 361 284 345 237 345 L237 345 Z M237 -5 C373 -5 434 61 434 172 C434 216 416 256 387 283 C416 307 434 352 434 399 C434 503 373 572 237 572 C101 572 40 503 40 399 C40 352 58 307 87 283 C58 256 40 216 40 172 C40 61 101 -5 237 -5 L237 -5 Z " />
<glyph glyph-name="nine" unicode="9" horiz-adv-x="465" d="M425 378 C425 503 364 572 227 572 C90 572 30 503 30 378 C30 242 90 179 227 179 C248 179 273 185 292 194 C287 127 234 116 198 116 C175 116 152 116 117 133 C112 136 105 137 101 137 C89 137 77 131 72 118 L53 69 C52 67 52 64 52 60 C52 48 57 43 68 36 C113 1 162 -5 207 -5 C343 -5 425 72 425 207 L425 378 Z M227 300 C166 300 163 342 163 377 C163 412 172 450 227 450 C280 450 292 412 292 377 C292 342 286 300 227 300 L227 300 Z " />
<glyph glyph-name="colon" unicode="&#x3a;" horiz-adv-x="228" d="M40 337 C40 298 74 264 113 264 C153 264 187 298 187 337 C187 377 153 411 113 411 C74 411 40 377 40 337 L40 337 Z M45 67 C45 27 76 -5 116 -5 C156 -5 188 27 188 67 C188 107 156 138 116 138 C76 138 45 107 45 67 L45 67 Z " />
<glyph glyph-name="semicolon" unicode="&#x3b;" horiz-adv-x="237" d="M50 337 C50 298 84 264 123 264 C163 264 197 298 197 337 C197 377 163 411 123 411 C84 411 50 377 50 337 L50 337 Z M89 114 C74 114 56 101 56 86 C56 62 64 43 64 23 C64 -32 48 -38 40 -81 C40 -100 53 -115 72 -115 L136 -115 C184 -115 197 -6 197 25 C197 51 197 114 161 114 L89 114 Z " />
<glyph glyph-name="less" unicode="&#x3c;" horiz-adv-x="385" d="M40 173 C40 157 52 144 68 137 L312 27 C331 27 345 40 345 59 L345 139 C345 155 329 164 317 171 L215 217 L317 263 C329 270 345 279 345 295 L345 375 C345 394 331 407 312 407 L68 297 C52 290 40 277 40 261 L40 173 Z " />
<glyph glyph-name="equal" unicode="&#x3d;" horiz-adv-x="395" d="M323 43 C342 43 355 56 355 75 L355 132 C355 151 342 164 323 164 L72 164 C53 164 40 151 40 132 L40 75 C40 56 53 43 72 43 L323 43 Z M323 201 C342 201 355 214 355 233 L355 290 C355 309 342 322 323 322 L72 322 C53 322 40 309 40 290 L40 233 C40 214 53 201 72 201 L323 201 Z " />
<glyph glyph-name="greater" unicode="&#x3e;" horiz-adv-x="385" d="M345 261 C345 277 333 290 317 297 L73 407 C54 407 40 394 40 375 L40 295 C40 279 56 270 68 263 L170 217 L68 171 C56 164 40 155 40 139 L40 59 C40 40 54 27 73 27 L317 137 C333 144 345 157 345 173 L345 261 Z " />
<glyph glyph-name="question" unicode="&#x3f;" horiz-adv-x="437" d="M102 193 C102 174 115 161 134 161 L203 161 C222 161 235 174 235 193 L235 203 C235 304 397 241 397 400 C397 496 376 572 192 572 C171 572 119 567 71 554 C56 550 40 539 40 522 C40 514 40 500 43 468 C46 441 62 439 82 439 C120 442 171 449 185 449 C248 449 264 441 264 406 C264 328 102 409 102 208 L102 193 Z M97 67 C97 107 128 138 168 138 C208 138 240 107 240 67 C240 27 208 -5 168 -5 C128 -5 97 27 97 67 L97 67 Z " />
<glyph glyph-name="at" unicode="&#x40;" horiz-adv-x="629" d="M363 174 C363 219 379 226 416 226 C423 226 445 224 456 216 L456 124 C444 119 420 116 413 116 C374 116 363 126 363 174 L363 174 Z M173 302 C173 441 286 450 322 450 C357 450 448 444 456 341 C433 349 403 350 392 350 C289 350 224 310 224 175 C224 39 279 -5 416 -5 C461 -5 522 1 567 16 C582 23 589 35 589 50 L589 288 C589 525 458 572 322 572 C188 572 40 530 40 302 L40 28 C40 -105 71 -191 207 -191 C232 -191 269 -186 300 -177 C315 -173 320 -157 320 -138 L306 -80 C301 -65 289 -56 274 -56 C258 -60 233 -64 222 -64 C175 -64 173 -16 173 10 L173 302 Z " />
<glyph glyph-name="A" unicode="A" horiz-adv-x="516" d="M260 362 L300 247 L220 247 L260 362 Z M516 71 C516 84 510 93 499 99 C492 102 489 114 482 130 L339 539 C332 556 319 568 303 568 L216 568 C200 568 187 556 180 539 L5 32 C5 13 18 0 37 0 L111 0 C127 0 141 14 145 30 L177 124 L342 124 C357 88 357 81 362 68 C373 36 392 -5 445 -5 C474 -5 516 5 516 37 L516 71 Z " />
<glyph glyph-name="B" unicode="B" horiz-adv-x="474" d="M222 446 C261 446 295 437 295 394 C295 352 261 344 222 344 L173 344 L173 446 L222 446 Z M173 121 L173 223 L248 223 C287 223 321 215 321 174 C321 129 287 121 248 121 L173 121 Z M72 568 C53 568 40 555 40 536 L40 33 C40 14 53 0 72 0 L248 0 C384 0 454 38 454 173 C454 232 423 273 376 294 C419 317 428 355 428 394 C428 530 358 568 222 568 L72 568 Z " />
<glyph glyph-name="C" unicode="C" horiz-adv-x="456" d="M421 530 C374 561 326 572 281 572 C147 572 25 516 25 280 C25 68 147 -5 281 -5 C326 -5 374 7 421 38 C432 45 441 57 441 70 L418 123 C413 135 400 141 389 141 C382 141 377 139 372 136 C329 121 313 116 290 116 C247 116 158 147 158 280 C158 442 247 450 290 450 C310 450 340 448 372 433 C376 430 384 428 389 428 C400 428 413 434 418 447 C439 492 441 494 441 498 C441 511 432 523 421 530 L421 530 Z " />
<glyph glyph-name="D" unicode="D" horiz-adv-x="482" d="M253 0 C390 0 457 74 457 209 L457 359 C457 494 390 568 253 568 L72 568 C53 568 40 555 40 536 L40 33 C40 14 53 0 72 0 L253 0 Z M324 207 C324 144 291 121 251 121 L173 121 L173 446 L251 446 C291 446 324 423 324 360 L324 207 Z " />
<glyph glyph-name="E" unicode="E" horiz-adv-x="436" d="M389 0 C408 0 421 13 421 32 L421 89 C421 108 408 121 389 121 L173 121 L173 223 L329 223 C348 223 360 236 360 255 L360 312 C360 331 348 344 329 344 L173 344 L173 446 L389 446 C408 446 421 459 421 478 L421 536 C421 555 408 568 389 568 L72 568 C53 568 40 555 40 536 L40 32 C40 13 53 0 72 0 L389 0 Z " />
<glyph glyph-name="F" unicode="F" horiz-adv-x="436" d="M40 32 C40 13 52 0 71 0 L141 0 C160 0 173 13 173 32 L173 223 L329 223 C348 223 360 236 360 255 L360 312 C360 331 348 344 329 344 L173 344 L173 446 L389 446 C408 446 421 459 421 478 L421 536 C421 555 408 568 389 568 L72 568 C53 568 40 555 40 536 L40 32 Z " />
<glyph glyph-name="G" unicode="G" horiz-adv-x="515" d="M296 327 C277 327 264 315 264 296 L264 238 C264 219 277 206 296 206 L347 206 L347 129 C328 117 305 116 292 116 C202 116 158 194 158 280 C158 442 248 450 289 450 C310 450 362 446 395 432 C399 429 406 427 411 427 C423 427 435 433 440 446 C462 492 463 494 463 498 C463 513 457 523 444 530 C399 562 323 572 281 572 C146 572 25 516 25 280 C25 64 146 -5 281 -5 C306 -5 340 -2 377 25 L383 18 C391 7 402 0 421 0 L448 0 C467 0 480 13 480 32 L480 296 C480 315 467 327 448 327 L296 327 Z " />
<glyph glyph-name="H" unicode="H" horiz-adv-x="511" d="M338 227 L338 32 C338 13 350 0 369 0 L439 0 C458 0 471 13 471 32 L471 536 C471 555 458 568 439 568 L369 568 C350 568 338 555 338 536 L338 348 L173 348 L173 536 C173 555 161 568 142 568 L72 568 C53 568 40 555 40 536 L40 32 C40 13 53 0 72 0 L142 0 C161 0 173 13 173 32 L173 227 L338 227 Z " />
<glyph glyph-name="I" unicode="I" horiz-adv-x="213" d="M173 536 C173 555 160 568 141 568 L71 568 C52 568 40 555 40 536 L40 32 C40 13 52 0 71 0 L141 0 C160 0 173 13 173 32 L173 536 Z " />
<glyph glyph-name="J" unicode="J" horiz-adv-x="423" d="M20 30 C59 6 110 -5 153 -5 C288 -5 383 17 383 241 L383 536 C383 555 370 568 351 568 L282 568 C263 568 250 555 250 536 L250 239 C250 124 200 116 160 116 C140 116 100 125 76 136 C71 139 66 140 59 140 C47 140 37 137 29 122 C10 89 5 79 2 72 C1 68 0 65 0 62 C0 47 9 37 20 30 L20 30 Z " />
<glyph glyph-name="K" unicode="K" horiz-adv-x="507" d="M464 536 C464 555 452 568 433 568 L357 568 C340 568 329 554 325 538 C301 465 222 352 173 338 L173 536 C173 555 160 568 141 568 L72 568 C53 568 40 555 40 536 L40 32 C40 13 53 0 72 0 L141 0 C160 0 173 13 173 32 L173 197 C198 205 224 216 249 233 C260 217 286 164 350 28 C357 13 373 0 388 0 L465 0 C484 0 497 14 497 34 L395 242 C376 279 363 299 348 318 C409 385 464 492 464 536 L464 536 Z " />
<glyph glyph-name="L" unicode="L" horiz-adv-x="417" d="M375 0 C394 0 407 13 407 32 L407 89 C407 108 394 121 375 121 L173 121 L173 536 C173 555 160 568 141 568 L72 568 C53 568 40 555 40 536 L40 32 C40 13 53 0 72 0 L375 0 Z " />
<glyph glyph-name="M" unicode="M" horiz-adv-x="622" d="M334 93 C346 93 362 104 366 115 L443 312 C450 224 451 119 458 31 C459 14 473 0 490 0 L558 0 C575 0 592 18 592 38 C591 43 590 64 588 101 C583 162 578 288 565 536 C564 555 553 568 534 568 L433 568 C422 568 413 563 407 554 L311 327 L215 554 C209 563 200 568 189 568 L88 568 C69 568 58 555 57 536 C44 288 37 162 34 101 C31 64 30 43 30 38 C30 18 47 0 64 0 L132 0 C149 0 163 14 164 31 C171 119 172 224 179 312 L256 115 C260 104 276 93 287 93 L334 93 L334 93 Z " />
<glyph glyph-name="N" unicode="N" horiz-adv-x="531" d="M459 0 C478 0 491 13 491 32 L491 536 C491 555 478 568 459 568 L390 568 C371 568 358 555 358 536 L358 273 C300 371 246 447 187 544 C176 560 163 568 148 568 L72 568 C53 568 40 555 40 536 L40 32 C40 13 53 0 72 0 L141 0 C160 0 173 13 173 32 L173 317 C233 217 297 123 356 24 C367 8 381 0 394 0 L459 0 Z " />
<glyph glyph-name="O" unicode="O" horiz-adv-x="558" d="M280 116 C240 116 164 126 164 280 C164 442 239 450 279 450 C319 450 394 442 394 280 C394 126 317 116 280 116 L280 116 Z M280 -5 C413 -5 528 59 528 280 C528 516 413 572 279 572 C145 572 30 516 30 280 C30 59 144 -5 280 -5 L280 -5 Z " />
<glyph glyph-name="P" unicode="P" horiz-adv-x="455" d="M173 304 L173 445 L247 445 C286 445 312 418 312 374 C312 329 286 304 247 304 L173 304 Z M72 568 C53 568 40 555 40 536 L40 32 C40 13 53 0 72 0 L141 0 C160 0 173 13 173 32 L173 182 L237 182 C374 182 445 238 445 374 C445 510 374 568 237 568 L72 568 Z " />
<glyph glyph-name="Q" unicode="Q" horiz-adv-x="558" d="M528 280 C528 516 413 572 279 572 C145 572 30 516 30 280 C30 81 122 8 240 -3 C224 -35 180 -36 157 -39 C144 -39 134 -49 134 -62 L134 -127 C134 -136 141 -151 149 -151 C174 -151 251 -132 301 -132 C341 -132 429 -137 469 -156 C482 -156 492 -146 492 -133 L492 -68 C492 -55 481 -49 469 -45 C445 -37 369 -27 345 -24 C348 -8 365 3 363 5 C458 29 528 108 528 280 L528 280 Z M280 116 C240 116 164 126 164 280 C164 442 239 450 279 450 C319 450 394 442 394 280 C394 126 317 116 280 116 L280 116 Z " />
<glyph glyph-name="R" unicode="R" horiz-adv-x="474" d="M72 568 C53 568 40 555 40 536 L40 32 C40 13 53 0 72 0 L141 0 C160 0 173 13 173 32 L173 182 L258 182 L305 62 C318 27 328 -5 384 -5 C412 -5 454 5 454 37 L454 71 C454 84 449 94 438 99 C435 100 429 111 421 132 L388 215 C432 246 454 299 454 374 C454 510 385 568 248 568 L72 568 Z M173 304 L173 445 L257 445 C296 445 321 418 321 374 C321 329 296 304 257 304 L173 304 Z " />
<glyph glyph-name="S" unicode="S" horiz-adv-x="476" d="M105 142 C98 145 96 144 93 144 C80 144 66 138 61 123 L40 74 C39 70 38 67 38 64 C38 48 52 34 63 29 C109 8 174 -5 217 -5 C378 -5 461 46 461 167 C461 407 161 327 161 407 C161 443 193 450 256 450 C268 450 311 443 348 440 L370 437 C391 437 406 441 409 466 C412 498 413 511 413 519 C413 536 396 546 381 551 C330 567 270 572 250 572 C67 572 25 499 25 389 C25 198 325 264 325 166 C325 121 252 116 228 116 C201 116 145 126 105 142 L105 142 Z " />
<glyph glyph-name="T" unicode="T" horiz-adv-x="439" d="M286 447 L397 447 C416 447 429 460 429 479 L429 536 C429 555 416 568 397 568 L41 568 C22 568 10 555 10 536 L10 479 C10 460 22 447 41 447 L153 447 L153 32 C153 13 165 0 184 0 L254 0 C273 0 286 13 286 32 L286 447 Z " />
<glyph glyph-name="U" unicode="U" horiz-adv-x="528" d="M264 -5 C401 -5 488 31 488 254 L488 536 C488 555 475 568 456 568 L387 568 C368 568 355 555 355 536 L355 247 C355 123 304 116 264 116 C224 116 173 123 173 247 L173 536 C173 555 160 568 141 568 L72 568 C53 568 40 555 40 536 L40 254 C40 31 127 -5 264 -5 L264 -5 Z " />
<glyph glyph-name="V" unicode="V" horiz-adv-x="518" d="M310 0 C327 0 339 12 346 29 L513 533 C513 553 500 568 481 568 L410 568 C394 568 380 554 375 538 L259 182 L143 538 C138 554 124 568 108 568 L37 568 C18 568 5 553 5 533 L172 29 C179 12 191 0 208 0 L310 0 Z " />
<glyph glyph-name="W" unicode="W" horiz-adv-x="636" d="M434 -5 C578 -5 601 81 601 332 C601 374 594 498 583 538 C580 554 570 568 551 568 L480 568 C461 568 448 553 448 533 C461 491 468 372 468 333 C468 160 463 116 427 116 C390 116 387 209 387 254 L387 536 C387 555 374 568 355 568 L286 568 C266 568 254 553 254 536 L254 188 C254 148 252 116 215 116 C196 116 173 116 173 215 L173 536 C173 555 160 568 141 568 L72 568 C53 568 40 555 40 536 L40 260 C40 55 71 -5 210 -5 C261 -5 291 5 322 50 C350 7 385 -5 434 -5 L434 -5 Z " />
<glyph glyph-name="X" unicode="X" horiz-adv-x="492" d="M334 32 C342 20 354 3 389 3 L456 3 C475 3 487 17 487 36 L325 284 C359 337 454 481 487 535 C487 554 475 568 456 568 L389 568 C356 568 343 553 334 538 L246 404 L158 538 C149 553 136 568 103 568 L36 568 C17 568 5 554 5 535 C38 481 133 337 167 284 L5 36 C5 17 17 3 36 3 L103 3 C138 3 150 20 158 32 L246 165 L334 32 Z " />
<glyph glyph-name="Y" unicode="Y" horiz-adv-x="492" d="M313 32 L313 165 L487 534 C487 554 474 568 455 568 L378 568 C363 568 351 554 344 539 L246 332 L148 539 C141 554 129 568 114 568 L37 568 C18 568 5 554 5 534 L179 165 L179 32 C179 13 192 0 211 0 L281 0 C300 0 313 13 313 32 L313 32 Z " />
<glyph glyph-name="Z" unicode="Z" horiz-adv-x="414" d="M10 116 L10 32 C10 13 23 0 42 0 L372 0 C391 0 404 13 404 32 L404 90 C404 109 391 122 372 122 L177 122 L404 452 L404 536 C404 555 391 568 372 568 L42 568 C23 568 10 555 10 536 L10 478 C10 459 23 446 42 446 L241 446 L10 116 Z " />
<glyph glyph-name="bracketleft" unicode="&#x5b;" horiz-adv-x="317" d="M82 712 C63 712 50 699 50 680 L50 -114 C50 -133 63 -146 82 -146 L235 -146 C254 -146 267 -133 267 -114 L267 -57 C267 -38 254 -25 235 -25 L183 -25 L183 591 L235 591 C254 591 267 604 267 623 L267 680 C267 699 254 712 235 712 L82 712 Z " />
<glyph glyph-name="backslash" unicode="&#x5c;" horiz-adv-x="440" d="M148 686 C141 701 134 710 115 710 L47 710 C28 710 15 697 15 678 L293 -122 C300 -135 306 -146 326 -146 L393 -146 C412 -146 425 -133 425 -114 L148 686 Z " />
<glyph glyph-name="bracketright" unicode="&#x5d;" horiz-adv-x="317" d="M82 712 C63 712 50 699 50 680 L50 623 C50 604 63 591 82 591 L134 591 L134 -25 L82 -25 C63 -25 50 -38 50 -57 L50 -114 C50 -133 63 -146 82 -146 L235 -146 C254 -146 267 -133 267 -114 L267 680 C267 699 254 712 235 712 L82 712 Z " />
<glyph glyph-name="asciicircum" unicode="&#x5e;" horiz-adv-x="388" d="M146 568 C130 568 118 556 111 540 L40 386 C40 367 53 352 72 352 L145 352 C164 352 174 364 179 381 L194 429 L209 381 C214 364 224 352 243 352 L316 352 C335 352 348 367 348 386 L277 540 C270 556 258 568 242 568 L146 568 Z " />
<glyph glyph-name="underscore" unicode="&#x5f;" horiz-adv-x="418" d="M347 -126 C366 -126 378 -113 378 -94 L378 -37 C378 -18 366 -5 347 -5 L72 -5 C53 -5 40 -18 40 -37 L40 -94 C40 -113 53 -126 72 -126 L347 -126 Z " />
<glyph glyph-name="grave" unicode="&#x60;" horiz-adv-x="236" d="M175 536 C174 555 162 568 143 568 L72 568 C53 568 40 554 40 534 C51 491 65 438 76 395 C79 379 91 365 108 365 L164 365 C183 365 196 379 196 398 L175 536 Z " />
<glyph glyph-name="a" unicode="a" horiz-adv-x="417" d="M244 135 C241 131 237 128 233 125 C226 120 215 116 204 116 C176 116 153 128 153 191 C153 242 172 284 244 289 L244 135 Z M356 387 C305 404 265 411 224 411 C91 411 15 320 15 192 C15 89 49 -5 161 -5 C176 -5 212 -3 253 28 L262 17 C273 6 281 0 296 0 L346 0 C365 0 377 12 377 31 L377 354 C377 369 371 380 356 387 L356 387 Z " />
<glyph glyph-name="b" unicode="b" horiz-adv-x="440" d="M277 210 C277 147 261 116 214 116 C207 116 186 117 173 122 L173 279 C185 287 203 289 210 289 C249 289 277 270 277 210 L277 210 Z M40 50 C40 35 46 24 61 17 C108 1 167 -5 211 -5 C347 -5 415 77 415 210 C415 342 335 411 234 411 C223 411 197 410 173 401 L173 537 C173 556 161 568 142 568 L71 568 C52 568 40 556 40 537 L40 50 Z " />
<glyph glyph-name="c" unicode="c" horiz-adv-x="407" d="M366 370 C321 403 274 411 229 411 C94 411 25 336 25 204 C25 71 94 -5 229 -5 C273 -5 319 3 366 35 C377 42 385 54 385 67 L362 119 C357 132 345 137 334 137 C327 137 321 136 317 133 C282 116 260 116 237 116 C198 116 158 142 158 204 C158 265 198 289 237 289 C260 289 282 289 317 273 C322 270 327 268 334 268 C346 268 357 273 362 286 C384 332 385 334 385 338 C385 351 377 362 366 370 L366 370 Z " />
<glyph glyph-name="d" unicode="d" horiz-adv-x="440" d="M163 210 C163 270 191 289 230 289 C237 289 255 287 267 279 L267 122 C254 117 233 116 226 116 C179 116 163 147 163 210 L163 210 Z M400 537 C400 556 388 568 369 568 L298 568 C279 568 267 556 267 537 L267 401 C243 410 217 411 206 411 C105 411 25 342 25 210 C25 77 93 -5 229 -5 C273 -5 332 1 379 17 C394 24 400 35 400 50 L400 537 Z " />
<glyph glyph-name="e" unicode="e" horiz-adv-x="414" d="M320 135 C293 116 267 111 231 111 C186 111 160 121 160 146 C184 139 212 137 236 137 C328 137 387 184 387 280 C387 355 325 411 217 411 C82 411 25 330 25 207 C25 74 87 -5 223 -5 C267 -5 320 -2 367 35 C378 43 385 54 385 67 C385 69 384 72 383 76 L362 121 C356 133 347 139 336 139 C331 139 324 138 320 135 L320 135 Z M217 289 C237 289 254 285 254 265 C254 248 239 240 208 240 C196 240 174 246 159 255 C170 275 192 289 217 289 L217 289 Z " />
<glyph glyph-name="f" unicode="f" horiz-adv-x="325" d="M284 283 C303 283 316 295 316 314 L316 374 C316 393 303 405 284 405 L206 405 C206 431 211 482 254 482 C269 482 282 478 297 478 C312 478 322 488 326 501 L340 556 C340 575 332 588 313 595 C285 604 261 607 240 607 C116 607 78 517 73 405 L37 405 C18 405 5 393 5 374 L5 314 C5 295 18 283 37 283 L73 283 L73 31 C73 12 85 0 104 0 L175 0 C194 0 206 12 206 31 L206 283 L284 283 Z " />
<glyph glyph-name="g" unicode="g" horiz-adv-x="417" d="M355 387 C307 404 264 411 224 411 C91 411 15 320 15 192 C15 122 44 43 101 16 C66 -5 48 -50 48 -97 C48 -193 141 -219 182 -219 C377 -219 377 -80 377 -16 L377 354 C377 369 370 380 355 387 L355 387 Z M244 -41 C244 -73 230 -100 207 -100 C179 -100 176 -73 176 -62 C176 -45 185 -18 244 11 L244 -41 Z M244 125 C241 121 237 118 233 115 C226 110 215 106 204 106 C177 106 153 127 153 191 C153 241 172 286 244 289 L244 125 Z " />
<glyph glyph-name="h" unicode="h" horiz-adv-x="427" d="M40 31 C40 12 52 0 71 0 L142 0 C161 0 173 12 173 31 L173 270 C176 273 180 276 184 279 C191 284 201 289 213 289 C241 289 264 285 264 223 L264 31 C264 12 276 0 295 0 L365 0 C384 0 397 12 397 31 L397 227 C397 331 366 411 256 411 C243 411 212 410 173 383 L173 537 C173 556 161 568 142 568 L71 568 C52 568 40 556 40 537 L40 31 Z " />
<glyph glyph-name="i" unicode="i" horiz-adv-x="213" d="M173 373 C173 392 160 405 141 405 L71 405 C52 405 40 392 40 373 L40 32 C40 13 52 0 71 0 L141 0 C160 0 173 13 173 32 L173 373 Z M35 501 C35 461 66 430 106 430 C146 430 178 461 178 501 C178 541 146 573 106 573 C66 573 35 541 35 501 L35 501 Z " />
<glyph glyph-name="j" unicode="j" horiz-adv-x="213" d="M-76 -181 C-47 -193 -19 -195 6 -195 C141 -195 173 -110 173 21 L173 374 C173 393 160 405 141 405 L72 405 C53 405 40 393 40 374 L40 3 C40 -22 37 -69 -8 -69 C-19 -69 -35 -65 -50 -61 C-66 -61 -78 -70 -82 -85 L-96 -142 C-96 -161 -91 -178 -76 -181 L-76 -181 Z M35 501 C35 461 66 430 106 430 C146 430 178 461 178 501 C178 541 146 573 106 573 C66 573 35 541 35 501 L35 501 Z " />
<glyph glyph-name="k" unicode="k" horiz-adv-x="423" d="M268 29 C276 12 293 0 310 0 L387 0 C406 0 418 15 418 34 L364 132 C345 165 331 182 310 213 C362 261 390 321 397 373 C397 392 385 405 366 405 L295 405 C278 405 268 394 264 375 C249 326 208 285 173 278 L173 537 C173 556 161 568 142 568 L71 568 C52 568 40 556 40 537 L40 31 C40 12 52 0 71 0 L142 0 C161 0 173 12 173 31 L173 136 C184 139 191 143 199 147 C213 133 219 123 241 82 L268 29 Z " />
<glyph glyph-name="l" unicode="l" horiz-adv-x="226" d="M40 96 C40 61 44 -5 119 -5 C134 -5 150 -4 173 4 C192 10 201 21 201 36 L201 70 C201 82 196 91 185 98 C178 101 173 109 173 126 L173 536 C173 555 160 568 141 568 L71 568 C52 568 40 555 40 536 L40 96 Z " />
<glyph glyph-name="m" unicode="m" horiz-adv-x="578" d="M40 31 C40 12 52 0 71 0 L142 0 C161 0 173 12 173 31 L173 284 C181 288 187 290 192 290 C229 290 229 277 229 217 L229 31 C229 12 241 0 260 0 L330 0 C349 0 361 12 361 31 L361 217 C361 244 360 265 357 285 C364 288 374 289 381 289 C405 289 415 285 415 223 L415 31 C415 12 427 0 446 0 L517 0 C536 0 548 12 548 31 L548 227 C548 331 529 410 417 410 C404 410 355 404 314 372 C285 399 249 411 189 411 C145 411 108 404 61 389 C46 382 40 371 40 356 L40 31 Z " />
<glyph glyph-name="n" unicode="n" horiz-adv-x="427" d="M40 31 C40 12 52 0 71 0 L142 0 C161 0 173 12 173 31 L173 283 C185 288 207 289 214 289 C259 289 264 276 264 216 L264 31 C264 12 276 0 295 0 L365 0 C384 0 397 12 397 31 L397 217 C397 350 346 411 211 411 C167 411 108 404 61 389 C46 382 40 371 40 356 L40 31 Z " />
<glyph glyph-name="o" unicode="o" horiz-adv-x="446" d="M223 116 C164 116 161 170 161 206 C161 241 170 289 223 289 C276 289 285 241 285 206 C285 170 282 116 223 116 L223 116 Z M223 -5 C359 -5 421 74 421 207 C421 330 358 411 223 411 C88 411 25 330 25 207 C25 74 87 -5 223 -5 L223 -5 Z " />
<glyph glyph-name="p" unicode="p" horiz-adv-x="435" d="M173 283 C186 288 207 289 214 289 C261 289 277 259 277 196 C277 136 242 116 203 116 C195 116 182 116 173 117 L173 283 Z M40 -164 C40 -183 52 -196 71 -196 L142 -196 C161 -196 173 -183 173 -164 L173 -3 C186 -6 200 -5 211 -5 C347 -5 415 63 415 196 C415 329 347 411 211 411 C168 411 108 404 61 389 C46 382 40 371 40 356 L40 -164 Z " />
<glyph glyph-name="q" unicode="q" horiz-adv-x="435" d="M158 196 C158 259 174 289 221 289 C228 289 250 288 262 283 L262 117 C253 116 241 116 233 116 C194 116 158 136 158 196 L158 196 Z M395 356 C395 371 388 382 373 389 C326 404 267 411 224 411 C89 411 20 329 20 196 C20 63 89 -5 224 -5 C233 -5 250 -4 262 -3 L262 -164 C262 -183 275 -196 294 -196 L363 -196 C382 -196 395 -183 395 -164 L395 356 Z " />
<glyph glyph-name="r" unicode="r" horiz-adv-x="331" d="M211 411 C164 411 100 405 58 371 C47 362 40 354 40 339 L40 31 C40 12 52 0 71 0 L142 0 C161 0 173 12 173 31 L173 273 C180 284 204 289 215 289 C230 289 246 285 264 277 C271 274 278 270 285 270 C297 270 310 278 314 290 L333 336 C334 340 336 345 336 349 C336 358 331 371 320 379 C289 406 248 411 211 411 L211 411 Z " />
<glyph glyph-name="s" unicode="s" horiz-adv-x="380" d="M89 121 C86 122 82 122 78 122 C65 122 50 120 46 105 C35 74 34 62 31 51 C31 32 44 25 56 18 C93 2 154 -5 182 -5 C298 -5 365 43 365 130 C365 277 156 238 156 279 C156 292 183 294 227 294 C247 294 262 292 291 289 L303 288 C314 288 321 294 326 314 C330 346 331 359 331 367 C331 384 314 395 299 398 C263 406 213 411 198 411 C67 411 23 350 23 281 C23 129 232 166 232 127 C232 107 194 107 180 107 C163 107 121 110 89 121 L89 121 Z " />
<glyph glyph-name="t" unicode="t" horiz-adv-x="345" d="M254 116 C208 116 206 163 206 188 L206 283 L287 283 C306 283 319 295 319 314 L319 374 C319 393 306 405 287 405 L206 405 L206 537 C206 556 194 568 175 568 L121 568 C102 568 93 555 90 538 L74 405 L37 405 C18 405 5 393 5 374 L5 314 C5 295 18 283 37 283 L73 283 L73 212 C73 80 104 -5 240 -5 C261 -5 290 -2 318 9 C339 17 340 29 340 48 L324 99 C321 112 309 122 294 122 C290 121 263 116 254 116 L254 116 Z " />
<glyph glyph-name="u" unicode="u" horiz-adv-x="438" d="M265 131 C253 118 232 116 224 116 C178 116 163 120 163 180 L163 374 C163 393 151 405 132 405 L61 405 C42 405 30 393 30 374 L30 180 C30 48 92 -5 227 -5 C272 -5 323 6 378 34 C389 41 398 52 398 67 L398 374 C398 393 385 405 366 405 L297 405 C278 405 265 393 265 374 L265 131 Z " />
<glyph glyph-name="v" unicode="v" horiz-adv-x="416" d="M253 0 C269 0 281 10 288 29 L411 374 C411 393 399 405 380 405 L307 405 C290 405 279 393 274 376 L209 181 L142 376 C135 393 126 405 109 405 L36 405 C17 405 5 393 5 374 L128 29 C135 10 147 0 163 0 L253 0 Z " />
<glyph glyph-name="w" unicode="w" horiz-adv-x="571" d="M391 371 C404 328 408 273 408 234 C408 159 408 116 381 116 C368 116 356 120 356 182 L356 374 C356 393 343 405 324 405 L255 405 C236 405 223 393 223 374 L223 178 C223 158 224 139 226 121 C221 118 215 116 208 116 C182 116 173 120 173 182 L173 374 C173 393 160 405 141 405 L72 405 C53 405 40 393 40 374 L40 176 C40 72 74 -5 183 -5 C196 -5 246 -4 283 33 C304 12 336 -5 379 -5 C520 -5 541 108 541 233 C541 276 531 335 523 375 C520 392 508 405 491 405 L422 405 C403 405 391 392 391 371 L391 371 Z " />
<glyph glyph-name="x" unicode="x" horiz-adv-x="386" d="M228 29 C236 17 248 0 283 0 L350 0 C369 0 381 14 381 33 L272 202 C307 255 348 317 381 372 C381 391 369 405 350 405 L283 405 C250 405 237 390 228 375 L193 322 L158 375 C149 390 136 405 103 405 L36 405 C17 405 5 391 5 372 C38 317 79 255 114 202 L5 33 C5 14 17 0 36 0 L103 0 C138 0 150 17 158 29 L193 83 L228 29 Z " />
<glyph glyph-name="y" unicode="y" horiz-adv-x="427" d="M100 7 C76 -17 58 -58 58 -97 C58 -193 151 -219 192 -219 C387 -219 387 -80 387 -16 L387 374 C387 393 375 405 356 405 L285 405 C266 405 254 393 254 374 L254 120 C251 116 247 113 243 110 C236 105 225 101 214 101 C186 101 163 105 163 167 L163 374 C163 393 151 405 132 405 L61 405 C42 405 30 393 30 374 L30 163 C30 94 53 34 100 7 L100 7 Z M254 -41 C254 -73 240 -100 217 -100 C189 -100 186 -73 186 -62 C186 -45 195 -18 254 11 L254 -41 Z " />
<glyph glyph-name="z" unicode="z" horiz-adv-x="375" d="M355 290 L355 374 C355 393 343 405 324 405 L51 405 C32 405 20 393 20 374 L20 314 C20 295 32 283 51 283 L176 283 L20 118 L20 31 C20 12 32 0 51 0 L324 0 C343 0 355 12 355 31 L355 91 C355 110 343 122 324 122 L196 122 L355 290 Z " />
<glyph glyph-name="braceleft" unicode="&#x7b;" horiz-adv-x="472" d="M81 328 C62 328 50 316 50 297 L50 239 C50 220 62 207 81 207 L87 207 C127 207 161 198 161 157 L161 73 C161 -60 181 -146 319 -146 C344 -146 371 -140 402 -131 C417 -127 422 -110 422 -93 L408 -35 C403 -19 392 -11 376 -11 C361 -15 345 -18 334 -18 C300 -18 295 28 295 55 L295 165 C295 205 282 245 239 268 C282 291 295 330 295 370 L295 511 C295 537 297 585 334 585 C345 585 361 581 376 577 C391 577 404 587 408 600 L422 659 C422 676 417 694 402 698 C371 707 343 712 319 712 C181 712 161 626 161 493 L161 379 C161 336 127 328 87 328 L81 328 Z " />
<glyph glyph-name="bar" unicode="&#x7c;" horiz-adv-x="233" d="M183 680 C183 699 170 712 151 712 L81 712 C62 712 50 699 50 680 L50 -114 C50 -133 62 -146 81 -146 L151 -146 C170 -146 183 -133 183 -114 L183 680 Z " />
<glyph glyph-name="braceright" unicode="&#x7d;" horiz-adv-x="472" d="M385 328 C345 328 311 336 311 379 L311 493 C311 626 291 712 153 712 C129 712 101 707 70 698 C55 694 50 676 50 659 L64 600 C68 587 81 577 96 577 C111 581 127 585 138 585 C175 585 177 537 177 511 L177 370 C177 330 190 291 233 268 C190 245 177 205 177 165 L177 55 C177 28 172 -18 138 -18 C127 -18 111 -15 96 -11 C80 -11 69 -19 64 -35 L50 -93 C50 -110 55 -127 70 -131 C101 -140 128 -146 153 -146 C291 -146 311 -60 311 73 L311 157 C311 198 345 207 385 207 L391 207 C410 207 422 220 422 239 L422 297 C422 316 410 328 391 328 L385 328 Z " />
<glyph glyph-name="asciitilde" unicode="&#x7e;" horiz-adv-x="434" d="M281 142 C308 142 351 157 380 180 C387 187 394 197 394 206 C394 213 390 219 387 224 L358 264 C353 271 343 277 332 277 C313 277 300 263 281 263 C236 263 197 296 153 296 C125 296 83 281 54 258 C45 250 40 241 40 232 C40 225 43 218 46 213 L75 174 C81 165 90 160 101 160 C121 160 134 175 153 175 C199 175 236 142 281 142 L281 142 Z " />
<glyph glyph-name="uni00A0" unicode="&#xa0;" horiz-adv-x="190" d="" />
<glyph glyph-name="exclamdown" unicode="&#xa1;" horiz-adv-x="223" d="M167 358 C167 377 154 390 135 390 L87 390 C68 390 56 377 56 358 L45 27 C45 8 57 -5 76 -5 L146 -5 C165 -5 178 8 178 27 L167 358 Z M40 496 C40 456 71 425 111 425 C151 425 183 456 183 496 C183 536 151 568 111 568 C71 568 40 536 40 496 L40 496 Z " />
<glyph glyph-name="cent" unicode="&#xa2;" horiz-adv-x="496" d="M244 -61 C244 -80 250 -93 269 -93 L312 -93 C331 -93 339 -80 339 -61 L339 -1 C371 4 403 15 436 38 C447 45 456 57 456 70 L433 123 C428 135 415 141 404 141 C397 141 392 139 387 136 C366 128 350 123 339 120 L339 447 C353 445 369 440 387 433 C391 430 399 428 404 428 C415 428 428 434 433 447 C454 492 456 494 456 498 C456 511 447 523 436 530 C403 550 371 563 339 568 L339 642 C339 661 331 674 312 674 L269 674 C250 674 244 661 244 642 L244 568 C132 555 40 486 40 280 C40 97 132 15 244 -1 L244 -61 Z M173 280 C173 379 207 422 244 438 L244 133 C207 154 173 197 173 280 L173 280 Z " />
<glyph glyph-name="sterling" unicode="&#xa3;" horiz-adv-x="523" d="M323 226 C342 226 355 239 355 258 L355 315 C355 334 342 347 323 347 L249 347 L249 363 C249 425 289 451 328 451 C351 451 373 451 408 434 C412 431 418 430 425 430 C436 430 448 435 453 448 L476 500 C476 513 468 525 457 532 C410 564 364 572 320 572 C185 572 116 496 116 363 L116 347 L72 347 C53 347 40 334 40 315 L40 258 C40 239 53 226 72 226 L116 226 L116 32 C116 13 129 0 148 0 L451 0 C470 0 483 13 483 32 L483 89 C483 108 470 121 451 121 L249 121 L249 226 L323 226 Z " />
<glyph glyph-name="currency" unicode="&#xa4;" horiz-adv-x="484" d="M242 172 C221 172 203 188 203 211 C203 232 221 249 242 249 C263 249 281 232 281 211 C281 188 263 172 242 172 L242 172 Z M242 56 C267 56 288 60 307 71 L353 24 C360 18 368 15 375 15 C384 15 391 18 398 25 L434 62 C441 69 444 76 444 85 C444 94 440 102 433 108 L387 155 C394 172 397 191 397 211 C397 230 393 249 386 267 L433 314 C440 320 444 328 444 337 C444 346 441 354 434 360 L398 397 C391 404 384 407 375 407 C368 407 360 404 353 398 L307 351 C288 360 267 365 242 365 C217 365 196 360 177 351 L131 398 C124 404 116 407 109 407 C100 407 93 404 86 397 L50 360 C43 354 40 346 40 337 C40 328 44 320 51 314 L98 267 C91 249 87 230 87 211 C87 191 90 172 97 155 L51 108 C44 102 40 94 40 85 C40 76 43 69 50 62 L86 25 C93 18 100 15 109 15 C116 15 124 18 131 24 L177 71 C196 60 217 56 242 56 L242 56 Z " />
<glyph glyph-name="yen" unicode="&#xa5;" horiz-adv-x="562" d="M348 32 L348 77 L423 77 C439 77 451 89 451 105 L451 155 C451 171 439 183 423 183 L356 183 L367 206 L423 206 C439 206 451 218 451 234 L451 284 C451 300 439 312 423 312 L417 312 L522 534 C522 554 509 568 490 568 L413 568 C398 568 386 554 379 539 L281 332 L183 539 C176 554 164 568 149 568 L72 568 C53 568 40 554 40 534 L144 312 L139 312 C123 312 112 300 112 284 L112 234 C112 218 123 206 139 206 L194 206 L205 183 L139 183 C123 183 112 171 112 155 L112 105 C112 89 123 77 139 77 L214 77 L214 32 C214 13 227 0 246 0 L316 0 C335 0 348 13 348 32 L348 32 Z " />
<glyph glyph-name="brokenbar" unicode="&#xa6;" horiz-adv-x="213" d="M173 680 C173 699 160 712 141 712 L71 712 C52 712 40 699 40 680 L40 400 C40 381 52 368 71 368 L141 368 C160 368 173 381 173 400 L173 680 Z M173 166 C173 185 160 198 141 198 L71 198 C52 198 40 185 40 166 L40 -114 C40 -133 52 -146 71 -146 L141 -146 C160 -146 173 -133 173 -114 L173 166 Z " />
<glyph glyph-name="section" unicode="&#xa7;" horiz-adv-x="447" d="M106 121 C103 122 99 122 95 122 C82 122 67 120 63 105 C52 74 51 62 48 51 C48 32 61 25 73 18 C110 2 171 -5 199 -5 C315 -5 382 43 382 130 C382 155 376 177 363 195 C392 218 407 250 407 291 C407 438 198 399 198 440 C198 453 225 455 269 455 C289 455 304 453 333 450 L345 449 C356 449 363 455 368 475 C372 507 373 520 373 528 C373 545 356 556 341 559 C305 567 255 572 240 572 C109 572 65 511 65 442 C65 414 72 393 84 376 C53 352 40 317 40 281 C40 129 249 166 249 127 C249 107 211 107 197 107 C180 107 138 110 106 121 L106 121 Z M244 294 C247 294 274 293 274 282 C274 270 236 268 222 268 C213 268 173 268 173 280 C173 293 200 294 244 294 L244 294 Z " />
<glyph glyph-name="dieresis" unicode="&#xa8;" horiz-adv-x="399" d="M40 501 C40 461 71 429 111 429 C151 429 183 461 183 501 C183 541 151 572 111 572 C71 572 40 541 40 501 L40 501 Z M216 501 C216 461 247 429 287 429 C327 429 359 461 359 501 C359 541 327 572 287 572 C247 572 216 541 216 501 L216 501 Z " />
<glyph glyph-name="copyright" unicode="&#xa9;" horiz-adv-x="657" d="M328 572 C168 572 40 443 40 283 C40 123 168 -5 328 -5 C488 -5 617 123 617 283 C617 443 488 572 328 572 L328 572 Z M329 90 C222 90 135 176 135 284 C135 391 222 478 329 478 C437 478 523 391 523 284 C523 176 437 90 329 90 L329 90 Z M429 400 C397 425 362 429 330 429 C234 429 185 377 185 282 C185 187 234 133 330 133 C362 133 397 137 429 161 C436 167 440 173 440 179 C440 182 439 191 428 216 C421 231 416 233 409 233 C406 233 403 232 399 231 C372 216 354 217 337 217 C304 217 279 231 279 282 C279 333 304 345 337 345 C354 345 372 345 399 333 C402 331 405 330 409 330 C416 330 421 333 424 339 C439 372 440 379 440 382 C440 389 436 395 429 400 L429 400 Z " />
<glyph glyph-name="ordfeminine" unicode="&#xaa;" horiz-adv-x="370" d="M219 355 C216 352 213 350 210 347 C204 342 197 340 189 340 C169 340 151 351 151 398 C151 435 168 471 219 475 L219 355 Z M310 553 C271 568 238 572 205 572 C100 572 40 499 40 399 C40 318 67 243 156 243 C183 243 206 252 227 269 L233 262 C241 251 248 247 261 247 L303 247 C318 247 330 259 330 274 L330 526 C330 538 323 549 310 553 L310 553 Z " />
<glyph glyph-name="guillemotleft" unicode="&#xab;" horiz-adv-x="479" d="M224 382 C224 395 214 405 201 405 L115 405 C102 405 95 395 92 382 L43 232 C42 229 40 222 40 218 L40 190 C40 186 42 179 43 176 L92 23 C95 10 102 0 115 0 L201 0 C214 0 224 10 224 23 L174 176 C173 179 171 186 171 190 L171 218 C171 222 173 229 174 232 L224 382 Z M439 382 C439 395 429 405 416 405 L330 405 C317 405 310 395 307 382 L258 232 C257 229 255 222 255 218 L255 190 C255 186 257 179 258 176 L307 23 C310 10 317 0 330 0 L416 0 C429 0 439 10 439 23 L389 176 C388 179 386 186 386 190 L386 218 C386 222 388 229 389 232 L439 382 Z " />
<glyph glyph-name="logicalnot" unicode="&#xac;" horiz-adv-x="447" d="M72 263 C53 263 40 250 40 231 L40 174 C40 155 53 142 72 142 L274 142 L274 81 C274 62 287 49 306 49 L375 49 C394 49 407 62 407 81 L407 231 C407 250 394 263 375 263 L72 263 Z " />
<glyph glyph-name="uni00AD" unicode="&#xad;" horiz-adv-x="189" d="" />
<glyph glyph-name="registered" unicode="&#xae;" horiz-adv-x="657" d="M328 572 C168 572 40 443 40 283 C40 123 168 -5 328 -5 C488 -5 617 123 617 283 C617 443 488 572 328 572 L328 572 Z M329 90 C222 90 135 176 135 284 C135 391 222 478 329 478 C437 478 523 391 523 284 C523 176 437 90 329 90 L329 90 Z M241 437 C233 437 229 433 229 425 L229 157 C229 149 233 145 241 145 L308 145 C316 145 320 149 320 157 L320 219 L330 219 C349 166 353 142 388 142 C401 142 444 143 444 167 L444 177 C444 182 442 186 439 188 C434 191 432 196 427 208 L412 242 C436 257 446 288 446 329 C446 397 400 437 331 437 L241 437 Z M320 296 L320 360 L324 360 C348 360 352 354 352 327 C352 299 349 296 324 296 L320 296 Z " />
<glyph glyph-name="macron" unicode="&#xaf;" horiz-adv-x="395" d="M323 447 C342 447 355 460 355 479 L355 536 C355 555 342 568 323 568 L72 568 C53 568 40 555 40 536 L40 479 C40 460 53 447 72 447 L323 447 Z " />
<glyph glyph-name="degree" unicode="&#xb0;" horiz-adv-x="323" d="M162 414 C154 414 134 418 134 445 C134 470 154 475 162 475 C169 475 189 470 189 445 C189 418 169 414 162 414 L162 414 Z M162 318 C234 318 283 357 283 445 C283 533 234 572 162 572 C90 572 40 533 40 445 C40 357 90 318 162 318 L162 318 Z " />
<glyph glyph-name="plusminus" unicode="&#xb1;" horiz-adv-x="393" d="M263 373 L263 441 C263 460 250 473 231 473 L162 473 C143 473 130 460 130 441 L130 373 L72 373 C53 373 40 360 40 341 L40 284 C40 265 53 252 72 252 L130 252 L130 185 C130 166 143 153 162 153 L231 153 C250 153 263 166 263 185 L263 252 L321 252 C340 252 353 265 353 284 L353 341 C353 360 340 373 321 373 L263 373 Z M321 0 C340 0 353 13 353 32 L353 89 C353 108 340 121 321 121 L72 121 C53 121 40 108 40 89 L40 32 C40 13 53 0 72 0 L321 0 Z " />
<glyph glyph-name="twosuperior" unicode="&#xb2;" horiz-adv-x="307" d="M61 561 C54 560 48 556 48 549 C48 545 47 499 50 479 C51 468 58 469 66 469 C89 472 108 474 117 474 C152 474 154 467 154 458 C154 434 40 426 40 328 L40 253 C40 244 44 240 53 240 L254 240 C263 240 267 244 267 253 L267 325 C267 334 263 338 254 338 L162 338 L162 343 C162 367 265 369 265 471 C265 537 240 572 140 572 C128 572 89 569 61 561 L61 561 Z " />
<glyph glyph-name="threesuperior" unicode="&#xb3;" horiz-adv-x="306" d="M130 365 C143 365 152 365 152 352 C152 339 147 337 124 337 C116 337 80 340 58 343 C50 343 43 342 42 331 C42 312 40 267 40 264 C40 257 47 254 54 251 C81 243 139 240 151 240 C227 240 263 280 263 341 C263 368 249 390 230 405 C247 416 266 444 266 472 C266 529 233 572 157 572 C146 572 80 570 53 562 C46 559 40 557 40 544 C40 540 42 497 42 478 C43 467 50 466 58 466 C80 469 122 474 130 474 C153 474 155 469 155 458 C155 447 155 445 123 445 L104 445 C95 445 91 441 91 433 L91 377 C91 369 95 365 104 365 L130 365 Z " />
<glyph glyph-name="acute" unicode="&#xb4;" horiz-adv-x="280" d="M46 454 C42 447 40 441 40 436 C40 425 55 411 56 410 L72 394 C80 386 88 378 100 378 C111 378 121 381 131 388 C236 472 235 474 236 474 C239 479 240 484 240 489 C240 502 235 509 228 516 L185 565 C179 570 171 572 161 572 C149 569 148 570 137 559 L46 454 Z " />
<glyph glyph-name="mu" unicode="&#xb5;" horiz-adv-x="448" d="M173 374 C173 393 161 405 142 405 L71 405 C52 405 40 393 40 374 L40 -164 C40 -183 52 -196 71 -196 L141 -196 C160 -196 173 -183 173 -164 L173 0 C192 -3 213 -5 237 -5 C282 -5 333 6 388 34 C399 41 408 52 408 67 L408 374 C408 393 395 405 376 405 L307 405 C288 405 275 393 275 374 L275 131 C263 118 242 116 234 116 C190 116 173 119 173 171 L173 374 Z " />
<glyph glyph-name="paragraph" unicode="&#xb6;" horiz-adv-x="551" d="M479 568 L210 568 C114 568 40 492 40 397 C40 310 105 237 190 229 L190 32 C190 13 203 0 222 0 L292 0 C311 0 323 13 323 32 L323 447 L378 447 L378 32 C378 13 391 0 410 0 L479 0 C498 0 511 13 511 32 L511 536 C511 555 498 568 479 568 L479 568 Z " />
<glyph glyph-name="periodcentered" unicode="&#xb7;" horiz-adv-x="223" d="M40 181 C40 141 71 109 111 109 C151 109 183 141 183 181 C183 221 151 252 111 252 C71 252 40 221 40 181 L40 181 Z " />
<glyph glyph-name="cedilla" unicode="&#xb8;" horiz-adv-x="287" d="M131 -35 C132 -39 132 -45 132 -52 C132 -73 120 -76 97 -76 C86 -76 82 -74 67 -71 C48 -71 40 -77 40 -102 L40 -142 C40 -160 92 -174 134 -174 C206 -174 247 -145 247 -65 C247 -56 247 -46 246 -37 C246 -22 231 -5 216 -5 L159 -5 C142 -5 131 -20 131 -35 L131 -35 Z " />
<glyph glyph-name="onesuperior" unicode="&#xb9;" horiz-adv-x="282" d="M46 508 C43 505 40 497 40 493 L40 422 C40 410 49 400 64 400 L131 443 L131 269 C131 256 142 247 153 247 L221 247 C233 247 242 256 242 269 L242 547 C242 559 233 568 221 568 L140 568 L46 508 Z " />
<glyph glyph-name="ordmasculine" unicode="&#xba;" horiz-adv-x="323" d="M162 414 C154 414 134 418 134 445 C134 470 154 475 162 475 C169 475 189 470 189 445 C189 418 169 414 162 414 L162 414 Z M162 318 C234 318 283 357 283 445 C283 533 234 572 162 572 C90 572 40 533 40 445 C40 357 90 318 162 318 L162 318 Z " />
<glyph glyph-name="guillemotright" unicode="&#xbb;" horiz-adv-x="479" d="M305 232 C306 229 308 222 308 218 L308 190 C308 186 306 179 305 176 L255 23 C255 10 265 0 278 0 L364 0 C377 0 384 10 387 23 L436 176 C437 179 439 186 439 190 L439 218 C439 222 437 229 436 232 L387 382 C384 395 377 405 364 405 L278 405 C265 405 255 395 255 382 L305 232 Z M90 232 C91 229 93 222 93 218 L93 190 C93 186 91 179 90 176 L40 23 C40 10 50 0 63 0 L149 0 C162 0 169 10 172 23 L221 176 C222 179 224 186 224 190 L224 218 C224 222 222 229 221 232 L172 382 C169 395 162 405 149 405 L63 405 C50 405 40 395 40 382 L90 232 Z " />
<glyph glyph-name="onequarter" unicode="&#xbc;" horiz-adv-x="739" d="M421 539 C432 556 446 568 465 568 L512 568 C531 568 543 554 543 534 L297 29 C289 14 278 0 262 0 L206 0 C187 0 174 14 174 34 L421 539 Z M46 508 C43 505 40 497 40 493 L40 422 C40 410 49 400 64 400 L131 443 L131 269 C131 256 142 247 153 247 L221 247 C233 247 242 256 242 269 L242 547 C242 559 233 568 221 568 L140 568 L46 508 Z M652 142 L652 311 C652 323 643 332 631 332 L558 332 C550 332 542 325 535 318 L415 142 L415 66 C415 57 420 53 429 53 L549 53 L549 22 C549 9 560 0 571 0 L631 0 C643 0 652 9 652 22 L652 53 L672 53 C679 53 685 59 685 66 L685 128 C685 135 679 142 672 142 L652 142 Z M518 142 L556 199 L556 142 L518 142 Z " />
<glyph glyph-name="onehalf" unicode="&#xbd;" horiz-adv-x="725" d="M174 34 C174 14 187 0 206 0 L262 0 C278 0 289 14 297 29 L543 534 C543 554 531 568 512 568 L465 568 C446 568 432 556 421 539 L174 34 Z M140 568 L221 568 C233 568 242 559 242 547 L242 269 C242 256 233 247 221 247 L153 247 C142 247 131 256 131 269 L131 443 L64 400 C49 400 40 410 40 422 L40 493 C40 497 43 505 46 508 L140 568 Z M479 321 C472 320 466 316 466 309 C466 305 465 259 468 239 C469 228 476 229 484 229 C507 232 526 234 535 234 C570 234 572 227 572 218 C572 194 458 186 458 88 L458 13 C458 4 462 0 471 0 L672 0 C681 0 685 4 685 13 L685 85 C685 94 681 98 672 98 L580 98 L580 103 C580 127 683 129 683 231 C683 297 658 332 558 332 C546 332 507 329 479 321 L479 321 Z " />
<glyph glyph-name="threequarters" unicode="&#xbe;" horiz-adv-x="714" d="M177 34 C177 14 190 0 209 0 L265 0 C281 0 292 14 300 29 L546 534 C546 554 534 568 515 568 L468 568 C449 568 435 556 424 539 L177 34 Z M130 365 C143 365 152 365 152 352 C152 339 147 337 124 337 C116 337 80 340 58 343 C50 343 43 342 42 331 C42 312 40 267 40 264 C40 257 47 254 54 251 C81 243 139 240 151 240 C227 240 263 280 263 341 C263 368 249 390 230 405 C247 416 266 444 266 472 C266 529 233 572 157 572 C146 572 80 570 53 562 C46 559 40 557 40 544 C40 540 42 497 42 478 C43 467 50 466 58 466 C80 469 122 474 130 474 C153 474 155 469 155 458 C155 447 155 445 123 445 L104 445 C95 445 91 441 91 433 L91 377 C91 369 95 365 104 365 L130 365 Z M641 142 L641 311 C641 323 632 332 620 332 L547 332 C539 332 531 325 524 318 L404 142 L404 66 C404 57 409 53 418 53 L538 53 L538 22 C538 9 549 0 560 0 L620 0 C632 0 641 9 641 22 L641 53 L661 53 C668 53 674 59 674 66 L674 128 C674 135 668 142 661 142 L641 142 Z M507 142 L545 199 L545 142 L507 142 Z " />
<glyph glyph-name="questiondown" unicode="&#xbf;" horiz-adv-x="437" d="M335 374 C335 393 322 406 303 406 L234 406 C215 406 202 393 202 374 L202 364 C202 263 40 326 40 167 C40 71 61 -5 245 -5 C266 -5 318 0 366 13 C381 17 397 28 397 45 C397 53 397 67 394 99 C391 126 375 128 355 128 C318 123 265 118 252 118 C189 118 173 126 173 161 C173 239 335 157 335 359 L335 374 Z M340 500 C340 540 309 572 269 572 C229 572 197 540 197 500 C197 460 229 429 269 429 C309 429 340 460 340 500 L340 500 Z " />
<glyph glyph-name="Agrave" unicode="&#xc0;" horiz-adv-x="516" d="M270 799 C259 810 258 809 246 812 C236 812 228 810 222 805 L179 756 C172 749 167 742 167 729 C167 724 168 719 171 714 C172 714 171 712 276 628 C286 621 296 618 307 618 C319 618 327 626 335 634 L351 650 C352 651 367 665 367 676 C367 681 365 687 361 694 L270 799 Z M260 362 L300 247 L220 247 L260 362 Z M516 71 C516 84 510 93 499 99 C492 102 489 114 482 130 L339 539 C332 556 319 568 303 568 L216 568 C200 568 187 556 180 539 L5 32 C5 13 18 0 37 0 L111 0 C127 0 141 14 145 30 L177 124 L342 124 C357 88 357 81 362 68 C373 36 392 -5 445 -5 C474 -5 516 5 516 37 L516 71 Z " />
<glyph glyph-name="Aacute" unicode="&#xc1;" horiz-adv-x="516" d="M168 694 C164 687 162 681 162 676 C162 665 177 651 178 650 L194 634 C202 626 210 618 222 618 C233 618 243 621 253 628 C358 712 357 714 358 714 C361 719 362 724 362 729 C362 742 357 749 350 756 L307 805 C301 810 293 812 283 812 C271 809 270 810 259 799 L168 694 Z M260 362 L300 247 L220 247 L260 362 Z M516 71 C516 84 510 93 499 99 C492 102 489 114 482 130 L339 539 C332 556 319 568 303 568 L216 568 C200 568 187 556 180 539 L5 32 C5 13 18 0 37 0 L111 0 C127 0 141 14 145 30 L177 124 L342 124 C357 88 357 81 362 68 C373 36 392 -5 445 -5 C474 -5 516 5 516 37 L516 71 Z " />
<glyph glyph-name="Acircumflex" unicode="&#xc2;" horiz-adv-x="516" d="M260 362 L300 247 L220 247 L260 362 Z M516 71 C516 84 510 93 499 99 C492 102 489 114 482 130 L339 539 C332 556 319 568 303 568 L216 568 C200 568 187 556 180 539 L5 32 C5 13 18 0 37 0 L111 0 C127 0 141 14 145 30 L177 124 L342 124 C357 88 357 81 362 68 C373 36 392 -5 445 -5 C474 -5 516 5 516 37 L516 71 Z M212 812 C196 812 184 800 177 784 L106 652 C106 633 119 618 138 618 L206 618 C225 618 235 630 240 647 L260 695 L281 647 C286 630 296 618 315 618 L382 618 C401 618 414 633 414 652 L343 784 C336 800 324 812 308 812 L212 812 Z " />
<glyph glyph-name="Atilde" unicode="&#xc3;" horiz-adv-x="516" d="M260 362 L300 247 L220 247 L260 362 Z M516 71 C516 84 510 93 499 99 C492 102 489 114 482 130 L339 539 C332 556 319 568 303 568 L216 568 C200 568 187 556 180 539 L5 32 C5 13 18 0 37 0 L111 0 C127 0 141 14 145 30 L177 124 L342 124 C357 88 357 81 362 68 C373 36 392 -5 445 -5 C474 -5 516 5 516 37 L516 71 Z M324 618 C351 618 394 633 423 656 C430 663 437 673 437 682 C437 689 433 695 430 700 L401 740 C396 747 386 753 375 753 C356 753 343 739 324 739 C279 739 240 772 196 772 C168 772 126 757 97 734 C88 726 83 717 83 708 C83 701 86 694 89 689 L118 650 C124 641 133 636 144 636 C164 636 177 651 196 651 C242 651 279 618 324 618 L324 618 Z " />
<glyph glyph-name="Adieresis" unicode="&#xc4;" horiz-adv-x="516" d="M260 362 L300 247 L220 247 L260 362 Z M516 71 C516 84 510 93 499 99 C492 102 489 114 482 130 L339 539 C332 556 319 568 303 568 L216 568 C200 568 187 556 180 539 L5 32 C5 13 18 0 37 0 L111 0 C127 0 141 14 145 30 L177 124 L342 124 C357 88 357 81 362 68 C373 36 392 -5 445 -5 C474 -5 516 5 516 37 L516 71 Z M101 690 C101 650 132 618 172 618 C212 618 244 650 244 690 C244 730 212 761 172 761 C132 761 101 730 101 690 L101 690 Z M277 690 C277 650 308 618 348 618 C388 618 420 650 420 690 C420 730 388 761 348 761 C308 761 277 730 277 690 L277 690 Z " />
<glyph glyph-name="Aring" unicode="&#xc5;" horiz-adv-x="516" d="M260 362 L300 247 L220 247 L260 362 Z M516 71 C516 84 510 93 499 99 C492 102 489 114 482 130 L339 539 C332 556 319 568 303 568 L216 568 C200 568 187 556 180 539 L5 32 C5 13 18 0 37 0 L111 0 C127 0 141 14 145 30 L177 124 L342 124 C357 88 357 81 362 68 C373 36 392 -5 445 -5 C474 -5 516 5 516 37 L516 71 Z M260 714 C252 714 232 718 232 745 C232 770 252 775 260 775 C267 775 287 770 287 745 C287 718 267 714 260 714 L260 714 Z M260 618 C332 618 381 657 381 745 C381 833 332 872 260 872 C188 872 138 833 138 745 C138 657 188 618 260 618 L260 618 Z " />
<glyph glyph-name="AE" unicode="&#xc6;" horiz-adv-x="769" d="M328 568 C311 568 294 556 285 541 L0 35 C0 15 13 0 32 0 L115 0 C132 0 141 13 149 28 L204 126 L363 126 L363 32 C363 13 376 0 395 0 L712 0 C731 0 744 13 744 32 L744 89 C744 108 731 121 712 121 L496 121 L496 223 L652 223 C671 223 683 236 683 255 L683 312 C683 331 671 344 652 344 L496 344 L496 446 L712 446 C731 446 744 459 744 478 L744 536 C744 555 731 568 712 568 L328 568 Z M271 247 C303 304 332 354 363 410 L363 247 L271 247 Z " />
<glyph glyph-name="Ccedilla" unicode="&#xc7;" horiz-adv-x="456" d="M421 530 C374 561 326 572 281 572 C147 572 25 516 25 280 C25 100 111 21 219 0 C228 -5 232 -16 232 -33 C232 -54 220 -57 197 -57 C186 -57 182 -55 167 -52 C148 -52 140 -58 140 -83 L140 -123 C140 -141 192 -155 234 -155 C306 -155 347 -126 347 -46 C347 -27 346 -10 344 3 C369 10 394 21 421 38 C432 45 441 57 441 70 L418 123 C413 135 400 141 389 141 C382 141 377 139 372 136 C329 121 313 116 290 116 C247 116 158 147 158 280 C158 442 247 450 290 450 C310 450 340 448 372 433 C376 430 384 428 389 428 C400 428 413 434 418 447 C439 492 441 494 441 498 C441 511 432 523 421 530 L421 530 Z " />
<glyph glyph-name="Egrave" unicode="&#xc8;" horiz-adv-x="436" d="M389 0 C408 0 421 13 421 32 L421 89 C421 108 408 121 389 121 L173 121 L173 223 L329 223 C348 223 360 236 360 255 L360 312 C360 331 348 344 329 344 L173 344 L173 446 L389 446 C408 446 421 459 421 478 L421 536 C421 555 408 568 389 568 L72 568 C53 568 40 555 40 536 L40 32 C40 13 53 0 72 0 L389 0 Z M242 799 C231 810 230 809 218 812 C208 812 200 810 194 805 L151 756 C144 749 139 742 139 729 C139 724 140 719 143 714 C144 714 143 712 248 628 C258 621 268 618 279 618 C291 618 299 626 307 634 L323 650 C324 651 339 665 339 676 C339 681 337 687 333 694 L242 799 Z " />
<glyph glyph-name="Eacute" unicode="&#xc9;" horiz-adv-x="436" d="M389 0 C408 0 421 13 421 32 L421 89 C421 108 408 121 389 121 L173 121 L173 223 L329 223 C348 223 360 236 360 255 L360 312 C360 331 348 344 329 344 L173 344 L173 446 L389 446 C408 446 421 459 421 478 L421 536 C421 555 408 568 389 568 L72 568 C53 568 40 555 40 536 L40 32 C40 13 53 0 72 0 L389 0 Z M145 694 C141 687 139 681 139 676 C139 665 154 651 155 650 L171 634 C179 626 187 618 199 618 C210 618 220 621 230 628 C335 712 334 714 335 714 C338 719 339 724 339 729 C339 742 334 749 327 756 L284 805 C278 810 270 812 260 812 C248 809 247 810 236 799 L145 694 Z " />
<glyph glyph-name="Ecircumflex" unicode="&#xca;" horiz-adv-x="436" d="M178 812 C162 812 150 800 143 784 L72 652 C72 633 85 618 104 618 L172 618 C191 618 201 630 206 647 L226 695 L247 647 C252 630 262 618 281 618 L348 618 C367 618 380 633 380 652 L309 784 C302 800 290 812 274 812 L178 812 Z M389 0 C408 0 421 13 421 32 L421 89 C421 108 408 121 389 121 L173 121 L173 223 L329 223 C348 223 360 236 360 255 L360 312 C360 331 348 344 329 344 L173 344 L173 446 L389 446 C408 446 421 459 421 478 L421 536 C421 555 408 568 389 568 L72 568 C53 568 40 555 40 536 L40 32 C40 13 53 0 72 0 L389 0 Z " />
<glyph glyph-name="Edieresis" unicode="&#xcb;" horiz-adv-x="436" d="M389 0 C408 0 421 13 421 32 L421 89 C421 108 408 121 389 121 L173 121 L173 223 L329 223 C348 223 360 236 360 255 L360 312 C360 331 348 344 329 344 L173 344 L173 446 L389 446 C408 446 421 459 421 478 L421 536 C421 555 408 568 389 568 L72 568 C53 568 40 555 40 536 L40 32 C40 13 53 0 72 0 L389 0 Z M72 690 C72 650 103 618 143 618 C183 618 215 650 215 690 C215 730 183 761 143 761 C103 761 72 730 72 690 L72 690 Z M248 690 C248 650 279 618 319 618 C359 618 391 650 391 690 C391 730 359 761 319 761 C279 761 248 730 248 690 L248 690 Z " />
<glyph glyph-name="Igrave" unicode="&#xcc;" horiz-adv-x="213" d="M173 536 C173 555 160 568 141 568 L71 568 C52 568 40 555 40 536 L40 32 C40 13 52 0 71 0 L141 0 C160 0 173 13 173 32 L173 536 Z M106 799 C95 810 94 809 82 812 C72 812 64 810 58 805 L15 756 C8 749 3 742 3 729 C3 724 4 719 7 714 C8 714 7 712 112 628 C122 621 132 618 143 618 C155 618 163 626 171 634 L187 650 C188 651 203 665 203 676 C203 681 201 687 197 694 L106 799 Z " />
<glyph glyph-name="Iacute" unicode="&#xcd;" horiz-adv-x="214" d="M40 32 C40 13 53 0 72 0 L142 0 C161 0 173 13 173 32 L173 536 C173 555 161 568 142 568 L72 568 C53 568 40 555 40 536 L40 32 Z M16 694 C12 687 10 681 10 676 C10 665 25 651 26 650 L42 634 C50 626 58 618 70 618 C81 618 91 621 101 628 C206 712 205 714 206 714 C209 719 210 724 210 729 C210 742 205 749 198 756 L155 805 C149 810 141 812 131 812 C119 809 118 810 107 799 L16 694 Z " />
<glyph glyph-name="Icircumflex" unicode="&#xce;" horiz-adv-x="213" d="M40 32 C40 13 53 0 72 0 L142 0 C161 0 173 13 173 32 L173 536 C173 555 161 568 142 568 L72 568 C53 568 40 555 40 536 L40 32 Z M58 812 C42 812 30 800 23 784 L-48 652 C-48 633 -35 618 -16 618 L52 618 C71 618 81 630 86 647 L106 695 L127 647 C132 630 142 618 161 618 L228 618 C247 618 260 633 260 652 L189 784 C182 800 170 812 154 812 L58 812 Z " />
<glyph glyph-name="Idieresis" unicode="&#xcf;" horiz-adv-x="213" d="M40 32 C40 13 53 0 72 0 L142 0 C161 0 173 13 173 32 L173 536 C173 555 161 568 142 568 L72 568 C53 568 40 555 40 536 L40 32 Z M-53 690 C-53 650 -22 618 18 618 C58 618 90 650 90 690 C90 730 58 761 18 761 C-22 761 -53 730 -53 690 L-53 690 Z M123 690 C123 650 154 618 194 618 C234 618 266 650 266 690 C266 730 234 761 194 761 C154 761 123 730 123 690 L123 690 Z " />
<glyph glyph-name="Eth" unicode="&#xd0;" horiz-adv-x="529" d="M300 0 C437 0 504 74 504 209 L504 359 C504 494 437 568 300 568 L119 568 C100 568 87 555 87 536 L87 340 L37 340 C18 340 5 327 5 308 L5 251 C5 232 18 219 37 219 L87 219 L87 33 C87 14 100 0 119 0 L300 0 Z M371 207 C371 144 338 121 298 121 L220 121 L220 219 L288 219 C307 219 320 232 320 251 L320 308 C320 327 307 340 288 340 L220 340 L220 446 L298 446 C338 446 371 423 371 360 L371 207 Z " />
<glyph glyph-name="Ntilde" unicode="&#xd1;" horiz-adv-x="531" d="M459 0 C478 0 491 13 491 32 L491 536 C491 555 478 568 459 568 L390 568 C371 568 358 555 358 536 L358 273 C300 371 246 447 187 544 C176 560 163 568 148 568 L72 568 C53 568 40 555 40 536 L40 32 C40 13 53 0 72 0 L141 0 C160 0 173 13 173 32 L173 317 C233 217 297 123 356 24 C367 8 381 0 394 0 L459 0 Z M332 618 C359 618 402 633 431 656 C438 663 445 673 445 682 C445 689 441 695 438 700 L409 740 C404 747 394 753 383 753 C364 753 351 739 332 739 C287 739 248 772 204 772 C176 772 134 757 105 734 C96 726 91 717 91 708 C91 701 94 694 97 689 L126 650 C132 641 141 636 152 636 C172 636 185 651 204 651 C250 651 287 618 332 618 L332 618 Z " />
<glyph glyph-name="Ograve" unicode="&#xd2;" horiz-adv-x="558" d="M280 116 C240 116 164 126 164 280 C164 442 239 450 279 450 C319 450 394 442 394 280 C394 126 317 116 280 116 L280 116 Z M280 -5 C413 -5 528 59 528 280 C528 516 413 572 279 572 C145 572 30 516 30 280 C30 59 144 -5 280 -5 L280 -5 Z M281 798 C270 809 269 808 257 811 C247 811 239 809 233 804 L190 755 C183 748 178 741 178 728 C178 723 179 718 182 713 C183 713 182 711 287 627 C297 620 307 617 318 617 C330 617 338 625 346 633 L362 649 C363 650 378 664 378 675 C378 680 376 686 372 693 L281 798 Z " />
<glyph glyph-name="Oacute" unicode="&#xd3;" horiz-adv-x="558" d="M278 116 C241 116 164 126 164 280 C164 442 239 450 279 450 C319 450 394 442 394 280 C394 126 318 116 278 116 L278 116 Z M278 -5 C414 -5 528 59 528 280 C528 516 413 572 279 572 C145 572 30 516 30 280 C30 59 145 -5 278 -5 L278 -5 Z M186 693 C182 686 180 680 180 675 C180 664 195 650 196 649 L212 633 C220 625 228 617 240 617 C251 617 261 620 271 627 C376 711 375 713 376 713 C379 718 380 723 380 728 C380 741 375 748 368 755 L325 804 C319 809 311 811 301 811 C289 808 288 809 277 798 L186 693 Z " />
<glyph glyph-name="Ocircumflex" unicode="&#xd4;" horiz-adv-x="558" d="M280 116 C240 116 164 126 164 280 C164 442 239 450 279 450 C319 450 394 442 394 280 C394 126 317 116 280 116 L280 116 Z M280 -5 C413 -5 528 59 528 280 C528 516 413 572 279 572 C145 572 30 516 30 280 C30 59 144 -5 280 -5 L280 -5 Z M231 812 C215 812 203 800 196 784 L125 652 C125 633 138 618 157 618 L225 618 C244 618 254 630 259 647 L279 695 L300 647 C305 630 315 618 334 618 L401 618 C420 618 433 633 433 652 L362 784 C355 800 343 812 327 812 L231 812 Z " />
<glyph glyph-name="Otilde" unicode="&#xd5;" horiz-adv-x="558" d="M280 116 C240 116 164 126 164 280 C164 442 239 450 279 450 C319 450 394 442 394 280 C394 126 317 116 280 116 L280 116 Z M280 -5 C413 -5 528 59 528 280 C528 516 413 572 279 572 C145 572 30 516 30 280 C30 59 144 -5 280 -5 L280 -5 Z M342 618 C369 618 412 633 441 656 C448 663 455 673 455 682 C455 689 451 695 448 700 L419 740 C414 747 404 753 393 753 C374 753 361 739 342 739 C297 739 258 772 214 772 C186 772 144 757 115 734 C106 726 101 717 101 708 C101 701 104 694 107 689 L136 650 C142 641 151 636 162 636 C182 636 195 651 214 651 C260 651 297 618 342 618 L342 618 Z " />
<glyph glyph-name="Odieresis" unicode="&#xd6;" horiz-adv-x="558" d="M280 116 C240 116 164 126 164 280 C164 442 239 450 279 450 C319 450 394 442 394 280 C394 126 317 116 280 116 L280 116 Z M280 -5 C413 -5 528 59 528 280 C528 516 413 572 279 572 C145 572 30 516 30 280 C30 59 144 -5 280 -5 L280 -5 Z M119 690 C119 650 150 618 190 618 C230 618 262 650 262 690 C262 730 230 761 190 761 C150 761 119 730 119 690 L119 690 Z M295 690 C295 650 326 618 366 618 C406 618 438 650 438 690 C438 730 406 761 366 761 C326 761 295 730 295 690 L295 690 Z " />
<glyph glyph-name="multiply" unicode="&#xd7;" horiz-adv-x="436" d="M243 78 C252 67 266 49 301 49 L365 49 C384 49 396 63 396 82 L297 227 C331 279 354 310 386 364 C386 383 374 397 355 397 L288 397 C256 397 245 381 234 368 L232 365 C229 362 225 358 218 347 C210 357 205 363 204 365 L202 368 C191 381 180 397 148 397 L81 397 C62 397 50 383 50 364 C82 310 105 279 139 227 L40 82 C40 63 52 49 71 49 L135 49 C170 49 184 67 193 78 L218 108 L243 78 Z " />
<glyph glyph-name="Oslash" unicode="&#xd8;" horiz-adv-x="558" d="M444 632 C444 651 435 666 416 666 L382 666 C363 666 361 656 353 641 L328 569 C312 571 296 572 279 572 C145 572 30 516 30 280 C30 140 75 63 142 26 L109 -70 C109 -89 119 -101 138 -101 L171 -101 C187 -101 193 -91 200 -76 L225 -1 C244 -4 261 -5 280 -5 C413 -5 528 59 528 280 C528 429 481 507 413 543 L444 632 Z M266 116 L366 407 C382 382 394 344 394 280 C394 126 317 116 280 116 L266 116 Z M164 280 C164 442 239 450 279 450 L287 450 L189 162 C174 187 164 223 164 280 L164 280 Z " />
<glyph glyph-name="Ugrave" unicode="&#xd9;" horiz-adv-x="528" d="M264 -5 C401 -5 488 31 488 254 L488 536 C488 555 475 568 456 568 L387 568 C368 568 355 555 355 536 L355 247 C355 123 304 116 264 116 C224 116 173 123 173 247 L173 536 C173 555 160 568 141 568 L72 568 C53 568 40 555 40 536 L40 254 C40 31 127 -5 264 -5 L264 -5 Z M266 798 C255 809 254 808 242 811 C232 811 224 809 218 804 L175 755 C168 748 163 741 163 728 C163 723 164 718 167 713 C168 713 167 711 272 627 C282 620 292 617 303 617 C315 617 323 625 331 633 L347 649 C348 650 363 664 363 675 C363 680 361 686 357 693 L266 798 Z " />
<glyph glyph-name="Uacute" unicode="&#xda;" horiz-adv-x="528" d="M264 -5 C401 -5 488 31 488 254 L488 536 C488 555 475 568 456 568 L387 568 C368 568 355 555 355 536 L355 247 C355 123 304 116 264 116 C224 116 173 123 173 247 L173 536 C173 555 160 568 141 568 L72 568 C53 568 40 555 40 536 L40 254 C40 31 127 -5 264 -5 L264 -5 Z M171 693 C167 686 165 680 165 675 C165 664 180 650 181 649 L197 633 C205 625 213 617 225 617 C236 617 246 620 256 627 C361 711 360 713 361 713 C364 718 365 723 365 728 C365 741 360 748 353 755 L310 804 C304 809 296 811 286 811 C274 808 273 809 262 798 L171 693 Z " />
<glyph glyph-name="Ucircumflex" unicode="&#xdb;" horiz-adv-x="528" d="M264 -5 C401 -5 488 31 488 254 L488 536 C488 555 475 568 456 568 L387 568 C368 568 355 555 355 536 L355 247 C355 123 304 116 264 116 C224 116 173 123 173 247 L173 536 C173 555 160 568 141 568 L72 568 C53 568 40 555 40 536 L40 254 C40 31 127 -5 264 -5 L264 -5 Z M215 812 C199 812 187 800 180 784 L109 652 C109 633 122 618 141 618 L209 618 C228 618 238 630 243 647 L263 695 L284 647 C289 630 299 618 318 618 L385 618 C404 618 417 633 417 652 L346 784 C339 800 327 812 311 812 L215 812 Z " />
<glyph glyph-name="Udieresis" unicode="&#xdc;" horiz-adv-x="528" d="M264 -5 C401 -5 488 31 488 254 L488 536 C488 555 475 568 456 568 L387 568 C368 568 355 555 355 536 L355 247 C355 123 304 116 264 116 C224 116 173 123 173 247 L173 536 C173 555 160 568 141 568 L72 568 C53 568 40 555 40 536 L40 254 C40 31 127 -5 264 -5 L264 -5 Z M104 690 C104 650 135 618 175 618 C215 618 247 650 247 690 C247 730 215 761 175 761 C135 761 104 730 104 690 L104 690 Z M280 690 C280 650 311 618 351 618 C391 618 423 650 423 690 C423 730 391 761 351 761 C311 761 280 730 280 690 L280 690 Z " />
<glyph glyph-name="Yacute" unicode="&#xdd;" horiz-adv-x="492" d="M313 165 L487 534 C487 554 474 568 455 568 L378 568 C363 568 351 554 344 539 L246 332 L148 539 C141 554 129 568 114 568 L37 568 C18 568 5 554 5 534 L179 165 L179 32 C179 13 192 0 211 0 L281 0 C300 0 313 13 313 32 L313 165 Z M153 694 C149 687 147 681 147 676 C147 665 162 651 163 650 L179 634 C187 626 195 618 207 618 C218 618 228 621 238 628 C343 712 342 714 343 714 C346 719 347 724 347 729 C347 742 342 749 335 756 L292 805 C286 810 278 812 268 812 C256 809 255 810 244 799 L153 694 Z " />
<glyph glyph-name="Thorn" unicode="&#xde;" horiz-adv-x="455" d="M173 536 C173 555 160 568 141 568 L71 568 C52 568 40 555 40 536 L40 32 C40 13 53 0 72 0 L141 0 C160 0 173 13 173 32 L173 87 L237 87 C374 87 445 143 445 279 C445 415 374 473 237 473 L173 473 L173 536 Z M173 209 L173 350 L247 350 C286 350 312 323 312 279 C312 234 286 209 247 209 L173 209 Z " />
<glyph glyph-name="germandbls" unicode="&#xdf;" horiz-adv-x="500" d="M277 443 C325 443 336 411 336 393 C336 374 322 340 270 340 L262 340 C243 340 231 328 231 309 L231 251 C231 232 243 219 262 219 L279 219 C326 218 342 188 342 169 C342 150 333 116 289 116 C269 116 254 127 238 127 C222 127 213 117 211 96 C208 64 207 46 207 39 C207 0 265 -5 289 -5 C422 -5 475 61 475 170 C475 213 456 252 428 279 C453 304 469 350 469 394 C469 496 408 564 275 564 L227 564 C94 564 40 479 40 348 L40 31 C40 12 53 0 72 0 L141 0 C160 0 173 12 173 31 L173 371 C173 396 183 443 231 443 L277 443 Z " />
<glyph glyph-name="agrave" unicode="&#xe0;" horiz-adv-x="417" d="M244 135 C241 131 237 128 233 125 C226 120 215 116 204 116 C176 116 153 128 153 191 C153 242 172 284 244 289 L244 135 Z M356 387 C305 404 265 411 224 411 C91 411 15 320 15 192 C15 89 49 -5 161 -5 C176 -5 212 -3 253 28 L262 17 C273 6 281 0 296 0 L346 0 C365 0 377 12 377 31 L377 354 C377 369 371 380 356 387 L356 387 Z M215 637 C204 648 203 647 191 650 C181 650 173 648 167 643 L124 594 C117 587 112 580 112 567 C112 562 113 557 116 552 C117 552 116 550 221 466 C231 459 241 456 252 456 C264 456 272 464 280 472 L296 488 C297 489 312 503 312 514 C312 519 310 525 306 532 L215 637 Z " />
<glyph glyph-name="aacute" unicode="&#xe1;" horiz-adv-x="417" d="M244 135 C241 131 237 128 233 125 C226 120 215 116 204 116 C176 116 153 128 153 191 C153 242 172 284 244 289 L244 135 Z M356 387 C305 404 265 411 224 411 C91 411 15 320 15 192 C15 89 49 -5 161 -5 C176 -5 212 -3 253 28 L262 17 C273 6 281 0 296 0 L346 0 C365 0 377 12 377 31 L377 354 C377 369 371 380 356 387 L356 387 Z M127 532 C123 525 121 519 121 514 C121 503 136 489 137 488 L153 472 C161 464 169 456 181 456 C192 456 202 459 212 466 C317 550 316 552 317 552 C320 557 321 562 321 567 C321 580 316 587 309 594 L266 643 C260 648 252 650 242 650 C230 647 229 648 218 637 L127 532 Z " />
<glyph glyph-name="acircumflex" unicode="&#xe2;" horiz-adv-x="417" d="M244 135 C241 131 237 128 233 125 C226 120 215 116 204 116 C176 116 153 128 153 191 C153 242 172 284 244 289 L244 135 Z M356 387 C305 404 265 411 224 411 C91 411 15 320 15 192 C15 89 49 -5 161 -5 C176 -5 212 -3 253 28 L262 17 C273 6 281 0 296 0 L346 0 C365 0 377 12 377 31 L377 354 C377 369 371 380 356 387 L356 387 Z M151 650 C135 650 123 638 116 622 L45 490 C45 471 58 456 77 456 L145 456 C164 456 174 468 179 485 L199 533 L220 485 C225 468 235 456 254 456 L321 456 C340 456 353 471 353 490 L282 622 C275 638 263 650 247 650 L151 650 Z " />
<glyph glyph-name="atilde" unicode="&#xe3;" horiz-adv-x="417" d="M244 135 C241 131 237 128 233 125 C226 120 215 116 204 116 C176 116 153 128 153 191 C153 242 172 284 244 289 L244 135 Z M356 387 C305 404 265 411 224 411 C91 411 15 320 15 192 C15 89 49 -5 161 -5 C176 -5 212 -3 253 28 L262 17 C273 6 281 0 296 0 L346 0 C365 0 377 12 377 31 L377 354 C377 369 371 380 356 387 L356 387 Z M261 456 C288 456 331 471 360 494 C367 501 374 511 374 520 C374 527 370 533 367 538 L338 578 C333 585 323 591 312 591 C293 591 280 577 261 577 C216 577 177 610 133 610 C105 610 63 595 34 572 C25 564 20 555 20 546 C20 539 23 532 26 527 L55 488 C61 479 70 474 81 474 C101 474 114 489 133 489 C179 489 216 456 261 456 L261 456 Z " />
<glyph glyph-name="adieresis" unicode="&#xe4;" horiz-adv-x="417" d="M244 135 C241 131 237 128 233 125 C226 120 215 116 204 116 C176 116 153 128 153 191 C153 242 172 284 244 289 L244 135 Z M356 387 C305 404 265 411 224 411 C91 411 15 320 15 192 C15 89 49 -5 161 -5 C176 -5 212 -3 253 28 L262 17 C273 6 281 0 296 0 L346 0 C365 0 377 12 377 31 L377 354 C377 369 371 380 356 387 L356 387 Z M34 528 C34 488 65 456 105 456 C145 456 177 488 177 528 C177 568 145 599 105 599 C65 599 34 568 34 528 L34 528 Z M210 528 C210 488 241 456 281 456 C321 456 353 488 353 528 C353 568 321 599 281 599 C241 599 210 568 210 528 L210 528 Z " />
<glyph glyph-name="aring" unicode="&#xe5;" horiz-adv-x="417" d="M244 135 C241 131 237 128 233 125 C226 120 215 116 204 116 C176 116 153 128 153 191 C153 242 172 284 244 289 L244 135 Z M356 387 C305 404 265 411 224 411 C91 411 15 320 15 192 C15 89 49 -5 161 -5 C176 -5 212 -3 253 28 L262 17 C273 6 281 0 296 0 L346 0 C365 0 377 12 377 31 L377 354 C377 369 371 380 356 387 L356 387 Z M220 552 C212 552 192 556 192 583 C192 608 212 613 220 613 C227 613 247 608 247 583 C247 556 227 552 220 552 L220 552 Z M220 456 C292 456 341 495 341 583 C341 671 292 710 220 710 C148 710 98 671 98 583 C98 495 148 456 220 456 L220 456 Z " />
<glyph glyph-name="ae" unicode="&#xe6;" horiz-adv-x="633" d="M581 121 C575 133 566 139 555 139 C550 139 543 138 539 135 C512 116 486 111 450 111 C405 111 379 121 379 146 C403 139 431 137 455 137 C547 137 606 184 606 280 C606 355 544 411 436 411 C397 411 366 404 339 392 C298 405 260 411 224 411 C91 411 15 320 15 192 C15 89 49 -5 161 -5 C174 -5 249 -5 294 50 C327 13 377 -5 442 -5 C486 -5 539 -2 586 35 C597 43 604 54 604 67 C604 69 603 72 602 76 L581 121 Z M244 135 C241 131 237 128 233 125 C226 120 215 116 204 116 C176 116 153 128 153 191 C153 242 172 284 244 289 L244 135 Z M436 289 C456 289 473 285 473 265 C473 248 458 240 427 240 C415 240 393 246 378 255 C389 275 411 289 436 289 L436 289 Z " />
<glyph glyph-name="ccedilla" unicode="&#xe7;" horiz-adv-x="407" d="M334 137 C327 137 321 136 317 133 C282 116 260 116 237 116 C198 116 158 142 158 204 C158 265 198 289 237 289 C260 289 282 289 317 273 C322 270 327 268 334 268 C346 268 357 273 362 286 C384 332 385 334 385 338 C385 351 377 362 366 370 C321 403 274 411 229 411 C94 411 25 336 25 204 C25 95 73 23 165 2 C176 -5 181 -13 181 -33 C181 -54 169 -57 146 -57 C135 -57 131 -55 116 -52 C97 -52 89 -58 89 -83 L89 -123 C89 -141 141 -155 183 -155 C255 -155 296 -126 296 -46 C296 -28 295 -12 293 2 C317 9 342 18 366 35 C377 42 385 54 385 67 L362 119 C357 132 345 137 334 137 L334 137 Z " />
<glyph glyph-name="egrave" unicode="&#xe8;" horiz-adv-x="414" d="M320 135 C293 116 267 111 231 111 C186 111 160 121 160 146 C184 139 212 137 236 137 C328 137 387 184 387 280 C387 355 325 411 217 411 C82 411 25 330 25 207 C25 74 87 -5 223 -5 C267 -5 320 -2 367 35 C378 43 385 54 385 67 C385 69 384 72 383 76 L362 121 C356 133 347 139 336 139 C331 139 324 138 320 135 L320 135 Z M217 289 C237 289 254 285 254 265 C254 248 239 240 208 240 C196 240 174 246 159 255 C170 275 192 289 217 289 L217 289 Z M234 637 C223 648 222 647 210 650 C200 650 192 648 186 643 L143 594 C136 587 131 580 131 567 C131 562 132 557 135 552 C136 552 135 550 240 466 C250 459 260 456 271 456 C283 456 291 464 299 472 L315 488 C316 489 331 503 331 514 C331 519 329 525 325 532 L234 637 Z " />
<glyph glyph-name="eacute" unicode="&#xe9;" horiz-adv-x="414" d="M320 135 C293 116 267 111 231 111 C186 111 160 121 160 146 C184 139 212 137 236 137 C328 137 387 184 387 280 C387 355 325 411 217 411 C82 411 25 330 25 207 C25 74 87 -5 223 -5 C267 -5 320 -2 367 35 C378 43 385 54 385 67 C385 69 384 72 383 76 L362 121 C356 133 347 139 336 139 C331 139 324 138 320 135 L320 135 Z M217 289 C237 289 254 285 254 265 C254 248 239 240 208 240 C196 240 174 246 159 255 C170 275 192 289 217 289 L217 289 Z M137 532 C133 525 131 519 131 514 C131 503 146 489 147 488 L163 472 C171 464 179 456 191 456 C202 456 212 459 222 466 C327 550 326 552 327 552 C330 557 331 562 331 567 C331 580 326 587 319 594 L276 643 C270 648 262 650 252 650 C240 647 239 648 228 637 L137 532 Z " />
<glyph glyph-name="ecircumflex" unicode="&#xea;" horiz-adv-x="414" d="M320 135 C293 116 267 111 231 111 C186 111 160 121 160 146 C184 139 212 137 236 137 C328 137 387 184 387 280 C387 355 325 411 217 411 C82 411 25 330 25 207 C25 74 87 -5 223 -5 C267 -5 320 -2 367 35 C378 43 385 54 385 67 C385 69 384 72 383 76 L362 121 C356 133 347 139 336 139 C331 139 324 138 320 135 L320 135 Z M217 289 C237 289 254 285 254 265 C254 248 239 240 208 240 C196 240 174 246 159 255 C170 275 192 289 217 289 L217 289 Z M173 650 C157 650 145 638 138 622 L67 490 C67 471 80 456 99 456 L167 456 C186 456 196 468 201 485 L221 533 L242 485 C247 468 257 456 276 456 L343 456 C362 456 375 471 375 490 L304 622 C297 638 285 650 269 650 L173 650 Z " />
<glyph glyph-name="edieresis" unicode="&#xeb;" horiz-adv-x="414" d="M320 135 C293 116 267 111 231 111 C186 111 160 121 160 146 C184 139 212 137 236 137 C328 137 387 184 387 280 C387 355 325 411 217 411 C82 411 25 330 25 207 C25 74 87 -5 223 -5 C267 -5 320 -2 367 35 C378 43 385 54 385 67 C385 69 384 72 383 76 L362 121 C356 133 347 139 336 139 C331 139 324 138 320 135 L320 135 Z M217 289 C237 289 254 285 254 265 C254 248 239 240 208 240 C196 240 174 246 159 255 C170 275 192 289 217 289 L217 289 Z M44 528 C44 488 75 456 115 456 C155 456 187 488 187 528 C187 568 155 599 115 599 C75 599 44 568 44 528 L44 528 Z M220 528 C220 488 251 456 291 456 C331 456 363 488 363 528 C363 568 331 599 291 599 C251 599 220 568 220 528 L220 528 Z " />
<glyph glyph-name="igrave" unicode="&#xec;" horiz-adv-x="213" d="M173 373 C173 392 160 405 141 405 L71 405 C52 405 40 392 40 373 L40 32 C40 13 52 0 71 0 L141 0 C160 0 173 13 173 32 L173 373 Z M106 636 C95 647 94 646 82 649 C72 649 64 647 58 642 L15 593 C8 586 3 579 3 566 C3 561 4 556 7 551 C8 551 7 549 112 465 C122 458 132 455 143 455 C155 455 163 463 171 471 L187 487 C188 488 203 502 203 513 C203 518 201 524 197 531 L106 636 Z " />
<glyph glyph-name="iacute" unicode="&#xed;" horiz-adv-x="214" d="M40 32 C40 13 53 0 72 0 L142 0 C161 0 173 13 173 32 L173 373 C173 392 161 405 142 405 L72 405 C53 405 40 392 40 373 L40 32 Z M16 531 C12 524 10 518 10 513 C10 502 25 488 26 487 L42 471 C50 463 58 455 70 455 C81 455 91 458 101 465 C206 549 205 551 206 551 C209 556 210 561 210 566 C210 579 205 586 198 593 L155 642 C149 647 141 649 131 649 C119 646 118 647 107 636 L16 531 Z " />
<glyph glyph-name="icircumflex" unicode="&#xee;" horiz-adv-x="213" d="M40 32 C40 13 53 0 72 0 L142 0 C161 0 173 13 173 32 L173 373 C173 392 161 405 142 405 L72 405 C53 405 40 392 40 373 L40 32 Z M58 650 C42 650 30 638 23 622 L-48 490 C-48 471 -35 456 -16 456 L52 456 C71 456 81 468 86 485 L106 533 L127 485 C132 468 142 456 161 456 L228 456 C247 456 260 471 260 490 L189 622 C182 638 170 650 154 650 L58 650 Z " />
<glyph glyph-name="idieresis" unicode="&#xef;" horiz-adv-x="213" d="M40 32 C40 13 53 0 72 0 L142 0 C161 0 173 13 173 32 L173 373 C173 392 161 405 142 405 L72 405 C53 405 40 392 40 373 L40 32 Z M-53 528 C-53 488 -22 456 18 456 C58 456 90 488 90 528 C90 568 58 599 18 599 C-22 599 -53 568 -53 528 L-53 528 Z M123 528 C123 488 154 456 194 456 C234 456 266 488 266 528 C266 568 234 599 194 599 C154 599 123 568 123 528 L123 528 Z " />
<glyph glyph-name="eth" unicode="&#xf0;" horiz-adv-x="445" d="M378 581 C378 597 367 609 352 609 L298 609 C271 609 261 597 254 586 L243 569 C230 571 216 572 202 572 C157 572 108 566 63 531 C52 524 47 519 47 507 C47 503 47 500 48 498 L67 449 C72 436 84 430 96 430 C100 430 107 431 112 434 C132 443 150 449 167 450 L141 409 C141 394 152 382 167 382 L220 382 C247 382 258 394 265 405 L273 417 C282 406 287 390 287 371 L287 347 C268 356 236 364 215 364 C86 364 25 324 25 189 C25 64 85 -5 222 -5 C359 -5 420 64 420 189 L420 360 C420 436 393 494 345 530 L378 581 Z M222 244 C281 244 287 204 287 180 C287 157 275 117 222 117 C167 117 158 156 158 180 C158 204 161 244 222 244 L222 244 Z " />
<glyph glyph-name="ntilde" unicode="&#xf1;" horiz-adv-x="427" d="M40 31 C40 12 52 0 71 0 L142 0 C161 0 173 12 173 31 L173 283 C185 288 207 289 214 289 C259 289 264 276 264 216 L264 31 C264 12 276 0 295 0 L365 0 C384 0 397 12 397 31 L397 217 C397 350 346 411 211 411 C167 411 108 404 61 389 C46 382 40 371 40 356 L40 31 Z M283 456 C310 456 353 471 382 494 C389 501 396 511 396 520 C396 527 392 533 389 538 L360 578 C355 585 345 591 334 591 C315 591 302 577 283 577 C238 577 199 610 155 610 C127 610 85 595 56 572 C47 564 42 555 42 546 C42 539 45 532 48 527 L77 488 C83 479 92 474 103 474 C123 474 136 489 155 489 C201 489 238 456 283 456 L283 456 Z " />
<glyph glyph-name="ograve" unicode="&#xf2;" horiz-adv-x="446" d="M223 116 C164 116 161 170 161 206 C161 241 170 289 223 289 C276 289 285 241 285 206 C285 170 282 116 223 116 L223 116 Z M223 -5 C359 -5 421 74 421 207 C421 330 358 411 223 411 C88 411 25 330 25 207 C25 74 87 -5 223 -5 L223 -5 Z M225 637 C214 648 213 647 201 650 C191 650 183 648 177 643 L134 594 C127 587 122 580 122 567 C122 562 123 557 126 552 C127 552 126 550 231 466 C241 459 251 456 262 456 C274 456 282 464 290 472 L306 488 C307 489 322 503 322 514 C322 519 320 525 316 532 L225 637 Z " />
<glyph glyph-name="oacute" unicode="&#xf3;" horiz-adv-x="446" d="M223 116 C164 116 161 170 161 206 C161 241 170 289 223 289 C276 289 285 241 285 206 C285 170 282 116 223 116 L223 116 Z M223 -5 C359 -5 421 74 421 207 C421 330 358 411 223 411 C88 411 25 330 25 207 C25 74 87 -5 223 -5 L223 -5 Z M130 532 C126 525 124 519 124 514 C124 503 139 489 140 488 L156 472 C164 464 172 456 184 456 C195 456 205 459 215 466 C320 550 319 552 320 552 C323 557 324 562 324 567 C324 580 319 587 312 594 L269 643 C263 648 255 650 245 650 C233 647 232 648 221 637 L130 532 Z " />
<glyph glyph-name="ocircumflex" unicode="&#xf4;" horiz-adv-x="446" d="M223 116 C164 116 161 170 161 206 C161 241 170 289 223 289 C276 289 285 241 285 206 C285 170 282 116 223 116 L223 116 Z M223 -5 C359 -5 421 74 421 207 C421 330 358 411 223 411 C88 411 25 330 25 207 C25 74 87 -5 223 -5 L223 -5 Z M175 650 C159 650 147 638 140 622 L69 490 C69 471 82 456 101 456 L169 456 C188 456 198 468 203 485 L223 533 L244 485 C249 468 259 456 278 456 L345 456 C364 456 377 471 377 490 L306 622 C299 638 287 650 271 650 L175 650 Z " />
<glyph glyph-name="otilde" unicode="&#xf5;" horiz-adv-x="446" d="M223 116 C164 116 161 170 161 206 C161 241 170 289 223 289 C276 289 285 241 285 206 C285 170 282 116 223 116 L223 116 Z M223 -5 C359 -5 421 74 421 207 C421 330 358 411 223 411 C88 411 25 330 25 207 C25 74 87 -5 223 -5 L223 -5 Z M286 456 C313 456 356 471 385 494 C392 501 399 511 399 520 C399 527 395 533 392 538 L363 578 C358 585 348 591 337 591 C318 591 305 577 286 577 C241 577 202 610 158 610 C130 610 88 595 59 572 C50 564 45 555 45 546 C45 539 48 532 51 527 L80 488 C86 479 95 474 106 474 C126 474 139 489 158 489 C204 489 241 456 286 456 L286 456 Z " />
<glyph glyph-name="odieresis" unicode="&#xf6;" horiz-adv-x="446" d="M223 116 C164 116 161 170 161 206 C161 241 170 289 223 289 C276 289 285 241 285 206 C285 170 282 116 223 116 L223 116 Z M223 -5 C359 -5 421 74 421 207 C421 330 358 411 223 411 C88 411 25 330 25 207 C25 74 87 -5 223 -5 L223 -5 Z M64 528 C64 488 95 456 135 456 C175 456 207 488 207 528 C207 568 175 599 135 599 C95 599 64 568 64 528 L64 528 Z M240 528 C240 488 271 456 311 456 C351 456 383 488 383 528 C383 568 351 599 311 599 C271 599 240 568 240 528 L240 528 Z " />
<glyph glyph-name="divide" unicode="&#xf7;" horiz-adv-x="395" d="M323 159 C342 159 355 172 355 191 L355 248 C355 267 342 280 323 280 L72 280 C53 280 40 267 40 248 L40 191 C40 172 53 159 72 159 L323 159 Z M126 67 C126 27 157 -5 197 -5 C237 -5 269 27 269 67 C269 107 237 138 197 138 C157 138 126 107 126 67 L126 67 Z M126 372 C126 332 157 301 197 301 C237 301 269 332 269 372 C269 412 237 444 197 444 C157 444 126 412 126 372 L126 372 Z " />
<glyph glyph-name="oslash" unicode="&#xf8;" horiz-adv-x="446" d="M362 469 C362 488 353 503 334 503 L300 503 C281 503 279 493 271 478 L247 410 C239 410 231 411 223 411 C88 411 25 330 25 207 C25 118 54 52 114 19 L85 -66 C85 -85 95 -97 114 -97 L147 -97 C163 -97 169 -87 176 -72 L199 -4 C207 -4 215 -5 223 -5 C359 -5 421 74 421 207 C421 290 393 353 333 386 L362 469 Z M161 206 C161 237 168 276 205 287 L164 166 C161 179 161 194 161 206 L161 206 Z M285 206 C285 174 282 129 241 118 L282 236 C284 226 285 216 285 206 L285 206 Z " />
<glyph glyph-name="ugrave" unicode="&#xf9;" horiz-adv-x="438" d="M265 131 C253 118 232 116 224 116 C178 116 163 120 163 180 L163 374 C163 393 151 405 132 405 L61 405 C42 405 30 393 30 374 L30 180 C30 48 92 -5 227 -5 C272 -5 323 6 378 34 C389 41 398 52 398 67 L398 374 C398 393 385 405 366 405 L297 405 C278 405 265 393 265 374 L265 131 Z M215 637 C204 648 203 647 191 650 C181 650 173 648 167 643 L124 594 C117 587 112 580 112 567 C112 562 113 557 116 552 C117 552 116 550 221 466 C231 459 241 456 252 456 C264 456 272 464 280 472 L296 488 C297 489 312 503 312 514 C312 519 310 525 306 532 L215 637 Z " />
<glyph glyph-name="uacute" unicode="&#xfa;" horiz-adv-x="438" d="M265 131 C253 118 232 116 224 116 C178 116 163 120 163 180 L163 374 C163 393 151 405 132 405 L61 405 C42 405 30 393 30 374 L30 180 C30 48 92 -5 227 -5 C272 -5 323 6 378 34 C389 41 398 52 398 67 L398 374 C398 393 385 405 366 405 L297 405 C278 405 265 393 265 374 L265 131 Z M118 532 C114 525 112 519 112 514 C112 503 127 489 128 488 L144 472 C152 464 160 456 172 456 C183 456 193 459 203 466 C308 550 307 552 308 552 C311 557 312 562 312 567 C312 580 307 587 300 594 L257 643 C251 648 243 650 233 650 C221 647 220 648 209 637 L118 532 Z " />
<glyph glyph-name="ucircumflex" unicode="&#xfb;" horiz-adv-x="438" d="M265 131 C253 118 232 116 224 116 C178 116 163 120 163 180 L163 374 C163 393 151 405 132 405 L61 405 C42 405 30 393 30 374 L30 180 C30 48 92 -5 227 -5 C272 -5 323 6 378 34 C389 41 398 52 398 67 L398 374 C398 393 385 405 366 405 L297 405 C278 405 265 393 265 374 L265 131 Z M166 650 C150 650 138 638 131 622 L60 490 C60 471 73 456 92 456 L160 456 C179 456 189 468 194 485 L214 533 L235 485 C240 468 250 456 269 456 L336 456 C355 456 368 471 368 490 L297 622 C290 638 278 650 262 650 L166 650 Z " />
<glyph glyph-name="udieresis" unicode="&#xfc;" horiz-adv-x="438" d="M265 131 C253 118 232 116 224 116 C178 116 163 120 163 180 L163 374 C163 393 151 405 132 405 L61 405 C42 405 30 393 30 374 L30 180 C30 48 92 -5 227 -5 C272 -5 323 6 378 34 C389 41 398 52 398 67 L398 374 C398 393 385 405 366 405 L297 405 C278 405 265 393 265 374 L265 131 Z M53 528 C53 488 84 456 124 456 C164 456 196 488 196 528 C196 568 164 599 124 599 C84 599 53 568 53 528 L53 528 Z M229 528 C229 488 260 456 300 456 C340 456 372 488 372 528 C372 568 340 599 300 599 C260 599 229 568 229 528 L229 528 Z " />
<glyph glyph-name="yacute" unicode="&#xfd;" horiz-adv-x="427" d="M100 7 C76 -17 58 -58 58 -97 C58 -193 151 -219 192 -219 C387 -219 387 -80 387 -16 L387 374 C387 393 375 405 356 405 L285 405 C266 405 254 393 254 374 L254 120 C251 116 247 113 243 110 C236 105 225 101 214 101 C186 101 163 105 163 167 L163 374 C163 393 151 405 132 405 L61 405 C42 405 30 393 30 374 L30 163 C30 94 53 34 100 7 L100 7 Z M254 -41 C254 -73 240 -100 217 -100 C189 -100 186 -73 186 -62 C186 -45 195 -18 254 11 L254 -41 Z M115 532 C111 525 109 519 109 514 C109 503 124 489 125 488 L141 472 C149 464 157 456 169 456 C180 456 190 459 200 466 C305 550 304 552 305 552 C308 557 309 562 309 567 C309 580 304 587 297 594 L254 643 C248 648 240 650 230 650 C218 647 217 648 206 637 L115 532 Z " />
<glyph glyph-name="thorn" unicode="&#xfe;" horiz-adv-x="435" d="M173 536 C173 555 160 568 141 568 L71 568 C52 568 40 555 40 536 L40 -164 C40 -183 52 -196 71 -196 L142 -196 C161 -196 173 -183 173 -164 L173 -3 C186 -6 200 -5 211 -5 C347 -5 415 63 415 196 C415 329 347 411 211 411 C199 411 186 410 173 409 L173 536 Z M173 283 C186 288 207 289 214 289 C261 289 277 259 277 196 C277 136 242 116 203 116 C195 116 182 116 173 117 L173 283 Z " />
<glyph glyph-name="ydieresis" unicode="&#xff;" horiz-adv-x="427" d="M100 7 C76 -17 58 -58 58 -97 C58 -193 151 -219 192 -219 C387 -219 387 -80 387 -16 L387 374 C387 393 375 405 356 405 L285 405 C266 405 254 393 254 374 L254 120 C251 116 247 113 243 110 C236 105 225 101 214 101 C186 101 163 105 163 167 L163 374 C163 393 151 405 132 405 L61 405 C42 405 30 393 30 374 L30 163 C30 94 53 34 100 7 L100 7 Z M254 -41 C254 -73 240 -100 217 -100 C189 -100 186 -73 186 -62 C186 -45 195 -18 254 11 L254 -41 Z M48 528 C48 488 79 456 119 456 C159 456 191 488 191 528 C191 568 159 599 119 599 C79 599 48 568 48 528 L48 528 Z M224 528 C224 488 255 456 295 456 C335 456 367 488 367 528 C367 568 335 599 295 599 C255 599 224 568 224 528 L224 528 Z " />
<glyph glyph-name="Amacron" unicode="&#x100;" horiz-adv-x="516" d="M260 362 L300 247 L220 247 L260 362 Z M516 71 C516 84 510 93 499 99 C492 102 489 114 482 130 L339 539 C332 556 319 568 303 568 L216 568 C200 568 187 556 180 539 L5 32 C5 13 18 0 37 0 L111 0 C127 0 141 14 145 30 L177 124 L342 124 C357 88 357 81 362 68 C373 36 392 -5 445 -5 C474 -5 516 5 516 37 L516 71 Z M386 618 C405 618 418 631 418 650 L418 707 C418 726 405 739 386 739 L135 739 C116 739 103 726 103 707 L103 650 C103 631 116 618 135 618 L386 618 Z " />
<glyph glyph-name="amacron" unicode="&#x101;" horiz-adv-x="417" d="M244 135 C241 131 237 128 233 125 C226 120 215 116 204 116 C176 116 153 128 153 191 C153 242 172 284 244 289 L244 135 Z M356 387 C305 404 265 411 224 411 C91 411 15 320 15 192 C15 89 49 -5 161 -5 C176 -5 212 -3 253 28 L262 17 C273 6 281 0 296 0 L346 0 C365 0 377 12 377 31 L377 354 C377 369 371 380 356 387 L356 387 Z M332 456 C351 456 364 469 364 488 L364 545 C364 564 351 577 332 577 L81 577 C62 577 49 564 49 545 L49 488 C49 469 62 456 81 456 L332 456 Z " />
<glyph glyph-name="Abreve" unicode="&#x102;" horiz-adv-x="516" d="M260 362 L300 247 L220 247 L260 362 Z M516 71 C516 84 510 93 499 99 C492 102 489 114 482 130 L339 539 C332 556 319 568 303 568 L216 568 C200 568 187 556 180 539 L5 32 C5 13 18 0 37 0 L111 0 C127 0 141 14 145 30 L177 124 L342 124 C357 88 357 81 362 68 C373 36 392 -5 445 -5 C474 -5 516 5 516 37 L516 71 Z M260 618 C375 618 436 652 436 787 C436 806 423 819 404 819 L337 819 C318 819 305 806 305 787 C305 754 295 738 260 738 C227 738 216 754 216 787 C216 806 203 819 184 819 L117 819 C98 819 85 806 85 787 C85 652 146 618 260 618 L260 618 Z " />
<glyph glyph-name="abreve" unicode="&#x103;" horiz-adv-x="417" d="M244 135 C241 131 237 128 233 125 C226 120 215 116 204 116 C176 116 153 128 153 191 C153 242 172 284 244 289 L244 135 Z M356 387 C305 404 265 411 224 411 C91 411 15 320 15 192 C15 89 49 -5 161 -5 C176 -5 212 -3 253 28 L262 17 C273 6 281 0 296 0 L346 0 C365 0 377 12 377 31 L377 354 C377 369 371 380 356 387 L356 387 Z M194 456 C309 456 370 490 370 625 C370 644 357 657 338 657 L271 657 C252 657 239 644 239 625 C239 592 229 576 194 576 C161 576 150 592 150 625 C150 644 137 657 118 657 L51 657 C32 657 19 644 19 625 C19 490 80 456 194 456 L194 456 Z " />
<glyph glyph-name="Aogonek" unicode="&#x104;" horiz-adv-x="516" d="M260 362 L300 247 L220 247 L260 362 Z M476 0 C496 4 516 17 516 37 L516 71 C516 84 510 93 499 99 C492 102 489 114 482 130 L339 539 C332 556 319 568 303 568 L216 568 C200 568 187 556 180 539 L5 32 C5 13 18 0 37 0 L111 0 C127 0 141 14 145 30 L177 124 L342 124 C357 88 357 81 362 68 C366 57 374 40 381 29 C350 6 331 -14 331 -57 C331 -118 366 -136 414 -136 C455 -136 508 -123 508 -104 L508 -65 C508 -40 500 -34 481 -34 L467 -38 L461 -38 C450 -38 450 -30 450 -22 C450 -9 461 -3 476 0 L476 0 Z " />
<glyph glyph-name="aogonek" unicode="&#x105;" horiz-adv-x="417" d="M244 135 C241 131 237 128 233 125 C226 120 215 116 204 116 C176 116 153 128 153 191 C153 242 172 284 244 289 L244 135 Z M363 5 C374 13 377 22 377 31 L377 354 C377 369 371 380 356 387 C305 404 265 411 224 411 C91 411 15 320 15 192 C15 89 49 -5 161 -5 C176 -5 212 -3 253 28 L262 19 C239 0 212 -23 212 -59 C212 -119 246 -137 294 -137 C335 -137 377 -127 377 -108 L377 -69 C377 -44 373 -37 360 -36 C355 -36 348 -40 341 -40 C330 -40 329 -33 329 -25 C329 -13 344 -8 363 5 L363 5 Z " />
<glyph glyph-name="Cacute" unicode="&#x106;" horiz-adv-x="456" d="M421 530 C374 561 326 572 281 572 C147 572 25 516 25 280 C25 68 147 -5 281 -5 C326 -5 374 7 421 38 C432 45 441 57 441 70 L418 123 C413 135 400 141 389 141 C382 141 377 139 372 136 C329 121 313 116 290 116 C247 116 158 147 158 280 C158 442 247 450 290 450 C310 450 340 448 372 433 C376 430 384 428 389 428 C400 428 413 434 418 447 C439 492 441 494 441 498 C441 511 432 523 421 530 L421 530 Z M168 694 C164 687 162 681 162 676 C162 665 177 651 178 650 L194 634 C202 626 210 618 222 618 C233 618 243 621 253 628 C358 712 357 714 358 714 C361 719 362 724 362 729 C362 742 357 749 350 756 L307 805 C301 810 293 812 283 812 C271 809 270 810 259 799 L168 694 Z " />
<glyph glyph-name="cacute" unicode="&#x107;" horiz-adv-x="407" d="M366 370 C321 403 274 411 229 411 C94 411 25 336 25 204 C25 71 94 -5 229 -5 C273 -5 319 3 366 35 C377 42 385 54 385 67 L362 119 C357 132 345 137 334 137 C327 137 321 136 317 133 C282 116 260 116 237 116 C198 116 158 142 158 204 C158 265 198 289 237 289 C260 289 282 289 317 273 C322 270 327 268 334 268 C346 268 357 273 362 286 C384 332 385 334 385 338 C385 351 377 362 366 370 L366 370 Z M118 532 C114 525 112 519 112 514 C112 503 127 489 128 488 L144 472 C152 464 160 456 172 456 C183 456 193 459 203 466 C308 550 307 552 308 552 C311 557 312 562 312 567 C312 580 307 587 300 594 L257 643 C251 648 243 650 233 650 C221 647 220 648 209 637 L118 532 Z " />
<glyph glyph-name="Ccircumflex" unicode="&#x108;" horiz-adv-x="456" d="M421 530 C374 561 326 572 281 572 C147 572 25 516 25 280 C25 68 147 -5 281 -5 C326 -5 374 7 421 38 C432 45 441 57 441 70 L418 123 C413 135 400 141 389 141 C382 141 377 139 372 136 C329 121 313 116 290 116 C247 116 158 147 158 280 C158 442 247 450 290 450 C310 450 340 448 372 433 C376 430 384 428 389 428 C400 428 413 434 418 447 C439 492 441 494 441 498 C441 511 432 523 421 530 L421 530 Z M192 812 C176 812 164 800 157 784 L86 652 C86 633 99 618 118 618 L186 618 C205 618 215 630 220 647 L240 695 L261 647 C266 630 276 618 295 618 L362 618 C381 618 394 633 394 652 L323 784 C316 800 304 812 288 812 L192 812 Z " />
<glyph glyph-name="ccircumflex" unicode="&#x109;" horiz-adv-x="407" d="M366 370 C321 403 274 411 229 411 C94 411 25 336 25 204 C25 71 94 -5 229 -5 C273 -5 319 3 366 35 C377 42 385 54 385 67 L362 119 C357 132 345 137 334 137 C327 137 321 136 317 133 C282 116 260 116 237 116 C198 116 158 142 158 204 C158 265 198 289 237 289 C260 289 282 289 317 273 C322 270 327 268 334 268 C346 268 357 273 362 286 C384 332 385 334 385 338 C385 351 377 362 366 370 L366 370 Z M158 650 C142 650 130 638 123 622 L52 490 C52 471 65 456 84 456 L152 456 C171 456 181 468 186 485 L206 533 L227 485 C232 468 242 456 261 456 L328 456 C347 456 360 471 360 490 L289 622 C282 638 270 650 254 650 L158 650 Z " />
<glyph glyph-name="Cdotaccent" unicode="&#x10a;" horiz-adv-x="456" d="M421 530 C374 561 326 572 281 572 C147 572 25 516 25 280 C25 68 147 -5 281 -5 C326 -5 374 7 421 38 C432 45 441 57 441 70 L418 123 C413 135 400 141 389 141 C382 141 377 139 372 136 C329 121 313 116 290 116 C247 116 158 147 158 280 C158 442 247 450 290 450 C310 450 340 448 372 433 C376 430 384 428 389 428 C400 428 413 434 418 447 C439 492 441 494 441 498 C441 511 432 523 421 530 L421 530 Z M183 690 C183 650 214 618 254 618 C294 618 326 650 326 690 C326 730 294 761 254 761 C214 761 183 730 183 690 L183 690 Z " />
<glyph glyph-name="cdotaccent" unicode="&#x10b;" horiz-adv-x="407" d="M366 370 C321 403 274 411 229 411 C94 411 25 336 25 204 C25 71 94 -5 229 -5 C273 -5 319 3 366 35 C377 42 385 54 385 67 L362 119 C357 132 345 137 334 137 C327 137 321 136 317 133 C282 116 260 116 237 116 C198 116 158 142 158 204 C158 265 198 289 237 289 C260 289 282 289 317 273 C322 270 327 268 334 268 C346 268 357 273 362 286 C384 332 385 334 385 338 C385 351 377 362 366 370 L366 370 Z M145 528 C145 488 176 456 216 456 C256 456 288 488 288 528 C288 568 256 599 216 599 C176 599 145 568 145 528 L145 528 Z " />
<glyph glyph-name="Ccaron" unicode="&#x10c;" horiz-adv-x="456" d="M421 530 C374 561 326 572 281 572 C147 572 25 516 25 280 C25 68 147 -5 281 -5 C326 -5 374 7 421 38 C432 45 441 57 441 70 L418 123 C413 135 400 141 389 141 C382 141 377 139 372 136 C329 121 313 116 290 116 C247 116 158 147 158 280 C158 442 247 450 290 450 C310 450 340 448 372 433 C376 430 384 428 389 428 C400 428 413 434 418 447 C439 492 441 494 441 498 C441 511 432 523 421 530 L421 530 Z M301 618 C317 618 329 630 336 646 L407 778 C407 797 394 812 375 812 L308 812 C289 812 279 800 274 783 L253 735 L233 783 C228 800 218 812 199 812 L131 812 C112 812 99 797 99 778 L170 646 C177 630 189 618 205 618 L301 618 Z " />
<glyph glyph-name="ccaron" unicode="&#x10d;" horiz-adv-x="407" d="M366 370 C321 403 274 411 229 411 C94 411 25 336 25 204 C25 71 94 -5 229 -5 C273 -5 319 3 366 35 C377 42 385 54 385 67 L362 119 C357 132 345 137 334 137 C327 137 321 136 317 133 C282 116 260 116 237 116 C198 116 158 142 158 204 C158 265 198 289 237 289 C260 289 282 289 317 273 C322 270 327 268 334 268 C346 268 357 273 362 286 C384 332 385 334 385 338 C385 351 377 362 366 370 L366 370 Z M255 456 C271 456 283 468 290 484 L361 616 C361 635 348 650 329 650 L262 650 C243 650 233 638 228 621 L207 573 L187 621 C182 638 172 650 153 650 L85 650 C66 650 53 635 53 616 L124 484 C131 468 143 456 159 456 L255 456 Z " />
<glyph glyph-name="Dcaron" unicode="&#x10e;" horiz-adv-x="482" d="M253 0 C390 0 457 74 457 209 L457 359 C457 494 390 568 253 568 L72 568 C53 568 40 555 40 536 L40 33 C40 14 53 0 72 0 L253 0 Z M324 207 C324 144 291 121 251 121 L173 121 L173 446 L251 446 C291 446 324 423 324 360 L324 207 Z M283 618 C299 618 311 630 318 646 L389 778 C389 797 376 812 357 812 L290 812 C271 812 261 800 256 783 L235 735 L215 783 C210 800 200 812 181 812 L113 812 C94 812 81 797 81 778 L152 646 C159 630 171 618 187 618 L283 618 Z " />
<glyph glyph-name="dcaron" unicode="&#x10f;" horiz-adv-x="596" d="M431 403 C431 383 444 368 463 368 L513 368 C530 368 543 381 548 396 L601 536 C601 555 588 568 569 568 L499 568 C480 568 471 555 467 539 L431 403 Z M163 210 C163 270 191 289 230 289 C237 289 255 287 267 279 L267 122 C254 117 233 116 226 116 C179 116 163 147 163 210 L163 210 Z M400 537 C400 556 388 568 369 568 L298 568 C279 568 267 556 267 537 L267 401 C243 410 217 411 206 411 C105 411 25 342 25 210 C25 77 93 -5 229 -5 C273 -5 332 1 379 17 C394 24 400 35 400 50 L400 537 Z " />
<glyph glyph-name="Dcroat" unicode="&#x110;" horiz-adv-x="529" d="M300 0 C437 0 504 74 504 209 L504 359 C504 494 437 568 300 568 L119 568 C100 568 87 555 87 536 L87 340 L37 340 C18 340 5 327 5 308 L5 251 C5 232 18 219 37 219 L87 219 L87 33 C87 14 100 0 119 0 L300 0 Z M371 207 C371 144 338 121 298 121 L220 121 L220 219 L288 219 C307 219 320 232 320 251 L320 308 C320 327 307 340 288 340 L220 340 L220 446 L298 446 C338 446 371 423 371 360 L371 207 Z " />
<glyph glyph-name="dcroat" unicode="&#x111;" horiz-adv-x="475" d="M163 210 C163 270 191 289 230 289 C237 289 255 287 267 279 L267 122 C254 117 233 116 226 116 C179 116 163 147 163 210 L163 210 Z M267 437 L267 401 C243 410 217 411 206 411 C105 411 25 342 25 210 C25 77 93 -5 229 -5 C273 -5 332 1 379 17 C394 24 400 35 400 50 L400 437 L448 437 C467 437 480 450 480 469 L480 499 C480 518 467 530 448 530 L400 530 L400 537 C400 556 387 568 368 568 L298 568 C279 568 266 556 266 537 L266 530 L202 530 C183 530 171 518 171 499 L171 469 C171 450 183 437 202 437 L267 437 Z " />
<glyph glyph-name="Emacron" unicode="&#x112;" horiz-adv-x="436" d="M389 0 C408 0 421 13 421 32 L421 89 C421 108 408 121 389 121 L173 121 L173 223 L329 223 C348 223 360 236 360 255 L360 312 C360 331 348 344 329 344 L173 344 L173 446 L389 446 C408 446 421 459 421 478 L421 536 C421 555 408 568 389 568 L72 568 C53 568 40 555 40 536 L40 32 C40 13 53 0 72 0 L389 0 Z M354 618 C373 618 386 631 386 650 L386 707 C386 726 373 739 354 739 L103 739 C84 739 71 726 71 707 L71 650 C71 631 84 618 103 618 L354 618 Z " />
<glyph glyph-name="emacron" unicode="&#x113;" horiz-adv-x="414" d="M320 135 C293 116 267 111 231 111 C186 111 160 121 160 146 C184 139 212 137 236 137 C328 137 387 184 387 280 C387 355 325 411 217 411 C82 411 25 330 25 207 C25 74 87 -5 223 -5 C267 -5 320 -2 367 35 C378 43 385 54 385 67 C385 69 384 72 383 76 L362 121 C356 133 347 139 336 139 C331 139 324 138 320 135 L320 135 Z M217 289 C237 289 254 285 254 265 C254 248 239 240 208 240 C196 240 174 246 159 255 C170 275 192 289 217 289 L217 289 Z M335 456 C354 456 367 469 367 488 L367 545 C367 564 354 577 335 577 L84 577 C65 577 52 564 52 545 L52 488 C52 469 65 456 84 456 L335 456 Z " />
<glyph glyph-name="Edotaccent" unicode="&#x116;" horiz-adv-x="436" d="M389 0 C408 0 421 13 421 32 L421 89 C421 108 408 121 389 121 L173 121 L173 223 L329 223 C348 223 360 236 360 255 L360 312 C360 331 348 344 329 344 L173 344 L173 446 L389 446 C408 446 421 459 421 478 L421 536 C421 555 408 568 389 568 L72 568 C53 568 40 555 40 536 L40 32 C40 13 53 0 72 0 L389 0 Z M164 690 C164 650 195 618 235 618 C275 618 307 650 307 690 C307 730 275 761 235 761 C195 761 164 730 164 690 L164 690 Z " />
<glyph glyph-name="edotaccent" unicode="&#x117;" horiz-adv-x="414" d="M320 135 C293 116 267 111 231 111 C186 111 160 121 160 146 C184 139 212 137 236 137 C328 137 387 184 387 280 C387 355 325 411 217 411 C82 411 25 330 25 207 C25 74 87 -5 223 -5 C267 -5 320 -2 367 35 C378 43 385 54 385 67 C385 69 384 72 383 76 L362 121 C356 133 347 139 336 139 C331 139 324 138 320 135 L320 135 Z M217 289 C237 289 254 285 254 265 C254 248 239 240 208 240 C196 240 174 246 159 255 C170 275 192 289 217 289 L217 289 Z M152 528 C152 488 183 456 223 456 C263 456 295 488 295 528 C295 568 263 599 223 599 C183 599 152 568 152 528 L152 528 Z " />
<glyph glyph-name="Eogonek" unicode="&#x118;" horiz-adv-x="436" d="M389 0 C408 0 421 13 421 32 L421 89 C421 108 408 121 389 121 L173 121 L173 223 L329 223 C348 223 360 236 360 255 L360 312 C360 331 348 344 329 344 L173 344 L173 446 L389 446 C408 446 421 459 421 478 L421 536 C421 555 408 568 389 568 L72 568 C53 568 40 555 40 536 L40 32 C40 13 53 0 72 0 L214 0 L214 -29 C214 -109 255 -138 327 -138 C369 -138 421 -124 421 -106 L421 -66 C421 -41 413 -35 394 -35 C379 -38 375 -40 364 -40 C341 -40 329 -37 329 -16 L329 0 L389 0 Z " />
<glyph glyph-name="eogonek" unicode="&#x119;" horiz-adv-x="414" d="M320 135 C293 116 267 111 231 111 C186 111 160 121 160 146 C184 139 212 137 236 137 C328 137 387 184 387 280 C387 355 325 411 217 411 C82 411 25 330 25 207 C25 90 73 15 177 -1 L177 -29 C177 -109 218 -138 290 -138 C332 -138 384 -124 384 -106 L384 -66 C384 -41 376 -35 357 -35 C342 -38 338 -40 327 -40 C304 -40 292 -37 292 -16 C292 -7 292 -2 293 1 C318 6 343 16 367 35 C378 43 385 54 385 67 C385 69 384 72 383 76 L362 121 C356 133 347 139 336 139 C331 139 324 138 320 135 L320 135 Z M217 289 C237 289 254 285 254 265 C254 248 239 240 208 240 C196 240 174 246 159 255 C170 275 192 289 217 289 L217 289 Z " />
<glyph glyph-name="Ecaron" unicode="&#x11a;" horiz-adv-x="436" d="M389 0 C408 0 421 13 421 32 L421 89 C421 108 408 121 389 121 L173 121 L173 223 L329 223 C348 223 360 236 360 255 L360 312 C360 331 348 344 329 344 L173 344 L173 446 L389 446 C408 446 421 459 421 478 L421 536 C421 555 408 568 389 568 L72 568 C53 568 40 555 40 536 L40 32 C40 13 53 0 72 0 L389 0 Z M282 618 C298 618 310 630 317 646 L388 778 C388 797 375 812 356 812 L289 812 C270 812 260 800 255 783 L234 735 L214 783 C209 800 199 812 180 812 L112 812 C93 812 80 797 80 778 L151 646 C158 630 170 618 186 618 L282 618 Z " />
<glyph glyph-name="ecaron" unicode="&#x11b;" horiz-adv-x="414" d="M320 135 C293 116 267 111 231 111 C186 111 160 121 160 146 C184 139 212 137 236 137 C328 137 387 184 387 280 C387 355 325 411 217 411 C82 411 25 330 25 207 C25 74 87 -5 223 -5 C267 -5 320 -2 367 35 C378 43 385 54 385 67 C385 69 384 72 383 76 L362 121 C356 133 347 139 336 139 C331 139 324 138 320 135 L320 135 Z M217 289 C237 289 254 285 254 265 C254 248 239 240 208 240 C196 240 174 246 159 255 C170 275 192 289 217 289 L217 289 Z M252 456 C268 456 280 468 287 484 L358 616 C358 635 345 650 326 650 L259 650 C240 650 230 638 225 621 L204 573 L184 621 C179 638 169 650 150 650 L82 650 C63 650 50 635 50 616 L121 484 C128 468 140 456 156 456 L252 456 Z " />
<glyph glyph-name="Gcircumflex" unicode="&#x11c;" horiz-adv-x="515" d="M296 327 C277 327 264 315 264 296 L264 238 C264 219 277 206 296 206 L347 206 L347 129 C328 117 305 116 292 116 C202 116 158 194 158 280 C158 442 248 450 289 450 C310 450 362 446 395 432 C399 429 406 427 411 427 C423 427 435 433 440 446 C462 492 463 494 463 498 C463 513 457 523 444 530 C399 562 323 572 281 572 C146 572 25 516 25 280 C25 64 146 -5 281 -5 C306 -5 340 -2 377 25 L383 18 C391 7 402 0 421 0 L448 0 C467 0 480 13 480 32 L480 296 C480 315 467 327 448 327 L296 327 Z M222 812 C206 812 194 800 187 784 L116 652 C116 633 129 618 148 618 L216 618 C235 618 245 630 250 647 L270 695 L291 647 C296 630 306 618 325 618 L392 618 C411 618 424 633 424 652 L353 784 C346 800 334 812 318 812 L222 812 Z " />
<glyph glyph-name="gcircumflex" unicode="&#x11d;" horiz-adv-x="417" d="M355 387 C307 404 264 411 224 411 C91 411 15 320 15 192 C15 122 44 43 101 16 C66 -5 48 -50 48 -97 C48 -193 141 -219 182 -219 C377 -219 377 -80 377 -16 L377 354 C377 369 370 380 355 387 L355 387 Z M244 -41 C244 -73 230 -100 207 -100 C179 -100 176 -73 176 -62 C176 -45 185 -18 244 11 L244 -41 Z M244 125 C241 121 237 118 233 115 C226 110 215 106 204 106 C177 106 153 127 153 191 C153 241 172 286 244 289 L244 125 Z M158 650 C142 650 130 638 123 622 L52 490 C52 471 65 456 84 456 L152 456 C171 456 181 468 186 485 L206 533 L227 485 C232 468 242 456 261 456 L328 456 C347 456 360 471 360 490 L289 622 C282 638 270 650 254 650 L158 650 Z " />
<glyph glyph-name="Gbreve" unicode="&#x11e;" horiz-adv-x="515" d="M296 327 C277 327 264 315 264 296 L264 238 C264 219 277 206 296 206 L347 206 L347 129 C328 117 305 116 292 116 C202 116 158 194 158 280 C158 442 248 450 289 450 C310 450 362 446 395 432 C399 429 406 427 411 427 C423 427 435 433 440 446 C462 492 463 494 463 498 C463 513 457 523 444 530 C399 562 323 572 281 572 C146 572 25 516 25 280 C25 64 146 -5 281 -5 C306 -5 340 -2 377 25 L383 18 C391 7 402 0 421 0 L448 0 C467 0 480 13 480 32 L480 296 C480 315 467 327 448 327 L296 327 Z M260 618 C375 618 436 652 436 787 C436 806 423 819 404 819 L337 819 C318 819 305 806 305 787 C305 754 295 738 260 738 C227 738 216 754 216 787 C216 806 203 819 184 819 L117 819 C98 819 85 806 85 787 C85 652 146 618 260 618 L260 618 Z " />
<glyph glyph-name="gbreve" unicode="&#x11f;" horiz-adv-x="417" d="M355 387 C307 404 264 411 224 411 C91 411 15 320 15 192 C15 122 44 43 101 16 C66 -5 48 -50 48 -97 C48 -193 141 -219 182 -219 C377 -219 377 -80 377 -16 L377 354 C377 369 370 380 355 387 L355 387 Z M244 -41 C244 -73 230 -100 207 -100 C179 -100 176 -73 176 -62 C176 -45 185 -18 244 11 L244 -41 Z M244 125 C241 121 237 118 233 115 C226 110 215 106 204 106 C177 106 153 127 153 191 C153 241 172 286 244 289 L244 125 Z M196 456 C311 456 372 490 372 625 C372 644 359 657 340 657 L273 657 C254 657 241 644 241 625 C241 592 231 576 196 576 C163 576 152 592 152 625 C152 644 139 657 120 657 L53 657 C34 657 21 644 21 625 C21 490 82 456 196 456 L196 456 Z " />
<glyph glyph-name="Gdotaccent" unicode="&#x120;" horiz-adv-x="515" d="M296 327 C277 327 264 315 264 296 L264 238 C264 219 277 206 296 206 L347 206 L347 129 C328 117 305 116 292 116 C202 116 158 194 158 280 C158 442 248 450 289 450 C310 450 362 446 395 432 C399 429 406 427 411 427 C423 427 435 433 440 446 C462 492 463 494 463 498 C463 513 457 523 444 530 C399 562 323 572 281 572 C146 572 25 516 25 280 C25 64 146 -5 281 -5 C306 -5 340 -2 377 25 L383 18 C391 7 402 0 421 0 L448 0 C467 0 480 13 480 32 L480 296 C480 315 467 327 448 327 L296 327 Z M204 690 C204 650 235 618 275 618 C315 618 347 650 347 690 C347 730 315 761 275 761 C235 761 204 730 204 690 L204 690 Z " />
<glyph glyph-name="gdotaccent" unicode="&#x121;" horiz-adv-x="417" d="M355 387 C307 404 264 411 224 411 C91 411 15 320 15 192 C15 122 44 43 101 16 C66 -5 48 -50 48 -97 C48 -193 141 -219 182 -219 C377 -219 377 -80 377 -16 L377 354 C377 369 370 380 355 387 L355 387 Z M244 -41 C244 -73 230 -100 207 -100 C179 -100 176 -73 176 -62 C176 -45 185 -18 244 11 L244 -41 Z M244 125 C241 121 237 118 233 115 C226 110 215 106 204 106 C177 106 153 127 153 191 C153 241 172 286 244 289 L244 125 Z M149 528 C149 488 180 456 220 456 C260 456 292 488 292 528 C292 568 260 599 220 599 C180 599 149 568 149 528 L149 528 Z " />
<glyph glyph-name="uni0122" unicode="&#x122;" horiz-adv-x="515" d="M296 327 C277 327 264 315 264 296 L264 238 C264 219 277 206 296 206 L347 206 L347 129 C328 117 305 116 292 116 C202 116 158 194 158 280 C158 442 248 450 289 450 C310 450 362 446 395 432 C399 429 406 427 411 427 C423 427 435 433 440 446 C462 492 463 494 463 498 C463 513 457 523 444 530 C399 562 323 572 281 572 C146 572 25 516 25 280 C25 64 146 -5 281 -5 C306 -5 340 -2 377 25 L383 18 C391 7 402 0 421 0 L448 0 C467 0 480 13 480 32 L480 296 C480 315 467 327 448 327 L296 327 Z M171 -219 C171 -238 183 -251 202 -251 L245 -251 C312 -251 336 -143 344 -99 C344 -80 332 -66 313 -66 L238 -66 C211 -66 210 -80 207 -99 C199 -162 191 -179 172 -214 L171 -219 Z " />
<glyph glyph-name="uni0123" unicode="&#x123;" horiz-adv-x="417" d="M355 387 C307 404 264 411 224 411 C91 411 15 320 15 192 C15 122 44 43 101 16 C66 -5 48 -50 48 -97 C48 -193 141 -219 182 -219 C377 -219 377 -80 377 -16 L377 354 C377 369 370 380 355 387 L355 387 Z M244 -41 C244 -73 230 -100 207 -100 C179 -100 176 -73 176 -62 C176 -45 185 -18 244 11 L244 -41 Z M244 125 C241 121 237 118 233 115 C226 110 215 106 204 106 C177 106 153 127 153 191 C153 241 172 286 244 289 L244 125 Z M326 609 C326 628 314 641 295 641 L252 641 C185 641 161 533 153 489 C153 470 165 456 184 456 L259 456 C286 456 287 470 290 489 C298 553 307 568 325 604 L326 609 Z " />
<glyph glyph-name="Hcircumflex" unicode="&#x124;" horiz-adv-x="511" d="M338 227 L338 32 C338 13 350 0 369 0 L439 0 C458 0 471 13 471 32 L471 536 C471 555 458 568 439 568 L369 568 C350 568 338 555 338 536 L338 348 L173 348 L173 536 C173 555 161 568 142 568 L72 568 C53 568 40 555 40 536 L40 32 C40 13 53 0 72 0 L142 0 C161 0 173 13 173 32 L173 227 L338 227 Z M207 812 C191 812 179 800 172 784 L101 652 C101 633 114 618 133 618 L201 618 C220 618 230 630 235 647 L255 695 L276 647 C281 630 291 618 310 618 L377 618 C396 618 409 633 409 652 L338 784 C331 800 319 812 303 812 L207 812 Z " />
<glyph glyph-name="hcircumflex" unicode="&#x125;" horiz-adv-x="427" d="M40 31 C40 12 52 0 71 0 L142 0 C161 0 173 12 173 31 L173 270 C176 273 180 276 184 279 C191 284 201 289 213 289 C241 289 264 285 264 223 L264 31 C264 12 276 0 295 0 L365 0 C384 0 397 12 397 31 L397 227 C397 331 366 411 256 411 C243 411 212 410 173 383 L173 537 C173 556 161 568 142 568 L71 568 C52 568 40 556 40 537 L40 31 Z M146 812 C130 812 118 800 111 784 L40 652 C40 633 53 618 72 618 L140 618 C159 618 169 630 174 647 L194 695 L215 647 C220 630 230 618 249 618 L316 618 C335 618 348 633 348 652 L277 784 C270 800 258 812 242 812 L146 812 Z " />
<glyph glyph-name="Hbar" unicode="&#x126;" horiz-adv-x="597" d="M560 388 C579 388 592 401 592 420 L592 479 C592 498 579 511 560 511 L514 511 L514 536 C514 555 501 568 482 568 L412 568 C393 568 381 555 381 536 L381 511 L216 511 L216 536 C216 555 204 568 185 568 L115 568 C96 568 83 555 83 536 L83 511 L37 511 C18 511 5 498 5 479 L5 420 C5 401 18 388 37 388 L83 388 L83 32 C83 13 96 0 115 0 L185 0 C204 0 216 13 216 32 L216 227 L381 227 L381 32 C381 13 393 0 412 0 L482 0 C501 0 514 13 514 32 L514 388 L560 388 Z M216 348 L216 388 L381 388 L381 348 L216 348 Z " />
<glyph glyph-name="hbar" unicode="&#x127;" horiz-adv-x="462" d="M75 31 C75 12 87 0 106 0 L177 0 C196 0 208 12 208 31 L208 270 C211 273 215 276 219 279 C226 284 236 289 248 289 C276 289 299 285 299 223 L299 31 C299 12 311 0 330 0 L400 0 C419 0 432 12 432 31 L432 227 C432 331 401 411 291 411 C278 411 247 410 208 383 L208 437 L273 437 C292 437 304 450 304 469 L304 499 C304 518 292 530 273 530 L209 530 L209 537 C209 556 196 568 177 568 L107 568 C88 568 75 556 75 537 L75 530 L27 530 C8 530 -5 518 -5 499 L-5 469 C-5 450 8 437 27 437 L75 437 L75 31 Z " />
<glyph glyph-name="Itilde" unicode="&#x128;" horiz-adv-x="213" d="M173 536 C173 555 160 568 141 568 L71 568 C52 568 40 555 40 536 L40 32 C40 13 52 0 71 0 L141 0 C160 0 173 13 173 32 L173 536 Z M155 618 C182 618 217 633 246 656 C253 663 260 673 260 682 C260 689 256 695 253 700 L224 740 C219 747 209 753 198 753 C179 753 172 739 155 739 C110 739 98 767 55 767 C27 767 -7 752 -36 729 C-45 721 -50 712 -50 703 C-50 696 -47 689 -44 684 L-15 645 C-9 636 0 631 11 631 C31 631 36 646 55 646 C100 646 111 618 155 618 L155 618 Z " />
<glyph glyph-name="itilde" unicode="&#x129;" horiz-adv-x="213" d="M173 373 C173 392 160 405 141 405 L71 405 C52 405 40 392 40 373 L40 32 C40 13 52 0 71 0 L141 0 C160 0 173 13 173 32 L173 373 Z M155 456 C182 456 217 471 246 494 C253 501 260 511 260 520 C260 527 256 533 253 538 L224 578 C219 585 209 591 198 591 C179 591 172 577 155 577 C110 577 98 605 55 605 C27 605 -7 590 -36 567 C-45 559 -50 550 -50 541 C-50 534 -47 527 -44 522 L-15 483 C-9 474 0 469 11 469 C31 469 36 484 55 484 C100 484 111 456 155 456 L155 456 Z " />
<glyph glyph-name="Imacron" unicode="&#x12a;" horiz-adv-x="213" d="M173 536 C173 555 160 568 141 568 L71 568 C52 568 40 555 40 536 L40 32 C40 13 52 0 71 0 L141 0 C160 0 173 13 173 32 L173 536 Z M185 618 C204 618 217 631 217 650 L217 707 C217 726 204 739 185 739 L27 739 C8 739 -5 726 -5 707 L-5 650 C-5 631 8 618 27 618 L185 618 Z " />
<glyph glyph-name="imacron" unicode="&#x12b;" horiz-adv-x="213" d="M173 373 C173 392 160 405 141 405 L71 405 C52 405 40 392 40 373 L40 32 C40 13 52 0 71 0 L141 0 C160 0 173 13 173 32 L173 373 Z M185 456 C204 456 217 469 217 488 L217 545 C217 564 204 577 185 577 L27 577 C8 577 -5 564 -5 545 L-5 488 C-5 469 8 456 27 456 L185 456 Z " />
<glyph glyph-name="Iogonek" unicode="&#x12e;" horiz-adv-x="213" d="M40 37 C40 23 11 -1 11 -56 C11 -105 53 -143 102 -143 C143 -143 188 -130 188 -111 L188 -72 C188 -47 181 -41 161 -41 L148 -45 L142 -45 C131 -45 130 -36 130 -28 C130 4 173 4 173 46 L173 536 C173 555 160 568 141 568 L71 568 C52 568 40 555 40 536 L40 37 Z " />
<glyph glyph-name="iogonek" unicode="&#x12f;" horiz-adv-x="213" d="M35 501 C35 461 66 430 106 430 C146 430 178 461 178 501 C178 541 146 573 106 573 C66 573 35 541 35 501 L35 501 Z M40 37 C40 23 11 -1 11 -56 C11 -105 53 -143 102 -143 C143 -143 188 -130 188 -111 L188 -72 C188 -47 181 -41 161 -41 L148 -45 L142 -45 C131 -45 130 -36 130 -28 C130 4 173 4 173 46 L173 373 C173 392 160 405 141 405 L71 405 C52 405 40 392 40 373 L40 37 Z " />
<glyph glyph-name="Idotaccent" unicode="&#x130;" horiz-adv-x="213" d="M173 536 C173 555 160 568 141 568 L71 568 C52 568 40 555 40 536 L40 32 C40 13 52 0 71 0 L141 0 C160 0 173 13 173 32 L173 536 Z M35 689 C35 649 66 618 106 618 C146 618 178 649 178 689 C178 729 146 761 106 761 C66 761 35 729 35 689 L35 689 Z " />
<glyph glyph-name="dotlessi" unicode="&#x131;" horiz-adv-x="213" d="M173 373 C173 392 160 405 141 405 L71 405 C52 405 40 392 40 373 L40 32 C40 13 52 0 71 0 L141 0 C160 0 173 13 173 32 L173 373 Z " />
<glyph glyph-name="Jcircumflex" unicode="&#x134;" horiz-adv-x="423" d="M20 30 C59 6 110 -5 153 -5 C288 -5 383 17 383 241 L383 536 C383 555 370 568 351 568 L282 568 C263 568 250 555 250 536 L250 239 C250 124 200 116 160 116 C140 116 100 125 76 136 C71 139 66 140 59 140 C47 140 37 137 29 122 C10 89 5 79 2 72 C1 68 0 65 0 62 C0 47 9 37 20 30 L20 30 Z M180 812 C164 812 152 800 145 784 L74 652 C74 633 87 618 106 618 L174 618 C193 618 203 630 208 647 L228 695 L249 647 C254 630 264 618 283 618 L350 618 C369 618 382 633 382 652 L311 784 C304 800 292 812 276 812 L180 812 Z " />
<glyph glyph-name="jcircumflex" unicode="&#x135;" horiz-adv-x="212" d="M-77 -181 C-48 -193 -20 -195 5 -195 C140 -195 172 -110 172 21 L172 374 C172 393 159 405 140 405 L71 405 C52 405 39 393 39 374 L39 3 C39 -22 36 -69 -9 -69 C-20 -69 -36 -65 -51 -61 C-67 -61 -79 -70 -83 -85 L-97 -142 C-97 -161 -92 -178 -77 -181 L-77 -181 Z M57 650 C41 650 29 638 22 622 L-49 490 C-49 471 -36 456 -17 456 L51 456 C70 456 80 468 85 485 L105 533 L126 485 C131 468 141 456 160 456 L227 456 C246 456 259 471 259 490 L188 622 C181 638 169 650 153 650 L57 650 Z " />
<glyph glyph-name="uni0136" unicode="&#x136;" horiz-adv-x="507" d="M464 536 C464 555 452 568 433 568 L357 568 C340 568 329 554 325 538 C301 465 222 352 173 338 L173 536 C173 555 160 568 141 568 L72 568 C53 568 40 555 40 536 L40 32 C40 13 53 0 72 0 L141 0 C160 0 173 13 173 32 L173 197 C198 205 224 216 249 233 C260 217 286 164 350 28 C357 13 373 0 388 0 L465 0 C484 0 497 14 497 34 L395 242 C376 279 363 299 348 318 C409 385 464 492 464 536 L464 536 Z M139 -219 C139 -238 151 -251 170 -251 L213 -251 C280 -251 304 -143 312 -99 C312 -80 300 -66 281 -66 L206 -66 C179 -66 178 -80 175 -99 C167 -162 159 -179 140 -214 L139 -219 Z " />
<glyph glyph-name="uni0137" unicode="&#x137;" horiz-adv-x="423" d="M118 -219 C118 -238 130 -251 149 -251 L192 -251 C259 -251 283 -143 291 -99 C291 -80 279 -66 260 -66 L185 -66 C158 -66 157 -80 154 -99 C146 -162 138 -179 119 -214 L118 -219 Z M268 29 C276 12 293 0 310 0 L387 0 C406 0 418 15 418 34 L364 132 C345 165 331 182 310 213 C362 261 390 321 397 373 C397 392 385 405 366 405 L295 405 C278 405 268 394 264 375 C249 326 208 285 173 278 L173 537 C173 556 161 568 142 568 L71 568 C52 568 40 556 40 537 L40 31 C40 12 52 0 71 0 L142 0 C161 0 173 12 173 31 L173 136 C184 139 191 143 199 147 C213 133 219 123 241 82 L268 29 Z " />
<glyph glyph-name="kgreenlandic" unicode="&#x138;" horiz-adv-x="423" d="M268 29 C276 12 293 0 310 0 L387 0 C406 0 418 15 418 34 L364 132 C345 165 331 182 310 213 C362 261 390 321 397 373 C397 392 385 405 366 405 L295 405 C278 405 268 394 264 375 C249 326 208 285 173 278 L173 374 C173 393 161 405 142 405 L71 405 C52 405 40 393 40 374 L40 31 C40 12 52 0 71 0 L142 0 C161 0 173 12 173 31 L173 136 C184 139 191 143 199 147 C213 133 219 123 241 82 L268 29 Z " />
<glyph glyph-name="Lacute" unicode="&#x139;" horiz-adv-x="417" d="M375 0 C394 0 407 13 407 32 L407 89 C407 108 394 121 375 121 L173 121 L173 536 C173 555 160 568 141 568 L72 568 C53 568 40 555 40 536 L40 32 C40 13 53 0 72 0 L375 0 Z M46 694 C42 687 40 681 40 676 C40 665 55 651 56 650 L72 634 C80 626 88 618 100 618 C111 618 121 621 131 628 C236 712 235 714 236 714 C239 719 240 724 240 729 C240 742 235 749 228 756 L185 805 C179 810 171 812 161 812 C149 809 148 810 137 799 L46 694 Z " />
<glyph glyph-name="lacute" unicode="&#x13a;" horiz-adv-x="213" d="M40 32 C40 13 53 0 72 0 L142 0 C161 0 173 13 173 32 L173 536 C173 555 161 568 142 568 L72 568 C53 568 40 555 40 536 L40 32 Z M16 694 C12 687 10 681 10 676 C10 665 25 651 26 650 L42 634 C50 626 58 618 70 618 C81 618 91 621 101 628 C206 712 205 714 206 714 C209 719 210 724 210 729 C210 742 205 749 198 756 L155 805 C149 810 141 812 131 812 C119 809 118 810 107 799 L16 694 Z " />
<glyph glyph-name="uni013B" unicode="&#x13b;" horiz-adv-x="417" d="M375 0 C394 0 407 13 407 32 L407 89 C407 108 394 121 375 121 L173 121 L173 536 C173 555 160 568 141 568 L72 568 C53 568 40 555 40 536 L40 32 C40 13 53 0 72 0 L375 0 Z M126 -219 C126 -238 138 -251 157 -251 L200 -251 C267 -251 291 -143 299 -99 C299 -80 287 -66 268 -66 L193 -66 C166 -66 165 -80 162 -99 C154 -162 146 -179 127 -214 L126 -219 Z " />
<glyph glyph-name="uni013C" unicode="&#x13c;" horiz-adv-x="213" d="M173 536 C173 555 160 568 141 568 L71 568 C52 568 40 555 40 536 L40 32 C40 13 52 0 71 0 L141 0 C160 0 173 13 173 32 L173 536 Z M6 -219 C6 -238 18 -251 37 -251 L80 -251 C147 -251 171 -143 179 -99 C179 -80 167 -66 148 -66 L73 -66 C46 -66 45 -80 42 -99 C34 -162 26 -179 7 -214 L6 -219 Z " />
<glyph glyph-name="Lcaron" unicode="&#x13d;" horiz-adv-x="417" d="M375 0 C394 0 407 13 407 32 L407 89 C407 108 394 121 375 121 L173 121 L173 536 C173 555 160 568 141 568 L72 568 C53 568 40 555 40 536 L40 32 C40 13 53 0 72 0 L375 0 Z M227 400 C227 381 240 365 259 365 L310 365 C327 365 341 378 346 393 L399 535 C399 554 386 568 367 568 L296 568 C277 568 268 554 264 538 L227 400 Z " />
<glyph glyph-name="lcaron" unicode="&#x13e;" horiz-adv-x="369" d="M204 403 C204 383 217 368 236 368 L286 368 C303 368 316 381 321 396 L374 536 C374 555 361 568 342 568 L272 568 C253 568 244 555 240 539 L204 403 Z M173 536 C173 555 160 568 141 568 L71 568 C52 568 40 555 40 536 L40 32 C40 13 52 0 71 0 L141 0 C160 0 173 13 173 32 L173 536 Z " />
<glyph glyph-name="Lslash" unicode="&#x141;" horiz-adv-x="452" d="M280 274 C296 278 310 289 310 306 L310 365 C310 384 295 397 275 397 L208 379 L208 536 C208 555 195 568 176 568 L107 568 C88 568 75 555 75 536 L75 344 L24 331 C8 327 -5 318 -5 299 L-5 241 C-5 222 11 209 30 209 L75 220 L75 32 C75 13 88 0 107 0 L410 0 C429 0 442 13 442 32 L442 89 C442 108 429 121 410 121 L208 121 L208 255 L280 274 Z " />
<glyph glyph-name="lslash" unicode="&#x142;" horiz-adv-x="305" d="M280 274 C296 278 310 289 310 306 L310 365 C310 384 295 397 275 397 L219 382 L219 536 C219 555 206 568 187 568 L117 568 C98 568 86 555 86 536 L86 347 L24 331 C8 327 -5 318 -5 299 L-5 241 C-5 222 11 209 30 209 L86 223 L86 32 C86 13 98 0 117 0 L187 0 C206 0 219 13 219 32 L219 258 L280 274 Z " />
<glyph glyph-name="Nacute" unicode="&#x143;" horiz-adv-x="531" d="M459 0 C478 0 491 13 491 32 L491 536 C491 555 478 568 459 568 L390 568 C371 568 358 555 358 536 L358 273 C300 371 246 447 187 544 C176 560 163 568 148 568 L72 568 C53 568 40 555 40 536 L40 32 C40 13 53 0 72 0 L141 0 C160 0 173 13 173 32 L173 317 C233 217 297 123 356 24 C367 8 381 0 394 0 L459 0 Z M164 694 C160 687 158 681 158 676 C158 665 173 651 174 650 L190 634 C198 626 206 618 218 618 C229 618 239 621 249 628 C354 712 353 714 354 714 C357 719 358 724 358 729 C358 742 353 749 346 756 L303 805 C297 810 289 812 279 812 C267 809 266 810 255 799 L164 694 Z " />
<glyph glyph-name="nacute" unicode="&#x144;" horiz-adv-x="427" d="M40 31 C40 12 52 0 71 0 L142 0 C161 0 173 12 173 31 L173 283 C185 288 207 289 214 289 C259 289 264 276 264 216 L264 31 C264 12 276 0 295 0 L365 0 C384 0 397 12 397 31 L397 217 C397 350 346 411 211 411 C167 411 108 404 61 389 C46 382 40 371 40 356 L40 31 Z M153 532 C149 525 147 519 147 514 C147 503 162 489 163 488 L179 472 C187 464 195 456 207 456 C218 456 228 459 238 466 C343 550 342 552 343 552 C346 557 347 562 347 567 C347 580 342 587 335 594 L292 643 C286 648 278 650 268 650 C256 647 255 648 244 637 L153 532 Z " />
<glyph glyph-name="uni0145" unicode="&#x145;" horiz-adv-x="531" d="M459 0 C478 0 491 13 491 32 L491 536 C491 555 478 568 459 568 L390 568 C371 568 358 555 358 536 L358 273 C300 371 246 447 187 544 C176 560 163 568 148 568 L72 568 C53 568 40 555 40 536 L40 32 C40 13 53 0 72 0 L141 0 C160 0 173 13 173 32 L173 317 C233 217 297 123 356 24 C367 8 381 0 394 0 L459 0 Z M171 -219 C171 -238 183 -251 202 -251 L245 -251 C312 -251 336 -143 344 -99 C344 -80 332 -66 313 -66 L238 -66 C211 -66 210 -80 207 -99 C199 -162 191 -179 172 -214 L171 -219 Z " />
<glyph glyph-name="uni0146" unicode="&#x146;" horiz-adv-x="427" d="M40 31 C40 12 52 0 71 0 L142 0 C161 0 173 12 173 31 L173 283 C185 288 207 289 214 289 C259 289 264 276 264 216 L264 31 C264 12 276 0 295 0 L365 0 C384 0 397 12 397 31 L397 217 C397 350 346 411 211 411 C167 411 108 404 61 389 C46 382 40 371 40 356 L40 31 Z M117 -219 C117 -238 129 -251 148 -251 L191 -251 C258 -251 282 -143 290 -99 C290 -80 278 -66 259 -66 L184 -66 C157 -66 156 -80 153 -99 C145 -162 137 -179 118 -214 L117 -219 Z " />
<glyph glyph-name="Ncaron" unicode="&#x147;" horiz-adv-x="531" d="M459 0 C478 0 491 13 491 32 L491 536 C491 555 478 568 459 568 L390 568 C371 568 358 555 358 536 L358 273 C300 371 246 447 187 544 C176 560 163 568 148 568 L72 568 C53 568 40 555 40 536 L40 32 C40 13 53 0 72 0 L141 0 C160 0 173 13 173 32 L173 317 C233 217 297 123 356 24 C367 8 381 0 394 0 L459 0 Z M300 618 C316 618 328 630 335 646 L406 778 C406 797 393 812 374 812 L307 812 C288 812 278 800 273 783 L252 735 L232 783 C227 800 217 812 198 812 L130 812 C111 812 98 797 98 778 L169 646 C176 630 188 618 204 618 L300 618 Z " />
<glyph glyph-name="ncaron" unicode="&#x148;" horiz-adv-x="427" d="M40 31 C40 12 52 0 71 0 L142 0 C161 0 173 12 173 31 L173 283 C185 288 207 289 214 289 C259 289 264 276 264 216 L264 31 C264 12 276 0 295 0 L365 0 C384 0 397 12 397 31 L397 217 C397 350 346 411 211 411 C167 411 108 404 61 389 C46 382 40 371 40 356 L40 31 Z M266 456 C282 456 294 468 301 484 L372 616 C372 635 359 650 340 650 L273 650 C254 650 244 638 239 621 L218 573 L198 621 C193 638 183 650 164 650 L96 650 C77 650 64 635 64 616 L135 484 C142 468 154 456 170 456 L266 456 Z " />
<glyph glyph-name="Eng" unicode="&#x14a;" horiz-adv-x="531" d="M242 -181 C271 -193 299 -195 324 -195 C459 -195 491 -110 491 21 L491 536 C491 555 478 568 459 568 L390 568 C371 568 358 555 358 536 L358 273 C300 371 246 447 187 544 C176 560 163 568 148 568 L72 568 C53 568 40 555 40 536 L40 32 C40 13 53 0 72 0 L141 0 C160 0 173 13 173 32 L173 317 C233 217 297 123 356 24 C356 23 357 22 358 21 L358 3 C358 -22 355 -69 310 -69 C299 -69 283 -65 268 -61 C252 -61 240 -70 236 -85 L222 -142 C222 -161 227 -178 242 -181 L242 -181 Z " />
<glyph glyph-name="eng" unicode="&#x14b;" horiz-adv-x="427" d="M148 -181 C177 -193 205 -195 230 -195 C365 -195 397 -110 397 21 L397 217 C397 350 346 411 211 411 C167 411 108 404 61 389 C46 382 40 371 40 356 L40 31 C40 12 52 0 71 0 L142 0 C161 0 173 12 173 31 L173 283 C185 288 207 289 214 289 C259 289 264 276 264 216 L264 3 C264 -22 261 -69 216 -69 C205 -69 189 -65 174 -61 C158 -61 146 -70 142 -85 L128 -142 C128 -161 133 -178 148 -181 L148 -181 Z " />
<glyph glyph-name="Omacron" unicode="&#x14c;" horiz-adv-x="558" d="M280 116 C240 116 164 126 164 280 C164 442 239 450 279 450 C319 450 394 442 394 280 C394 126 317 116 280 116 L280 116 Z M280 -5 C413 -5 528 59 528 280 C528 516 413 572 279 572 C145 572 30 516 30 280 C30 59 144 -5 280 -5 L280 -5 Z M405 618 C424 618 437 631 437 650 L437 707 C437 726 424 739 405 739 L154 739 C135 739 122 726 122 707 L122 650 C122 631 135 618 154 618 L405 618 Z " />
<glyph glyph-name="omacron" unicode="&#x14d;" horiz-adv-x="446" d="M223 116 C164 116 161 170 161 206 C161 241 170 289 223 289 C276 289 285 241 285 206 C285 170 282 116 223 116 L223 116 Z M223 -5 C359 -5 421 74 421 207 C421 330 358 411 223 411 C88 411 25 330 25 207 C25 74 87 -5 223 -5 L223 -5 Z M349 456 C368 456 381 469 381 488 L381 545 C381 564 368 577 349 577 L98 577 C79 577 66 564 66 545 L66 488 C66 469 79 456 98 456 L349 456 Z " />
<glyph glyph-name="Ohungarumlaut" unicode="&#x150;" horiz-adv-x="558" d="M280 116 C240 116 164 126 164 280 C164 442 239 450 279 450 C319 450 394 442 394 280 C394 126 317 116 280 116 L280 116 Z M280 -5 C413 -5 528 59 528 280 C528 516 413 572 279 572 C145 572 30 516 30 280 C30 59 144 -5 280 -5 L280 -5 Z M135 651 C135 632 147 618 166 618 L217 618 C234 618 245 631 252 646 L296 757 C296 776 283 790 264 790 L194 790 C177 790 166 776 162 760 L135 651 Z M298 651 C298 632 310 618 329 618 L380 618 C397 618 408 631 415 646 L459 757 C459 776 446 790 427 790 L357 790 C340 790 329 776 325 760 L298 651 Z " />
<glyph glyph-name="ohungarumlaut" unicode="&#x151;" horiz-adv-x="446" d="M223 116 C164 116 161 170 161 206 C161 241 170 289 223 289 C276 289 285 241 285 206 C285 170 282 116 223 116 L223 116 Z M223 -5 C359 -5 421 74 421 207 C421 330 358 411 223 411 C88 411 25 330 25 207 C25 74 87 -5 223 -5 L223 -5 Z M76 489 C76 470 88 456 107 456 L158 456 C175 456 186 469 193 484 L237 595 C237 614 224 628 205 628 L135 628 C118 628 107 614 103 598 L76 489 Z M239 489 C239 470 251 456 270 456 L321 456 C338 456 349 469 356 484 L400 595 C400 614 387 628 368 628 L298 628 C281 628 270 614 266 598 L239 489 Z " />
<glyph glyph-name="OE" unicode="&#x152;" horiz-adv-x="694" d="M647 0 C666 0 679 13 679 32 L679 89 C679 108 666 121 647 121 L431 121 L431 223 L587 223 C606 223 618 236 618 255 L618 312 C618 331 606 344 587 344 L431 344 L431 446 L647 446 C666 446 679 459 679 478 L679 536 C679 555 666 568 647 568 L326 568 C311 571 296 572 281 572 C147 572 25 516 25 280 C25 68 147 -5 281 -5 C296 -5 312 -3 331 0 L647 0 Z M290 116 C247 116 158 147 158 280 C158 442 247 450 290 450 L298 450 L298 116 L290 116 Z " />
<glyph glyph-name="oe" unicode="&#x153;" horiz-adv-x="674" d="M580 135 C553 116 527 111 491 111 C446 111 420 121 420 146 C444 139 472 137 496 137 C588 137 647 184 647 280 C647 355 585 411 477 411 C424 411 382 399 351 374 C318 399 276 411 223 411 C88 411 25 330 25 207 C25 74 87 -5 223 -5 C277 -5 320 8 353 33 C384 8 428 -5 483 -5 C527 -5 580 -2 627 35 C638 43 645 54 645 67 C645 69 644 72 643 76 L622 121 C616 133 607 139 596 139 C591 139 584 138 580 135 L580 135 Z M223 116 C164 116 161 170 161 206 C161 241 170 289 223 289 C272 289 282 248 285 214 L285 207 C285 171 282 116 223 116 L223 116 Z M477 289 C497 289 514 285 514 265 C514 248 499 240 468 240 C456 240 434 246 419 255 C430 275 452 289 477 289 L477 289 Z " />
<glyph glyph-name="Racute" unicode="&#x154;" horiz-adv-x="474" d="M72 568 C53 568 40 555 40 536 L40 32 C40 13 53 0 72 0 L141 0 C160 0 173 13 173 32 L173 182 L258 182 L305 62 C318 27 328 -5 384 -5 C412 -5 454 5 454 37 L454 71 C454 84 449 94 438 99 C435 100 429 111 421 132 L388 215 C432 246 454 299 454 374 C454 510 385 568 248 568 L72 568 Z M173 304 L173 445 L257 445 C296 445 321 418 321 374 C321 329 296 304 257 304 L173 304 Z M168 694 C164 687 162 681 162 676 C162 665 177 651 178 650 L194 634 C202 626 210 618 222 618 C233 618 243 621 253 628 C358 712 357 714 358 714 C361 719 362 724 362 729 C362 742 357 749 350 756 L307 805 C301 810 293 812 283 812 C271 809 270 810 259 799 L168 694 Z " />
<glyph glyph-name="racute" unicode="&#x155;" horiz-adv-x="331" d="M211 411 C164 411 100 405 58 371 C47 362 40 354 40 339 L40 31 C40 12 52 0 71 0 L142 0 C161 0 173 12 173 31 L173 273 C180 284 204 289 215 289 C230 289 246 285 264 277 C271 274 278 270 285 270 C297 270 310 278 314 290 L333 336 C334 340 336 345 336 349 C336 358 331 371 320 379 C289 406 248 411 211 411 L211 411 Z M87 532 C83 525 81 519 81 514 C81 503 96 489 97 488 L113 472 C121 464 129 456 141 456 C152 456 162 459 172 466 C277 550 276 552 277 552 C280 557 281 562 281 567 C281 580 276 587 269 594 L226 643 C220 648 212 650 202 650 C190 647 189 648 178 637 L87 532 Z " />
<glyph glyph-name="uni0156" unicode="&#x156;" horiz-adv-x="474" d="M72 568 C53 568 40 555 40 536 L40 32 C40 13 53 0 72 0 L141 0 C160 0 173 13 173 32 L173 182 L258 182 L305 62 C318 27 328 -5 384 -5 C412 -5 454 5 454 37 L454 71 C454 84 449 94 438 99 C435 100 429 111 421 132 L388 215 C432 246 454 299 454 374 C454 510 385 568 248 568 L72 568 Z M173 304 L173 445 L257 445 C296 445 321 418 321 374 C321 329 296 304 257 304 L173 304 Z M153 -219 C153 -238 165 -251 184 -251 L227 -251 C294 -251 318 -143 326 -99 C326 -80 314 -66 295 -66 L220 -66 C193 -66 192 -80 189 -99 C181 -162 173 -179 154 -214 L153 -219 Z " />
<glyph glyph-name="uni0157" unicode="&#x157;" horiz-adv-x="331" d="M211 411 C164 411 100 405 58 371 C47 362 40 354 40 339 L40 31 C40 12 52 0 71 0 L142 0 C161 0 173 12 173 31 L173 273 C180 284 204 289 215 289 C230 289 246 285 264 277 C271 274 278 270 285 270 C297 270 310 278 314 290 L333 336 C334 340 336 345 336 349 C336 358 331 371 320 379 C289 406 248 411 211 411 L211 411 Z M54 -219 C54 -238 66 -251 85 -251 L128 -251 C195 -251 219 -143 227 -99 C227 -80 215 -66 196 -66 L121 -66 C94 -66 93 -80 90 -99 C82 -162 74 -179 55 -214 L54 -219 Z " />
<glyph glyph-name="Rcaron" unicode="&#x158;" horiz-adv-x="474" d="M72 568 C53 568 40 555 40 536 L40 32 C40 13 53 0 72 0 L141 0 C160 0 173 13 173 32 L173 182 L258 182 L305 62 C318 27 328 -5 384 -5 C412 -5 454 5 454 37 L454 71 C454 84 449 94 438 99 C435 100 429 111 421 132 L388 215 C432 246 454 299 454 374 C454 510 385 568 248 568 L72 568 Z M173 304 L173 445 L257 445 C296 445 321 418 321 374 C321 329 296 304 257 304 L173 304 Z M295 618 C311 618 323 630 330 646 L401 778 C401 797 388 812 369 812 L302 812 C283 812 273 800 268 783 L247 735 L227 783 C222 800 212 812 193 812 L125 812 C106 812 93 797 93 778 L164 646 C171 630 183 618 199 618 L295 618 Z " />
<glyph glyph-name="rcaron" unicode="&#x159;" horiz-adv-x="331" d="M211 411 C164 411 100 405 58 371 C47 362 40 354 40 339 L40 31 C40 12 52 0 71 0 L142 0 C161 0 173 12 173 31 L173 273 C180 284 204 289 215 289 C230 289 246 285 264 277 C271 274 278 270 285 270 C297 270 310 278 314 290 L333 336 C334 340 336 345 336 349 C336 358 331 371 320 379 C289 406 248 411 211 411 L211 411 Z M236 456 C252 456 264 468 271 484 L332 616 C332 635 319 650 300 650 L240 650 C221 650 211 638 206 621 L188 573 L172 621 C167 638 157 650 138 650 L77 650 C58 650 45 635 45 616 L105 484 C112 468 124 456 140 456 L236 456 Z " />
<glyph glyph-name="Sacute" unicode="&#x15a;" horiz-adv-x="476" d="M105 142 C98 145 96 144 93 144 C80 144 66 138 61 123 L40 74 C39 70 38 67 38 64 C38 48 52 34 63 29 C109 8 174 -5 217 -5 C378 -5 461 46 461 167 C461 407 161 327 161 407 C161 443 193 450 256 450 C268 450 311 443 348 440 L370 437 C391 437 406 441 409 466 C412 498 413 511 413 519 C413 536 396 546 381 551 C330 567 270 572 250 572 C67 572 25 499 25 389 C25 198 325 264 325 166 C325 121 252 116 228 116 C201 116 145 126 105 142 L105 142 Z M168 694 C164 687 162 681 162 676 C162 665 177 651 178 650 L194 634 C202 626 210 618 222 618 C233 618 243 621 253 628 C358 712 357 714 358 714 C361 719 362 724 362 729 C362 742 357 749 350 756 L307 805 C301 810 293 812 283 812 C271 809 270 810 259 799 L168 694 Z " />
<glyph glyph-name="sacute" unicode="&#x15b;" horiz-adv-x="380" d="M89 121 C86 122 82 122 78 122 C65 122 50 120 46 105 C35 74 34 62 31 51 C31 32 44 25 56 18 C93 2 154 -5 182 -5 C298 -5 365 43 365 130 C365 277 156 238 156 279 C156 292 183 294 227 294 C247 294 262 292 291 289 L303 288 C314 288 321 294 326 314 C330 346 331 359 331 367 C331 384 314 395 299 398 C263 406 213 411 198 411 C67 411 23 350 23 281 C23 129 232 166 232 127 C232 107 194 107 180 107 C163 107 121 110 89 121 L89 121 Z M110 532 C106 525 104 519 104 514 C104 503 119 489 120 488 L136 472 C144 464 152 456 164 456 C175 456 185 459 195 466 C300 550 299 552 300 552 C303 557 304 562 304 567 C304 580 299 587 292 594 L249 643 C243 648 235 650 225 650 C213 647 212 648 201 637 L110 532 Z " />
<glyph glyph-name="Scircumflex" unicode="&#x15c;" horiz-adv-x="476" d="M105 142 C98 145 96 144 93 144 C80 144 66 138 61 123 L40 74 C39 70 38 67 38 64 C38 48 52 34 63 29 C109 8 174 -5 217 -5 C378 -5 461 46 461 167 C461 407 161 327 161 407 C161 443 193 450 256 450 C268 450 311 443 348 440 L370 437 C391 437 406 441 409 466 C412 498 413 511 413 519 C413 536 396 546 381 551 C330 567 270 572 250 572 C67 572 25 499 25 389 C25 198 325 264 325 166 C325 121 252 116 228 116 C201 116 145 126 105 142 L105 142 Z M194 812 C178 812 166 800 159 784 L88 652 C88 633 101 618 120 618 L188 618 C207 618 217 630 222 647 L242 695 L263 647 C268 630 278 618 297 618 L364 618 C383 618 396 633 396 652 L325 784 C318 800 306 812 290 812 L194 812 Z " />
<glyph glyph-name="scircumflex" unicode="&#x15d;" horiz-adv-x="380" d="M89 121 C86 122 82 122 78 122 C65 122 50 120 46 105 C35 74 34 62 31 51 C31 32 44 25 56 18 C93 2 154 -5 182 -5 C298 -5 365 43 365 130 C365 277 156 238 156 279 C156 292 183 294 227 294 C247 294 262 292 291 289 L303 288 C314 288 321 294 326 314 C330 346 331 359 331 367 C331 384 314 395 299 398 C263 406 213 411 198 411 C67 411 23 350 23 281 C23 129 232 166 232 127 C232 107 194 107 180 107 C163 107 121 110 89 121 L89 121 Z M145 651 C129 651 117 639 110 623 L39 491 C39 472 52 457 71 457 L139 457 C158 457 168 469 173 486 L193 534 L214 486 C219 469 229 457 248 457 L315 457 C334 457 347 472 347 491 L276 623 C269 639 257 651 241 651 L145 651 Z " />
<glyph glyph-name="Scedilla" unicode="&#x15e;" horiz-adv-x="476" d="M105 142 C98 145 96 144 93 144 C80 144 66 138 61 123 L40 74 C39 70 38 67 38 64 C38 48 52 34 63 29 C106 8 165 -2 208 -5 C210 -11 211 -17 211 -24 C211 -45 199 -48 176 -48 C165 -48 161 -46 146 -43 C127 -43 119 -49 119 -74 L119 -114 C119 -132 171 -146 213 -146 C285 -146 326 -117 326 -37 C326 -29 325 -10 322 5 C414 25 461 76 461 167 C461 407 161 327 161 407 C161 443 193 450 256 450 C268 450 311 443 348 440 L370 437 C391 437 406 441 409 466 C412 498 413 511 413 519 C413 536 396 546 381 551 C330 567 270 572 250 572 C67 572 25 499 25 389 C25 198 325 264 325 166 C325 121 252 116 228 116 C201 116 145 126 105 142 L105 142 Z " />
<glyph glyph-name="scedilla" unicode="&#x15f;" horiz-adv-x="380" d="M89 121 C86 122 82 122 78 122 C65 122 50 120 46 105 C35 74 34 62 31 51 C31 32 44 25 56 18 C87 5 134 -1 165 -4 C170 -11 173 -20 173 -33 C173 -54 161 -57 138 -57 C127 -57 123 -55 108 -52 C89 -52 81 -58 81 -83 L81 -123 C81 -141 133 -155 175 -155 C247 -155 288 -126 288 -46 C288 -31 287 -3 284 12 C336 35 365 74 365 130 C365 277 156 238 156 279 C156 292 183 294 227 294 C247 294 262 292 291 289 L303 288 C314 288 321 294 326 314 C330 346 331 359 331 367 C331 384 314 395 299 398 C263 406 213 411 198 411 C67 411 23 350 23 281 C23 129 232 166 232 127 C232 107 194 107 180 107 C163 107 121 110 89 121 L89 121 Z " />
<glyph glyph-name="Scaron" unicode="&#x160;" horiz-adv-x="476" d="M105 142 C98 145 96 144 93 144 C80 144 66 138 61 123 L40 74 C39 70 38 67 38 64 C38 48 52 34 63 29 C109 8 174 -5 217 -5 C378 -5 461 46 461 167 C461 407 161 327 161 407 C161 443 193 450 256 450 C268 450 311 443 348 440 L370 437 C391 437 406 441 409 466 C412 498 413 511 413 519 C413 536 396 546 381 551 C330 567 270 572 250 572 C67 572 25 499 25 389 C25 198 325 264 325 166 C325 121 252 116 228 116 C201 116 145 126 105 142 L105 142 Z M287 618 C303 618 315 630 322 646 L393 778 C393 797 380 812 361 812 L294 812 C275 812 265 800 260 783 L239 735 L219 783 C214 800 204 812 185 812 L117 812 C98 812 85 797 85 778 L156 646 C163 630 175 618 191 618 L287 618 Z " />
<glyph glyph-name="scaron" unicode="&#x161;" horiz-adv-x="380" d="M89 121 C86 122 82 122 78 122 C65 122 50 120 46 105 C35 74 34 62 31 51 C31 32 44 25 56 18 C93 2 154 -5 182 -5 C298 -5 365 43 365 130 C365 277 156 238 156 279 C156 292 183 294 227 294 C247 294 262 292 291 289 L303 288 C314 288 321 294 326 314 C330 346 331 359 331 367 C331 384 314 395 299 398 C263 406 213 411 198 411 C67 411 23 350 23 281 C23 129 232 166 232 127 C232 107 194 107 180 107 C163 107 121 110 89 121 L89 121 Z M240 456 C256 456 268 468 275 484 L346 616 C346 635 333 650 314 650 L247 650 C228 650 218 638 213 621 L192 573 L172 621 C167 638 157 650 138 650 L70 650 C51 650 38 635 38 616 L109 484 C116 468 128 456 144 456 L240 456 Z " />
<glyph glyph-name="uni0162" unicode="&#x162;" horiz-adv-x="439" d="M286 447 L397 447 C416 447 429 460 429 479 L429 536 C429 555 416 568 397 568 L41 568 C22 568 10 555 10 536 L10 479 C10 460 22 447 41 447 L153 447 L153 32 C153 13 165 0 184 0 L254 0 C273 0 286 13 286 32 L286 447 Z M119 -219 C119 -238 131 -251 150 -251 L193 -251 C260 -251 284 -143 292 -99 C292 -80 280 -66 261 -66 L186 -66 C159 -66 158 -80 155 -99 C147 -162 139 -179 120 -214 L119 -219 Z " />
<glyph glyph-name="uni0163" unicode="&#x163;" horiz-adv-x="355" d="M264 116 C218 116 216 163 216 188 L216 283 L297 283 C316 283 329 295 329 314 L329 374 C329 393 316 405 297 405 L216 405 L216 537 C216 556 204 568 185 568 L131 568 C112 568 103 555 100 538 L84 405 L47 405 C28 405 15 393 15 374 L15 314 C15 295 28 283 47 283 L83 283 L83 212 C83 109 101 33 176 6 C181 -2 183 -12 183 -24 C183 -45 171 -48 148 -48 C137 -48 133 -46 118 -43 C99 -43 91 -49 91 -74 L91 -114 C91 -132 143 -146 185 -146 C257 -146 298 -117 298 -37 C298 -28 297 -13 296 0 C307 1 314 4 325 8 C326 8 327 9 328 9 C349 17 350 29 350 48 L334 99 C331 112 319 122 304 122 C300 121 273 116 264 116 L264 116 Z " />
<glyph glyph-name="Tcaron" unicode="&#x164;" horiz-adv-x="439" d="M286 447 L397 447 C416 447 429 460 429 479 L429 536 C429 555 416 568 397 568 L41 568 C22 568 10 555 10 536 L10 479 C10 460 22 447 41 447 L153 447 L153 32 C153 13 165 0 184 0 L254 0 C273 0 286 13 286 32 L286 447 Z M266 618 C282 618 294 630 301 646 L372 778 C372 797 359 812 340 812 L273 812 C254 812 244 800 239 783 L218 735 L198 783 C193 800 183 812 164 812 L96 812 C77 812 64 797 64 778 L135 646 C142 630 154 618 170 618 L266 618 Z " />
<glyph glyph-name="tcaron" unicode="&#x165;" horiz-adv-x="397" d="M247 477 C247 457 259 443 278 443 L329 443 C344 443 357 458 364 471 L392 535 C392 554 380 568 361 568 L290 568 C271 568 260 556 259 539 L247 477 Z M264 116 C218 116 216 163 216 188 L216 283 L297 283 C316 283 329 295 329 314 L329 374 C329 393 316 405 297 405 L216 405 L216 537 C216 556 204 568 185 568 L131 568 C112 568 103 555 100 538 L84 405 L47 405 C28 405 15 393 15 374 L15 314 C15 295 28 283 47 283 L83 283 L83 212 C83 80 114 -5 250 -5 C271 -5 300 -2 328 9 C349 17 350 29 350 48 L334 99 C331 112 319 122 304 122 C300 121 273 116 264 116 L264 116 Z " />
<glyph glyph-name="Tbar" unicode="&#x166;" horiz-adv-x="439" d="M364 219 C383 219 396 232 396 251 L396 308 C396 327 383 340 364 340 L286 340 L286 447 L397 447 C416 447 429 460 429 479 L429 536 C429 555 416 568 397 568 L41 568 C22 568 10 555 10 536 L10 479 C10 460 22 447 41 447 L153 447 L153 340 L72 340 C53 340 41 327 41 308 L41 251 C41 232 53 219 72 219 L153 219 L153 32 C153 13 165 0 184 0 L254 0 C273 0 286 13 286 32 L286 219 L364 219 Z " />
<glyph glyph-name="tbar" unicode="&#x167;" horiz-adv-x="355" d="M297 146 C316 146 329 158 329 177 L329 227 C329 246 316 258 297 258 L216 258 L216 294 L297 294 C316 294 329 306 329 325 L329 374 C329 393 316 405 297 405 L216 405 L216 537 C216 556 204 568 185 568 L131 568 C112 568 103 555 100 538 L84 405 L47 405 C28 405 15 393 15 374 L15 325 C15 306 28 294 47 294 L83 294 L83 258 L47 258 C28 258 15 246 15 227 L15 177 C15 158 28 146 47 146 L87 146 C98 49 141 -5 250 -5 C271 -5 300 -2 328 9 C349 17 350 29 350 48 L334 99 C331 112 319 122 304 122 C300 121 273 116 264 116 C241 116 230 127 223 146 L297 146 Z " />
<glyph glyph-name="Utilde" unicode="&#x168;" horiz-adv-x="528" d="M264 -5 C401 -5 488 31 488 254 L488 536 C488 555 475 568 456 568 L387 568 C368 568 355 555 355 536 L355 247 C355 123 304 116 264 116 C224 116 173 123 173 247 L173 536 C173 555 160 568 141 568 L72 568 C53 568 40 555 40 536 L40 254 C40 31 127 -5 264 -5 L264 -5 Z M330 618 C357 618 400 633 429 656 C436 663 443 673 443 682 C443 689 439 695 436 700 L407 740 C402 747 392 753 381 753 C362 753 349 739 330 739 C285 739 246 772 202 772 C174 772 132 757 103 734 C94 726 89 717 89 708 C89 701 92 694 95 689 L124 650 C130 641 139 636 150 636 C170 636 183 651 202 651 C248 651 285 618 330 618 L330 618 Z " />
<glyph glyph-name="utilde" unicode="&#x169;" horiz-adv-x="438" d="M265 131 C253 118 232 116 224 116 C178 116 163 120 163 180 L163 374 C163 393 151 405 132 405 L61 405 C42 405 30 393 30 374 L30 180 C30 48 92 -5 227 -5 C272 -5 323 6 378 34 C389 41 398 52 398 67 L398 374 C398 393 385 405 366 405 L297 405 C278 405 265 393 265 374 L265 131 Z M279 457 C306 457 349 472 378 495 C385 502 392 512 392 521 C392 528 388 534 385 539 L356 579 C351 586 341 592 330 592 C311 592 298 578 279 578 C234 578 195 611 151 611 C123 611 81 596 52 573 C43 565 38 556 38 547 C38 540 41 533 44 528 L73 489 C79 480 88 475 99 475 C119 475 132 490 151 490 C197 490 234 457 279 457 L279 457 Z " />
<glyph glyph-name="Umacron" unicode="&#x16a;" horiz-adv-x="528" d="M264 -5 C401 -5 488 31 488 254 L488 536 C488 555 475 568 456 568 L387 568 C368 568 355 555 355 536 L355 247 C355 123 304 116 264 116 C224 116 173 123 173 247 L173 536 C173 555 160 568 141 568 L72 568 C53 568 40 555 40 536 L40 254 C40 31 127 -5 264 -5 L264 -5 Z M391 618 C410 618 423 631 423 650 L423 707 C423 726 410 739 391 739 L140 739 C121 739 108 726 108 707 L108 650 C108 631 121 618 140 618 L391 618 Z " />
<glyph glyph-name="umacron" unicode="&#x16b;" horiz-adv-x="438" d="M265 131 C253 118 232 116 224 116 C178 116 163 120 163 180 L163 374 C163 393 151 405 132 405 L61 405 C42 405 30 393 30 374 L30 180 C30 48 92 -5 227 -5 C272 -5 323 6 378 34 C389 41 398 52 398 67 L398 374 C398 393 385 405 366 405 L297 405 C278 405 265 393 265 374 L265 131 Z M337 456 C356 456 369 469 369 488 L369 545 C369 564 356 577 337 577 L86 577 C67 577 54 564 54 545 L54 488 C54 469 67 456 86 456 L337 456 Z " />
<glyph glyph-name="Ubreve" unicode="&#x16c;" horiz-adv-x="528" d="M264 -5 C401 -5 488 31 488 254 L488 536 C488 555 475 568 456 568 L387 568 C368 568 355 555 355 536 L355 247 C355 123 304 116 264 116 C224 116 173 123 173 247 L173 536 C173 555 160 568 141 568 L72 568 C53 568 40 555 40 536 L40 254 C40 31 127 -5 264 -5 L264 -5 Z M263 618 C378 618 439 652 439 787 C439 806 426 819 407 819 L340 819 C321 819 308 806 308 787 C308 754 298 738 263 738 C230 738 219 754 219 787 C219 806 206 819 187 819 L120 819 C101 819 88 806 88 787 C88 652 149 618 263 618 L263 618 Z " />
<glyph glyph-name="ubreve" unicode="&#x16d;" horiz-adv-x="438" d="M265 131 C253 118 232 116 224 116 C178 116 163 120 163 180 L163 374 C163 393 151 405 132 405 L61 405 C42 405 30 393 30 374 L30 180 C30 48 92 -5 227 -5 C272 -5 323 6 378 34 C389 41 398 52 398 67 L398 374 C398 393 385 405 366 405 L297 405 C278 405 265 393 265 374 L265 131 Z M213 456 C328 456 389 490 389 625 C389 644 376 657 357 657 L290 657 C271 657 258 644 258 625 C258 592 248 576 213 576 C180 576 169 592 169 625 C169 644 156 657 137 657 L70 657 C51 657 38 644 38 625 C38 490 99 456 213 456 L213 456 Z " />
<glyph glyph-name="Uring" unicode="&#x16e;" horiz-adv-x="528" d="M264 -5 C401 -5 488 31 488 254 L488 536 C488 555 475 568 456 568 L387 568 C368 568 355 555 355 536 L355 247 C355 123 304 116 264 116 C224 116 173 123 173 247 L173 536 C173 555 160 568 141 568 L72 568 C53 568 40 555 40 536 L40 254 C40 31 127 -5 264 -5 L264 -5 Z M266 714 C258 714 238 718 238 745 C238 770 258 775 266 775 C273 775 293 770 293 745 C293 718 273 714 266 714 L266 714 Z M266 618 C338 618 387 657 387 745 C387 833 338 872 266 872 C194 872 144 833 144 745 C144 657 194 618 266 618 L266 618 Z " />
<glyph glyph-name="uring" unicode="&#x16f;" horiz-adv-x="438" d="M265 131 C253 118 232 116 224 116 C178 116 163 120 163 180 L163 374 C163 393 151 405 132 405 L61 405 C42 405 30 393 30 374 L30 180 C30 48 92 -5 227 -5 C272 -5 323 6 378 34 C389 41 398 52 398 67 L398 374 C398 393 385 405 366 405 L297 405 C278 405 265 393 265 374 L265 131 Z M214 552 C206 552 186 556 186 583 C186 608 206 613 214 613 C221 613 241 608 241 583 C241 556 221 552 214 552 L214 552 Z M214 456 C286 456 335 495 335 583 C335 671 286 710 214 710 C142 710 92 671 92 583 C92 495 142 456 214 456 L214 456 Z " />
<glyph glyph-name="Uhungarumlaut" unicode="&#x170;" horiz-adv-x="528" d="M264 -5 C401 -5 488 31 488 254 L488 536 C488 555 475 568 456 568 L387 568 C368 568 355 555 355 536 L355 247 C355 123 304 116 264 116 C224 116 173 123 173 247 L173 536 C173 555 160 568 141 568 L72 568 C53 568 40 555 40 536 L40 254 C40 31 127 -5 264 -5 L264 -5 Z M124 651 C124 632 136 618 155 618 L206 618 C223 618 234 631 241 646 L285 757 C285 776 272 790 253 790 L183 790 C166 790 155 776 151 760 L124 651 Z M287 651 C287 632 299 618 318 618 L369 618 C386 618 397 631 404 646 L448 757 C448 776 435 790 416 790 L346 790 C329 790 318 776 314 760 L287 651 Z " />
<glyph glyph-name="uhungarumlaut" unicode="&#x171;" horiz-adv-x="438" d="M265 131 C253 118 232 116 224 116 C178 116 163 120 163 180 L163 374 C163 393 151 405 132 405 L61 405 C42 405 30 393 30 374 L30 180 C30 48 92 -5 227 -5 C272 -5 323 6 378 34 C389 41 398 52 398 67 L398 374 C398 393 385 405 366 405 L297 405 C278 405 265 393 265 374 L265 131 Z M73 489 C73 470 85 456 104 456 L155 456 C172 456 183 469 190 484 L234 595 C234 614 221 628 202 628 L132 628 C115 628 104 614 100 598 L73 489 Z M236 489 C236 470 248 456 267 456 L318 456 C335 456 346 469 353 484 L397 595 C397 614 384 628 365 628 L295 628 C278 628 267 614 263 598 L236 489 Z " />
<glyph glyph-name="Uogonek" unicode="&#x172;" horiz-adv-x="528" d="M488 254 L488 536 C488 555 475 568 456 568 L387 568 C368 568 355 555 355 536 L355 247 C355 123 304 116 264 116 C224 116 173 123 173 247 L173 536 C173 555 160 568 141 568 L72 568 C53 568 40 555 40 536 L40 254 C40 58 106 8 214 -3 L214 -29 C214 -109 255 -138 327 -138 C369 -138 421 -124 421 -106 L421 -66 C421 -41 413 -35 394 -35 C379 -38 375 -40 364 -40 C341 -40 329 -37 329 -16 L329 -1 C428 12 488 69 488 254 L488 254 Z " />
<glyph glyph-name="uogonek" unicode="&#x173;" horiz-adv-x="438" d="M265 131 C253 118 232 116 224 116 C178 116 163 120 163 180 L163 374 C163 393 151 405 132 405 L61 405 C42 405 30 393 30 374 L30 180 C30 60 81 6 190 -3 L190 -24 C190 -104 231 -133 303 -133 C345 -133 397 -119 397 -101 L397 -61 C397 -36 389 -30 370 -30 C355 -33 351 -35 340 -35 C317 -35 305 -32 305 -11 L305 5 C328 12 353 21 378 34 C389 41 398 52 398 67 L398 374 C398 393 385 405 366 405 L297 405 C278 405 265 393 265 374 L265 131 Z " />
<glyph glyph-name="Ydieresis" unicode="&#x178;" horiz-adv-x="492" d="M313 165 L487 534 C487 554 474 568 455 568 L378 568 C363 568 351 554 344 539 L246 332 L148 539 C141 554 129 568 114 568 L37 568 C18 568 5 554 5 534 L179 165 L179 32 C179 13 192 0 211 0 L281 0 C300 0 313 13 313 32 L313 165 Z M86 690 C86 650 117 618 157 618 C197 618 229 650 229 690 C229 730 197 761 157 761 C117 761 86 730 86 690 L86 690 Z M262 690 C262 650 293 618 333 618 C373 618 405 650 405 690 C405 730 373 761 333 761 C293 761 262 730 262 690 L262 690 Z " />
<glyph glyph-name="Zacute" unicode="&#x179;" horiz-adv-x="414" d="M10 116 L10 32 C10 13 23 0 42 0 L372 0 C391 0 404 13 404 32 L404 90 C404 109 391 122 372 122 L177 122 L404 452 L404 536 C404 555 391 568 372 568 L42 568 C23 568 10 555 10 536 L10 478 C10 459 23 446 42 446 L241 446 L10 116 Z M151 694 C147 687 145 681 145 676 C145 665 160 651 161 650 L177 634 C185 626 193 618 205 618 C216 618 226 621 236 628 C341 712 340 714 341 714 C344 719 345 724 345 729 C345 742 340 749 333 756 L290 805 C284 810 276 812 266 812 C254 809 253 810 242 799 L151 694 Z " />
<glyph glyph-name="zacute" unicode="&#x17a;" horiz-adv-x="375" d="M355 290 L355 374 C355 393 343 405 324 405 L51 405 C32 405 20 393 20 374 L20 314 C20 295 32 283 51 283 L176 283 L20 118 L20 31 C20 12 32 0 51 0 L324 0 C343 0 355 12 355 31 L355 91 C355 110 343 122 324 122 L196 122 L355 290 Z M105 532 C101 525 99 519 99 514 C99 503 114 489 115 488 L131 472 C139 464 147 456 159 456 C170 456 180 459 190 466 C295 550 294 552 295 552 C298 557 299 562 299 567 C299 580 294 587 287 594 L244 643 C238 648 230 650 220 650 C208 647 207 648 196 637 L105 532 Z " />
<glyph glyph-name="Zdotaccent" unicode="&#x17b;" horiz-adv-x="414" d="M10 116 L10 32 C10 13 23 0 42 0 L372 0 C391 0 404 13 404 32 L404 90 C404 109 391 122 372 122 L177 122 L404 452 L404 536 C404 555 391 568 372 568 L42 568 C23 568 10 555 10 536 L10 478 C10 459 23 446 42 446 L241 446 L10 116 Z M139 690 C139 650 170 618 210 618 C250 618 282 650 282 690 C282 730 250 761 210 761 C170 761 139 730 139 690 L139 690 Z " />
<glyph glyph-name="zdotaccent" unicode="&#x17c;" horiz-adv-x="375" d="M355 290 L355 374 C355 393 343 405 324 405 L51 405 C32 405 20 393 20 374 L20 314 C20 295 32 283 51 283 L176 283 L20 118 L20 31 C20 12 32 0 51 0 L324 0 C343 0 355 12 355 31 L355 91 C355 110 343 122 324 122 L196 122 L355 290 Z M203 552 C195 552 175 556 175 583 C175 608 195 613 203 613 C210 613 230 608 230 583 C230 556 210 552 203 552 L203 552 Z M203 456 C275 456 324 495 324 583 C324 671 275 710 203 710 C131 710 81 671 81 583 C81 495 131 456 203 456 L203 456 Z " />
<glyph glyph-name="Zcaron" unicode="&#x17d;" horiz-adv-x="414" d="M10 116 L10 32 C10 13 23 0 42 0 L372 0 C391 0 404 13 404 32 L404 90 C404 109 391 122 372 122 L177 122 L404 452 L404 536 C404 555 391 568 372 568 L42 568 C23 568 10 555 10 536 L10 478 C10 459 23 446 42 446 L241 446 L10 116 Z M264 618 C280 618 292 630 299 646 L370 778 C370 797 357 812 338 812 L271 812 C252 812 242 800 237 783 L216 735 L196 783 C191 800 181 812 162 812 L94 812 C75 812 62 797 62 778 L133 646 C140 630 152 618 168 618 L264 618 Z " />
<glyph glyph-name="zcaron" unicode="&#x17e;" horiz-adv-x="375" d="M355 290 L355 374 C355 393 343 405 324 405 L51 405 C32 405 20 393 20 374 L20 314 C20 295 32 283 51 283 L176 283 L20 118 L20 31 C20 12 32 0 51 0 L324 0 C343 0 355 12 355 31 L355 91 C355 110 343 122 324 122 L196 122 L355 290 Z M237 456 C253 456 265 468 272 484 L343 616 C343 635 330 650 311 650 L244 650 C225 650 215 638 210 621 L189 573 L169 621 C164 638 154 650 135 650 L67 650 C48 650 35 635 35 616 L106 484 C113 468 125 456 141 456 L237 456 Z " />
<glyph glyph-name="florin" unicode="&#x192;" horiz-adv-x="325" d="M206 283 L284 283 C303 283 316 295 316 314 L316 374 C316 393 303 405 284 405 L206 405 C206 431 211 482 254 482 C269 482 282 478 297 478 C312 478 322 488 326 501 L340 556 C340 575 332 588 313 595 C285 604 261 607 240 607 C116 607 78 517 73 405 L37 405 C18 405 5 393 5 374 L5 314 C5 295 18 283 37 283 L73 283 L73 3 C73 -22 70 -69 25 -69 C14 -69 -2 -65 -17 -61 C-33 -61 -45 -70 -49 -85 L-63 -142 C-63 -161 -58 -178 -43 -181 C-14 -193 14 -195 39 -195 C174 -195 206 -110 206 21 L206 283 Z " />
<glyph glyph-name="uni0218" unicode="&#x218;" horiz-adv-x="476" d="M105 142 C98 145 96 144 93 144 C80 144 66 138 61 123 L40 74 C39 70 38 67 38 64 C38 48 52 34 63 29 C109 8 174 -5 217 -5 C378 -5 461 46 461 167 C461 407 161 327 161 407 C161 443 193 450 256 450 C268 450 311 443 348 440 L370 437 C391 437 406 441 409 466 C412 498 413 511 413 519 C413 536 396 546 381 551 C330 567 270 572 250 572 C67 572 25 499 25 389 C25 198 325 264 325 166 C325 121 252 116 228 116 C201 116 145 126 105 142 L105 142 Z M154 -214 C173 -179 181 -162 189 -99 C192 -80 193 -66 220 -66 L295 -66 C314 -66 326 -80 326 -99 C318 -143 294 -251 227 -251 L184 -251 C165 -251 153 -238 153 -219 L154 -214 Z " />
<glyph glyph-name="uni0219" unicode="&#x219;" horiz-adv-x="380" d="M89 121 C86 122 82 122 78 122 C65 122 50 120 46 105 C35 74 34 62 31 51 C31 32 44 25 56 18 C93 2 154 -5 182 -5 C298 -5 365 43 365 130 C365 277 156 238 156 279 C156 292 183 294 227 294 C247 294 262 292 291 289 L303 288 C314 288 321 294 326 314 C330 346 331 359 331 367 C331 384 314 395 299 398 C263 406 213 411 198 411 C67 411 23 350 23 281 C23 129 232 166 232 127 C232 107 194 107 180 107 C163 107 121 110 89 121 L89 121 Z M100 -214 C119 -179 127 -162 135 -99 C138 -80 139 -66 166 -66 L241 -66 C260 -66 272 -80 272 -99 C264 -143 240 -251 173 -251 L130 -251 C111 -251 99 -238 99 -219 L100 -214 Z " />
<glyph glyph-name="uni021A" unicode="&#x21a;" horiz-adv-x="439" d="M286 447 L397 447 C416 447 429 460 429 479 L429 536 C429 555 416 568 397 568 L41 568 C22 568 10 555 10 536 L10 479 C10 460 22 447 41 447 L153 447 L153 32 C153 13 165 0 184 0 L254 0 C273 0 286 13 286 32 L286 447 Z M119 -219 C119 -238 131 -251 150 -251 L193 -251 C260 -251 284 -143 292 -99 C292 -80 280 -66 261 -66 L186 -66 C159 -66 158 -80 155 -99 C147 -162 139 -179 120 -214 L119 -219 Z " />
<glyph glyph-name="uni021B" unicode="&#x21b;" horiz-adv-x="355" d="M264 116 C218 116 216 163 216 188 L216 283 L297 283 C316 283 329 295 329 314 L329 374 C329 393 316 405 297 405 L216 405 L216 537 C216 556 204 568 185 568 L131 568 C112 568 103 555 100 538 L84 405 L47 405 C28 405 15 393 15 374 L15 314 C15 295 28 283 47 283 L83 283 L83 212 C83 80 114 -5 250 -5 C271 -5 300 -2 328 9 C349 17 350 29 350 48 L334 99 C331 112 319 122 304 122 C300 121 273 116 264 116 L264 116 Z M131 -219 C131 -238 143 -251 162 -251 L205 -251 C272 -251 296 -143 304 -99 C304 -80 292 -66 273 -66 L198 -66 C171 -66 170 -80 167 -99 C159 -162 151 -179 132 -214 L131 -219 Z " />
<glyph glyph-name="circumflex" unicode="&#x2c6;" horiz-adv-x="388" d="M146 572 C130 572 118 560 111 544 L40 412 C40 393 53 378 72 378 L140 378 C159 378 169 390 174 407 L194 455 L215 407 C220 390 230 378 249 378 L316 378 C335 378 348 393 348 412 L277 544 C270 560 258 572 242 572 L146 572 Z " />
<glyph glyph-name="caron" unicode="&#x2c7;" horiz-adv-x="388" d="M242 378 C258 378 270 390 277 406 L348 538 C348 557 335 572 316 572 L249 572 C230 572 220 560 215 543 L194 495 L174 543 C169 560 159 572 140 572 L72 572 C53 572 40 557 40 538 L111 406 C118 390 130 378 146 378 L242 378 Z " />
<glyph glyph-name="breve" unicode="&#x2d8;" horiz-adv-x="431" d="M215 371 C330 371 391 405 391 540 C391 559 378 572 359 572 L292 572 C273 572 260 559 260 540 C260 507 250 491 215 491 C182 491 171 507 171 540 C171 559 158 572 139 572 L72 572 C53 572 40 559 40 540 C40 405 101 371 215 371 L215 371 Z " />
<glyph glyph-name="dotaccent" unicode="&#x2d9;" horiz-adv-x="223" d="M40 501 C40 461 71 429 111 429 C151 429 183 461 183 501 C183 541 151 572 111 572 C71 572 40 541 40 501 L40 501 Z " />
<glyph glyph-name="ring" unicode="&#x2da;" horiz-adv-x="323" d="M162 414 C154 414 134 418 134 445 C134 470 154 475 162 475 C169 475 189 470 189 445 C189 418 169 414 162 414 L162 414 Z M162 318 C234 318 283 357 283 445 C283 533 234 572 162 572 C90 572 40 533 40 445 C40 357 90 318 162 318 L162 318 Z " />
<glyph glyph-name="ogonek" unicode="&#x2db;" horiz-adv-x="287" d="M156 -35 C156 -20 145 -5 128 -5 L71 -5 C56 -5 41 -22 41 -37 C40 -46 40 -56 40 -65 C40 -145 81 -174 153 -174 C195 -174 247 -160 247 -142 L247 -102 C247 -77 239 -71 220 -71 C205 -74 201 -76 190 -76 C167 -76 155 -73 155 -52 C155 -45 155 -39 156 -35 L156 -35 Z " />
<glyph glyph-name="tilde" unicode="&#x2dc;" horiz-adv-x="434" d="M281 418 C308 418 351 433 380 456 C387 463 394 473 394 482 C394 489 390 495 387 500 L358 540 C353 547 343 553 332 553 C313 553 300 539 281 539 C236 539 197 572 153 572 C125 572 83 557 54 534 C45 526 40 517 40 508 C40 501 43 494 46 489 L75 450 C81 441 90 436 101 436 C121 436 134 451 153 451 C199 451 236 418 281 418 L281 418 Z " />
<glyph glyph-name="hungarumlaut" unicode="&#x2dd;" horiz-adv-x="404" d="M40 433 C40 414 52 400 71 400 L122 400 C139 400 150 413 157 428 L201 539 C201 558 188 572 169 572 L99 572 C82 572 71 558 67 542 L40 433 Z M203 433 C203 414 215 400 234 400 L285 400 C302 400 313 413 320 428 L364 539 C364 558 351 572 332 572 L262 572 C245 572 234 558 230 542 L203 433 Z " />
<glyph glyph-name="uni03A9" unicode="&#x3a9;" horiz-adv-x="660" d="M330 456 C370 456 446 443 446 280 C446 234 438 152 417 107 C414 100 411 97 411 85 L411 57 C411 22 432 0 467 0 L589 0 C608 0 620 13 620 32 L620 89 C620 108 608 121 589 121 L559 121 C573 162 579 249 579 280 C579 516 464 572 330 572 C196 572 81 516 81 280 C81 249 87 162 101 121 L71 121 C52 121 40 108 40 89 L40 32 C40 13 52 0 71 0 L193 0 C228 0 249 22 249 57 L249 85 C249 97 246 100 243 107 C222 152 214 234 214 280 C214 443 290 456 330 456 L330 456 Z " />
<glyph glyph-name="pi" unicode="&#x3c0;" horiz-adv-x="667" d="M382 31 C382 12 394 0 413 0 L484 0 C503 0 515 12 515 31 L515 284 L596 284 C615 284 627 296 627 315 L627 374 C627 393 615 405 596 405 L72 405 C53 405 40 393 40 374 L40 315 C40 296 53 284 72 284 L153 284 L153 31 C153 12 165 0 184 0 L255 0 C274 0 286 12 286 31 L286 284 L382 284 L382 31 Z " />
<glyph glyph-name="ZWSP" unicode="&#x200b;" d="" />
<glyph glyph-name="endash" unicode="&#x2013;" horiz-adv-x="395" d="M323 143 C342 143 355 156 355 175 L355 232 C355 251 342 264 323 264 L72 264 C53 264 40 251 40 232 L40 175 C40 156 53 143 72 143 L323 143 Z " />
<glyph glyph-name="emdash" unicode="&#x2014;" horiz-adv-x="478" d="M406 143 C425 143 438 156 438 175 L438 232 C438 251 425 264 406 264 L72 264 C53 264 40 251 40 232 L40 175 C40 156 53 143 72 143 L406 143 Z " />
<glyph glyph-name="quoteleft" unicode="&#x2018;" horiz-adv-x="264" d="M224 540 C224 559 211 572 192 572 L148 572 C82 572 48 434 40 390 C40 371 53 356 72 356 L148 356 C176 356 179 376 179 395 C179 452 191 488 222 535 L224 540 Z " />
<glyph glyph-name="quoteright" unicode="&#x2019;" horiz-adv-x="264" d="M40 388 C40 369 53 356 72 356 L115 356 C182 356 216 495 224 538 C224 557 211 572 192 572 L115 572 C87 572 84 553 84 533 C84 474 74 440 42 393 L40 388 Z " />
<glyph glyph-name="quotesinglbase" unicode="&#x201a;" horiz-adv-x="264" d="M40 -105 C40 -124 53 -137 72 -137 L115 -137 C182 -137 216 0 224 44 C224 64 211 78 192 78 L115 78 C87 78 84 59 84 40 C84 -19 74 -53 42 -100 L40 -105 Z " />
<glyph glyph-name="quotedblleft" unicode="&#x201c;" horiz-adv-x="451" d="M223 540 C223 559 210 572 191 572 L148 572 C80 572 48 433 40 390 C40 371 53 356 72 356 L148 356 C176 356 179 376 179 395 C179 452 190 488 221 535 L223 540 Z M411 540 C411 559 398 572 379 572 L335 572 C269 572 235 434 227 390 C227 371 240 356 259 356 L335 356 C363 356 366 376 366 395 C366 452 378 488 409 535 L411 540 Z " />
<glyph glyph-name="quotedblright" unicode="&#x201d;" horiz-adv-x="451" d="M227 388 C227 369 240 356 259 356 L302 356 C369 356 403 495 411 538 C411 557 398 572 379 572 L302 572 C274 572 272 553 272 533 C272 474 260 440 229 393 L227 388 Z M40 388 C40 369 53 356 72 356 L115 356 C183 356 215 495 223 538 C223 557 210 572 191 572 L115 572 C87 572 84 553 84 533 C84 474 74 440 42 393 L40 388 Z " />
<glyph glyph-name="quotedblbase" unicode="&#x201e;" horiz-adv-x="451" d="M227 -105 C227 -124 240 -137 259 -137 L302 -137 C369 -137 403 0 411 44 C411 64 398 78 379 78 L302 78 C274 78 272 59 272 40 C272 -19 260 -53 229 -100 L227 -105 Z M40 -105 C40 -124 53 -137 72 -137 L115 -137 C183 -137 215 0 223 44 C223 64 210 78 191 78 L115 78 C87 78 84 59 84 40 C84 -19 74 -53 42 -100 L40 -105 Z " />
<glyph glyph-name="dagger" unicode="&#x2020;" horiz-adv-x="425" d="M279 536 C279 555 266 568 247 568 L177 568 C158 568 146 555 146 536 L146 405 L71 405 C52 405 40 392 40 373 L40 316 C40 297 52 284 71 284 L146 284 L146 -164 C146 -183 158 -196 177 -196 L247 -196 C266 -196 279 -183 279 -164 L279 284 L353 284 C372 284 385 297 385 316 L385 373 C385 392 372 405 353 405 L279 405 L279 536 Z " />
<glyph glyph-name="daggerdbl" unicode="&#x2021;" horiz-adv-x="425" d="M71 121 C52 121 40 108 40 89 L40 32 C40 13 52 0 71 0 L146 0 L146 -164 C146 -183 158 -196 177 -196 L247 -196 C266 -196 279 -183 279 -164 L279 0 L353 0 C372 0 385 13 385 32 L385 89 C385 108 372 121 353 121 L279 121 L279 284 L353 284 C372 284 385 297 385 316 L385 373 C385 392 372 405 353 405 L279 405 L279 536 C279 555 266 568 247 568 L177 568 C158 568 146 555 146 536 L146 405 L71 405 C52 405 40 392 40 373 L40 316 C40 297 52 284 71 284 L146 284 L146 121 L71 121 Z " />
<glyph glyph-name="bullet" unicode="&#x2022;" horiz-adv-x="223" d="M40 184 C40 144 71 112 111 112 C151 112 183 144 183 184 C183 224 151 255 111 255 C71 255 40 224 40 184 L40 184 Z " />
<glyph glyph-name="ellipsis" unicode="&#x2026;" horiz-adv-x="607" d="M40 67 C40 27 71 -5 111 -5 C151 -5 183 27 183 67 C183 107 151 138 111 138 C71 138 40 107 40 67 L40 67 Z M232 67 C232 27 263 -5 303 -5 C343 -5 375 27 375 67 C375 107 343 138 303 138 C263 138 232 107 232 67 L232 67 Z M424 67 C424 27 455 -5 495 -5 C535 -5 567 27 567 67 C567 107 535 138 495 138 C455 138 424 107 424 67 L424 67 Z " />
<glyph glyph-name="perthousand" unicode="&#x2030;" horiz-adv-x="990" d="M181 32 C181 13 194 0 213 0 L280 0 C300 0 306 11 313 24 L531 536 C531 555 518 568 499 568 L431 568 C412 568 405 559 398 544 L181 32 Z M161 416 C153 416 138 420 138 444 C138 468 153 473 161 473 C169 473 184 468 184 444 C184 420 169 416 161 416 L161 416 Z M161 318 C233 318 282 356 282 444 C282 532 233 572 161 572 C89 572 40 532 40 444 C40 356 89 318 161 318 L161 318 Z M552 93 C544 93 529 97 529 121 C529 145 544 150 552 150 C560 150 575 145 575 121 C575 97 560 93 552 93 L552 93 Z M552 -5 C624 -5 673 33 673 121 C673 209 624 249 552 249 C480 249 431 209 431 121 C431 33 480 -5 552 -5 L552 -5 Z M829 93 C821 93 806 97 806 121 C806 145 821 150 829 150 C837 150 852 145 852 121 C852 97 837 93 829 93 L829 93 Z M829 -5 C901 -5 950 33 950 121 C950 209 901 249 829 249 C757 249 708 209 708 121 C708 33 757 -5 829 -5 L829 -5 Z " />
<glyph glyph-name="guilsinglleft" unicode="&#x2039;" horiz-adv-x="385" d="M40 173 C40 157 52 144 68 137 L312 27 C331 27 345 40 345 59 L345 139 C345 155 329 164 317 171 L215 217 L317 263 C329 270 345 279 345 295 L345 375 C345 394 331 407 312 407 L68 297 C52 290 40 277 40 261 L40 173 Z " />
<glyph glyph-name="guilsinglright" unicode="&#x203a;" horiz-adv-x="385" d="M345 261 C345 277 333 290 317 297 L73 407 C54 407 40 394 40 375 L40 295 C40 279 56 270 68 263 L170 217 L68 171 C56 164 40 155 40 139 L40 59 C40 40 54 27 73 27 L317 137 C333 144 345 157 345 173 L345 261 Z " />
<glyph glyph-name="fraction" unicode="&#x2044;" horiz-adv-x="440" d="M15 -114 C15 -133 28 -146 47 -146 L114 -146 C134 -146 140 -135 147 -122 L425 678 C425 697 412 710 393 710 L325 710 C306 710 299 701 292 686 L15 -114 Z " />
<glyph glyph-name="Euro" unicode="&#x20ac;" horiz-adv-x="563" d="M72 407 C53 407 40 394 40 375 L40 339 C40 320 53 307 72 307 L107 307 L107 263 L72 263 C53 263 40 250 40 231 L40 195 C40 176 53 163 72 163 L123 163 C160 40 257 -5 363 -5 C408 -5 456 7 503 38 C514 45 523 57 523 70 L500 123 C495 135 482 141 471 141 C464 141 459 139 454 136 C411 121 395 116 372 116 C347 116 306 126 275 163 L320 163 C339 163 352 176 352 195 L352 231 C352 250 339 263 320 263 L240 263 L240 280 C240 289 240 298 241 307 L320 307 C339 307 352 320 352 339 L352 375 C352 394 339 407 320 407 L272 407 C303 447 345 450 372 450 C392 450 422 448 454 433 C458 430 466 428 471 428 C482 428 495 434 500 447 C521 492 523 494 523 498 C523 511 514 523 503 530 C456 561 408 572 363 572 C256 572 159 538 122 407 L72 407 Z " />
<glyph glyph-name="Numero" unicode="&#x2116;" horiz-adv-x="991" d="M459 0 C478 0 491 13 491 32 L491 536 C491 555 478 568 459 568 L390 568 C371 568 358 555 358 536 L358 273 C300 371 246 447 187 544 C176 560 163 568 148 568 L72 568 C53 568 40 555 40 536 L40 32 C40 13 53 0 72 0 L141 0 C160 0 173 13 173 32 L173 317 C233 217 297 123 356 24 C367 8 381 0 394 0 L459 0 Z M753 277 C694 277 691 331 691 367 C691 402 700 450 753 450 C806 450 815 402 815 367 C815 331 812 277 753 277 L753 277 Z M753 156 C889 156 951 235 951 368 C951 491 888 572 753 572 C618 572 555 491 555 368 C555 235 617 156 753 156 L753 156 Z M919 0 C938 0 951 13 951 32 L951 89 C951 108 938 121 919 121 L587 121 C568 121 555 108 555 89 L555 32 C555 13 568 0 587 0 L919 0 Z " />
<glyph glyph-name="trademark" unicode="&#x2122;" horiz-adv-x="700" d="M215 471 L257 471 C269 471 279 482 279 494 L279 546 C279 559 269 568 257 568 L62 568 C47 568 40 561 40 546 L40 494 C40 482 47 471 62 471 L104 471 L104 270 C104 258 115 247 127 247 L192 247 C207 247 215 258 215 270 L215 471 Z M494 309 C510 309 516 321 519 325 L544 377 L550 272 C550 265 554 247 574 247 L634 247 C641 247 659 253 660 273 C660 274 659 283 658 302 C655 334 652 402 645 545 C644 553 637 568 613 568 L560 568 C549 568 532 561 525 546 L481 436 L437 546 C430 561 413 568 402 568 L349 568 C325 568 318 553 317 545 C310 402 305 334 304 302 C303 283 302 274 302 273 C303 253 321 247 328 247 L388 247 C408 247 412 265 412 272 L418 377 L443 325 C446 321 452 309 468 309 L494 309 Z " />
<glyph glyph-name="Omega" unicode="&#x2126;" horiz-adv-x="660" d="M330 456 C370 456 446 443 446 280 C446 234 438 152 417 107 C414 100 411 97 411 85 L411 57 C411 22 432 0 467 0 L589 0 C608 0 620 13 620 32 L620 89 C620 108 608 121 589 121 L559 121 C573 162 579 249 579 280 C579 516 464 572 330 572 C196 572 81 516 81 280 C81 249 87 162 101 121 L71 121 C52 121 40 108 40 89 L40 32 C40 13 52 0 71 0 L193 0 C228 0 249 22 249 57 L249 85 C249 97 246 100 243 107 C222 152 214 234 214 280 C214 443 290 456 330 456 L330 456 Z " />
<glyph glyph-name="partialdiff" unicode="&#x2202;" horiz-adv-x="430" d="M164 174 C164 219 180 226 217 226 C224 226 246 224 257 216 L257 124 C245 119 221 116 214 116 C175 116 164 126 164 174 L164 174 Z M257 341 C234 349 204 350 193 350 C90 350 25 310 25 175 C25 39 80 -5 217 -5 C262 -5 323 1 368 16 C383 23 390 35 390 50 L390 363 C390 496 321 572 186 572 C142 572 106 568 59 536 C48 529 40 517 40 504 L63 452 C68 439 80 434 91 434 C96 434 101 435 108 438 C140 451 155 451 178 451 C217 451 257 425 257 363 L257 341 Z " />
<glyph glyph-name="Delta" unicode="&#x2206;" horiz-adv-x="704" d="M234 121 L352 333 L470 121 L234 121 Z M632 0 C649 0 664 17 664 36 C664 43 662 50 658 55 C572 213 470 396 385 553 C378 564 367 572 352 572 C337 572 326 564 319 553 C234 396 132 213 46 55 C42 50 40 43 40 36 C40 17 54 0 73 0 L632 0 Z " />
<glyph glyph-name="product" unicode="&#x220f;" horiz-adv-x="667" d="M382 31 C382 12 394 0 413 0 L484 0 C503 0 515 12 515 31 L515 447 L596 447 C615 447 627 459 627 478 L627 537 C627 556 615 568 596 568 L72 568 C53 568 40 556 40 537 L40 478 C40 459 53 447 72 447 L153 447 L153 31 C153 12 165 0 184 0 L255 0 C274 0 286 12 286 31 L286 447 L382 447 L382 31 Z " />
<glyph glyph-name="summation" unicode="&#x2211;" horiz-adv-x="447" d="M151 295 L151 274 L40 118 L40 32 C40 13 53 0 72 0 L375 0 C394 0 407 13 407 32 L407 89 C407 108 394 121 375 121 L207 121 L312 269 L312 300 L207 446 L375 446 C394 446 407 459 407 478 L407 536 C407 555 394 568 375 568 L72 568 C53 568 40 555 40 536 L40 450 L151 295 Z " />
<glyph glyph-name="minus" unicode="&#x2212;" horiz-adv-x="395" d="M323 143 C342 143 355 156 355 175 L355 232 C355 251 342 264 323 264 L72 264 C53 264 40 251 40 232 L40 175 C40 156 53 143 72 143 L323 143 Z " />
<glyph glyph-name="radical" unicode="&#x221a;" horiz-adv-x="684" d="M612 447 C631 447 644 460 644 479 L644 536 C644 555 631 568 612 568 L399 568 C382 568 373 556 366 539 L244 181 L177 376 C170 393 161 405 144 405 L71 405 C52 405 40 393 40 374 L163 29 C170 10 182 0 198 0 L288 0 C304 0 316 10 323 29 L471 447 L612 447 Z " />
<glyph glyph-name="infinity" unicode="&#x221e;" horiz-adv-x="968" d="M484 107 C539 55 613 22 698 22 C812 22 928 85 928 221 C928 350 841 426 698 426 C618 426 556 409 484 326 C412 409 350 426 270 426 C127 426 40 350 40 221 C40 85 156 22 270 22 C355 22 429 55 484 107 L484 107 Z M270 305 C330 305 385 279 436 212 C377 160 333 143 270 143 C215 143 173 169 173 220 C173 291 230 305 270 305 L270 305 Z M698 305 C738 305 795 291 795 220 C795 169 753 143 698 143 C635 143 591 160 532 212 C583 279 638 305 698 305 L698 305 Z " />
<glyph glyph-name="integral" unicode="&#x222b;" horiz-adv-x="485" d="M425 558 C396 570 368 572 343 572 C208 572 176 487 176 356 L176 3 C176 -22 173 -69 128 -69 C117 -69 101 -65 86 -61 C70 -61 58 -70 54 -85 L40 -142 C40 -161 45 -178 60 -181 C89 -193 117 -195 142 -195 C270 -195 309 -120 309 -2 L309 374 C309 399 312 446 357 446 C368 446 384 442 399 438 C415 438 427 447 431 462 L445 519 C445 538 440 555 425 558 L425 558 Z " />
<glyph glyph-name="approxequal" unicode="&#x2248;" horiz-adv-x="434" d="M281 41 C308 41 351 56 380 79 C387 86 394 96 394 105 C394 112 390 118 387 123 L358 163 C353 170 343 176 332 176 C313 176 300 162 281 162 C236 162 197 195 153 195 C125 195 83 180 54 157 C45 149 40 140 40 131 C40 124 43 117 46 112 L75 73 C81 64 90 59 101 59 C121 59 134 74 153 74 C199 74 236 41 281 41 L281 41 Z M281 201 C308 201 351 216 380 239 C387 246 394 256 394 265 C394 272 390 278 387 283 L358 323 C353 330 343 336 332 336 C313 336 300 322 281 322 C236 322 197 355 153 355 C125 355 83 340 54 317 C45 309 40 300 40 291 C40 284 43 277 46 272 L75 233 C81 224 90 219 101 219 C121 219 134 234 153 234 C199 234 236 201 281 201 L281 201 Z " />
<glyph glyph-name="notequal" unicode="&#x2260;" horiz-adv-x="395" d="M323 227 C342 227 355 240 355 259 L355 316 C355 335 342 348 323 348 L298 348 L308 376 C308 395 296 411 277 411 L234 411 C215 411 205 398 198 381 L186 348 L72 348 C53 348 40 335 40 316 L40 259 C40 240 53 227 72 227 L145 227 L132 190 L72 190 C53 190 40 177 40 158 L40 101 C40 82 53 69 72 69 L90 69 L79 35 C79 15 92 0 111 0 L154 0 C173 0 179 12 187 25 L202 69 L323 69 C342 69 355 82 355 101 L355 158 C355 177 342 190 323 190 L244 190 L256 227 L323 227 Z " />
<glyph glyph-name="lessequal" unicode="&#x2264;" horiz-adv-x="344" d="M40 265 C40 249 52 237 68 230 L271 139 C290 139 304 152 304 171 L304 235 C304 254 292 261 277 268 L184 305 L277 342 C292 349 304 356 304 375 L304 439 C304 458 290 471 271 471 L68 380 C52 373 40 361 40 345 L40 265 Z M272 0 C291 0 304 13 304 32 L304 89 C304 108 291 121 272 121 L72 121 C53 121 40 108 40 89 L40 32 C40 13 53 0 72 0 L272 0 Z " />
<glyph glyph-name="greaterequal" unicode="&#x2265;" horiz-adv-x="344" d="M304 345 C304 361 292 373 276 380 L73 471 C54 471 40 458 40 439 L40 375 C40 356 52 349 67 342 L160 305 L67 268 C52 261 40 254 40 235 L40 171 C40 152 54 139 73 139 L276 230 C292 237 304 249 304 265 L304 345 Z M272 0 C291 0 304 13 304 32 L304 89 C304 108 291 121 272 121 L72 121 C53 121 40 108 40 89 L40 32 C40 13 53 0 72 0 L272 0 Z " />
<glyph glyph-name="lozenge" unicode="&#x25ca;" horiz-adv-x="478" d="M239 213 L191 286 L239 359 L287 286 L239 213 Z M239 0 C254 0 263 7 270 18 L429 257 C434 265 438 273 438 285 C438 296 434 304 429 312 L270 554 C266 562 256 572 239 572 C222 572 212 562 208 554 L49 312 C44 304 40 296 40 285 C40 273 44 265 49 257 L208 18 C215 7 224 0 239 0 L239 0 Z " />
<glyph glyph-name="uni25CC" unicode="&#x25cc;" horiz-adv-x="512" d="" />
<glyph glyph-name="fi" unicode="&#xfb01;" horiz-adv-x="538" d="M284 283 C303 283 316 295 316 314 L316 374 C316 393 303 405 284 405 L206 405 C206 431 211 482 254 482 C269 482 282 478 297 478 C312 478 322 488 326 501 L340 556 C340 575 332 588 313 595 C285 604 261 607 240 607 C116 607 78 517 73 405 L37 405 C18 405 5 393 5 374 L5 314 C5 295 18 283 37 283 L73 283 L73 31 C73 12 85 0 104 0 L175 0 C194 0 206 12 206 31 L206 283 L284 283 Z M498 373 C498 392 485 405 466 405 L396 405 C377 405 365 392 365 373 L365 32 C365 13 377 0 396 0 L466 0 C485 0 498 13 498 32 L498 373 Z M360 501 C360 461 391 430 431 430 C471 430 503 461 503 501 C503 541 471 573 431 573 C391 573 360 541 360 501 L360 501 Z " />
<glyph glyph-name="fl" unicode="&#xfb02;" horiz-adv-x="551" d="M284 283 C303 283 316 295 316 314 L316 374 C316 393 303 405 284 405 L206 405 C206 431 211 482 254 482 C269 482 282 478 297 478 C312 478 322 488 326 501 L340 556 C340 575 332 588 313 595 C285 604 261 607 240 607 C116 607 78 517 73 405 L37 405 C18 405 5 393 5 374 L5 314 C5 295 18 283 37 283 L73 283 L73 31 C73 12 85 0 104 0 L175 0 C194 0 206 12 206 31 L206 283 L284 283 Z M365 96 C365 61 369 -5 444 -5 C459 -5 475 -4 498 4 C517 10 526 21 526 36 L526 70 C526 82 521 91 510 98 C503 101 498 109 498 126 L498 536 C498 555 485 568 466 568 L396 568 C377 568 365 555 365 536 L365 96 Z " />
</font>
</svg>
