<?xml version="1.0" encoding="UTF-8"?>
<svg xmlns="http://www.w3.org/2000/svg" xmlns:xlink="http://www.w3.org/1999/xlink" version="1.2" >
<font id="Mairy Light">
<font-face  font-family="Mairy" units-per-em="1000" ascent="750" descent="-250" font-style="normal" font-weight="300" font-stretch="normal" cap-height="568" x-height="405" underline-position="-91" underline-thickness="35" />
<missing-glyph  horiz-adv-x="567" d="M534 0 L534 626 L23 626 L23 0 L534 0 Z M87 43 L87 64 L68 64 L66 44 C67 44 68 44 68 43 L87 43 Z M488 582 C489 582 490 581 490 580 L488 580 L488 582 Z M470 580 L470 562 L488 562 L488 580 L470 580 Z M488 64 L470 64 L470 45 L490 45 L488 64 Z M69 562 L87 562 L87 582 L68 583 C68 582 68 582 69 582 L69 562 Z M87 562 L470 562 L470 64 L87 64 L87 562 Z " />
<glyph glyph-name="space" unicode="&#x20;" horiz-adv-x="189" d="" />
<glyph glyph-name="exclam" unicode="&#x21;" horiz-adv-x="194" d="M124 553 C124 563 119 568 109 568 L85 568 C75 568 70 563 70 553 L74 123 C74 113 79 108 89 108 L104 108 C114 108 119 113 119 123 L124 553 Z M65 27 C65 8 78 -5 97 -5 C116 -5 129 8 129 27 C129 46 116 59 97 59 C78 59 65 46 65 27 L65 27 Z " />
<glyph glyph-name="quotedbl" unicode="&#x22;" horiz-adv-x="316" d="M119 553 C119 563 114 568 104 568 L80 568 C70 568 65 563 65 553 L71 428 C71 418 76 413 86 413 L98 413 C108 413 113 418 113 428 L119 553 Z M251 553 C251 563 246 568 236 568 L212 568 C202 568 197 563 197 553 L203 428 C203 418 208 413 218 413 L230 413 C240 413 245 418 245 428 L251 553 Z " />
<glyph glyph-name="numbersign" unicode="&#x23;" horiz-adv-x="800" d="M261 192 L327 382 L558 382 L493 192 L261 192 Z M575 432 L344 432 L386 553 C386 563 381 568 371 568 L345 568 C337 568 331 563 328 553 L287 432 L142 432 C132 432 127 427 127 417 L127 397 C127 387 132 382 142 382 L270 382 L204 192 L80 192 C70 192 65 187 65 177 L65 157 C65 147 70 142 80 142 L187 142 L143 15 C143 5 148 0 158 0 L183 0 C191 0 197 5 200 15 L244 142 L475 142 L431 15 C431 5 436 0 446 0 L471 0 C479 0 485 5 488 15 L532 142 L656 142 C666 142 671 147 671 157 L671 177 C671 187 666 192 656 192 L549 192 L615 382 L720 382 C730 382 735 387 735 397 L735 417 C735 427 730 432 720 432 L632 432 L674 553 C674 563 669 568 659 568 L633 568 C625 568 619 563 616 553 L575 432 Z " />
<glyph glyph-name="dollar" unicode="&#x24;" horiz-adv-x="541" d="M476 152 C476 273 383 299 292 320 L292 522 C312 521 359 516 404 511 C410 511 414 514 416 521 L416 544 C416 552 412 557 404 559 C365 566 317 570 292 571 L292 667 C292 677 287 682 277 682 L263 682 C253 682 248 677 248 667 L248 571 C103 566 65 512 65 430 C65 322 158 299 248 281 L248 47 C213 50 151 57 103 73 C97 73 93 70 91 63 L85 36 C85 29 89 24 97 21 C138 7 211 -2 248 -5 L248 -111 C248 -121 253 -126 263 -126 L277 -126 C287 -126 292 -121 292 -111 L292 -4 C421 4 476 56 476 152 L476 152 Z M119 433 C119 504 160 519 248 522 L248 330 C179 346 119 366 119 433 L119 433 Z M292 271 C363 255 422 231 422 157 C422 71 344 50 292 47 L292 271 Z " />
<glyph glyph-name="percent" unicode="&#x25;" horiz-adv-x="663" d="M175 388 C154 388 111 399 111 456 C111 512 154 525 175 525 C196 525 238 512 238 456 C238 399 196 388 175 388 L175 388 Z M175 341 C239 341 285 376 285 456 C285 536 239 572 175 572 C110 572 65 536 65 456 C65 376 110 341 175 341 L175 341 Z M186 17 C186 6 192 0 203 0 L224 0 C235 0 241 8 244 17 L478 551 C478 562 472 568 461 568 L440 568 C429 568 423 560 420 551 L186 17 Z M488 38 C467 38 425 49 425 106 C425 162 467 175 488 175 C509 175 552 162 552 106 C552 49 509 38 488 38 L488 38 Z M488 -9 C553 -9 598 26 598 106 C598 186 553 222 488 222 C424 222 378 186 378 106 C378 26 424 -9 488 -9 L488 -9 Z " />
<glyph glyph-name="ampersand" unicode="&#x26;" horiz-adv-x="621" d="M276 46 C169 46 119 64 119 135 C119 195 152 231 252 251 L405 97 C368 60 308 46 276 46 L276 46 Z M480 26 C501 7 525 -5 552 -5 C568 -5 596 -3 596 17 C596 20 589 29 584 36 C581 40 576 41 573 41 C556 42 531 50 518 61 L235 345 C211 369 186 398 186 431 C186 495 221 522 293 522 C402 522 414 474 414 430 C414 415 410 400 405 387 C405 377 410 372 420 372 L442 372 C451 372 457 377 460 387 C464 402 468 418 468 431 C468 522 420 572 293 572 C178 572 133 516 133 431 C133 402 141 349 216 288 C83 259 65 193 65 133 C65 28 144 -9 274 -9 C338 -9 387 18 443 58 L480 26 Z " />
<glyph glyph-name="quotesingle" unicode="&#x27;" horiz-adv-x="184" d="M119 553 C119 563 114 568 104 568 L80 568 C70 568 65 563 65 553 L71 428 C71 418 76 413 86 413 L98 413 C108 413 113 418 113 428 L119 553 Z " />
<glyph glyph-name="parenleft" unicode="&#x28;" horiz-adv-x="250" d="M175 -133 C138 14 129 161 129 280 C129 397 143 590 175 692 C175 702 170 707 160 707 L139 707 C130 707 124 702 121 691 C89 568 75 451 75 279 C75 106 89 -10 121 -132 C124 -143 130 -148 139 -148 L160 -148 C170 -148 175 -143 175 -133 L175 -133 Z " />
<glyph glyph-name="parenright" unicode="&#x29;" horiz-adv-x="250" d="M75 -133 C75 -143 80 -148 90 -148 L111 -148 C120 -148 126 -143 129 -132 C161 -10 175 106 175 279 C175 451 161 568 129 691 C126 702 120 707 111 707 L90 707 C80 707 75 702 75 692 C107 590 121 397 121 280 C121 161 112 14 75 -133 L75 -133 Z " />
<glyph glyph-name="asterisk" unicode="&#x2a;" horiz-adv-x="420" d="M219 568 L202 568 C190 567 181 558 181 547 L189 429 L99 467 C95 469 92 470 89 470 C80 470 74 467 70 460 L66 446 C65 443 65 439 65 436 C65 429 74 421 82 418 L169 391 L97 322 C94 319 93 316 93 311 C93 302 95 295 100 291 L116 278 C119 275 122 274 126 274 C134 274 142 280 146 285 L210 379 L274 285 C278 280 286 274 294 274 C298 274 301 275 304 278 L320 291 C325 295 327 302 327 311 C327 316 326 319 323 322 L251 391 L338 418 C346 421 355 429 355 436 C355 439 355 443 354 446 L350 460 C346 467 340 470 331 470 C328 470 325 469 321 467 L231 429 L239 547 C239 558 230 567 219 568 L219 568 Z " />
<glyph glyph-name="plus" unicode="&#x2b;" horiz-adv-x="392" d="M312 170 C322 170 327 175 327 185 L327 205 C327 215 322 220 312 220 L223 220 L223 318 C223 328 218 333 208 333 L184 333 C174 333 169 328 169 318 L169 220 L80 220 C70 220 65 215 65 205 L65 185 C65 175 70 170 80 170 L169 170 L169 72 C169 62 174 57 184 57 L208 57 C218 57 223 62 223 72 L223 170 L312 170 Z " />
<glyph glyph-name="comma" unicode="&#x2c;" horiz-adv-x="152" d="M40 -103 C40 -114 45 -120 54 -120 L79 -120 C89 -120 95 -114 97 -103 C110 -54 112 -24 112 24 C112 35 105 41 94 41 L68 41 C57 41 51 35 51 24 C54 7 54 -15 54 -26 C54 -57 49 -75 40 -103 L40 -103 Z " />
<glyph glyph-name="hyphen" unicode="&#x2d;" horiz-adv-x="393" d="M313 162 C323 162 328 167 328 177 L328 197 C328 207 323 212 313 212 L80 212 C70 212 65 207 65 197 L65 177 C65 167 70 162 80 162 L313 162 Z " />
<glyph glyph-name="period" unicode="&#x2e;" horiz-adv-x="194" d="M65 27 C65 8 78 -5 97 -5 C116 -5 129 8 129 27 C129 46 116 59 97 59 C78 59 65 46 65 27 L65 27 Z " />
<glyph glyph-name="slash" unicode="&#x2f;" horiz-adv-x="415" d="M40 -131 C40 -142 46 -148 57 -148 L75 -148 C86 -148 92 -140 95 -131 L375 691 C375 702 369 708 358 708 L340 708 C329 708 323 700 320 691 L40 -131 Z " />
<glyph glyph-name="zero" unicode="0" horiz-adv-x="588" d="M294 46 C206 46 119 76 119 280 C119 519 235 522 294 522 C353 522 469 519 469 280 C469 76 382 46 294 46 L294 46 Z M294 -5 C425 -5 523 59 523 280 C523 515 421 572 294 572 C167 572 65 515 65 280 C65 59 163 -5 294 -5 L294 -5 Z " />
<glyph glyph-name="one" unicode="1" horiz-adv-x="352" d="M50 466 C42 461 35 455 35 446 L35 419 C35 409 40 404 50 404 L233 512 L233 15 C233 5 238 0 248 0 L272 0 C282 0 287 5 287 15 L287 553 C287 563 282 568 272 568 L223 568 L50 466 Z " />
<glyph glyph-name="two" unicode="2" horiz-adv-x="473" d="M96 554 C88 552 84 547 84 539 L85 515 C87 508 91 505 97 505 C130 512 184 522 217 522 C326 522 361 518 361 442 C361 329 55 288 55 98 L55 15 C55 5 60 0 70 0 L384 0 C394 0 399 5 399 15 L399 35 C399 45 394 50 384 50 L109 50 L109 87 C109 276 413 279 413 442 C413 530 389 572 218 572 C202 572 147 568 96 554 L96 554 Z " />
<glyph glyph-name="three" unicode="3" horiz-adv-x="443" d="M57 559 C49 557 45 552 45 544 L47 521 C50 514 56 511 66 511 C111 516 169 522 185 522 C282 522 324 500 324 420 C324 369 294 308 185 308 L162 308 C152 308 147 303 147 293 L147 273 C147 263 152 258 162 258 L185 258 C282 258 324 199 324 149 C324 79 294 46 185 46 C174 46 123 47 67 55 C57 55 51 52 48 45 L46 22 C46 14 50 9 58 7 C109 -1 178 -5 192 -5 C317 -5 378 51 378 150 C378 191 359 245 290 280 C355 310 378 375 378 421 C378 529 310 572 185 572 C170 572 107 567 57 559 L57 559 Z " />
<glyph glyph-name="four" unicode="4" horiz-adv-x="506" d="M93 191 L345 491 L345 191 L93 191 Z M40 156 C40 146 45 141 55 141 L345 141 L345 15 C345 5 350 0 360 0 L384 0 C394 0 399 5 399 15 L399 141 L451 141 C461 141 466 146 466 156 L466 176 C466 186 461 191 451 191 L399 191 L399 553 C399 563 394 568 384 568 L350 568 C342 568 333 563 329 556 L40 209 L40 156 Z " />
<glyph glyph-name="five" unicode="5" horiz-adv-x="463" d="M79 6 C136 -5 194 -5 207 -5 C338 -5 413 51 413 150 C413 191 408 302 236 302 L118 302 L118 518 L379 518 C389 518 394 523 394 533 L394 553 C394 563 389 568 379 568 L80 568 C70 568 65 563 65 553 L65 267 C65 257 70 252 80 252 L240 252 C341 252 360 193 360 149 C360 77 314 46 207 46 C196 46 152 46 81 58 C75 58 71 55 69 48 L67 21 C67 14 71 9 79 6 L79 6 Z " />
<glyph glyph-name="six" unicode="6" horiz-adv-x="482" d="M248 292 C352 292 373 236 373 168 C373 100 352 45 248 45 C132 45 119 95 119 163 C119 200 128 292 248 292 L248 292 Z M377 501 C378 500 380 500 383 500 C390 500 395 504 397 511 L403 537 C403 545 399 550 391 552 C354 568 301 572 266 572 C135 572 65 508 65 381 L65 162 C65 47 121 -5 248 -5 C371 -5 427 52 427 167 C427 282 371 342 248 342 C230 342 167 340 119 292 L119 389 C119 516 215 521 280 521 C305 521 338 516 377 501 L377 501 Z " />
<glyph glyph-name="seven" unicode="7" horiz-adv-x="409" d="M107 15 C107 5 112 0 122 0 L147 0 C155 0 161 5 164 15 L359 516 L359 553 C359 563 354 568 344 568 L45 568 C35 568 30 563 30 553 L30 533 C30 523 35 518 45 518 L302 518 L107 15 Z " />
<glyph glyph-name="eight" unicode="8" horiz-adv-x="488" d="M244 46 C128 46 119 105 119 149 C119 194 129 258 244 258 C358 258 369 194 369 149 C369 105 360 46 244 46 L244 46 Z M244 308 C127 308 119 374 119 420 C119 463 132 522 244 522 C356 522 369 463 369 420 C369 374 361 308 244 308 L244 308 Z M244 572 C121 572 65 513 65 421 C65 376 72 320 133 285 C73 256 65 191 65 150 C65 51 121 -5 244 -5 C367 -5 423 51 423 150 C423 192 414 255 355 285 C416 320 423 376 423 421 C423 513 367 572 244 572 L244 572 Z " />
<glyph glyph-name="nine" unicode="9" horiz-adv-x="482" d="M234 260 C130 260 109 323 109 391 C109 459 130 522 234 522 C350 522 363 464 363 396 C363 351 354 260 234 260 L234 260 Z M105 66 C104 67 102 67 99 67 C92 67 87 63 85 56 L79 30 C79 22 83 17 91 15 C128 -1 181 -5 216 -5 C347 -5 417 59 417 186 L417 397 C417 512 361 572 234 572 C111 572 55 507 55 392 C55 277 111 210 234 210 C251 210 316 211 363 258 L363 178 C363 51 267 46 202 46 C177 46 144 51 105 66 L105 66 Z " />
<glyph glyph-name="colon" unicode="&#x3a;" horiz-adv-x="194" d="M65 27 C65 8 78 -5 97 -5 C116 -5 129 8 129 27 C129 46 116 59 97 59 C78 59 65 46 65 27 L65 27 Z M65 344 C65 325 78 312 97 312 C116 312 129 325 129 344 C129 363 116 376 97 376 C78 376 65 363 65 344 L65 344 Z " />
<glyph glyph-name="semicolon" unicode="&#x3b;" horiz-adv-x="202" d="M73 344 C73 325 86 312 105 312 C124 312 137 325 137 344 C137 363 124 376 105 376 C86 376 73 363 73 344 L73 344 Z M65 -103 C65 -114 70 -120 79 -120 L104 -120 C114 -120 120 -114 122 -103 C135 -54 137 -24 137 24 C137 35 130 41 119 41 L93 41 C82 41 76 35 76 24 C79 7 79 -15 79 -26 C79 -57 74 -75 65 -103 L65 -103 Z " />
<glyph glyph-name="less" unicode="&#x3c;" horiz-adv-x="401" d="M65 177 C65 169 72 162 80 158 L323 44 C332 44 336 48 336 57 L336 85 C336 93 330 98 323 101 L101 203 L323 305 C330 308 336 313 336 321 L336 349 C336 358 332 362 323 362 L80 248 C72 244 65 237 65 229 L65 177 Z " />
<glyph glyph-name="equal" unicode="&#x3d;" horiz-adv-x="391" d="M311 226 C321 226 326 231 326 241 L326 261 C326 271 321 276 311 276 L80 276 C70 276 65 271 65 261 L65 241 C65 231 70 226 80 226 L311 226 Z M311 51 C321 51 326 56 326 66 L326 86 C326 96 321 101 311 101 L80 101 C70 101 65 96 65 86 L65 66 C65 56 70 51 80 51 L311 51 Z " />
<glyph glyph-name="greater" unicode="&#x3e;" horiz-adv-x="401" d="M336 229 C336 237 329 244 321 248 L78 362 C69 362 65 358 65 349 L65 321 C65 313 71 308 78 305 L300 203 L78 101 C71 98 65 93 65 85 L65 57 C65 48 69 44 78 44 L321 158 C329 162 336 169 336 177 L336 229 Z " />
<glyph glyph-name="question" unicode="&#x3f;" horiz-adv-x="444" d="M91 512 C147 523 178 522 199 522 C308 522 327 489 327 442 C327 318 132 343 132 200 L132 152 C132 142 137 137 147 137 L171 137 C181 137 186 142 186 152 L186 183 C186 319 379 285 379 440 C379 504 367 572 198 572 C179 572 125 570 77 559 C69 557 65 552 65 544 L66 522 C69 515 74 511 81 511 C84 511 88 511 91 512 L91 512 Z M127 31 C127 12 139 0 158 0 C174 0 189 12 189 31 C189 48 174 62 158 62 C139 62 127 48 127 31 L127 31 Z " />
<glyph glyph-name="at" unicode="&#x40;" horiz-adv-x="651" d="M308 155 C308 254 351 257 415 257 C431 257 493 252 532 223 L532 70 C494 46 440 46 427 46 C341 46 308 66 308 155 L308 155 Z M264 -157 C251 -161 240 -161 229 -161 C121 -161 119 -79 119 -27 L119 302 C119 515 264 522 325 522 C389 522 532 519 532 291 L532 277 C465 308 416 307 403 307 C312 307 254 271 254 154 C254 34 307 -5 431 -5 C468 -5 523 1 579 24 C584 27 586 32 586 37 L586 288 C586 525 457 572 325 572 C192 572 65 521 65 293 L65 -5 C65 -132 90 -212 212 -212 C227 -212 259 -212 278 -205 C286 -203 290 -198 290 -190 L285 -166 C283 -159 279 -155 273 -155 C270 -155 267 -156 264 -157 L264 -157 Z " />
<glyph glyph-name="A" unicode="A" horiz-adv-x="556" d="M153 191 L278 522 L403 191 L153 191 Z M467 22 C475 2 487 -5 502 -5 C517 -5 531 -3 531 5 L531 27 C531 28 531 30 530 31 C529 33 527 35 524 37 C519 40 514 50 507 67 C456 207 363 444 326 551 C319 564 311 568 303 568 L253 568 C245 568 237 564 230 551 C186 428 74 139 30 15 C30 5 35 0 45 0 L70 0 C78 0 84 5 87 15 L134 141 L421 141 L467 22 Z " />
<glyph glyph-name="B" unicode="B" horiz-adv-x="496" d="M224 518 C300 518 366 511 366 415 C366 322 300 306 224 306 L119 306 L119 518 L224 518 Z M119 50 L119 256 L259 256 C331 256 397 251 397 152 C397 56 331 50 259 50 L119 50 Z M72 568 C67 568 65 566 65 561 L65 7 C65 2 67 0 72 0 L261 0 C384 0 451 33 451 152 C451 203 437 274 344 285 C418 314 420 385 420 419 C420 539 341 568 230 568 L72 568 Z " />
<glyph glyph-name="C" unicode="C" horiz-adv-x="477" d="M410 501 C411 500 413 500 416 500 C423 500 428 504 430 511 L436 533 C436 541 432 546 424 548 C385 564 340 572 301 572 C169 572 50 516 50 280 C50 67 169 -5 301 -5 C337 -5 388 2 425 18 C433 20 437 25 437 33 L431 59 C429 66 424 70 417 70 C414 70 412 70 411 69 C373 55 325 46 301 46 C234 46 104 76 104 280 C104 521 246 522 313 522 C334 522 373 514 410 501 L410 501 Z " />
<glyph glyph-name="D" unicode="D" horiz-adv-x="506" d="M402 208 C402 96 333 50 259 50 L119 50 L119 518 L259 518 C333 518 402 472 402 360 L402 208 Z M263 0 C388 0 456 67 456 194 L456 374 C456 501 388 568 263 568 L80 568 C70 568 65 563 65 553 L65 15 C65 5 70 0 80 0 L263 0 Z " />
<glyph glyph-name="E" unicode="E" horiz-adv-x="447" d="M328 256 C338 256 343 261 343 271 L343 291 C343 301 338 306 328 306 L119 306 L119 518 L392 518 C402 518 407 523 407 533 L407 553 C407 563 402 568 392 568 L80 568 C70 568 65 563 65 553 L65 15 C65 5 70 0 80 0 L392 0 C402 0 407 5 407 15 L407 35 C407 45 402 50 392 50 L119 50 L119 256 L328 256 Z " />
<glyph glyph-name="F" unicode="F" horiz-adv-x="447" d="M65 15 C65 5 70 0 80 0 L104 0 C114 0 119 5 119 15 L119 256 L328 256 C338 256 343 261 343 271 L343 291 C343 301 338 306 328 306 L119 306 L119 518 L392 518 C402 518 407 523 407 533 L407 553 C407 563 402 568 392 568 L80 568 C70 568 65 563 65 553 L65 15 Z " />
<glyph glyph-name="G" unicode="G" horiz-adv-x="543" d="M468 289 L350 289 C340 289 335 284 335 274 L335 254 C335 244 340 239 350 239 L429 239 L429 74 C392 61 324 46 301 46 C234 46 104 76 104 280 C104 521 246 522 313 522 C334 522 399 513 436 500 C437 499 439 499 442 499 C449 499 454 503 456 510 L462 532 C462 540 458 545 450 547 C412 563 339 572 301 572 C169 572 50 516 50 280 C50 67 169 -5 301 -5 C333 -5 397 6 434 19 C445 8 451 0 460 0 L468 0 C478 0 483 5 483 15 L483 274 C483 284 478 289 468 289 L468 289 Z " />
<glyph glyph-name="H" unicode="H" horiz-adv-x="536" d="M417 312 L119 312 L119 553 C119 563 114 568 104 568 L80 568 C70 568 65 563 65 553 L65 15 C65 5 70 0 80 0 L104 0 C114 0 119 5 119 15 L119 262 L417 262 L417 15 C417 5 422 0 432 0 L456 0 C466 0 471 5 471 15 L471 553 C471 563 466 568 456 568 L432 568 C422 568 417 563 417 553 L417 312 Z " />
<glyph glyph-name="I" unicode="I" horiz-adv-x="184" d="M119 553 C119 563 114 568 104 568 L80 568 C70 568 65 563 65 553 L65 15 C65 5 70 0 80 0 L104 0 C114 0 119 5 119 15 L119 553 Z " />
<glyph glyph-name="J" unicode="J" horiz-adv-x="436" d="M37 17 C77 2 128 -5 161 -5 C260 -5 371 18 371 231 L371 553 C371 563 366 568 356 568 L332 568 C322 568 317 563 317 553 L317 233 C317 46 221 46 151 46 C128 46 83 53 51 68 C50 69 48 69 45 69 C38 69 33 65 31 58 L25 32 C25 24 29 19 37 17 L37 17 Z " />
<glyph glyph-name="K" unicode="K" horiz-adv-x="519" d="M424 15 C430 5 437 0 444 0 L469 0 C479 0 484 5 484 15 C401 183 344 267 304 326 C381 398 434 485 458 553 C458 563 453 568 443 568 L415 568 C406 568 401 563 398 553 C366 440 231 310 119 294 L119 553 C119 563 114 568 104 568 L80 568 C70 568 65 563 65 553 L65 15 C65 5 70 0 80 0 L104 0 C114 0 119 5 119 15 L119 231 C175 246 215 259 262 292 C275 276 374 127 424 15 L424 15 Z " />
<glyph glyph-name="L" unicode="L" horiz-adv-x="430" d="M119 553 C119 563 114 568 104 568 L80 568 C70 568 65 563 65 553 L65 15 C65 5 70 0 80 0 L380 0 C390 0 395 5 395 15 L395 35 C395 45 390 50 380 50 L119 50 L119 553 Z " />
<glyph glyph-name="M" unicode="M" horiz-adv-x="670" d="M349 112 C357 112 363 117 367 126 L524 522 L560 15 C563 5 569 0 577 0 L600 0 C610 0 615 5 615 15 L578 553 C578 563 573 568 563 568 L494 568 C487 568 482 564 479 557 L335 189 L191 557 C188 564 183 568 176 568 L107 568 C97 568 92 563 92 553 L55 15 C55 5 60 0 70 0 L93 0 C101 0 107 5 110 15 L146 522 L303 126 C307 117 313 112 321 112 L349 112 Z " />
<glyph glyph-name="N" unicode="N" horiz-adv-x="563" d="M80 568 C70 568 65 563 65 553 L65 15 C65 5 70 0 80 0 L104 0 C114 0 119 5 119 15 L119 504 L420 13 C427 1 438 0 441 0 L483 0 C493 0 498 5 498 15 L498 553 C498 563 493 568 483 568 L459 568 C449 568 444 563 444 553 L444 76 L151 555 C144 566 134 568 131 568 L80 568 Z " />
<glyph glyph-name="O" unicode="O" horiz-adv-x="592" d="M296 46 C215 46 108 69 108 280 C108 517 229 522 296 522 C363 522 484 517 484 280 C484 69 377 46 296 46 L296 46 Z M296 572 C164 572 55 516 55 280 C55 59 164 -5 296 -5 C428 -5 537 59 537 280 C537 516 428 572 296 572 L296 572 Z " />
<glyph glyph-name="P" unicode="P" horiz-adv-x="477" d="M80 568 C70 568 65 563 65 553 L65 15 C65 5 70 0 80 0 L104 0 C114 0 119 5 119 15 L119 218 L250 218 C375 218 442 268 442 392 C442 515 377 568 250 568 L80 568 Z M119 268 L119 518 L258 518 C337 518 388 480 388 392 C388 304 338 268 258 268 L119 268 Z " />
<glyph glyph-name="Q" unicode="Q" horiz-adv-x="592" d="M296 572 C164 572 55 516 55 280 C55 69 151 1 274 -4 C262 -35 255 -56 244 -83 C239 -94 236 -98 225 -103 C205 -112 176 -118 161 -118 C151 -118 146 -123 146 -133 L146 -152 C146 -162 151 -167 161 -167 C216 -156 267 -152 296 -152 C330 -152 400 -160 456 -171 C466 -171 471 -166 471 -156 L471 -136 C471 -127 465 -122 446 -119 C401 -111 328 -101 297 -98 C305 -51 321 -22 336 -3 C449 8 537 82 537 280 C537 516 428 572 296 572 L296 572 Z M296 46 C215 46 108 69 108 280 C108 517 229 522 296 522 C363 522 484 517 484 280 C484 69 377 46 296 46 L296 46 Z " />
<glyph glyph-name="R" unicode="R" horiz-adv-x="495" d="M435 37 C430 40 425 50 418 67 L357 233 C418 256 450 305 450 392 C450 515 385 568 258 568 L80 568 C70 568 65 563 65 553 L65 15 C65 5 70 0 80 0 L104 0 C114 0 119 5 119 15 L119 218 L258 218 C274 218 289 219 302 220 L378 22 C386 2 398 -5 413 -5 C428 -5 442 -3 442 5 L442 27 C442 28 442 30 441 31 C440 33 438 35 435 37 L435 37 Z M119 268 L119 518 L266 518 C345 518 396 480 396 392 C396 304 346 268 266 268 L119 268 Z " />
<glyph glyph-name="S" unicode="S" horiz-adv-x="501" d="M82 21 C126 7 205 -5 241 -5 C397 -5 461 48 461 152 C461 387 104 269 104 433 C104 514 156 522 271 522 C285 522 338 516 389 511 C395 511 399 514 401 521 L401 544 C401 552 397 557 389 559 C340 567 275 572 264 572 C93 572 50 518 50 430 C50 216 407 340 407 157 C407 51 286 46 249 46 C222 46 144 54 88 73 C82 73 78 70 76 63 L70 36 C70 29 74 24 82 21 L82 21 Z " />
<glyph glyph-name="T" unicode="T" horiz-adv-x="461" d="M257 518 L411 518 C421 518 426 523 426 533 L426 553 C426 563 421 568 411 568 L50 568 C40 568 35 563 35 553 L35 533 C35 523 40 518 50 518 L203 518 L203 15 C203 5 208 0 218 0 L242 0 C252 0 257 5 257 15 L257 518 Z " />
<glyph glyph-name="U" unicode="U" horiz-adv-x="560" d="M280 -5 C412 -5 495 34 495 254 L495 553 C495 563 490 568 480 568 L456 568 C446 568 441 563 441 553 L441 260 C441 55 355 46 280 46 C205 46 119 55 119 260 L119 553 C119 563 114 568 104 568 L80 568 C70 568 65 563 65 553 L65 254 C65 34 148 -5 280 -5 L280 -5 Z " />
<glyph glyph-name="V" unicode="V" horiz-adv-x="556" d="M278 46 L87 553 C84 563 78 568 70 568 L45 568 C35 568 30 563 30 553 C74 429 186 140 230 17 C237 4 245 0 253 0 L303 0 C311 0 319 4 326 17 C370 140 482 429 526 553 C526 563 521 568 511 568 L486 568 C478 568 472 563 469 553 L278 46 Z " />
<glyph glyph-name="W" unicode="W" horiz-adv-x="691" d="M560 553 C568 485 577 378 577 343 C577 92 569 46 475 46 C376 46 373 192 373 263 L373 553 C373 563 368 568 358 568 L334 568 C324 568 319 563 319 553 L319 206 C319 131 318 46 221 46 C168 46 119 52 119 250 L119 553 C119 563 114 568 104 568 L80 568 C70 568 65 563 65 553 L65 263 C65 62 93 -5 216 -5 C246 -5 318 -5 355 71 C392 -5 460 -5 484 -5 C608 -5 631 82 631 342 C631 378 622 489 614 553 C614 563 609 568 599 568 L575 568 C565 568 560 563 560 553 L560 553 Z " />
<glyph glyph-name="X" unicode="X" horiz-adv-x="522" d="M429 11 C434 3 444 0 449 0 L475 0 C485 0 490 5 490 15 L301 288 L492 553 C492 563 487 568 477 568 L451 568 C446 568 438 564 431 557 L261 323 L91 557 C84 564 76 568 71 568 L45 568 C35 568 30 563 30 553 L221 288 L32 15 C32 5 37 0 47 0 L73 0 C78 0 88 3 93 11 L261 254 L429 11 Z " />
<glyph glyph-name="Y" unicode="Y" horiz-adv-x="500" d="M278 154 L470 553 C470 563 465 568 455 568 L431 568 C423 568 417 563 412 553 L251 223 L88 553 C83 563 76 568 69 568 L45 568 C35 568 30 563 30 553 L224 154 L224 15 C224 5 229 0 239 0 L263 0 C273 0 278 5 278 15 L278 154 Z " />
<glyph glyph-name="Z" unicode="Z" horiz-adv-x="445" d="M35 55 L35 15 C35 5 40 0 50 0 L395 0 C405 0 410 5 410 15 L410 35 C410 45 405 50 395 50 L94 50 L410 516 L410 553 C410 563 405 568 395 568 L50 568 C40 568 35 563 35 553 L35 533 C35 523 40 518 50 518 L349 518 L35 55 Z " />
<glyph glyph-name="bracketleft" unicode="&#x5b;" horiz-adv-x="296" d="M129 658 L206 658 C216 658 221 663 221 673 L221 693 C221 703 216 708 206 708 L90 708 C80 708 75 703 75 693 L75 -133 C75 -143 80 -148 90 -148 L206 -148 C216 -148 221 -143 221 -133 L221 -113 C221 -103 216 -98 206 -98 L129 -98 L129 658 Z " />
<glyph glyph-name="backslash" unicode="&#x5c;" horiz-adv-x="415" d="M95 691 C92 700 86 708 75 708 L57 708 C46 708 40 702 40 691 L320 -131 C323 -140 329 -148 340 -148 L358 -148 C369 -148 375 -142 375 -131 L95 691 Z " />
<glyph glyph-name="bracketright" unicode="&#x5d;" horiz-adv-x="296" d="M167 -98 L90 -98 C80 -98 75 -103 75 -113 L75 -133 C75 -143 80 -148 90 -148 L206 -148 C216 -148 221 -143 221 -133 L221 693 C221 703 216 708 206 708 L90 708 C80 708 75 703 75 693 L75 673 C75 663 80 658 90 658 L167 658 L167 -98 Z " />
<glyph glyph-name="asciicircum" unicode="&#x5e;" horiz-adv-x="334" d="M142 568 C134 568 126 564 119 551 L65 441 C65 431 70 426 80 426 L101 426 C110 426 117 431 122 441 L167 532 L212 441 C217 431 224 426 233 426 L254 426 C264 426 269 431 269 441 L215 551 C208 564 200 568 192 568 L142 568 Z " />
<glyph glyph-name="underscore" unicode="&#x5f;" horiz-adv-x="393" d="M313 -55 C323 -55 328 -50 328 -40 L328 -20 C328 -10 323 -5 313 -5 L80 -5 C70 -5 65 -10 65 -20 L65 -40 C65 -50 70 -55 80 -55 L313 -55 Z " />
<glyph glyph-name="grave" unicode="&#x60;" horiz-adv-x="197" d="M119 553 C119 563 114 568 104 568 L80 568 C70 568 65 563 65 553 L89 452 C91 442 96 437 104 437 L117 437 C127 437 132 442 132 452 L119 553 Z " />
<glyph glyph-name="a" unicode="a" horiz-adv-x="453" d="M334 97 C322 87 310 78 297 71 C274 58 246 46 217 46 C157 46 94 62 94 189 C94 298 154 361 271 361 C290 361 311 361 334 357 L334 97 Z M342 14 C345 5 350 0 357 0 L373 0 C383 0 388 5 388 15 L388 385 C388 392 385 396 378 398 C342 409 320 411 281 411 C142 411 40 339 40 190 C40 57 104 -5 207 -5 C219 -5 294 0 334 40 L342 14 Z " />
<glyph glyph-name="b" unicode="b" horiz-adv-x="481" d="M377 210 C377 91 327 46 230 46 C221 46 168 47 119 71 L119 321 C158 352 222 361 237 361 C321 361 377 335 377 210 L377 210 Z M75 29 C126 4 185 -5 230 -5 C365 -5 431 77 431 210 C431 343 361 411 256 411 C245 411 183 411 119 376 L119 553 C119 563 114 568 104 568 L80 568 C70 568 65 563 65 553 L65 42 C65 35 68 33 75 29 L75 29 Z " />
<glyph glyph-name="c" unicode="c" horiz-adv-x="441" d="M382 17 C390 19 394 24 394 32 L388 58 C386 65 381 69 374 69 C371 69 369 69 368 68 C328 52 291 46 264 46 C171 46 104 84 104 204 C104 323 161 361 264 361 C291 361 326 357 367 341 C368 340 370 340 373 340 C380 340 385 344 387 351 L393 376 C393 384 389 389 381 391 C338 406 291 411 254 411 C119 411 50 340 50 204 C50 71 119 -5 254 -5 C290 -5 339 2 382 17 L382 17 Z " />
<glyph glyph-name="d" unicode="d" horiz-adv-x="481" d="M104 210 C104 335 160 361 244 361 C259 361 323 352 362 321 L362 71 C313 47 260 46 251 46 C154 46 104 91 104 210 L104 210 Z M406 29 C413 33 416 35 416 42 L416 553 C416 563 411 568 401 568 L377 568 C367 568 362 563 362 553 L362 376 C298 411 236 411 225 411 C120 411 50 343 50 210 C50 77 116 -5 251 -5 C296 -5 355 4 406 29 L406 29 Z " />
<glyph glyph-name="e" unicode="e" horiz-adv-x="450" d="M237 361 C292 361 344 356 344 283 C344 223 305 211 228 211 C199 211 133 227 104 246 C123 338 172 361 237 361 L237 361 Z M382 20 C390 23 394 28 394 35 L388 61 C386 68 381 72 374 72 C371 72 369 72 368 71 C321 52 280 46 252 46 C163 46 104 102 104 194 C171 163 219 161 250 161 C333 161 398 190 398 287 C398 375 341 411 237 411 C106 411 50 330 50 207 C50 74 115 -5 248 -5 C289 -5 339 3 382 20 L382 20 Z " />
<glyph glyph-name="f" unicode="f" horiz-adv-x="350" d="M323 563 C330 563 335 567 337 574 L340 596 C340 604 336 609 328 611 C313 614 287 616 276 616 C160 616 120 560 120 436 L120 405 L45 405 C35 405 30 400 30 390 L30 370 C30 360 35 355 45 355 L120 355 L120 15 C120 5 125 0 135 0 L159 0 C169 0 174 5 174 15 L174 355 L301 355 C311 355 316 360 316 370 L316 390 C316 400 311 405 301 405 L174 405 L174 451 C174 502 176 566 293 566 C308 566 316 563 323 563 L323 563 Z " />
<glyph glyph-name="g" unicode="g" horiz-adv-x="453" d="M77 -121 C77 -224 175 -230 211 -230 C364 -230 388 -119 388 -53 L388 385 C388 392 385 396 378 398 C342 409 320 411 281 411 C142 411 40 339 40 190 C40 75 87 21 167 9 C108 -24 77 -61 77 -121 L77 -121 Z M334 108 C322 98 310 89 297 82 C274 69 246 57 217 57 C157 57 94 62 94 189 C94 298 154 361 271 361 C290 361 311 361 334 357 L334 108 Z M334 -52 C334 -136 287 -179 223 -179 C147 -179 131 -152 131 -120 C131 -71 152 -48 334 51 L334 -52 Z " />
<glyph glyph-name="h" unicode="h" horiz-adv-x="464" d="M65 15 C65 5 70 0 80 0 L104 0 C114 0 119 5 119 15 L119 301 C132 312 145 322 160 331 C185 346 217 361 250 361 C318 361 355 350 355 218 L355 15 C355 5 360 0 370 0 L394 0 C404 0 409 5 409 15 L409 232 C409 331 375 411 263 411 C249 411 178 409 119 361 L119 553 C119 563 114 568 104 568 L80 568 C70 568 65 563 65 553 L65 15 Z " />
<glyph glyph-name="i" unicode="i" horiz-adv-x="184" d="M119 390 C119 400 114 405 104 405 L80 405 C70 405 65 400 65 390 L65 15 C65 5 70 0 80 0 L104 0 C114 0 119 5 119 15 L119 390 Z M60 468 C60 449 73 436 92 436 C111 436 124 449 124 468 C124 487 111 500 92 500 C73 500 60 487 60 468 L60 468 Z " />
<glyph glyph-name="j" unicode="j" horiz-adv-x="184" d="M-96 -198 C-77 -201 -52 -202 -36 -202 C92 -202 119 -129 119 5 L119 390 C119 400 114 405 104 405 L80 405 C70 405 65 400 65 390 L65 -4 C65 -56 63 -152 -41 -152 C-45 -152 -74 -149 -93 -146 C-98 -146 -102 -150 -105 -157 L-108 -183 C-108 -191 -104 -196 -96 -198 L-96 -198 Z M60 468 C60 449 73 436 92 436 C111 436 124 449 124 468 C124 487 111 500 92 500 C73 500 60 487 60 468 L60 468 Z " />
<glyph glyph-name="k" unicode="k" horiz-adv-x="439" d="M345 390 C310 307 200 240 119 232 L119 553 C119 563 114 568 104 568 L80 568 C70 568 65 563 65 553 L65 15 C65 5 70 0 80 0 L104 0 C114 0 119 5 119 15 L119 173 C158 182 190 193 226 208 C258 166 293 114 347 15 C352 5 359 0 366 0 L394 0 C404 0 409 5 409 16 C340 138 313 181 270 234 C349 287 382 342 399 390 C399 400 394 405 384 405 L364 405 C356 405 350 400 345 390 L345 390 Z " />
<glyph glyph-name="l" unicode="l" horiz-adv-x="207" d="M119 553 C119 563 114 568 104 568 L80 568 C70 568 65 563 65 553 L65 49 C65 28 73 -5 113 -5 C126 -5 157 -4 157 6 L157 24 C157 27 156 30 153 33 C142 41 119 43 119 70 L119 553 Z " />
<glyph glyph-name="m" unicode="m" horiz-adv-x="668" d="M559 15 C559 5 564 0 574 0 L598 0 C608 0 613 5 613 15 L613 245 C613 344 581 411 485 411 C447 411 400 411 352 355 C302 408 260 411 202 411 C165 408 123 406 75 389 C68 386 65 382 65 376 L65 15 C65 5 70 0 80 0 L104 0 C114 0 119 5 119 15 L119 342 C146 359 175 361 202 361 C302 361 314 335 314 211 L314 15 C314 5 319 0 329 0 L353 0 C363 0 368 5 368 15 L368 222 C368 253 368 274 361 301 C377 333 433 361 465 361 C537 361 559 356 559 224 L559 15 Z " />
<glyph glyph-name="n" unicode="n" horiz-adv-x="464" d="M65 15 C65 5 70 0 80 0 L104 0 C114 0 119 5 119 15 L119 341 C143 360 219 361 234 361 C343 361 355 292 355 175 L355 15 C355 5 360 0 370 0 L394 0 C404 0 409 5 409 15 L409 221 C409 349 360 411 227 411 C187 411 127 405 75 390 C68 387 65 383 65 377 L65 15 Z " />
<glyph glyph-name="o" unicode="o" horiz-adv-x="494" d="M247 46 C118 46 104 139 104 206 C104 275 131 361 247 361 C363 361 390 275 390 206 C390 139 376 46 247 46 L247 46 Z M247 -5 C380 -5 444 74 444 207 C444 330 380 411 247 411 C114 411 50 330 50 207 C50 74 114 -5 247 -5 L247 -5 Z " />
<glyph glyph-name="p" unicode="p" horiz-adv-x="473" d="M230 361 C327 361 374 322 374 203 C374 60 295 46 218 46 C203 46 175 45 119 52 L119 344 C142 359 192 361 230 361 L230 361 Z M65 -181 C65 -191 70 -196 80 -196 L104 -196 C114 -196 119 -191 119 -181 L119 3 C183 -5 215 -5 227 -5 C362 -5 428 70 428 203 C428 336 368 411 227 411 C194 411 132 409 75 390 C68 388 65 384 65 377 L65 -181 Z " />
<glyph glyph-name="q" unicode="q" horiz-adv-x="473" d="M243 361 C281 361 331 359 354 344 L354 52 C298 45 270 46 255 46 C178 46 99 60 99 203 C99 322 144 361 243 361 L243 361 Z M408 377 C408 384 405 388 398 390 C341 409 279 411 246 411 C105 411 45 336 45 203 C45 70 111 -5 246 -5 C258 -5 290 -5 354 3 L354 -181 C354 -191 359 -196 369 -196 L393 -196 C403 -196 408 -191 408 -181 L408 377 Z " />
<glyph glyph-name="r" unicode="r" horiz-adv-x="352" d="M306 341 C307 340 309 340 312 340 C319 340 324 344 326 351 L332 376 C332 384 328 389 320 391 C280 408 239 411 203 411 C162 411 114 402 75 385 C68 382 65 378 65 372 L65 15 C65 5 70 0 80 0 L104 0 C114 0 119 5 119 15 L119 337 C145 358 193 361 206 361 C234 361 263 358 306 341 L306 341 Z " />
<glyph glyph-name="s" unicode="s" horiz-adv-x="411" d="M77 16 C117 -3 185 -5 205 -5 C321 -5 371 34 371 109 C371 257 102 198 102 305 C102 352 149 361 222 361 C253 361 281 355 314 355 C320 355 324 358 326 365 L326 385 C326 393 322 398 314 400 C276 408 228 411 214 411 C90 411 48 370 48 303 C48 140 318 211 318 105 C318 46 239 46 203 46 C181 46 125 52 83 68 C77 68 73 65 71 58 L65 31 C65 24 69 19 77 16 L77 16 Z " />
<glyph glyph-name="t" unicode="t" horiz-adv-x="376" d="M320 48 C313 47 304 46 296 46 C180 46 176 134 176 185 L176 355 L306 355 C316 355 321 360 321 370 L321 390 C321 400 316 405 306 405 L176 405 L176 553 C176 563 171 568 161 568 L145 568 C136 568 131 563 130 553 L120 405 L45 405 C35 405 30 400 30 390 L30 370 C30 360 35 355 45 355 L120 355 L120 212 C120 80 149 -8 277 -8 C290 -8 318 -6 334 -3 C342 0 346 5 346 12 L340 38 C338 45 334 49 327 49 C325 49 323 49 320 48 L320 48 Z " />
<glyph glyph-name="u" unicode="u" horiz-adv-x="464" d="M109 390 C109 400 104 405 94 405 L70 405 C60 405 55 400 55 390 L55 166 C55 36 109 -5 240 -5 C267 -5 334 2 392 42 C397 45 399 50 399 55 L399 390 C399 400 394 405 384 405 L360 405 C350 405 345 400 345 390 L345 78 C303 46 256 46 238 46 C133 46 109 65 109 194 L109 390 Z " />
<glyph glyph-name="v" unicode="v" horiz-adv-x="434" d="M242 0 C250 0 258 4 265 17 C309 141 361 265 404 390 C404 400 399 405 389 405 L364 405 C356 405 350 400 347 390 L217 46 L87 390 C84 400 78 405 70 405 L45 405 C35 405 30 400 30 390 C73 265 125 141 169 17 C176 4 184 0 192 0 L242 0 Z " />
<glyph glyph-name="w" unicode="w" horiz-adv-x="618" d="M494 390 C502 345 510 287 510 244 C510 113 510 46 423 46 C373 46 337 56 337 188 L337 390 C337 400 332 405 322 405 L298 405 C288 405 283 400 283 390 L283 181 C283 157 284 125 292 88 C267 60 236 46 207 46 C145 46 119 53 119 178 L119 390 C119 400 114 405 104 405 L80 405 C70 405 65 400 65 390 L65 164 C65 68 86 -5 192 -5 C203 -5 281 -4 316 44 C339 5 379 -5 422 -5 C551 -5 563 108 563 243 C563 281 556 343 548 390 C546 400 540 405 531 405 L509 405 C499 405 494 400 494 390 L494 390 Z " />
<glyph glyph-name="x" unicode="x" horiz-adv-x="406" d="M315 11 C320 3 330 0 335 0 L361 0 C371 0 376 5 376 15 L243 206 L376 390 C376 400 371 405 361 405 L335 405 C330 405 322 401 315 394 L203 241 L91 394 C84 401 76 405 71 405 L45 405 C35 405 30 400 30 390 L163 206 L30 15 C30 5 35 0 45 0 L71 0 C76 0 86 3 91 11 L203 172 L315 11 Z " />
<glyph glyph-name="y" unicode="y" horiz-adv-x="462" d="M163 6 C122 -23 86 -72 86 -121 C86 -224 184 -230 220 -230 C373 -230 397 -119 397 -53 L397 390 C397 400 392 405 382 405 L358 405 C348 405 343 400 343 390 L343 119 C333 107 322 97 310 88 C290 72 263 57 234 57 C170 57 109 62 109 194 L109 390 C109 400 104 405 94 405 L70 405 C60 405 55 400 55 390 L55 193 C55 67 101 22 163 6 L163 6 Z M343 -52 C343 -136 296 -179 232 -179 C156 -179 140 -152 140 -120 C140 -71 161 -48 343 51 L343 -52 Z " />
<glyph glyph-name="z" unicode="z" horiz-adv-x="396" d="M45 58 L45 15 C45 5 50 0 60 0 L336 0 C346 0 351 5 351 15 L351 35 C351 45 346 50 336 50 L104 50 L351 353 L351 390 C351 400 346 405 336 405 L60 405 C50 405 45 400 45 390 L45 370 C45 360 50 355 60 355 L285 355 L45 58 Z " />
<glyph glyph-name="braceleft" unicode="&#x7b;" horiz-adv-x="486" d="M208 405 C208 318 152 299 90 296 C80 296 75 291 75 281 L75 261 C75 251 80 246 90 246 C150 241 208 217 208 137 L208 57 C208 -68 229 -148 345 -148 C356 -148 382 -148 399 -144 C407 -142 411 -137 411 -129 L406 -107 C403 -98 396 -97 384 -97 C373 -98 361 -99 352 -99 C262 -99 262 -7 262 39 L262 148 C262 182 262 242 193 266 C262 314 262 359 262 393 L262 521 C262 567 262 659 352 659 C361 659 373 658 384 657 C396 657 403 658 406 667 L411 689 C411 697 407 702 399 704 C382 708 356 708 345 708 C229 708 208 628 208 503 L208 405 Z " />
<glyph glyph-name="bar" unicode="&#x7c;" horiz-adv-x="204" d="M129 693 C129 703 124 708 114 708 L90 708 C80 708 75 703 75 693 L75 -133 C75 -143 80 -148 90 -148 L114 -148 C124 -148 129 -143 129 -133 L129 693 Z " />
<glyph glyph-name="braceright" unicode="&#x7d;" horiz-adv-x="486" d="M278 503 C278 628 257 708 141 708 C130 708 104 708 87 704 C79 702 75 697 75 689 L80 667 C83 658 90 657 102 657 C113 658 125 659 134 659 C224 659 224 567 224 521 L224 393 C224 359 224 314 293 266 C224 242 224 182 224 148 L224 39 C224 -7 224 -99 134 -99 C125 -99 113 -98 102 -97 C90 -97 83 -98 80 -107 L75 -129 C75 -137 79 -142 87 -144 C104 -148 130 -148 141 -148 C257 -148 278 -68 278 57 L278 137 C278 217 336 241 396 246 C406 246 411 251 411 261 L411 281 C411 291 406 296 396 296 C334 299 278 318 278 405 L278 503 Z " />
<glyph glyph-name="asciitilde" unicode="&#x7e;" horiz-adv-x="424" d="M288 171 C307 171 332 177 355 192 C358 194 359 197 359 201 C359 204 358 207 357 208 L347 225 C344 228 341 230 336 230 C331 230 331 230 324 227 C313 222 299 221 288 221 C235 221 188 253 136 253 C117 253 92 247 69 232 C66 230 65 227 65 223 C65 220 66 217 67 216 L77 199 C80 196 83 194 88 194 C93 194 93 194 100 197 C111 202 125 203 136 203 C190 203 235 171 288 171 L288 171 Z " />
<glyph glyph-name="uni00A0" unicode="&#xa0;" horiz-adv-x="190" d="" />
<glyph glyph-name="exclamdown" unicode="&#xa1;" horiz-adv-x="194" d="M119 440 C119 450 114 455 104 455 L89 455 C79 455 74 450 74 440 L70 10 C70 0 75 -5 85 -5 L109 -5 C119 -5 124 0 124 10 L119 440 Z M65 536 C65 517 78 504 97 504 C116 504 129 517 129 536 C129 555 116 568 97 568 C78 568 65 555 65 536 L65 536 Z " />
<glyph glyph-name="cent" unicode="&#xa2;" horiz-adv-x="517" d="M279 -111 C279 -121 284 -126 294 -126 L308 -126 C318 -126 323 -121 323 -111 L323 -5 C358 -4 405 3 440 18 C448 20 452 25 452 33 L446 59 C444 66 439 70 432 70 C429 70 427 70 426 69 C391 56 348 47 323 46 L323 522 L328 522 C349 522 388 514 425 501 C426 500 428 500 431 500 C438 500 443 504 445 511 L451 533 C451 541 447 546 439 548 C403 563 359 571 323 572 L323 667 C323 677 318 682 308 682 L294 682 C284 682 279 677 279 667 L279 570 C162 559 65 493 65 280 C65 85 162 10 279 -3 L279 -111 Z M119 280 C119 472 208 512 279 520 L279 49 C211 60 119 110 119 280 L119 280 Z " />
<glyph glyph-name="sterling" unicode="&#xa3;" horiz-adv-x="532" d="M137 237 L137 15 C137 5 142 0 152 0 L452 0 C462 0 467 5 467 15 L467 35 C467 45 462 50 452 50 L191 50 L191 237 L313 237 C323 237 328 242 328 252 L328 272 C328 282 323 287 313 287 L191 287 C191 513 282 522 348 522 C369 522 403 519 440 506 C441 505 443 505 446 505 C453 505 458 509 460 516 L466 538 C466 546 462 551 454 553 C415 569 375 572 336 572 C205 572 140 515 137 287 L80 287 C70 287 65 282 65 272 L65 252 C65 242 70 237 80 237 L137 237 Z " />
<glyph glyph-name="currency" unicode="&#xa4;" horiz-adv-x="432" d="M216 336 C193 336 173 330 154 321 L107 369 C102 372 98 374 94 374 C90 374 86 372 83 369 L70 356 C67 353 65 349 65 344 C65 339 67 335 70 332 L113 287 C94 264 84 235 84 204 C84 173 94 145 113 122 L70 77 C67 74 65 70 65 65 C65 60 67 56 70 53 L83 40 C86 37 90 35 94 35 C98 35 102 37 107 40 L154 88 C173 79 193 73 216 73 C239 73 259 79 278 88 L325 40 C330 37 334 35 338 35 C342 35 346 37 349 40 L362 53 C365 56 367 60 367 65 C367 70 365 74 362 77 L319 122 C338 145 348 173 348 204 C348 235 338 264 319 287 L362 332 C365 335 367 339 367 344 C367 349 365 353 362 356 L349 369 C346 372 342 374 338 374 C334 374 330 372 325 369 L278 321 C259 330 239 336 216 336 L216 336 Z M216 122 C171 122 133 158 133 205 C133 250 171 287 216 287 C261 287 299 250 299 205 C299 158 261 122 216 122 L216 122 Z " />
<glyph glyph-name="yen" unicode="&#xa5;" horiz-adv-x="558" d="M395 224 L339 224 L493 553 C493 563 488 568 478 568 L454 568 C446 568 440 563 435 553 L279 223 L123 553 C118 563 111 568 104 568 L80 568 C70 568 65 563 65 553 L219 224 L163 224 C153 224 148 219 148 209 L148 189 C148 179 153 174 163 174 L243 174 L252 154 L252 115 L163 115 C153 115 148 110 148 100 L148 80 C148 70 153 65 163 65 L252 65 L252 15 C252 5 257 0 267 0 L291 0 C301 0 306 5 306 15 L306 65 L395 65 C405 65 410 70 410 80 L410 100 C410 110 405 115 395 115 L306 115 L306 154 L315 174 L395 174 C405 174 410 179 410 189 L410 209 C410 219 405 224 395 224 L395 224 Z " />
<glyph glyph-name="brokenbar" unicode="&#xa6;" horiz-adv-x="184" d="M119 705 C119 715 114 720 104 720 L80 720 C70 720 65 715 65 705 L65 397 C65 387 70 382 80 382 L104 382 C114 382 119 387 119 397 L119 705 Z M119 189 C119 199 114 204 104 204 L80 204 C70 204 65 199 65 189 L65 -119 C65 -129 70 -134 80 -134 L104 -134 C114 -134 119 -129 119 -119 L119 189 Z " />
<glyph glyph-name="section" unicode="&#xa7;" horiz-adv-x="468" d="M355 180 C387 199 403 227 403 266 C403 415 134 358 134 466 C134 513 181 522 254 522 C285 522 313 516 346 516 C352 516 356 519 358 526 L358 546 C358 554 354 559 346 561 C308 569 260 572 246 572 C122 572 80 531 80 464 C80 429 92 405 111 388 C78 369 65 345 65 308 C65 145 335 211 335 105 C335 46 256 46 220 46 C198 46 142 52 100 68 C94 68 90 65 88 58 L82 31 C82 24 86 19 94 16 C134 -3 202 -5 222 -5 C338 -5 388 34 388 109 C388 141 375 164 355 180 L355 180 Z M119 305 C119 337 135 350 170 350 C188 350 350 331 350 266 C350 230 331 215 295 215 C284 215 119 238 119 305 L119 305 Z " />
<glyph glyph-name="dieresis" unicode="&#xa8;" horiz-adv-x="312" d="M65 540 C65 521 78 508 97 508 C116 508 129 521 129 540 C129 559 116 572 97 572 C78 572 65 559 65 540 L65 540 Z M183 540 C183 521 196 508 215 508 C234 508 247 521 247 540 C247 559 234 572 215 572 C196 572 183 559 183 540 L183 540 Z " />
<glyph glyph-name="copyright" unicode="&#xa9;" horiz-adv-x="707" d="M353 572 C193 572 65 443 65 283 C65 123 193 -5 353 -5 C513 -5 642 123 642 283 C642 443 513 572 353 572 L353 572 Z M353 37 C217 37 107 147 107 283 C107 419 217 529 353 529 C489 529 599 419 599 283 C599 147 489 37 353 37 L353 37 Z M452 152 C458 155 461 158 461 163 C461 166 461 168 460 170 L455 185 C452 193 446 193 439 193 C411 181 386 177 367 177 C308 177 267 205 267 280 C267 355 303 381 367 381 C386 381 410 379 439 367 C440 366 442 366 443 366 C449 366 453 369 455 374 L460 392 C461 393 461 394 461 396 C461 401 458 404 452 407 C421 422 388 425 361 425 C266 425 217 375 217 280 C217 187 266 133 361 133 C388 133 423 139 452 152 L452 152 Z " />
<glyph glyph-name="ordfeminine" unicode="&#xaa;" horiz-adv-x="389" d="M274 341 C265 336 255 331 245 327 C228 320 207 314 192 314 C163 314 115 328 115 411 C115 488 186 525 274 525 L274 341 Z M318 562 C297 570 286 572 263 572 C134 572 65 505 65 408 C65 340 95 267 188 267 C199 267 245 271 274 295 L285 275 C289 268 294 265 301 265 L313 265 C317 265 324 268 324 283 L324 553 C324 558 322 561 318 562 L318 562 Z " />
<glyph glyph-name="guillemotleft" unicode="&#xab;" horiz-adv-x="466" d="M120 15 C124 5 130 0 139 0 L159 0 C169 0 174 5 174 15 L122 176 C121 179 119 186 119 190 L119 218 C119 222 121 229 122 232 L174 390 C174 400 169 405 159 405 L139 405 C130 405 124 400 120 390 L68 232 C67 229 65 222 65 218 L65 190 C65 186 67 179 68 176 L120 15 Z M347 15 C351 5 357 0 366 0 L386 0 C396 0 401 5 401 15 L349 176 C348 179 346 186 346 190 L346 218 C346 222 348 229 349 232 L401 390 C401 400 396 405 386 405 L366 405 C357 405 351 400 347 390 L295 232 C294 229 292 222 292 218 L292 190 C292 186 294 179 295 176 L347 15 Z " />
<glyph glyph-name="logicalnot" unicode="&#xac;" horiz-adv-x="460" d="M341 56 C341 46 346 41 356 41 L380 41 C390 41 395 46 395 56 L395 203 C395 213 390 218 380 218 L80 218 C70 218 65 213 65 203 L65 183 C65 173 70 168 80 168 L341 168 L341 56 Z " />
<glyph glyph-name="uni00AD" unicode="&#xad;" horiz-adv-x="189" d="" />
<glyph glyph-name="registered" unicode="&#xae;" horiz-adv-x="707" d="M353 572 C193 572 65 443 65 283 C65 123 193 -5 353 -5 C513 -5 642 123 642 283 C642 443 513 572 353 572 L353 572 Z M353 37 C217 37 107 147 107 283 C107 419 217 529 353 529 C489 529 599 419 599 283 C599 147 489 37 353 37 L353 37 Z M457 158 C454 161 453 166 415 247 C449 261 466 292 466 339 C466 411 427 443 354 443 L250 443 C243 443 240 440 240 433 L240 139 C240 132 243 129 250 129 L280 129 C287 129 290 132 290 139 L290 236 L344 236 C351 236 358 236 365 237 L404 146 C411 131 426 126 437 126 C448 126 463 127 463 134 L463 151 C463 152 463 153 462 154 C461 155 460 157 457 158 L457 158 Z M290 282 L290 399 L349 399 C390 399 416 383 416 339 C416 294 390 282 349 282 L290 282 Z " />
<glyph glyph-name="macron" unicode="&#xaf;" horiz-adv-x="393" d="M313 518 C323 518 328 523 328 533 L328 553 C328 563 323 568 313 568 L80 568 C70 568 65 563 65 553 L65 533 C65 523 70 518 80 518 L313 518 Z " />
<glyph glyph-name="degree" unicode="&#xb0;" horiz-adv-x="311" d="M155 423 C139 423 105 432 105 477 C105 520 139 531 155 531 C171 531 205 520 205 477 C205 432 171 423 155 423 L155 423 Z M155 382 C208 382 246 410 246 477 C246 541 208 572 155 572 C102 572 65 541 65 477 C65 410 102 382 155 382 L155 382 Z " />
<glyph glyph-name="plusminus" unicode="&#xb1;" horiz-adv-x="392" d="M312 218 C322 218 327 223 327 233 L327 253 C327 263 322 268 312 268 L223 268 L223 366 C223 376 218 381 208 381 L184 381 C174 381 169 376 169 366 L169 268 L80 268 C70 268 65 263 65 253 L65 233 C65 223 70 218 80 218 L169 218 L169 120 C169 110 174 105 184 105 L208 105 C218 105 223 110 223 120 L223 218 L312 218 Z M80 50 C70 50 65 45 65 35 L65 15 C65 5 70 0 80 0 L312 0 C322 0 327 5 327 15 L327 35 C327 45 322 50 312 50 L80 50 Z " />
<glyph glyph-name="twosuperior" unicode="&#xb2;" horiz-adv-x="349" d="M93 561 C86 560 81 553 81 548 L82 526 C83 515 90 515 98 515 C119 518 148 521 156 521 C189 521 234 520 234 484 C234 435 65 456 65 327 L65 277 C65 268 69 264 78 264 L266 264 C275 264 279 268 279 277 L279 298 C279 307 275 311 266 311 L115 311 L115 334 C115 407 284 391 284 487 C284 540 256 572 169 572 C158 572 120 569 93 561 L93 561 Z " />
<glyph glyph-name="threesuperior" unicode="&#xb3;" horiz-adv-x="339" d="M174 391 C205 391 224 372 224 347 C224 320 198 306 146 306 C139 306 104 310 82 313 C75 313 68 312 67 301 C66 282 65 284 65 280 C65 273 72 271 79 268 C106 261 141 259 152 259 C225 259 274 284 274 344 C274 369 259 402 230 415 C257 426 274 453 274 480 C274 536 248 572 156 572 C144 572 106 569 79 562 C72 559 65 557 65 550 C65 546 66 547 67 528 C68 519 75 517 82 517 C104 520 145 525 152 525 C183 525 224 516 224 483 C224 454 191 438 160 438 L137 438 C128 438 124 434 124 426 L124 403 C124 395 128 391 137 391 L174 391 Z " />
<glyph glyph-name="acute" unicode="&#xb4;" horiz-adv-x="271" d="M68 468 C66 465 65 462 65 460 C65 455 72 448 75 445 C80 440 81 437 93 437 C100 437 107 439 112 443 L204 521 C205 524 206 527 206 532 C206 538 204 543 201 548 L182 569 C179 571 174 572 168 572 C161 571 161 569 154 564 L68 468 Z " />
<glyph glyph-name="mu" unicode="&#xb5;" horiz-adv-x="474" d="M119 390 C119 400 114 405 104 405 L80 405 C70 405 65 400 65 390 L65 -191 C65 -201 70 -206 80 -206 L104 -206 C114 -206 119 -201 119 -191 L119 24 C150 3 191 -5 250 -5 C277 -5 344 2 402 42 C407 45 409 50 409 55 L409 390 C409 400 404 405 394 405 L370 405 C360 405 355 400 355 390 L355 78 C313 46 266 46 248 46 C148 46 119 63 119 175 L119 390 Z " />
<glyph glyph-name="paragraph" unicode="&#xb6;" horiz-adv-x="577" d="M512 553 C512 563 507 568 497 568 L231 568 C142 568 65 501 65 419 C65 342 139 277 239 272 L239 15 C239 5 244 0 254 0 L278 0 C288 0 293 5 293 15 L293 518 L458 518 L458 15 C458 5 463 0 473 0 L497 0 C507 0 512 5 512 15 L512 553 Z " />
<glyph glyph-name="periodcentered" unicode="&#xb7;" horiz-adv-x="194" d="M65 152 C65 133 78 120 97 120 C116 120 129 133 129 152 C129 171 116 184 97 184 C78 184 65 171 65 152 L65 152 Z " />
<glyph glyph-name="cedilla" unicode="&#xb8;" horiz-adv-x="291" d="M225 -20 C225 -10 220 -5 210 -5 L188 -5 C178 -5 173 -10 173 -20 L173 -54 C173 -93 160 -108 109 -108 C102 -108 88 -107 81 -106 C69 -106 65 -110 65 -126 L65 -150 C65 -153 98 -155 133 -155 C186 -155 226 -122 226 -46 C226 -39 226 -35 225 -20 L225 -20 Z " />
<glyph glyph-name="onesuperior" unicode="&#xb9;" horiz-adv-x="279" d="M69 510 C66 507 65 504 65 500 L65 471 C65 462 69 458 77 458 L166 512 L166 268 C166 260 170 256 179 256 L202 256 C210 256 214 260 214 268 L214 556 C214 564 210 568 202 568 L167 568 L69 510 Z " />
<glyph glyph-name="ordmasculine" unicode="&#xba;" horiz-adv-x="311" d="M155 423 C139 423 105 432 105 477 C105 520 139 531 155 531 C171 531 205 520 205 477 C205 432 171 423 155 423 L155 423 Z M155 382 C208 382 246 410 246 477 C246 541 208 572 155 572 C102 572 65 541 65 477 C65 410 102 382 155 382 L155 382 Z " />
<glyph glyph-name="guillemotright" unicode="&#xbb;" horiz-adv-x="466" d="M398 176 C399 179 401 186 401 190 L401 218 C401 222 399 229 398 232 L346 390 C342 400 336 405 327 405 L307 405 C297 405 292 400 292 390 L344 232 C345 229 347 222 347 218 L347 190 C347 186 345 179 344 176 L292 15 C292 5 297 0 307 0 L327 0 C336 0 342 5 346 15 L398 176 Z M171 176 C172 179 174 186 174 190 L174 218 C174 222 172 229 171 232 L119 390 C115 400 109 405 100 405 L80 405 C70 405 65 400 65 390 L117 232 C118 229 120 222 120 218 L120 190 C120 186 118 179 117 176 L65 15 C65 5 70 0 80 0 L100 0 C109 0 115 5 119 15 L171 176 Z " />
<glyph glyph-name="onequarter" unicode="&#xbc;" horiz-adv-x="733" d="M446 544 C453 557 459 568 472 568 L491 568 C504 568 507 563 507 550 L251 24 C244 11 238 0 225 0 L205 0 C192 0 189 4 189 17 L446 544 Z M69 510 C66 507 65 504 65 500 L65 471 C65 462 69 458 77 458 L166 512 L166 268 C166 260 170 256 179 256 L202 256 C210 256 214 260 214 268 L214 556 C214 564 210 568 202 568 L167 568 L69 510 Z M648 68 C655 68 660 73 660 80 L660 102 C660 109 655 115 648 115 L613 115 L613 299 C613 306 608 311 599 312 L557 312 C550 312 542 306 537 299 L402 115 L402 80 C402 72 406 68 415 68 L567 68 L567 13 C567 4 571 0 580 0 L600 0 C609 0 613 4 613 13 L613 68 L648 68 Z M461 115 L567 260 L567 115 L461 115 Z " />
<glyph glyph-name="onehalf" unicode="&#xbd;" horiz-adv-x="731" d="M189 17 C189 4 192 0 205 0 L225 0 C238 0 244 11 251 24 L507 550 C507 563 504 568 491 568 L472 568 C459 568 453 557 446 544 L189 17 Z M167 568 L202 568 C210 568 214 564 214 556 L214 268 C214 260 210 256 202 256 L179 256 C170 256 166 260 166 268 L166 512 L77 458 C69 458 65 462 65 471 L65 500 C65 504 66 507 69 510 L167 568 Z M475 297 C468 296 463 289 463 284 L464 262 C465 251 472 251 480 251 C501 254 530 257 538 257 C571 257 616 256 616 220 C616 171 447 192 447 63 L447 13 C447 4 451 0 460 0 L648 0 C657 0 661 4 661 13 L661 34 C661 43 657 47 648 47 L497 47 L497 70 C497 143 666 127 666 223 C666 276 638 308 551 308 C540 308 502 305 475 297 L475 297 Z " />
<glyph glyph-name="threequarters" unicode="&#xbe;" horiz-adv-x="749" d="M226 17 C226 4 229 0 242 0 L262 0 C275 0 281 11 288 24 L544 550 C544 563 541 568 528 568 L509 568 C496 568 490 557 483 544 L226 17 Z M174 391 C205 391 224 372 224 347 C224 320 198 306 146 306 C139 306 104 310 82 313 C75 313 68 312 67 301 C66 282 65 284 65 280 C65 273 72 271 79 268 C106 261 141 259 152 259 C225 259 274 284 274 344 C274 369 259 402 230 415 C257 426 274 453 274 480 C274 536 248 572 156 572 C144 572 106 569 79 562 C72 559 65 557 65 550 C65 546 66 547 67 528 C68 519 75 517 82 517 C104 520 145 525 152 525 C183 525 224 516 224 483 C224 454 191 438 160 438 L137 438 C128 438 124 434 124 426 L124 403 C124 395 128 391 137 391 L174 391 Z M672 68 C679 68 684 73 684 80 L684 102 C684 109 679 115 672 115 L637 115 L637 299 C637 306 632 311 623 312 L581 312 C574 312 566 306 561 299 L426 115 L426 80 C426 72 430 68 439 68 L591 68 L591 13 C591 4 595 0 604 0 L624 0 C633 0 637 4 637 13 L637 68 L672 68 Z M485 115 L591 260 L591 115 L485 115 Z " />
<glyph glyph-name="questiondown" unicode="&#xbf;" horiz-adv-x="444" d="M353 60 C297 49 266 50 245 50 C136 50 117 81 117 130 C117 254 312 229 312 372 L312 420 C312 430 307 435 297 435 L273 435 C263 435 258 430 258 420 L258 389 C258 254 65 286 65 132 C65 68 77 0 246 0 C265 0 319 2 367 13 C375 15 379 20 379 28 L378 50 C375 57 370 61 363 61 C360 61 356 61 353 60 L353 60 Z M317 541 C317 560 305 572 286 572 C270 572 255 560 255 541 C255 524 270 510 286 510 C305 510 317 524 317 541 L317 541 Z " />
<glyph glyph-name="Agrave" unicode="&#xc0;" horiz-adv-x="556" d="M153 191 L278 522 L403 191 L153 191 Z M467 22 C475 2 487 -5 502 -5 C517 -5 531 -3 531 5 L531 27 C531 28 531 30 530 31 C529 33 527 35 524 37 C519 40 514 50 507 67 C456 207 363 444 326 551 C319 564 311 568 303 568 L253 568 C245 568 237 564 230 551 C186 428 74 139 30 15 C30 5 35 0 45 0 L70 0 C78 0 84 5 87 15 L134 141 L421 141 L467 22 Z M261 769 C254 774 254 776 247 777 C240 777 236 776 233 774 L214 753 C211 748 209 743 209 737 C209 732 210 729 211 726 L303 648 C308 644 315 642 322 642 C334 642 335 645 340 650 C343 653 350 660 350 665 C350 667 349 670 347 673 L261 769 Z " />
<glyph glyph-name="Aacute" unicode="&#xc1;" horiz-adv-x="556" d="M153 191 L278 522 L403 191 L153 191 Z M467 22 C475 2 487 -5 502 -5 C517 -5 531 -3 531 5 L531 27 C531 28 531 30 530 31 C529 33 527 35 524 37 C519 40 514 50 507 67 C456 207 363 444 326 551 C319 564 311 568 303 568 L253 568 C245 568 237 564 230 551 C186 428 74 139 30 15 C30 5 35 0 45 0 L70 0 C78 0 84 5 87 15 L134 141 L421 141 L467 22 Z M212 673 C210 670 209 667 209 665 C209 660 216 653 219 650 C224 645 225 642 237 642 C244 642 251 644 256 648 L348 726 C349 729 350 732 350 737 C350 743 348 748 345 753 L326 774 C323 776 318 777 312 777 C305 776 305 774 298 769 L212 673 Z " />
<glyph glyph-name="Acircumflex" unicode="&#xc2;" horiz-adv-x="556" d="M153 191 L278 522 L403 191 L153 191 Z M467 22 C475 2 487 -5 502 -5 C517 -5 531 -3 531 5 L531 27 C531 28 531 30 530 31 C529 33 527 35 524 37 C519 40 514 50 507 67 C456 207 363 444 326 551 C319 564 311 568 303 568 L253 568 C245 568 237 564 230 551 C186 428 74 139 30 15 C30 5 35 0 45 0 L70 0 C78 0 84 5 87 15 L134 141 L421 141 L467 22 Z M254 784 C246 784 238 780 231 767 L177 657 C177 647 182 642 192 642 L213 642 C222 642 229 647 234 657 L279 748 L324 657 C329 647 336 642 345 642 L366 642 C376 642 381 647 381 657 L327 767 C320 780 312 784 304 784 L254 784 Z " />
<glyph glyph-name="Atilde" unicode="&#xc3;" horiz-adv-x="556" d="M153 191 L278 522 L403 191 L153 191 Z M467 22 C475 2 487 -5 502 -5 C517 -5 531 -3 531 5 L531 27 C531 28 531 30 530 31 C529 33 527 35 524 37 C519 40 514 50 507 67 C456 207 363 444 326 551 C319 564 311 568 303 568 L253 568 C245 568 237 564 230 551 C186 428 74 139 30 15 C30 5 35 0 45 0 L70 0 C78 0 84 5 87 15 L134 141 L421 141 L467 22 Z M354 642 C373 642 398 648 421 663 C424 665 425 668 425 672 C425 675 424 678 423 679 L413 696 C410 699 407 701 402 701 C397 701 397 701 390 698 C379 693 365 692 354 692 C301 692 254 724 202 724 C183 724 158 718 135 703 C132 701 131 698 131 694 C131 691 132 688 133 687 L143 670 C146 667 149 665 154 665 C159 665 159 665 166 668 C177 673 191 674 202 674 C256 674 301 642 354 642 L354 642 Z " />
<glyph glyph-name="Adieresis" unicode="&#xc4;" horiz-adv-x="556" d="M153 191 L278 522 L403 191 L153 191 Z M467 22 C475 2 487 -5 502 -5 C517 -5 531 -3 531 5 L531 27 C531 28 531 30 530 31 C529 33 527 35 524 37 C519 40 514 50 507 67 C456 207 363 444 326 551 C319 564 311 568 303 568 L253 568 C245 568 237 564 230 551 C186 428 74 139 30 15 C30 5 35 0 45 0 L70 0 C78 0 84 5 87 15 L134 141 L421 141 L467 22 Z M186 674 C186 655 199 642 218 642 C237 642 250 655 250 674 C250 693 237 706 218 706 C199 706 186 693 186 674 L186 674 Z M304 674 C304 655 317 642 336 642 C355 642 368 655 368 674 C368 693 355 706 336 706 C317 706 304 693 304 674 L304 674 Z " />
<glyph glyph-name="Aring" unicode="&#xc5;" horiz-adv-x="556" d="M153 191 L278 522 L403 191 L153 191 Z M467 22 C475 2 487 -5 502 -5 C517 -5 531 -3 531 5 L531 27 C531 28 531 30 530 31 C529 33 527 35 524 37 C519 40 514 50 507 67 C456 207 363 444 326 551 C319 564 311 568 303 568 L253 568 C245 568 237 564 230 551 C186 428 74 139 30 15 C30 5 35 0 45 0 L70 0 C78 0 84 5 87 15 L134 141 L421 141 L467 22 Z M278 683 C262 683 228 692 228 737 C228 780 262 791 278 791 C294 791 328 780 328 737 C328 692 294 683 278 683 L278 683 Z M278 642 C331 642 369 670 369 737 C369 801 331 832 278 832 C225 832 188 801 188 737 C188 670 225 642 278 642 L278 642 Z " />
<glyph glyph-name="AE" unicode="&#xc6;" horiz-adv-x="831" d="M58 0 C67 0 75 7 82 15 L171 142 L439 142 L439 15 C439 5 444 0 454 0 L766 0 C776 0 781 5 781 15 L781 35 C781 45 776 50 766 50 L493 50 L493 256 L702 256 C712 256 717 261 717 271 L717 291 C717 301 712 306 702 306 L493 306 L493 518 L766 518 C776 518 781 523 781 533 L781 553 C781 563 776 568 766 568 L423 568 C415 568 400 563 392 551 L15 15 C15 5 20 0 30 0 L58 0 L58 0 Z M439 192 L206 192 L439 520 L439 192 Z " />
<glyph glyph-name="Ccedilla" unicode="&#xc7;" horiz-adv-x="477" d="M410 501 C411 500 413 500 416 500 C423 500 428 504 430 511 L436 533 C436 541 432 546 424 548 C385 564 340 572 301 572 C169 572 50 516 50 280 C50 84 151 8 268 -3 C272 -20 273 -38 273 -55 C273 -94 260 -109 209 -109 C202 -109 188 -108 181 -107 C169 -107 165 -111 165 -127 L165 -151 C165 -154 198 -156 233 -156 C286 -156 326 -123 326 -47 C326 -36 325 -22 323 -4 C356 -1 394 5 425 18 C433 20 437 25 437 33 L431 59 C429 66 424 70 417 70 C414 70 412 70 411 69 C373 55 325 46 301 46 C234 46 104 76 104 280 C104 521 246 522 313 522 C334 522 373 514 410 501 L410 501 Z " />
<glyph glyph-name="Egrave" unicode="&#xc8;" horiz-adv-x="447" d="M328 256 C338 256 343 261 343 271 L343 291 C343 301 338 306 328 306 L119 306 L119 518 L392 518 C402 518 407 523 407 533 L407 553 C407 563 402 568 392 568 L80 568 C70 568 65 563 65 553 L65 15 C65 5 70 0 80 0 L392 0 C402 0 407 5 407 15 L407 35 C407 45 402 50 392 50 L119 50 L119 256 L328 256 Z M214 769 C207 774 207 776 200 777 C193 777 189 776 186 774 L167 753 C164 748 162 743 162 737 C162 732 163 729 164 726 L256 648 C261 644 268 642 275 642 C287 642 288 645 293 650 C296 653 303 660 303 665 C303 667 302 670 300 673 L214 769 Z " />
<glyph glyph-name="Eacute" unicode="&#xc9;" horiz-adv-x="447" d="M328 256 C338 256 343 261 343 271 L343 291 C343 301 338 306 328 306 L119 306 L119 518 L392 518 C402 518 407 523 407 533 L407 553 C407 563 402 568 392 568 L80 568 C70 568 65 563 65 553 L65 15 C65 5 70 0 80 0 L392 0 C402 0 407 5 407 15 L407 35 C407 45 402 50 392 50 L119 50 L119 256 L328 256 Z M165 673 C163 670 162 667 162 665 C162 660 169 653 172 650 C177 645 178 642 190 642 C197 642 204 644 209 648 L301 726 C302 729 303 732 303 737 C303 743 301 748 298 753 L279 774 C276 776 271 777 265 777 C258 776 258 774 251 769 L165 673 Z " />
<glyph glyph-name="Ecircumflex" unicode="&#xca;" horiz-adv-x="447" d="M328 256 C338 256 343 261 343 271 L343 291 C343 301 338 306 328 306 L119 306 L119 518 L392 518 C402 518 407 523 407 533 L407 553 C407 563 402 568 392 568 L80 568 C70 568 65 563 65 553 L65 15 C65 5 70 0 80 0 L392 0 C402 0 407 5 407 15 L407 35 C407 45 402 50 392 50 L119 50 L119 256 L328 256 Z M221 784 C213 784 205 780 198 767 L144 657 C144 647 149 642 159 642 L180 642 C189 642 196 647 201 657 L246 748 L291 657 C296 647 303 642 312 642 L333 642 C343 642 348 647 348 657 L294 767 C287 780 279 784 271 784 L221 784 Z " />
<glyph glyph-name="Edieresis" unicode="&#xcb;" horiz-adv-x="447" d="M328 256 C338 256 343 261 343 271 L343 291 C343 301 338 306 328 306 L119 306 L119 518 L392 518 C402 518 407 523 407 533 L407 553 C407 563 402 568 392 568 L80 568 C70 568 65 563 65 553 L65 15 C65 5 70 0 80 0 L392 0 C402 0 407 5 407 15 L407 35 C407 45 402 50 392 50 L119 50 L119 256 L328 256 Z M150 674 C150 655 163 642 182 642 C201 642 214 655 214 674 C214 693 201 706 182 706 C163 706 150 693 150 674 L150 674 Z M268 674 C268 655 281 642 300 642 C319 642 332 655 332 674 C332 693 319 706 300 706 C281 706 268 693 268 674 L268 674 Z " />
<glyph glyph-name="Igrave" unicode="&#xcc;" horiz-adv-x="184" d="M65 15 C65 5 70 0 80 0 L104 0 C114 0 119 5 119 15 L119 553 C119 563 114 568 104 568 L80 568 C70 568 65 563 65 553 L65 15 Z M73 769 C66 774 66 776 59 777 C52 777 48 776 45 774 L26 753 C23 748 21 743 21 737 C21 732 22 729 23 726 L115 648 C120 644 127 642 134 642 C146 642 147 645 152 650 C155 653 162 660 162 665 C162 667 161 670 159 673 L73 769 Z " />
<glyph glyph-name="Iacute" unicode="&#xcd;" horiz-adv-x="184" d="M119 553 C119 563 114 568 104 568 L80 568 C70 568 65 563 65 553 L65 15 C65 5 70 0 80 0 L104 0 C114 0 119 5 119 15 L119 553 Z M25 673 C23 670 22 667 22 665 C22 660 29 653 32 650 C37 645 38 642 50 642 C57 642 64 644 69 648 L161 726 C162 729 163 732 163 737 C163 743 161 748 158 753 L139 774 C136 776 131 777 125 777 C118 776 118 774 111 769 L25 673 Z " />
<glyph glyph-name="Icircumflex" unicode="&#xce;" horiz-adv-x="184" d="M119 553 C119 563 114 568 104 568 L80 568 C70 568 65 563 65 553 L65 15 C65 5 70 0 80 0 L104 0 C114 0 119 5 119 15 L119 553 Z M67 784 C59 784 51 780 44 767 L-10 657 C-10 647 -5 642 5 642 L26 642 C35 642 42 647 47 657 L92 748 L137 657 C142 647 149 642 158 642 L179 642 C189 642 194 647 194 657 L140 767 C133 780 125 784 117 784 L67 784 Z " />
<glyph glyph-name="Idieresis" unicode="&#xcf;" horiz-adv-x="184" d="M119 553 C119 563 114 568 104 568 L80 568 C70 568 65 563 65 553 L65 15 C65 5 70 0 80 0 L104 0 C114 0 119 5 119 15 L119 553 Z M1 674 C1 655 14 642 33 642 C52 642 65 655 65 674 C65 693 52 706 33 706 C14 706 1 693 1 674 L1 674 Z M119 674 C119 655 132 642 151 642 C170 642 183 655 183 674 C183 693 170 706 151 706 C132 706 119 693 119 674 L119 674 Z " />
<glyph glyph-name="Eth" unicode="&#xd0;" horiz-adv-x="561" d="M135 568 C125 568 120 563 120 553 L120 303 L45 303 C35 303 30 298 30 288 L30 268 C30 258 35 253 45 253 L120 253 L120 15 C120 5 125 0 135 0 L318 0 C443 0 511 67 511 194 L511 374 C511 501 443 568 318 568 L135 568 Z M457 208 C457 96 388 50 314 50 L174 50 L174 253 L278 253 C288 253 293 258 293 268 L293 288 C293 298 288 303 278 303 L174 303 L174 518 L314 518 C388 518 457 472 457 360 L457 208 Z " />
<glyph glyph-name="Ntilde" unicode="&#xd1;" horiz-adv-x="563" d="M80 568 C70 568 65 563 65 553 L65 15 C65 5 70 0 80 0 L104 0 C114 0 119 5 119 15 L119 504 L420 13 C427 1 438 0 441 0 L483 0 C493 0 498 5 498 15 L498 553 C498 563 493 568 483 568 L459 568 C449 568 444 563 444 553 L444 76 L151 555 C144 566 134 568 131 568 L80 568 Z M354 642 C373 642 398 648 421 663 C424 665 425 668 425 672 C425 675 424 678 423 679 L413 696 C410 699 407 701 402 701 C397 701 397 701 390 698 C379 693 365 692 354 692 C301 692 254 724 202 724 C183 724 158 718 135 703 C132 701 131 698 131 694 C131 691 132 688 133 687 L143 670 C146 667 149 665 154 665 C159 665 159 665 166 668 C177 673 191 674 202 674 C256 674 301 642 354 642 L354 642 Z " />
<glyph glyph-name="Ograve" unicode="&#xd2;" horiz-adv-x="592" d="M296 46 C215 46 108 69 108 280 C108 517 229 522 296 522 C363 522 484 517 484 280 C484 69 377 46 296 46 L296 46 Z M296 572 C164 572 55 516 55 280 C55 59 164 -5 296 -5 C428 -5 537 59 537 280 C537 516 428 572 296 572 L296 572 Z M278 769 C271 774 271 776 264 777 C257 777 253 776 250 774 L231 753 C228 748 226 743 226 737 C226 732 227 729 228 726 L320 648 C325 644 332 642 339 642 C351 642 352 645 357 650 C360 653 367 660 367 665 C367 667 366 670 364 673 L278 769 Z " />
<glyph glyph-name="Oacute" unicode="&#xd3;" horiz-adv-x="592" d="M296 46 C215 46 108 69 108 280 C108 517 229 522 296 522 C363 522 484 517 484 280 C484 69 377 46 296 46 L296 46 Z M296 572 C164 572 55 516 55 280 C55 59 164 -5 296 -5 C428 -5 537 59 537 280 C537 516 428 572 296 572 L296 572 Z M228 673 C226 670 225 667 225 665 C225 660 232 653 235 650 C240 645 241 642 253 642 C260 642 267 644 272 648 L364 726 C365 729 366 732 366 737 C366 743 364 748 361 753 L342 774 C339 776 334 777 328 777 C321 776 321 774 314 769 L228 673 Z " />
<glyph glyph-name="Ocircumflex" unicode="&#xd4;" horiz-adv-x="592" d="M296 46 C215 46 108 69 108 280 C108 517 229 522 296 522 C363 522 484 517 484 280 C484 69 377 46 296 46 L296 46 Z M296 572 C164 572 55 516 55 280 C55 59 164 -5 296 -5 C428 -5 537 59 537 280 C537 516 428 572 296 572 L296 572 Z M271 784 C263 784 255 780 248 767 L194 657 C194 647 199 642 209 642 L230 642 C239 642 246 647 251 657 L296 748 L341 657 C346 647 353 642 362 642 L383 642 C393 642 398 647 398 657 L344 767 C337 780 329 784 321 784 L271 784 Z " />
<glyph glyph-name="Otilde" unicode="&#xd5;" horiz-adv-x="592" d="M296 46 C215 46 108 69 108 280 C108 517 229 522 296 522 C363 522 484 517 484 280 C484 69 377 46 296 46 L296 46 Z M296 572 C164 572 55 516 55 280 C55 59 164 -5 296 -5 C428 -5 537 59 537 280 C537 516 428 572 296 572 L296 572 Z M372 642 C391 642 416 648 439 663 C442 665 443 668 443 672 C443 675 442 678 441 679 L431 696 C428 699 425 701 420 701 C415 701 415 701 408 698 C397 693 383 692 372 692 C319 692 272 724 220 724 C201 724 176 718 153 703 C150 701 149 698 149 694 C149 691 150 688 151 687 L161 670 C164 667 167 665 172 665 C177 665 177 665 184 668 C195 673 209 674 220 674 C274 674 319 642 372 642 L372 642 Z " />
<glyph glyph-name="Odieresis" unicode="&#xd6;" horiz-adv-x="592" d="M296 46 C215 46 108 69 108 280 C108 517 229 522 296 522 C363 522 484 517 484 280 C484 69 377 46 296 46 L296 46 Z M296 572 C164 572 55 516 55 280 C55 59 164 -5 296 -5 C428 -5 537 59 537 280 C537 516 428 572 296 572 L296 572 Z M204 674 C204 655 217 642 236 642 C255 642 268 655 268 674 C268 693 255 706 236 706 C217 706 204 693 204 674 L204 674 Z M322 674 C322 655 335 642 354 642 C373 642 386 655 386 674 C386 693 373 706 354 706 C335 706 322 693 322 674 L322 674 Z " />
<glyph glyph-name="multiply" unicode="&#xd7;" horiz-adv-x="405" d="M277 70 C282 62 292 59 297 59 L323 59 C333 59 338 64 338 74 L242 213 L340 350 C340 360 335 365 325 365 L299 365 C294 365 286 361 279 354 L203 248 L126 354 C119 361 111 365 106 365 L80 365 C70 365 65 360 65 350 L163 213 L67 74 C67 64 72 59 82 59 L108 59 C113 59 123 62 128 70 L203 179 L277 70 Z " />
<glyph glyph-name="Oslash" unicode="&#xd8;" horiz-adv-x="592" d="M454 668 C454 679 448 685 437 685 L419 685 C408 685 402 677 399 668 L364 566 C343 570 320 572 296 572 C164 572 55 516 55 280 C55 129 105 53 178 18 L139 -99 C139 -110 145 -116 156 -116 L174 -116 C185 -116 191 -108 194 -99 L228 2 C249 -3 271 -5 296 -5 C428 -5 537 59 537 280 C537 439 487 519 414 551 L454 668 Z M108 280 C108 517 229 522 296 522 C311 522 329 522 348 519 L195 68 C147 95 108 154 108 280 L108 280 Z M296 46 C280 46 263 47 244 50 L397 502 C444 476 484 416 484 280 C484 69 377 46 296 46 L296 46 Z " />
<glyph glyph-name="Ugrave" unicode="&#xd9;" horiz-adv-x="560" d="M280 -5 C412 -5 495 34 495 254 L495 553 C495 563 490 568 480 568 L456 568 C446 568 441 563 441 553 L441 260 C441 55 355 46 280 46 C205 46 119 55 119 260 L119 553 C119 563 114 568 104 568 L80 568 C70 568 65 563 65 553 L65 254 C65 34 148 -5 280 -5 L280 -5 Z M267 769 C260 774 260 776 253 777 C246 777 242 776 239 774 L220 753 C217 748 215 743 215 737 C215 732 216 729 217 726 L309 648 C314 644 321 642 328 642 C340 642 341 645 346 650 C349 653 356 660 356 665 C356 667 355 670 353 673 L267 769 Z " />
<glyph glyph-name="Uacute" unicode="&#xda;" horiz-adv-x="560" d="M280 -5 C412 -5 495 34 495 254 L495 553 C495 563 490 568 480 568 L456 568 C446 568 441 563 441 553 L441 260 C441 55 355 46 280 46 C205 46 119 55 119 260 L119 553 C119 563 114 568 104 568 L80 568 C70 568 65 563 65 553 L65 254 C65 34 148 -5 280 -5 L280 -5 Z M218 673 C216 670 215 667 215 665 C215 660 222 653 225 650 C230 645 231 642 243 642 C250 642 257 644 262 648 L354 726 C355 729 356 732 356 737 C356 743 354 748 351 753 L332 774 C329 776 324 777 318 777 C311 776 311 774 304 769 L218 673 Z " />
<glyph glyph-name="Ucircumflex" unicode="&#xdb;" horiz-adv-x="560" d="M280 -5 C412 -5 495 34 495 254 L495 553 C495 563 490 568 480 568 L456 568 C446 568 441 563 441 553 L441 260 C441 55 355 46 280 46 C205 46 119 55 119 260 L119 553 C119 563 114 568 104 568 L80 568 C70 568 65 563 65 553 L65 254 C65 34 148 -5 280 -5 L280 -5 Z M254 784 C246 784 238 780 231 767 L177 657 C177 647 182 642 192 642 L213 642 C222 642 229 647 234 657 L279 748 L324 657 C329 647 336 642 345 642 L366 642 C376 642 381 647 381 657 L327 767 C320 780 312 784 304 784 L254 784 Z " />
<glyph glyph-name="Udieresis" unicode="&#xdc;" horiz-adv-x="560" d="M280 -5 C412 -5 495 34 495 254 L495 553 C495 563 490 568 480 568 L456 568 C446 568 441 563 441 553 L441 260 C441 55 355 46 280 46 C205 46 119 55 119 260 L119 553 C119 563 114 568 104 568 L80 568 C70 568 65 563 65 553 L65 254 C65 34 148 -5 280 -5 L280 -5 Z M189 674 C189 655 202 642 221 642 C240 642 253 655 253 674 C253 693 240 706 221 706 C202 706 189 693 189 674 L189 674 Z M307 674 C307 655 320 642 339 642 C358 642 371 655 371 674 C371 693 358 706 339 706 C320 706 307 693 307 674 L307 674 Z " />
<glyph glyph-name="Yacute" unicode="&#xdd;" horiz-adv-x="500" d="M182 673 C180 670 179 667 179 665 C179 660 186 653 189 650 C194 645 195 642 207 642 C214 642 221 644 226 648 L318 726 C319 729 320 732 320 737 C320 743 318 748 315 753 L296 774 C293 776 288 777 282 777 C275 776 275 774 268 769 L182 673 Z M278 154 L470 553 C470 563 465 568 455 568 L431 568 C423 568 417 563 412 553 L251 223 L88 553 C83 563 76 568 69 568 L45 568 C35 568 30 563 30 553 L224 154 L224 15 C224 5 229 0 239 0 L263 0 C273 0 278 5 278 15 L278 154 Z " />
<glyph glyph-name="Thorn" unicode="&#xde;" horiz-adv-x="477" d="M65 15 C65 5 70 0 80 0 L104 0 C114 0 119 5 119 15 L119 105 L250 105 C375 105 442 155 442 279 C442 402 377 455 250 455 L119 455 L119 553 C119 563 114 568 104 568 L80 568 C70 568 65 563 65 553 L65 15 Z M119 155 L119 405 L258 405 C337 405 388 367 388 279 C388 191 338 155 258 155 L119 155 Z " />
<glyph glyph-name="germandbls" unicode="&#xdf;" horiz-adv-x="505" d="M246 51 C245 51 236 49 236 40 L233 13 C233 6 237 2 245 0 C257 -3 278 -5 293 -5 C418 -5 455 41 455 144 C455 185 438 249 362 271 C434 306 449 370 449 420 C449 518 404 568 270 568 L246 568 C113 568 65 488 65 356 L65 15 C65 5 70 0 80 0 L104 0 C114 0 119 5 119 15 L119 356 C119 455 145 518 250 518 L270 518 C378 518 395 487 395 419 C395 375 367 304 267 296 C257 296 252 291 252 281 L252 261 C252 251 257 246 267 246 C356 242 401 213 401 142 C401 75 389 46 292 46 C273 46 261 51 246 51 L246 51 Z " />
<glyph glyph-name="agrave" unicode="&#xe0;" horiz-adv-x="453" d="M334 97 C322 87 310 78 297 71 C274 58 246 46 217 46 C157 46 94 62 94 189 C94 298 154 361 271 361 C290 361 311 361 334 357 L334 97 Z M342 14 C345 5 350 0 357 0 L373 0 C383 0 388 5 388 15 L388 385 C388 392 385 396 378 398 C342 409 320 411 281 411 C142 411 40 339 40 190 C40 57 104 -5 207 -5 C219 -5 294 0 334 40 L342 14 Z M244 612 C237 617 237 619 230 620 C223 620 219 619 216 617 L197 596 C194 591 192 586 192 580 C192 575 193 572 194 569 L286 491 C291 487 298 485 305 485 C317 485 318 488 323 493 C326 496 333 503 333 508 C333 510 332 513 330 516 L244 612 Z " />
<glyph glyph-name="aacute" unicode="&#xe1;" horiz-adv-x="453" d="M334 97 C322 87 310 78 297 71 C274 58 246 46 217 46 C157 46 94 62 94 189 C94 298 154 361 271 361 C290 361 311 361 334 357 L334 97 Z M342 14 C345 5 350 0 357 0 L373 0 C383 0 388 5 388 15 L388 385 C388 392 385 396 378 398 C342 409 320 411 281 411 C142 411 40 339 40 190 C40 57 104 -5 207 -5 C219 -5 294 0 334 40 L342 14 Z M195 516 C193 513 192 510 192 508 C192 503 199 496 202 493 C207 488 208 485 220 485 C227 485 234 487 239 491 L331 569 C332 572 333 575 333 580 C333 586 331 591 328 596 L309 617 C306 619 301 620 295 620 C288 619 288 617 281 612 L195 516 Z " />
<glyph glyph-name="acircumflex" unicode="&#xe2;" horiz-adv-x="453" d="M334 97 C322 87 310 78 297 71 C274 58 246 46 217 46 C157 46 94 62 94 189 C94 298 154 361 271 361 C290 361 311 361 334 357 L334 97 Z M342 14 C345 5 350 0 357 0 L373 0 C383 0 388 5 388 15 L388 385 C388 392 385 396 378 398 C342 409 320 411 281 411 C142 411 40 339 40 190 C40 57 104 -5 207 -5 C219 -5 294 0 334 40 L342 14 Z M233 627 C225 627 217 623 210 610 L156 500 C156 490 161 485 171 485 L192 485 C201 485 208 490 213 500 L258 591 L303 500 C308 490 315 485 324 485 L345 485 C355 485 360 490 360 500 L306 610 C299 623 291 627 283 627 L233 627 Z " />
<glyph glyph-name="atilde" unicode="&#xe3;" horiz-adv-x="453" d="M334 97 C322 87 310 78 297 71 C274 58 246 46 217 46 C157 46 94 62 94 189 C94 298 154 361 271 361 C290 361 311 361 334 357 L334 97 Z M342 14 C345 5 350 0 357 0 L373 0 C383 0 388 5 388 15 L388 385 C388 392 385 396 378 398 C342 409 320 411 281 411 C142 411 40 339 40 190 C40 57 104 -5 207 -5 C219 -5 294 0 334 40 L342 14 Z M313 485 C332 485 357 491 380 506 C383 508 384 511 384 515 C384 518 383 521 382 522 L372 539 C369 542 366 544 361 544 C356 544 356 544 349 541 C338 536 324 535 313 535 C260 535 213 567 161 567 C142 567 117 561 94 546 C91 544 90 541 90 537 C90 534 91 531 92 530 L102 513 C105 510 108 508 113 508 C118 508 118 508 125 511 C136 516 150 517 161 517 C215 517 260 485 313 485 L313 485 Z " />
<glyph glyph-name="adieresis" unicode="&#xe4;" horiz-adv-x="453" d="M334 97 C322 87 310 78 297 71 C274 58 246 46 217 46 C157 46 94 62 94 189 C94 298 154 361 271 361 C290 361 311 361 334 357 L334 97 Z M342 14 C345 5 350 0 357 0 L373 0 C383 0 388 5 388 15 L388 385 C388 392 385 396 378 398 C342 409 320 411 281 411 C142 411 40 339 40 190 C40 57 104 -5 207 -5 C219 -5 294 0 334 40 L342 14 Z M166 517 C166 498 179 485 198 485 C217 485 230 498 230 517 C230 536 217 549 198 549 C179 549 166 536 166 517 L166 517 Z M284 517 C284 498 297 485 316 485 C335 485 348 498 348 517 C348 536 335 549 316 549 C297 549 284 536 284 517 L284 517 Z " />
<glyph glyph-name="aring" unicode="&#xe5;" horiz-adv-x="453" d="M334 97 C322 87 310 78 297 71 C274 58 246 46 217 46 C157 46 94 62 94 189 C94 298 154 361 271 361 C290 361 311 361 334 357 L334 97 Z M342 14 C345 5 350 0 357 0 L373 0 C383 0 388 5 388 15 L388 385 C388 392 385 396 378 398 C342 409 320 411 281 411 C142 411 40 339 40 190 C40 57 104 -5 207 -5 C219 -5 294 0 334 40 L342 14 Z M253 526 C237 526 203 535 203 580 C203 623 237 634 253 634 C269 634 303 623 303 580 C303 535 269 526 253 526 L253 526 Z M253 485 C306 485 344 513 344 580 C344 644 306 675 253 675 C200 675 163 644 163 580 C163 513 200 485 253 485 L253 485 Z " />
<glyph glyph-name="ae" unicode="&#xe6;" horiz-adv-x="734" d="M658 72 C655 72 653 72 652 71 C605 52 564 46 536 46 C447 46 388 102 388 194 C455 163 503 161 534 161 C617 161 682 190 682 287 C682 375 625 411 521 411 C474 411 436 407 380 368 C342 411 291 411 255 411 C153 411 40 339 40 190 C40 57 104 -5 207 -5 C219 -5 310 -5 371 67 C404 19 457 -5 532 -5 C573 -5 623 3 666 20 C674 23 678 28 678 35 L672 61 C670 68 665 72 658 72 L658 72 Z M521 361 C576 361 628 356 628 283 C628 223 589 211 512 211 C483 211 417 227 388 246 C407 338 456 361 521 361 L521 361 Z M334 97 C322 87 310 78 297 71 C274 58 246 46 217 46 C157 46 94 62 94 189 C94 298 154 361 271 361 C290 361 311 361 334 346 L334 97 Z " />
<glyph glyph-name="ccedilla" unicode="&#xe7;" horiz-adv-x="441" d="M382 17 C390 19 394 24 394 32 L388 58 C386 65 381 69 374 69 C371 69 369 69 368 68 C328 52 291 46 264 46 C171 46 104 84 104 204 C104 323 161 361 264 361 C291 361 326 357 367 341 C368 340 370 340 373 340 C380 340 385 344 387 351 L393 376 C393 384 389 389 381 391 C338 406 291 411 254 411 C119 411 50 340 50 204 C50 76 113 1 237 -4 C241 -21 242 -39 242 -55 C242 -94 229 -109 178 -109 C171 -109 157 -108 150 -107 C138 -107 134 -111 134 -127 L134 -151 C134 -154 167 -156 202 -156 C255 -156 295 -123 295 -47 C295 -38 294 -21 291 -2 C320 1 353 6 382 17 L382 17 Z " />
<glyph glyph-name="egrave" unicode="&#xe8;" horiz-adv-x="450" d="M237 361 C292 361 344 356 344 283 C344 223 305 211 228 211 C199 211 133 227 104 246 C123 338 172 361 237 361 L237 361 Z M382 20 C390 23 394 28 394 35 L388 61 C386 68 381 72 374 72 C371 72 369 72 368 71 C321 52 280 46 252 46 C163 46 104 102 104 194 C171 163 219 161 250 161 C333 161 398 190 398 287 C398 375 341 411 237 411 C106 411 50 330 50 207 C50 74 115 -5 248 -5 C289 -5 339 3 382 20 L382 20 Z M232 612 C225 617 225 619 218 620 C211 620 207 619 204 617 L185 596 C182 591 180 586 180 580 C180 575 181 572 182 569 L274 491 C279 487 286 485 293 485 C305 485 306 488 311 493 C314 496 321 503 321 508 C321 510 320 513 318 516 L232 612 Z " />
<glyph glyph-name="eacute" unicode="&#xe9;" horiz-adv-x="450" d="M237 361 C292 361 344 356 344 283 C344 223 305 211 228 211 C199 211 133 227 104 246 C123 338 172 361 237 361 L237 361 Z M382 20 C390 23 394 28 394 35 L388 61 C386 68 381 72 374 72 C371 72 369 72 368 71 C321 52 280 46 252 46 C163 46 104 102 104 194 C171 163 219 161 250 161 C333 161 398 190 398 287 C398 375 341 411 237 411 C106 411 50 330 50 207 C50 74 115 -5 248 -5 C289 -5 339 3 382 20 L382 20 Z M183 516 C181 513 180 510 180 508 C180 503 187 496 190 493 C195 488 196 485 208 485 C215 485 222 487 227 491 L319 569 C320 572 321 575 321 580 C321 586 319 591 316 596 L297 617 C294 619 289 620 283 620 C276 619 276 617 269 612 L183 516 Z " />
<glyph glyph-name="ecircumflex" unicode="&#xea;" horiz-adv-x="450" d="M237 361 C292 361 344 356 344 283 C344 223 305 211 228 211 C199 211 133 227 104 246 C123 338 172 361 237 361 L237 361 Z M382 20 C390 23 394 28 394 35 L388 61 C386 68 381 72 374 72 C371 72 369 72 368 71 C321 52 280 46 252 46 C163 46 104 102 104 194 C171 163 219 161 250 161 C333 161 398 190 398 287 C398 375 341 411 237 411 C106 411 50 330 50 207 C50 74 115 -5 248 -5 C289 -5 339 3 382 20 L382 20 Z M209 627 C201 627 193 623 186 610 L132 500 C132 490 137 485 147 485 L168 485 C177 485 184 490 189 500 L234 591 L279 500 C284 490 291 485 300 485 L321 485 C331 485 336 490 336 500 L282 610 C275 623 267 627 259 627 L209 627 Z " />
<glyph glyph-name="edieresis" unicode="&#xeb;" horiz-adv-x="450" d="M237 361 C292 361 344 356 344 283 C344 223 305 211 228 211 C199 211 133 227 104 246 C123 338 172 361 237 361 L237 361 Z M382 20 C390 23 394 28 394 35 L388 61 C386 68 381 72 374 72 C371 72 369 72 368 71 C321 52 280 46 252 46 C163 46 104 102 104 194 C171 163 219 161 250 161 C333 161 398 190 398 287 C398 375 341 411 237 411 C106 411 50 330 50 207 C50 74 115 -5 248 -5 C289 -5 339 3 382 20 L382 20 Z M143 517 C143 498 156 485 175 485 C194 485 207 498 207 517 C207 536 194 549 175 549 C156 549 143 536 143 517 L143 517 Z M261 517 C261 498 274 485 293 485 C312 485 325 498 325 517 C325 536 312 549 293 549 C274 549 261 536 261 517 L261 517 Z " />
<glyph glyph-name="igrave" unicode="&#xec;" horiz-adv-x="184" d="M119 390 C119 400 114 405 104 405 L80 405 C70 405 65 400 65 390 L65 15 C65 5 70 0 80 0 L104 0 C114 0 119 5 119 15 L119 390 Z M73 611 C66 616 66 618 59 619 C52 619 48 618 45 616 L26 595 C23 590 21 585 21 579 C21 574 22 571 23 568 L115 490 C120 486 127 484 134 484 C146 484 147 487 152 492 C155 495 162 502 162 507 C162 509 161 512 159 515 L73 611 Z " />
<glyph glyph-name="iacute" unicode="&#xed;" horiz-adv-x="184" d="M65 15 C65 5 70 0 80 0 L104 0 C114 0 119 5 119 15 L119 390 C119 400 114 405 104 405 L80 405 C70 405 65 400 65 390 L65 15 Z M25 515 C23 512 22 509 22 507 C22 502 29 495 32 492 C37 487 38 484 50 484 C57 484 64 486 69 490 L161 568 C162 571 163 574 163 579 C163 585 161 590 158 595 L139 616 C136 618 131 619 125 619 C118 618 118 616 111 611 L25 515 Z " />
<glyph glyph-name="icircumflex" unicode="&#xee;" horiz-adv-x="184" d="M65 15 C65 5 70 0 80 0 L104 0 C114 0 119 5 119 15 L119 390 C119 400 114 405 104 405 L80 405 C70 405 65 400 65 390 L65 15 Z M67 627 C59 627 51 623 44 610 L-10 500 C-10 490 -5 485 5 485 L26 485 C35 485 42 490 47 500 L92 591 L137 500 C142 490 149 485 158 485 L179 485 C189 485 194 490 194 500 L140 610 C133 623 125 627 117 627 L67 627 Z " />
<glyph glyph-name="idieresis" unicode="&#xef;" horiz-adv-x="184" d="M65 15 C65 5 70 0 80 0 L104 0 C114 0 119 5 119 15 L119 390 C119 400 114 405 104 405 L80 405 C70 405 65 400 65 390 L65 15 Z M1 517 C1 498 14 485 33 485 C52 485 65 498 65 517 C65 536 52 549 33 549 C14 549 1 536 1 517 L1 517 Z M119 517 C119 498 132 485 151 485 C170 485 183 498 183 517 C183 536 170 549 151 549 C132 549 119 536 119 517 L119 517 Z " />
<glyph glyph-name="eth" unicode="&#xf0;" horiz-adv-x="462" d="M368 627 C368 637 363 642 353 642 L332 642 C312 642 304 633 299 625 L261 568 C246 571 230 572 211 572 C176 572 123 568 86 552 C78 550 74 545 74 537 L80 511 C82 504 87 500 94 500 C97 500 99 500 100 501 C139 516 172 521 197 521 C208 521 218 521 230 520 L174 436 C174 428 181 421 189 421 L210 421 C230 421 238 431 243 438 L289 508 C326 493 358 460 358 389 L358 292 C310 340 247 342 229 342 C106 342 50 282 50 167 C50 52 106 -5 229 -5 C356 -5 412 47 412 162 L412 381 C412 466 381 522 318 551 L368 627 Z M229 292 C349 292 358 200 358 163 C358 95 345 45 229 45 C125 45 104 100 104 168 C104 236 125 292 229 292 L229 292 Z " />
<glyph glyph-name="ntilde" unicode="&#xf1;" horiz-adv-x="464" d="M65 15 C65 5 70 0 80 0 L104 0 C114 0 119 5 119 15 L119 341 C143 360 219 361 234 361 C343 361 355 292 355 175 L355 15 C355 5 360 0 370 0 L394 0 C404 0 409 5 409 15 L409 221 C409 349 360 411 227 411 C187 411 127 405 75 390 C68 387 65 383 65 377 L65 15 Z M312 485 C331 485 356 491 379 506 C382 508 383 511 383 515 C383 518 382 521 381 522 L371 539 C368 542 365 544 360 544 C355 544 355 544 348 541 C337 536 323 535 312 535 C259 535 212 567 160 567 C141 567 116 561 93 546 C90 544 89 541 89 537 C89 534 90 531 91 530 L101 513 C104 510 107 508 112 508 C117 508 117 508 124 511 C135 516 149 517 160 517 C214 517 259 485 312 485 L312 485 Z " />
<glyph glyph-name="ograve" unicode="&#xf2;" horiz-adv-x="494" d="M247 46 C118 46 104 139 104 206 C104 275 131 361 247 361 C363 361 390 275 390 206 C390 139 376 46 247 46 L247 46 Z M247 -5 C380 -5 444 74 444 207 C444 330 380 411 247 411 C114 411 50 330 50 207 C50 74 114 -5 247 -5 L247 -5 Z M230 612 C223 617 223 619 216 620 C209 620 205 619 202 617 L183 596 C180 591 178 586 178 580 C178 575 179 572 180 569 L272 491 C277 487 284 485 291 485 C303 485 304 488 309 493 C312 496 319 503 319 508 C319 510 318 513 316 516 L230 612 Z " />
<glyph glyph-name="oacute" unicode="&#xf3;" horiz-adv-x="494" d="M247 46 C118 46 104 139 104 206 C104 275 131 361 247 361 C363 361 390 275 390 206 C390 139 376 46 247 46 L247 46 Z M247 -5 C380 -5 444 74 444 207 C444 330 380 411 247 411 C114 411 50 330 50 207 C50 74 114 -5 247 -5 L247 -5 Z M178 516 C176 513 175 510 175 508 C175 503 182 496 185 493 C190 488 191 485 203 485 C210 485 217 487 222 491 L314 569 C315 572 316 575 316 580 C316 586 314 591 311 596 L292 617 C289 619 284 620 278 620 C271 619 271 617 264 612 L178 516 Z " />
<glyph glyph-name="ocircumflex" unicode="&#xf4;" horiz-adv-x="494" d="M247 46 C118 46 104 139 104 206 C104 275 131 361 247 361 C363 361 390 275 390 206 C390 139 376 46 247 46 L247 46 Z M247 -5 C380 -5 444 74 444 207 C444 330 380 411 247 411 C114 411 50 330 50 207 C50 74 114 -5 247 -5 L247 -5 Z M223 627 C215 627 207 623 200 610 L146 500 C146 490 151 485 161 485 L182 485 C191 485 198 490 203 500 L248 591 L293 500 C298 490 305 485 314 485 L335 485 C345 485 350 490 350 500 L296 610 C289 623 281 627 273 627 L223 627 Z " />
<glyph glyph-name="otilde" unicode="&#xf5;" horiz-adv-x="494" d="M247 46 C118 46 104 139 104 206 C104 275 131 361 247 361 C363 361 390 275 390 206 C390 139 376 46 247 46 L247 46 Z M247 -5 C380 -5 444 74 444 207 C444 330 380 411 247 411 C114 411 50 330 50 207 C50 74 114 -5 247 -5 L247 -5 Z M323 485 C342 485 367 491 390 506 C393 508 394 511 394 515 C394 518 393 521 392 522 L382 539 C379 542 376 544 371 544 C366 544 366 544 359 541 C348 536 334 535 323 535 C270 535 223 567 171 567 C152 567 127 561 104 546 C101 544 100 541 100 537 C100 534 101 531 102 530 L112 513 C115 510 118 508 123 508 C128 508 128 508 135 511 C146 516 160 517 171 517 C225 517 270 485 323 485 L323 485 Z " />
<glyph glyph-name="odieresis" unicode="&#xf6;" horiz-adv-x="494" d="M247 46 C118 46 104 139 104 206 C104 275 131 361 247 361 C363 361 390 275 390 206 C390 139 376 46 247 46 L247 46 Z M247 -5 C380 -5 444 74 444 207 C444 330 380 411 247 411 C114 411 50 330 50 207 C50 74 114 -5 247 -5 L247 -5 Z M155 517 C155 498 168 485 187 485 C206 485 219 498 219 517 C219 536 206 549 187 549 C168 549 155 536 155 517 L155 517 Z M273 517 C273 498 286 485 305 485 C324 485 337 498 337 517 C337 536 324 549 305 549 C286 549 273 536 273 517 L273 517 Z " />
<glyph glyph-name="divide" unicode="&#xf7;" horiz-adv-x="393" d="M313 124 C323 124 328 129 328 139 L328 159 C328 169 323 174 313 174 L80 174 C70 174 65 169 65 159 L65 139 C65 129 70 124 80 124 L313 124 Z M164 27 C164 8 177 -5 196 -5 C215 -5 228 8 228 27 C228 46 215 59 196 59 C177 59 164 46 164 27 L164 27 Z M164 271 C164 252 177 239 196 239 C215 239 228 252 228 271 C228 290 215 303 196 303 C177 303 164 290 164 271 L164 271 Z " />
<glyph glyph-name="oslash" unicode="&#xf8;" horiz-adv-x="494" d="M376 501 C376 512 370 518 359 518 L341 518 C330 518 324 510 321 501 L290 408 C277 410 262 411 247 411 C114 411 50 330 50 207 C50 110 84 42 156 11 L117 -102 C117 -113 123 -119 134 -119 L152 -119 C163 -119 169 -111 172 -102 L206 -2 C219 -4 232 -5 247 -5 C380 -5 444 74 444 207 C444 298 411 363 340 394 L376 501 Z M104 206 C104 275 131 361 247 361 C256 361 265 360 274 359 L172 60 C112 89 104 156 104 206 L104 206 Z M247 46 C238 46 230 46 223 47 L323 344 C376 315 390 258 390 206 C390 139 376 46 247 46 L247 46 Z " />
<glyph glyph-name="ugrave" unicode="&#xf9;" horiz-adv-x="464" d="M109 390 C109 400 104 405 94 405 L70 405 C60 405 55 400 55 390 L55 166 C55 36 109 -5 240 -5 C267 -5 334 2 392 42 C397 45 399 50 399 55 L399 390 C399 400 394 405 384 405 L360 405 C350 405 345 400 345 390 L345 78 C303 46 256 46 238 46 C133 46 109 65 109 194 L109 390 Z M222 612 C215 617 215 619 208 620 C201 620 197 619 194 617 L175 596 C172 591 170 586 170 580 C170 575 171 572 172 569 L264 491 C269 487 276 485 283 485 C295 485 296 488 301 493 C304 496 311 503 311 508 C311 510 310 513 308 516 L222 612 Z " />
<glyph glyph-name="uacute" unicode="&#xfa;" horiz-adv-x="464" d="M109 390 C109 400 104 405 94 405 L70 405 C60 405 55 400 55 390 L55 166 C55 36 109 -5 240 -5 C267 -5 334 2 392 42 C397 45 399 50 399 55 L399 390 C399 400 394 405 384 405 L360 405 C350 405 345 400 345 390 L345 78 C303 46 256 46 238 46 C133 46 109 65 109 194 L109 390 Z M173 516 C171 513 170 510 170 508 C170 503 177 496 180 493 C185 488 186 485 198 485 C205 485 212 487 217 491 L309 569 C310 572 311 575 311 580 C311 586 309 591 306 596 L287 617 C284 619 279 620 273 620 C266 619 266 617 259 612 L173 516 Z " />
<glyph glyph-name="ucircumflex" unicode="&#xfb;" horiz-adv-x="464" d="M109 390 C109 400 104 405 94 405 L70 405 C60 405 55 400 55 390 L55 166 C55 36 109 -5 240 -5 C267 -5 334 2 392 42 C397 45 399 50 399 55 L399 390 C399 400 394 405 384 405 L360 405 C350 405 345 400 345 390 L345 78 C303 46 256 46 238 46 C133 46 109 65 109 194 L109 390 Z M209 627 C201 627 193 623 186 610 L132 500 C132 490 137 485 147 485 L168 485 C177 485 184 490 189 500 L234 591 L279 500 C284 490 291 485 300 485 L321 485 C331 485 336 490 336 500 L282 610 C275 623 267 627 259 627 L209 627 Z " />
<glyph glyph-name="udieresis" unicode="&#xfc;" horiz-adv-x="464" d="M109 390 C109 400 104 405 94 405 L70 405 C60 405 55 400 55 390 L55 166 C55 36 109 -5 240 -5 C267 -5 334 2 392 42 C397 45 399 50 399 55 L399 390 C399 400 394 405 384 405 L360 405 C350 405 345 400 345 390 L345 78 C303 46 256 46 238 46 C133 46 109 65 109 194 L109 390 Z M147 517 C147 498 160 485 179 485 C198 485 211 498 211 517 C211 536 198 549 179 549 C160 549 147 536 147 517 L147 517 Z M265 517 C265 498 278 485 297 485 C316 485 329 498 329 517 C329 536 316 549 297 549 C278 549 265 536 265 517 L265 517 Z " />
<glyph glyph-name="yacute" unicode="&#xfd;" horiz-adv-x="462" d="M163 6 C122 -23 86 -72 86 -121 C86 -224 184 -230 220 -230 C373 -230 397 -119 397 -53 L397 390 C397 400 392 405 382 405 L358 405 C348 405 343 400 343 390 L343 119 C333 107 322 97 310 88 C290 72 263 57 234 57 C170 57 109 62 109 194 L109 390 C109 400 104 405 94 405 L70 405 C60 405 55 400 55 390 L55 193 C55 67 101 22 163 6 L163 6 Z M343 -52 C343 -136 296 -179 232 -179 C156 -179 140 -152 140 -120 C140 -71 161 -48 343 51 L343 -52 Z M159 516 C157 513 156 510 156 508 C156 503 163 496 166 493 C171 488 172 485 184 485 C191 485 198 487 203 491 L295 569 C296 572 297 575 297 580 C297 586 295 591 292 596 L273 617 C270 619 265 620 259 620 C252 619 252 617 245 612 L159 516 Z " />
<glyph glyph-name="thorn" unicode="&#xfe;" horiz-adv-x="473" d="M119 553 C119 563 114 568 104 568 L80 568 C70 568 65 563 65 553 L65 -181 C65 -191 70 -196 80 -196 L104 -196 C114 -196 119 -191 119 -181 L119 3 C183 -5 215 -5 227 -5 C362 -5 428 70 428 203 C428 336 368 411 227 411 C202 411 162 410 119 401 L119 553 Z M230 361 C327 361 374 322 374 203 C374 60 295 46 218 46 C203 46 175 45 119 52 L119 344 C142 359 192 361 230 361 L230 361 Z " />
<glyph glyph-name="ydieresis" unicode="&#xff;" horiz-adv-x="462" d="M163 6 C122 -23 86 -72 86 -121 C86 -224 184 -230 220 -230 C373 -230 397 -119 397 -53 L397 390 C397 400 392 405 382 405 L358 405 C348 405 343 400 343 390 L343 119 C333 107 322 97 310 88 C290 72 263 57 234 57 C170 57 109 62 109 194 L109 390 C109 400 104 405 94 405 L70 405 C60 405 55 400 55 390 L55 193 C55 67 101 22 163 6 L163 6 Z M343 -52 C343 -136 296 -179 232 -179 C156 -179 140 -152 140 -120 C140 -71 161 -48 343 51 L343 -52 Z M148 517 C148 498 161 485 180 485 C199 485 212 498 212 517 C212 536 199 549 180 549 C161 549 148 536 148 517 L148 517 Z M266 517 C266 498 279 485 298 485 C317 485 330 498 330 517 C330 536 317 549 298 549 C279 549 266 536 266 517 L266 517 Z " />
<glyph glyph-name="Amacron" unicode="&#x100;" horiz-adv-x="556" d="M153 191 L278 522 L403 191 L153 191 Z M467 22 C475 2 487 -5 502 -5 C517 -5 531 -3 531 5 L531 27 C531 28 531 30 530 31 C529 33 527 35 524 37 C519 40 514 50 507 67 C456 207 363 444 326 551 C319 564 311 568 303 568 L253 568 C245 568 237 564 230 551 C186 428 74 139 30 15 C30 5 35 0 45 0 L70 0 C78 0 84 5 87 15 L134 141 L421 141 L467 22 Z M161 642 C151 642 146 647 146 657 L146 677 C146 687 151 692 161 692 L394 692 C404 692 409 687 409 677 L409 657 C409 647 404 642 394 642 L161 642 Z " />
<glyph glyph-name="amacron" unicode="&#x101;" horiz-adv-x="453" d="M334 97 C322 87 310 78 297 71 C274 58 246 46 217 46 C157 46 94 62 94 189 C94 298 154 361 271 361 C290 361 311 361 334 357 L334 97 Z M342 14 C345 5 350 0 357 0 L373 0 C383 0 388 5 388 15 L388 385 C388 392 385 396 378 398 C342 409 320 411 281 411 C142 411 40 339 40 190 C40 57 104 -5 207 -5 C219 -5 294 0 334 40 L342 14 Z M126 485 C116 485 111 490 111 500 L111 520 C111 530 116 535 126 535 L359 535 C369 535 374 530 374 520 L374 500 C374 490 369 485 359 485 L126 485 Z " />
<glyph glyph-name="Abreve" unicode="&#x102;" horiz-adv-x="556" d="M279 642 C194 642 135 672 124 759 C124 769 129 774 139 774 L163 774 C172 774 177 769 178 759 C183 706 236 692 279 692 C322 692 375 706 380 759 C381 769 386 774 395 774 L419 774 C429 774 434 769 434 759 C423 672 364 642 279 642 L279 642 Z M153 191 L278 522 L403 191 L153 191 Z M467 22 C475 2 487 -5 502 -5 C517 -5 531 -3 531 5 L531 27 C531 28 531 30 530 31 C529 33 527 35 524 37 C519 40 514 50 507 67 C456 207 363 444 326 551 C319 564 311 568 303 568 L253 568 C245 568 237 564 230 551 C186 428 74 139 30 15 C30 5 35 0 45 0 L70 0 C78 0 84 5 87 15 L134 141 L421 141 L467 22 Z " />
<glyph glyph-name="abreve" unicode="&#x103;" horiz-adv-x="453" d="M334 97 C322 87 310 78 297 71 C274 58 246 46 217 46 C157 46 94 62 94 189 C94 298 154 361 271 361 C290 361 311 361 334 357 L334 97 Z M342 14 C345 5 350 0 357 0 L373 0 C383 0 388 5 388 15 L388 385 C388 392 385 396 378 398 C342 409 320 411 281 411 C142 411 40 339 40 190 C40 57 104 -5 207 -5 C219 -5 294 0 334 40 L342 14 Z M216 485 C131 485 72 515 61 602 C61 612 66 617 76 617 L100 617 C109 617 114 612 115 602 C120 549 173 535 216 535 C259 535 312 549 317 602 C318 612 323 617 332 617 L356 617 C366 617 371 612 371 602 C360 515 301 485 216 485 L216 485 Z " />
<glyph glyph-name="Aogonek" unicode="&#x104;" horiz-adv-x="556" d="M153 191 L278 522 L403 191 L153 191 Z M502 -5 C517 -5 531 -3 531 5 L531 27 C531 28 531 30 530 31 C529 33 527 35 524 37 C519 40 514 50 507 67 C456 207 363 444 326 551 C319 564 311 568 303 568 L253 568 C245 568 237 564 230 551 C186 428 74 139 30 15 C30 5 35 0 45 0 L70 0 C78 0 84 5 87 15 L134 141 L421 141 L462 33 C370 20 369 -44 369 -64 C369 -124 414 -150 462 -150 C497 -150 530 -148 530 -145 L530 -121 C530 -105 526 -101 514 -101 C507 -102 493 -103 486 -103 C445 -103 423 -93 423 -61 C423 -36 435 -5 502 -5 L502 -5 Z " />
<glyph glyph-name="aogonek" unicode="&#x105;" horiz-adv-x="454" d="M334 97 C322 87 310 78 297 71 C274 58 246 46 217 46 C157 46 94 62 94 189 C94 298 154 361 271 361 C290 361 311 361 334 357 L334 97 Z M339 13 C265 -24 260 -59 260 -75 C260 -122 290 -134 321 -134 C356 -134 389 -132 389 -129 L389 -105 C389 -89 385 -85 373 -85 C366 -86 352 -87 345 -87 C324 -87 313 -80 313 -66 C313 -38 360 -24 379 -10 C385 -7 388 -1 388 6 L388 385 C388 392 385 396 378 398 C342 409 320 411 281 411 C142 411 40 339 40 190 C40 57 104 -5 207 -5 C219 -5 294 0 334 40 L339 13 Z " />
<glyph glyph-name="Cacute" unicode="&#x106;" horiz-adv-x="477" d="M410 501 C411 500 413 500 416 500 C423 500 428 504 430 511 L436 533 C436 541 432 546 424 548 C385 564 340 572 301 572 C169 572 50 516 50 280 C50 67 169 -5 301 -5 C337 -5 388 2 425 18 C433 20 437 25 437 33 L431 59 C429 66 424 70 417 70 C414 70 412 70 411 69 C373 55 325 46 301 46 C234 46 104 76 104 280 C104 521 246 522 313 522 C334 522 373 514 410 501 L410 501 Z M198 673 C196 670 195 667 195 665 C195 660 202 653 205 650 C210 645 211 642 223 642 C230 642 237 644 242 648 L334 726 C335 729 336 732 336 737 C336 743 334 748 331 753 L312 774 C309 776 304 777 298 777 C291 776 291 774 284 769 L198 673 Z " />
<glyph glyph-name="cacute" unicode="&#x107;" horiz-adv-x="441" d="M382 17 C390 19 394 24 394 32 L388 58 C386 65 381 69 374 69 C371 69 369 69 368 68 C328 52 291 46 264 46 C171 46 104 84 104 204 C104 323 161 361 264 361 C291 361 326 357 367 341 C368 340 370 340 373 340 C380 340 385 344 387 351 L393 376 C393 384 389 389 381 391 C338 406 291 411 254 411 C119 411 50 340 50 204 C50 71 119 -5 254 -5 C290 -5 339 2 382 17 L382 17 Z M164 516 C162 513 161 510 161 508 C161 503 168 496 171 493 C176 488 177 485 189 485 C196 485 203 487 208 491 L300 569 C301 572 302 575 302 580 C302 586 300 591 297 596 L278 617 C275 619 270 620 264 620 C257 619 257 617 250 612 L164 516 Z " />
<glyph glyph-name="Ccircumflex" unicode="&#x108;" horiz-adv-x="477" d="M410 501 C411 500 413 500 416 500 C423 500 428 504 430 511 L436 533 C436 541 432 546 424 548 C385 564 340 572 301 572 C169 572 50 516 50 280 C50 67 169 -5 301 -5 C337 -5 388 2 425 18 C433 20 437 25 437 33 L431 59 C429 66 424 70 417 70 C414 70 412 70 411 69 C373 55 325 46 301 46 C234 46 104 76 104 280 C104 521 246 522 313 522 C334 522 373 514 410 501 L410 501 Z M253 784 C245 784 237 780 230 767 L176 657 C176 647 181 642 191 642 L212 642 C221 642 228 647 233 657 L278 748 L323 657 C328 647 335 642 344 642 L365 642 C375 642 380 647 380 657 L326 767 C319 780 311 784 303 784 L253 784 Z " />
<glyph glyph-name="ccircumflex" unicode="&#x109;" horiz-adv-x="441" d="M382 17 C390 19 394 24 394 32 L388 58 C386 65 381 69 374 69 C371 69 369 69 368 68 C328 52 291 46 264 46 C171 46 104 84 104 204 C104 323 161 361 264 361 C291 361 326 357 367 341 C368 340 370 340 373 340 C380 340 385 344 387 351 L393 376 C393 384 389 389 381 391 C338 406 291 411 254 411 C119 411 50 340 50 204 C50 71 119 -5 254 -5 C290 -5 339 2 382 17 L382 17 Z M209 627 C201 627 193 623 186 610 L132 500 C132 490 137 485 147 485 L168 485 C177 485 184 490 189 500 L234 591 L279 500 C284 490 291 485 300 485 L321 485 C331 485 336 490 336 500 L282 610 C275 623 267 627 259 627 L209 627 Z " />
<glyph glyph-name="Cdotaccent" unicode="&#x10a;" horiz-adv-x="477" d="M410 501 C411 500 413 500 416 500 C423 500 428 504 430 511 L436 533 C436 541 432 546 424 548 C385 564 340 572 301 572 C169 572 50 516 50 280 C50 67 169 -5 301 -5 C337 -5 388 2 425 18 C433 20 437 25 437 33 L431 59 C429 66 424 70 417 70 C414 70 412 70 411 69 C373 55 325 46 301 46 C234 46 104 76 104 280 C104 521 246 522 313 522 C334 522 373 514 410 501 L410 501 Z M246 674 C246 655 259 642 278 642 C297 642 310 655 310 674 C310 693 297 706 278 706 C259 706 246 693 246 674 L246 674 Z " />
<glyph glyph-name="cdotaccent" unicode="&#x10b;" horiz-adv-x="441" d="M382 17 C390 19 394 24 394 32 L388 58 C386 65 381 69 374 69 C371 69 369 69 368 68 C328 52 291 46 264 46 C171 46 104 84 104 204 C104 323 161 361 264 361 C291 361 326 357 367 341 C368 340 370 340 373 340 C380 340 385 344 387 351 L393 376 C393 384 389 389 381 391 C338 406 291 411 254 411 C119 411 50 340 50 204 C50 71 119 -5 254 -5 C290 -5 339 2 382 17 L382 17 Z M216 517 C216 498 229 485 248 485 C267 485 280 498 280 517 C280 536 267 549 248 549 C229 549 216 536 216 517 L216 517 Z " />
<glyph glyph-name="Ccaron" unicode="&#x10c;" horiz-adv-x="477" d="M410 501 C411 500 413 500 416 500 C423 500 428 504 430 511 L436 533 C436 541 432 546 424 548 C385 564 340 572 301 572 C169 572 50 516 50 280 C50 67 169 -5 301 -5 C337 -5 388 2 425 18 C433 20 437 25 437 33 L431 59 C429 66 424 70 417 70 C414 70 412 70 411 69 C373 55 325 46 301 46 C234 46 104 76 104 280 C104 521 246 522 313 522 C334 522 373 514 410 501 L410 501 Z M303 642 C311 642 319 646 326 659 L380 769 C380 779 375 784 365 784 L344 784 C335 784 328 779 323 769 L278 678 L233 769 C228 779 221 784 212 784 L191 784 C181 784 176 779 176 769 L230 659 C237 646 245 642 253 642 L303 642 Z " />
<glyph glyph-name="ccaron" unicode="&#x10d;" horiz-adv-x="441" d="M382 17 C390 19 394 24 394 32 L388 58 C386 65 381 69 374 69 C371 69 369 69 368 68 C328 52 291 46 264 46 C171 46 104 84 104 204 C104 323 161 361 264 361 C291 361 326 357 367 341 C368 340 370 340 373 340 C380 340 385 344 387 351 L393 376 C393 384 389 389 381 391 C338 406 291 411 254 411 C119 411 50 340 50 204 C50 71 119 -5 254 -5 C290 -5 339 2 382 17 L382 17 Z M278 485 C286 485 294 489 301 502 L355 612 C355 622 350 627 340 627 L319 627 C310 627 303 622 298 612 L253 521 L208 612 C203 622 196 627 187 627 L166 627 C156 627 151 622 151 612 L205 502 C212 489 220 485 228 485 L278 485 Z " />
<glyph glyph-name="Dcaron" unicode="&#x10e;" horiz-adv-x="506" d="M402 208 C402 96 333 50 259 50 L119 50 L119 518 L259 518 C333 518 402 472 402 360 L402 208 Z M263 0 C388 0 456 67 456 194 L456 374 C456 501 388 568 263 568 L80 568 C70 568 65 563 65 553 L65 15 C65 5 70 0 80 0 L263 0 Z M268 642 C276 642 284 646 291 659 L345 769 C345 779 340 784 330 784 L309 784 C300 784 293 779 288 769 L243 678 L198 769 C193 779 186 784 177 784 L156 784 C146 784 141 779 141 769 L195 659 C202 646 210 642 218 642 L268 642 Z " />
<glyph glyph-name="dcaron" unicode="&#x10f;" horiz-adv-x="568" d="M104 210 C104 335 160 361 244 361 C259 361 323 352 362 321 L362 71 C313 47 260 46 251 46 C154 46 104 91 104 210 L104 210 Z M406 29 C413 33 416 35 416 42 L416 553 C416 563 411 568 401 568 L377 568 C367 568 362 563 362 553 L362 376 C298 411 236 411 225 411 C120 411 50 343 50 210 C50 77 116 -5 251 -5 C296 -5 355 4 406 29 L406 29 Z M476 452 C476 442 481 437 491 437 L504 437 C512 437 517 442 519 452 L548 553 C548 563 543 568 533 568 L509 568 C499 568 494 563 494 553 L476 452 Z " />
<glyph glyph-name="Dcroat" unicode="&#x110;" horiz-adv-x="561" d="M135 568 C125 568 120 563 120 553 L120 303 L45 303 C35 303 30 298 30 288 L30 268 C30 258 35 253 45 253 L120 253 L120 15 C120 5 125 0 135 0 L318 0 C443 0 511 67 511 194 L511 374 C511 501 443 568 318 568 L135 568 Z M457 208 C457 96 388 50 314 50 L174 50 L174 253 L278 253 C288 253 293 258 293 268 L293 288 C293 298 288 303 278 303 L174 303 L174 518 L314 518 C388 518 457 472 457 360 L457 208 Z " />
<glyph glyph-name="dcroat" unicode="&#x111;" horiz-adv-x="523" d="M104 210 C104 335 160 361 244 361 C259 361 323 352 362 321 L362 71 C313 47 260 46 251 46 C154 46 104 91 104 210 L104 210 Z M416 522 L416 553 C416 563 411 568 401 568 L377 568 C367 568 362 563 362 553 L362 522 L255 522 C245 522 240 517 240 507 L240 487 C240 477 245 472 255 472 L362 472 L362 376 C298 411 236 411 225 411 C120 411 50 343 50 210 C50 77 116 -5 251 -5 C296 -5 355 4 406 29 C413 33 416 35 416 42 L416 472 L488 472 C498 472 503 477 503 487 L503 507 C503 517 498 522 488 522 L416 522 Z " />
<glyph glyph-name="Emacron" unicode="&#x112;" horiz-adv-x="447" d="M328 256 C338 256 343 261 343 271 L343 291 C343 301 338 306 328 306 L119 306 L119 518 L392 518 C402 518 407 523 407 533 L407 553 C407 563 402 568 392 568 L80 568 C70 568 65 563 65 553 L65 15 C65 5 70 0 80 0 L392 0 C402 0 407 5 407 15 L407 35 C407 45 402 50 392 50 L119 50 L119 256 L328 256 Z M354 642 C364 642 369 647 369 657 L369 677 C369 687 364 692 354 692 L121 692 C111 692 106 687 106 677 L106 657 C106 647 111 642 121 642 L354 642 Z " />
<glyph glyph-name="emacron" unicode="&#x113;" horiz-adv-x="450" d="M237 361 C292 361 344 356 344 283 C344 223 305 211 228 211 C199 211 133 227 104 246 C123 338 172 361 237 361 L237 361 Z M382 20 C390 23 394 28 394 35 L388 61 C386 68 381 72 374 72 C371 72 369 72 368 71 C321 52 280 46 252 46 C163 46 104 102 104 194 C171 163 219 161 250 161 C333 161 398 190 398 287 C398 375 341 411 237 411 C106 411 50 330 50 207 C50 74 115 -5 248 -5 C289 -5 339 3 382 20 L382 20 Z M112 485 C102 485 97 490 97 500 L97 520 C97 530 102 535 112 535 L345 535 C355 535 360 530 360 520 L360 500 C360 490 355 485 345 485 L112 485 Z " />
<glyph glyph-name="Edotaccent" unicode="&#x116;" horiz-adv-x="447" d="M328 256 C338 256 343 261 343 271 L343 291 C343 301 338 306 328 306 L119 306 L119 518 L392 518 C402 518 407 523 407 533 L407 553 C407 563 402 568 392 568 L80 568 C70 568 65 563 65 553 L65 15 C65 5 70 0 80 0 L392 0 C402 0 407 5 407 15 L407 35 C407 45 402 50 392 50 L119 50 L119 256 L328 256 Z M204 674 C204 655 217 642 236 642 C255 642 268 655 268 674 C268 693 255 706 236 706 C217 706 204 693 204 674 L204 674 Z " />
<glyph glyph-name="edotaccent" unicode="&#x117;" horiz-adv-x="450" d="M237 361 C292 361 344 356 344 283 C344 223 305 211 228 211 C199 211 133 227 104 246 C123 338 172 361 237 361 L237 361 Z M382 20 C390 23 394 28 394 35 L388 61 C386 68 381 72 374 72 C371 72 369 72 368 71 C321 52 280 46 252 46 C163 46 104 102 104 194 C171 163 219 161 250 161 C333 161 398 190 398 287 C398 375 341 411 237 411 C106 411 50 330 50 207 C50 74 115 -5 248 -5 C289 -5 339 3 382 20 L382 20 Z M203 517 C203 498 216 485 235 485 C254 485 267 498 267 517 C267 536 254 549 235 549 C216 549 203 536 203 517 L203 517 Z " />
<glyph glyph-name="Eogonek" unicode="&#x118;" horiz-adv-x="447" d="M392 518 C402 518 407 523 407 533 L407 553 C407 563 402 568 392 568 L80 568 C70 568 65 563 65 553 L65 15 C65 5 70 0 80 0 L248 0 C247 -15 245 -34 245 -41 C245 -117 285 -150 338 -150 C373 -150 406 -148 406 -145 L406 -121 C406 -105 402 -101 390 -101 C383 -102 369 -103 362 -103 C311 -103 298 -88 298 -49 C298 -36 297 -15 300 0 L392 0 C402 0 407 5 407 15 L407 35 C407 45 402 50 392 50 L119 50 L119 256 L328 256 C338 256 343 261 343 271 L343 291 C343 301 338 306 328 306 L119 306 L119 518 L392 518 Z " />
<glyph glyph-name="eogonek" unicode="&#x119;" horiz-adv-x="450" d="M382 20 C390 23 394 28 394 35 L388 61 C386 68 381 72 374 72 C371 72 369 72 368 71 C321 52 280 46 252 46 C163 46 104 102 104 194 C171 163 219 161 250 161 C333 161 398 190 398 287 C398 375 341 411 237 411 C106 411 50 330 50 207 C50 78 110 0 235 -5 C233 -20 232 -32 232 -41 C232 -117 272 -150 325 -150 C360 -150 393 -148 393 -145 L393 -121 C393 -105 389 -101 377 -101 C370 -102 356 -103 349 -103 C298 -103 285 -88 285 -49 C285 -34 286 -18 289 -3 C320 1 353 8 382 20 L382 20 Z M237 361 C292 361 344 356 344 283 C344 223 305 211 228 211 C199 211 133 227 104 246 C123 338 172 361 237 361 L237 361 Z " />
<glyph glyph-name="Ecaron" unicode="&#x11a;" horiz-adv-x="447" d="M328 256 C338 256 343 261 343 271 L343 291 C343 301 338 306 328 306 L119 306 L119 518 L392 518 C402 518 407 523 407 533 L407 553 C407 563 402 568 392 568 L80 568 C70 568 65 563 65 553 L65 15 C65 5 70 0 80 0 L392 0 C402 0 407 5 407 15 L407 35 C407 45 402 50 392 50 L119 50 L119 256 L328 256 Z M277 642 C285 642 293 646 300 659 L354 769 C354 779 349 784 339 784 L318 784 C309 784 302 779 297 769 L252 678 L207 769 C202 779 195 784 186 784 L165 784 C155 784 150 779 150 769 L204 659 C211 646 219 642 227 642 L277 642 Z " />
<glyph glyph-name="ecaron" unicode="&#x11b;" horiz-adv-x="450" d="M237 361 C292 361 344 356 344 283 C344 223 305 211 228 211 C199 211 133 227 104 246 C123 338 172 361 237 361 L237 361 Z M382 20 C390 23 394 28 394 35 L388 61 C386 68 381 72 374 72 C371 72 369 72 368 71 C321 52 280 46 252 46 C163 46 104 102 104 194 C171 163 219 161 250 161 C333 161 398 190 398 287 C398 375 341 411 237 411 C106 411 50 330 50 207 C50 74 115 -5 248 -5 C289 -5 339 3 382 20 L382 20 Z M256 485 C264 485 272 489 279 502 L333 612 C333 622 328 627 318 627 L297 627 C288 627 281 622 276 612 L231 521 L186 612 C181 622 174 627 165 627 L144 627 C134 627 129 622 129 612 L183 502 C190 489 198 485 206 485 L256 485 Z " />
<glyph glyph-name="Gcircumflex" unicode="&#x11c;" horiz-adv-x="543" d="M350 289 C340 289 335 284 335 274 L335 254 C335 244 340 239 350 239 L429 239 L429 74 C392 61 324 46 301 46 C234 46 104 76 104 280 C104 521 246 522 313 522 C334 522 399 513 436 500 C437 499 439 499 442 499 C449 499 454 503 456 510 L462 532 C462 540 458 545 450 547 C412 563 339 572 301 572 C169 572 50 516 50 280 C50 67 169 -5 301 -5 C333 -5 397 6 434 19 C445 8 451 0 460 0 L468 0 C478 0 483 5 483 15 L483 274 C483 284 478 289 468 289 L350 289 Z M251 784 C243 784 235 780 228 767 L174 657 C174 647 179 642 189 642 L210 642 C219 642 226 647 231 657 L276 748 L321 657 C326 647 333 642 342 642 L363 642 C373 642 378 647 378 657 L324 767 C317 780 309 784 301 784 L251 784 Z " />
<glyph glyph-name="gcircumflex" unicode="&#x11d;" horiz-adv-x="453" d="M77 -121 C77 -224 175 -230 211 -230 C364 -230 388 -119 388 -53 L388 385 C388 392 385 396 378 398 C342 409 320 411 281 411 C142 411 40 339 40 190 C40 75 87 21 167 9 C108 -24 77 -61 77 -121 L77 -121 Z M334 108 C322 98 310 89 297 82 C274 69 246 57 217 57 C157 57 94 62 94 189 C94 298 154 361 271 361 C290 361 311 361 334 357 L334 108 Z M334 -52 C334 -136 287 -179 223 -179 C147 -179 131 -152 131 -120 C131 -71 152 -48 334 51 L334 -52 Z M224 627 C216 627 208 623 201 610 L147 500 C147 490 152 485 162 485 L183 485 C192 485 199 490 204 500 L249 591 L294 500 C299 490 306 485 315 485 L336 485 C346 485 351 490 351 500 L297 610 C290 623 282 627 274 627 L224 627 Z " />
<glyph glyph-name="Gbreve" unicode="&#x11e;" horiz-adv-x="543" d="M468 289 L350 289 C340 289 335 284 335 274 L335 254 C335 244 340 239 350 239 L429 239 L429 74 C392 61 324 46 301 46 C234 46 104 76 104 280 C104 521 246 522 313 522 C334 522 399 513 436 500 C437 499 439 499 442 499 C449 499 454 503 456 510 L462 532 C462 540 458 545 450 547 C412 563 339 572 301 572 C169 572 50 516 50 280 C50 67 169 -5 301 -5 C333 -5 397 6 434 19 C445 8 451 0 460 0 L468 0 C478 0 483 5 483 15 L483 274 C483 284 478 289 468 289 L468 289 Z M278 642 C193 642 134 672 123 759 C123 769 128 774 138 774 L162 774 C171 774 176 769 177 759 C182 706 235 692 278 692 C321 692 374 706 379 759 C380 769 385 774 394 774 L418 774 C428 774 433 769 433 759 C422 672 363 642 278 642 L278 642 Z " />
<glyph glyph-name="gbreve" unicode="&#x11f;" horiz-adv-x="453" d="M77 -121 C77 -224 175 -230 211 -230 C364 -230 388 -119 388 -53 L388 385 C388 392 385 396 378 398 C342 409 320 411 281 411 C142 411 40 339 40 190 C40 75 87 21 167 9 C108 -24 77 -61 77 -121 L77 -121 Z M334 108 C322 98 310 89 297 82 C274 69 246 57 217 57 C157 57 94 62 94 189 C94 298 154 361 271 361 C290 361 311 361 334 357 L334 108 Z M334 51 L334 -52 C334 -136 287 -179 223 -179 C147 -179 131 -152 131 -120 C131 -71 152 -48 334 51 L334 51 Z M222 485 C137 485 78 515 67 602 C67 612 72 617 82 617 L106 617 C115 617 120 612 121 602 C126 549 179 535 222 535 C265 535 318 549 323 602 C324 612 329 617 338 617 L362 617 C372 617 377 612 377 602 C366 515 307 485 222 485 L222 485 Z " />
<glyph glyph-name="Gdotaccent" unicode="&#x120;" horiz-adv-x="543" d="M350 289 C340 289 335 284 335 274 L335 254 C335 244 340 239 350 239 L429 239 L429 74 C392 61 324 46 301 46 C234 46 104 76 104 280 C104 521 246 522 313 522 C334 522 399 513 436 500 C437 499 439 499 442 499 C449 499 454 503 456 510 L462 532 C462 540 458 545 450 547 C412 563 339 572 301 572 C169 572 50 516 50 280 C50 67 169 -5 301 -5 C333 -5 397 6 434 19 C445 8 451 0 460 0 L468 0 C478 0 483 5 483 15 L483 274 C483 284 478 289 468 289 L350 289 Z M264 674 C264 655 277 642 296 642 C315 642 328 655 328 674 C328 693 315 706 296 706 C277 706 264 693 264 674 L264 674 Z " />
<glyph glyph-name="gdotaccent" unicode="&#x121;" horiz-adv-x="453" d="M77 -121 C77 -224 175 -230 211 -230 C364 -230 388 -119 388 -53 L388 385 C388 392 385 396 378 398 C342 409 320 411 281 411 C142 411 40 339 40 190 C40 75 87 21 167 9 C108 -24 77 -61 77 -121 L77 -121 Z M334 108 C322 98 310 89 297 82 C274 69 246 57 217 57 C157 57 94 62 94 189 C94 298 154 361 271 361 C290 361 311 361 334 357 L334 108 Z M334 -52 C334 -136 287 -179 223 -179 C147 -179 131 -152 131 -120 C131 -71 152 -48 334 51 L334 -52 Z M223 517 C223 498 236 485 255 485 C274 485 287 498 287 517 C287 536 274 549 255 549 C236 549 223 536 223 517 L223 517 Z " />
<glyph glyph-name="uni0122" unicode="&#x122;" horiz-adv-x="543" d="M350 289 C340 289 335 284 335 274 L335 254 C335 244 340 239 350 239 L429 239 L429 74 C392 61 324 46 301 46 C234 46 104 76 104 280 C104 521 246 522 313 522 C334 522 399 513 436 500 C437 499 439 499 442 499 C449 499 454 503 456 510 L462 532 C462 540 458 545 450 547 C412 563 339 572 301 572 C169 572 50 516 50 280 C50 67 169 -5 301 -5 C333 -5 397 6 434 19 C445 8 451 0 460 0 L468 0 C478 0 483 5 483 15 L483 274 C483 284 478 289 468 289 L350 289 Z M260 -182 C260 -192 265 -197 275 -197 L284 -197 C311 -197 330 -101 333 -81 C333 -71 328 -66 318 -66 L295 -66 C285 -66 280 -71 280 -81 C280 -110 269 -153 263 -173 L260 -182 Z " />
<glyph glyph-name="uni0123" unicode="&#x123;" horiz-adv-x="453" d="M77 -121 C77 -224 175 -230 211 -230 C364 -230 388 -119 388 -53 L388 385 C388 392 385 396 378 398 C342 409 320 411 281 411 C142 411 40 339 40 190 C40 75 87 21 167 9 C108 -24 77 -61 77 -121 L77 -121 Z M334 108 C322 98 310 89 297 82 C274 69 246 57 217 57 C157 57 94 62 94 189 C94 298 154 361 271 361 C290 361 311 361 334 357 L334 108 Z M334 -52 C334 -136 287 -179 223 -179 C147 -179 131 -152 131 -120 C131 -71 152 -48 334 51 L334 -52 Z M304 601 C304 611 299 616 289 616 L280 616 C253 616 234 520 231 500 C231 490 236 485 246 485 L269 485 C279 485 284 490 284 500 C284 528 296 573 301 592 L304 601 Z " />
<glyph glyph-name="Hcircumflex" unicode="&#x124;" horiz-adv-x="536" d="M417 312 L119 312 L119 553 C119 563 114 568 104 568 L80 568 C70 568 65 563 65 553 L65 15 C65 5 70 0 80 0 L104 0 C114 0 119 5 119 15 L119 262 L417 262 L417 15 C417 5 422 0 432 0 L456 0 C466 0 471 5 471 15 L471 553 C471 563 466 568 456 568 L432 568 C422 568 417 563 417 553 L417 312 Z M243 784 C235 784 227 780 220 767 L166 657 C166 647 171 642 181 642 L202 642 C211 642 218 647 223 657 L268 748 L313 657 C318 647 325 642 334 642 L355 642 C365 642 370 647 370 657 L316 767 C309 780 301 784 293 784 L243 784 Z " />
<glyph glyph-name="hcircumflex" unicode="&#x125;" horiz-adv-x="464" d="M65 15 C65 5 70 0 80 0 L104 0 C114 0 119 5 119 15 L119 301 C132 312 145 322 160 331 C185 346 217 361 250 361 C318 361 355 350 355 218 L355 15 C355 5 360 0 370 0 L394 0 C404 0 409 5 409 15 L409 232 C409 331 375 411 263 411 C249 411 178 409 119 361 L119 553 C119 563 114 568 104 568 L80 568 C70 568 65 563 65 553 L65 15 Z M142 784 C134 784 126 780 119 767 L65 657 C65 647 70 642 80 642 L101 642 C110 642 117 647 122 657 L167 748 L212 657 C217 647 224 642 233 642 L254 642 C264 642 269 647 269 657 L215 767 C208 780 200 784 192 784 L142 784 Z " />
<glyph glyph-name="Hbar" unicode="&#x126;" horiz-adv-x="638" d="M522 511 L522 553 C522 563 517 568 507 568 L483 568 C473 568 468 563 468 553 L468 511 L170 511 L170 553 C170 563 165 568 155 568 L131 568 C121 568 116 563 116 553 L116 511 L45 511 C35 511 30 506 30 496 L30 476 C30 466 35 461 45 461 L116 461 L116 15 C116 5 121 0 131 0 L155 0 C165 0 170 5 170 15 L170 262 L468 262 L468 15 C468 5 473 0 483 0 L507 0 C517 0 522 5 522 15 L522 461 L593 461 C603 461 608 466 608 476 L608 496 C608 506 603 511 593 511 L522 511 Z M468 312 L170 312 L170 461 L468 461 L468 312 Z " />
<glyph glyph-name="hbar" unicode="&#x127;" horiz-adv-x="506" d="M107 15 C107 5 112 0 122 0 L146 0 C156 0 161 5 161 15 L161 301 C174 312 187 322 202 331 C227 346 259 361 292 361 C360 361 397 350 397 218 L397 15 C397 5 402 0 412 0 L436 0 C446 0 451 5 451 15 L451 232 C451 331 417 411 305 411 C291 411 220 409 161 361 L161 472 L268 472 C278 472 283 477 283 487 L283 507 C283 517 278 522 268 522 L161 522 L161 553 C161 563 156 568 146 568 L122 568 C112 568 107 563 107 553 L107 522 L35 522 C25 522 20 517 20 507 L20 487 C20 477 25 472 35 472 L107 472 L107 15 Z " />
<glyph glyph-name="Itilde" unicode="&#x128;" horiz-adv-x="184" d="M119 553 C119 563 114 568 104 568 L80 568 C70 568 65 563 65 553 L65 15 C65 5 70 0 80 0 L104 0 C114 0 119 5 119 15 L119 553 Z M142 642 C161 642 182 649 204 663 C207 665 208 668 208 672 C208 675 207 678 206 679 L196 696 C193 699 190 701 185 701 C180 701 180 701 173 698 C162 693 153 692 142 692 C89 692 93 712 42 712 C23 712 2 705 -20 691 C-23 689 -24 686 -24 682 C-24 679 -23 676 -22 675 L-12 658 C-9 655 -6 653 -1 653 C4 653 4 653 11 656 C22 661 31 662 42 662 C96 662 90 642 142 642 L142 642 Z " />
<glyph glyph-name="itilde" unicode="&#x129;" horiz-adv-x="184" d="M142 485 C161 485 182 492 204 506 C207 508 208 511 208 515 C208 518 207 521 206 522 L196 539 C193 542 190 544 185 544 C180 544 180 544 173 541 C162 536 153 535 142 535 C89 535 93 555 42 555 C23 555 2 548 -20 534 C-23 532 -24 529 -24 525 C-24 522 -23 519 -22 518 L-12 501 C-9 498 -6 496 -1 496 C4 496 4 496 11 499 C22 504 31 505 42 505 C96 505 90 485 142 485 L142 485 Z M119 390 C119 400 114 405 104 405 L80 405 C70 405 65 400 65 390 L65 15 C65 5 70 0 80 0 L104 0 C114 0 119 5 119 15 L119 390 Z " />
<glyph glyph-name="Imacron" unicode="&#x12a;" horiz-adv-x="184" d="M119 553 C119 563 114 568 104 568 L80 568 C70 568 65 563 65 553 L65 15 C65 5 70 0 80 0 L104 0 C114 0 119 5 119 15 L119 553 Z M36 642 C26 642 21 647 21 657 L21 677 C21 687 26 692 36 692 L148 692 C158 692 163 687 163 677 L163 657 C163 647 158 642 148 642 L36 642 Z " />
<glyph glyph-name="imacron" unicode="&#x12b;" horiz-adv-x="184" d="M119 390 C119 400 114 405 104 405 L80 405 C70 405 65 400 65 390 L65 15 C65 5 70 0 80 0 L104 0 C114 0 119 5 119 15 L119 390 Z M36 485 C26 485 21 490 21 500 L21 520 C21 530 26 535 36 535 L148 535 C158 535 163 530 163 520 L163 500 C163 490 158 485 148 485 L36 485 Z " />
<glyph glyph-name="Iogonek" unicode="&#x12e;" horiz-adv-x="184" d="M65 15 C65 1 34 -7 34 -63 C34 -123 79 -139 119 -139 C150 -139 151 -138 151 -135 L151 -111 C151 -95 147 -91 135 -91 L119 -92 C96 -92 79 -84 79 -57 C79 -25 119 -1 119 15 L119 553 C119 563 114 568 104 568 L80 568 C70 568 65 563 65 553 L65 15 Z " />
<glyph glyph-name="iogonek" unicode="&#x12f;" horiz-adv-x="184" d="M60 468 C60 449 73 436 92 436 C111 436 124 449 124 468 C124 487 111 500 92 500 C73 500 60 487 60 468 L60 468 Z M65 15 C65 1 34 -7 34 -63 C34 -123 79 -139 119 -139 C150 -139 151 -138 151 -135 L151 -111 C151 -95 147 -91 135 -91 L119 -92 C96 -92 79 -84 79 -57 C79 -25 119 -1 119 15 L119 390 C119 400 114 405 104 405 L80 405 C70 405 65 400 65 390 L65 15 Z " />
<glyph glyph-name="Idotaccent" unicode="&#x130;" horiz-adv-x="184" d="M119 553 C119 563 114 568 104 568 L80 568 C70 568 65 563 65 553 L65 15 C65 5 70 0 80 0 L104 0 C114 0 119 5 119 15 L119 553 Z M60 674 C60 655 73 642 92 642 C111 642 124 655 124 674 C124 693 111 706 92 706 C73 706 60 693 60 674 L60 674 Z " />
<glyph glyph-name="dotlessi" unicode="&#x131;" horiz-adv-x="184" d="M119 390 C119 400 114 405 104 405 L80 405 C70 405 65 400 65 390 L65 15 C65 5 70 0 80 0 L104 0 C114 0 119 5 119 15 L119 390 Z " />
<glyph glyph-name="Jcircumflex" unicode="&#x134;" horiz-adv-x="437" d="M37 17 C77 2 128 -5 161 -5 C260 -5 371 18 371 231 L371 553 C371 563 366 568 356 568 L332 568 C322 568 317 563 317 553 L317 233 C317 46 221 46 151 46 C128 46 83 53 51 68 C50 69 48 69 45 69 C38 69 33 65 31 58 L25 32 C25 24 29 19 37 17 L37 17 Z M245 784 C237 784 229 780 222 767 L168 657 C168 647 173 642 183 642 L204 642 C213 642 220 647 225 657 L270 748 L315 657 C320 647 327 642 336 642 L357 642 C367 642 372 647 372 657 L318 767 C311 780 303 784 295 784 L245 784 Z " />
<glyph glyph-name="jcircumflex" unicode="&#x135;" horiz-adv-x="184" d="M-96 -198 C-77 -201 -52 -202 -36 -202 C92 -202 119 -129 119 5 L119 390 C119 400 114 405 104 405 L80 405 C70 405 65 400 65 390 L65 -4 C65 -56 63 -152 -41 -152 C-45 -152 -74 -149 -93 -146 C-98 -146 -102 -150 -105 -157 L-108 -183 C-108 -191 -104 -196 -96 -198 L-96 -198 Z M69 627 C61 627 53 623 46 610 L-8 500 C-8 490 -3 485 7 485 L28 485 C37 485 44 490 49 500 L94 591 L139 500 C144 490 151 485 160 485 L181 485 C191 485 196 490 196 500 L142 610 C135 623 127 627 119 627 L69 627 Z " />
<glyph glyph-name="uni0136" unicode="&#x136;" horiz-adv-x="519" d="M424 15 C430 5 437 0 444 0 L469 0 C479 0 484 5 484 15 C401 183 344 267 304 326 C381 398 434 485 458 553 C458 563 453 568 443 568 L415 568 C406 568 401 563 398 553 C366 440 231 310 119 294 L119 553 C119 563 114 568 104 568 L80 568 C70 568 65 563 65 553 L65 15 C65 5 70 0 80 0 L104 0 C114 0 119 5 119 15 L119 231 C175 246 215 259 262 292 C275 276 374 127 424 15 L424 15 Z M224 -182 C224 -192 229 -197 239 -197 L248 -197 C275 -197 294 -101 297 -81 C297 -71 292 -66 282 -66 L259 -66 C249 -66 244 -71 244 -81 C244 -110 233 -153 227 -173 L224 -182 Z " />
<glyph glyph-name="uni0137" unicode="&#x137;" horiz-adv-x="439" d="M345 390 C310 307 200 240 119 232 L119 553 C119 563 114 568 104 568 L80 568 C70 568 65 563 65 553 L65 15 C65 5 70 0 80 0 L104 0 C114 0 119 5 119 15 L119 173 C158 182 190 193 226 208 C258 166 293 114 347 15 C352 5 359 0 366 0 L394 0 C404 0 409 5 409 16 C340 138 313 181 270 234 C349 287 382 342 399 390 C399 400 394 405 384 405 L364 405 C356 405 350 400 345 390 L345 390 Z M191 -182 C191 -192 196 -197 206 -197 L215 -197 C242 -197 261 -101 264 -81 C264 -71 259 -66 249 -66 L226 -66 C216 -66 211 -71 211 -81 C211 -110 200 -153 194 -173 L191 -182 Z " />
<glyph glyph-name="kgreenlandic" unicode="&#x138;" horiz-adv-x="439" d="M345 390 C310 307 200 240 119 232 L119 390 C119 400 114 405 104 405 L80 405 C70 405 65 400 65 390 L65 15 C65 5 70 0 80 0 L104 0 C114 0 119 5 119 15 L119 173 C158 182 190 193 226 208 C258 166 293 114 347 15 C352 5 359 0 366 0 L394 0 C404 0 409 5 409 16 C340 138 313 181 270 234 C349 287 382 342 399 390 C399 400 394 405 384 405 L364 405 C356 405 350 400 345 390 L345 390 Z " />
<glyph glyph-name="Lacute" unicode="&#x139;" horiz-adv-x="430" d="M119 553 C119 563 114 568 104 568 L80 568 C70 568 65 563 65 553 L65 15 C65 5 70 0 80 0 L380 0 C390 0 395 5 395 15 L395 35 C395 45 390 50 380 50 L119 50 L119 553 Z M70 673 C68 670 67 667 67 665 C67 660 74 653 77 650 C82 645 83 642 95 642 C102 642 109 644 114 648 L206 726 C207 729 208 732 208 737 C208 743 206 748 203 753 L184 774 C181 776 176 777 170 777 C163 776 163 774 156 769 L70 673 Z " />
<glyph glyph-name="lacute" unicode="&#x13a;" horiz-adv-x="184" d="M119 553 C119 563 114 568 104 568 L80 568 C70 568 65 563 65 553 L65 15 C65 5 70 0 80 0 L104 0 C114 0 119 5 119 15 L119 553 Z M25 673 C23 670 22 667 22 665 C22 660 29 653 32 650 C37 645 38 642 50 642 C57 642 64 644 69 648 L161 726 C162 729 163 732 163 737 C163 743 161 748 158 753 L139 774 C136 776 131 777 125 777 C118 776 118 774 111 769 L25 673 Z " />
<glyph glyph-name="uni013B" unicode="&#x13b;" horiz-adv-x="430" d="M119 553 C119 563 114 568 104 568 L80 568 C70 568 65 563 65 553 L65 15 C65 5 70 0 80 0 L380 0 C390 0 395 5 395 15 L395 35 C395 45 390 50 380 50 L119 50 L119 553 Z M195 -173 C201 -153 212 -110 212 -81 C212 -71 217 -66 227 -66 L250 -66 C260 -66 265 -71 265 -81 C262 -101 243 -197 216 -197 L207 -197 C197 -197 192 -192 192 -182 L195 -173 Z " />
<glyph glyph-name="uni013C" unicode="&#x13c;" horiz-adv-x="184" d="M119 553 C119 563 114 568 104 568 L80 568 C70 568 65 563 65 553 L65 15 C65 5 70 0 80 0 L104 0 C114 0 119 5 119 15 L119 553 Z M47 -182 C47 -192 52 -197 62 -197 L71 -197 C98 -197 117 -101 120 -81 C120 -71 115 -66 105 -66 L82 -66 C72 -66 67 -71 67 -81 C67 -110 56 -153 50 -173 L47 -182 Z " />
<glyph glyph-name="Lcaron" unicode="&#x13d;" horiz-adv-x="430" d="M119 553 C119 563 114 568 104 568 L80 568 C70 568 65 563 65 553 L65 15 C65 5 70 0 80 0 L380 0 C390 0 395 5 395 15 L395 35 C395 45 390 50 380 50 L119 50 L119 553 Z M308 553 C308 563 313 568 323 568 L347 568 C357 568 362 563 362 553 L333 452 C331 442 326 437 318 437 L305 437 C295 437 290 442 290 452 L308 553 Z " />
<glyph glyph-name="lcaron" unicode="&#x13e;" horiz-adv-x="271" d="M119 553 C119 563 114 568 104 568 L80 568 C70 568 65 563 65 553 L65 15 C65 5 70 0 80 0 L104 0 C114 0 119 5 119 15 L119 553 Z M179 452 C179 442 184 437 194 437 L207 437 C215 437 220 442 222 452 L251 553 C251 563 246 568 236 568 L212 568 C202 568 197 563 197 553 L179 452 Z " />
<glyph glyph-name="Lslash" unicode="&#x141;" horiz-adv-x="483" d="M118 275 L118 15 C118 5 123 0 133 0 L433 0 C443 0 448 5 448 15 L448 35 C448 45 443 50 433 50 L172 50 L172 289 L281 318 C291 318 296 323 296 333 L296 353 C296 363 291 368 281 368 L172 339 L172 553 C172 563 167 568 157 568 L133 568 C123 568 118 563 118 553 L118 325 L35 303 C25 301 20 296 20 288 L20 268 C20 258 25 253 35 253 L118 275 Z " />
<glyph glyph-name="lslash" unicode="&#x142;" horiz-adv-x="316" d="M281 368 L182 342 L182 553 C182 563 177 568 167 568 L143 568 C133 568 128 563 128 553 L128 328 L35 303 C25 301 20 296 20 288 L20 268 C20 258 25 253 35 253 L128 278 L128 15 C128 5 133 0 143 0 L167 0 C177 0 182 5 182 15 L182 292 L281 318 C291 318 296 323 296 333 L296 353 C296 363 291 368 281 368 L281 368 Z " />
<glyph glyph-name="Nacute" unicode="&#x143;" horiz-adv-x="563" d="M80 568 C70 568 65 563 65 553 L65 15 C65 5 70 0 80 0 L104 0 C114 0 119 5 119 15 L119 504 L420 13 C427 1 438 0 441 0 L483 0 C493 0 498 5 498 15 L498 553 C498 563 493 568 483 568 L459 568 C449 568 444 563 444 553 L444 76 L151 555 C144 566 134 568 131 568 L80 568 Z M232 673 C230 670 229 667 229 665 C229 660 236 653 239 650 C244 645 245 642 257 642 C264 642 271 644 276 648 L368 726 C369 729 370 732 370 737 C370 743 368 748 365 753 L346 774 C343 776 338 777 332 777 C325 776 325 774 318 769 L232 673 Z " />
<glyph glyph-name="nacute" unicode="&#x144;" horiz-adv-x="464" d="M65 15 C65 5 70 0 80 0 L104 0 C114 0 119 5 119 15 L119 341 C143 360 219 361 234 361 C343 361 355 292 355 175 L355 15 C355 5 360 0 370 0 L394 0 C404 0 409 5 409 15 L409 221 C409 349 360 411 227 411 C187 411 127 405 75 390 C68 387 65 383 65 377 L65 15 Z M158 516 C156 513 155 510 155 508 C155 503 162 496 165 493 C170 488 171 485 183 485 C190 485 197 487 202 491 L294 569 C295 572 296 575 296 580 C296 586 294 591 291 596 L272 617 C269 619 264 620 258 620 C251 619 251 617 244 612 L158 516 Z " />
<glyph glyph-name="uni0145" unicode="&#x145;" horiz-adv-x="563" d="M80 568 C70 568 65 563 65 553 L65 15 C65 5 70 0 80 0 L104 0 C114 0 119 5 119 15 L119 504 L420 13 C427 1 438 0 441 0 L483 0 C493 0 498 5 498 15 L498 553 C498 563 493 568 483 568 L459 568 C449 568 444 563 444 553 L444 76 L151 555 C144 566 134 568 131 568 L80 568 Z M259 -182 C259 -192 264 -197 274 -197 L283 -197 C310 -197 329 -101 332 -81 C332 -71 327 -66 317 -66 L294 -66 C284 -66 279 -71 279 -81 C279 -110 268 -153 262 -173 L259 -182 Z " />
<glyph glyph-name="uni0146" unicode="&#x146;" horiz-adv-x="464" d="M65 15 C65 5 70 0 80 0 L104 0 C114 0 119 5 119 15 L119 341 C143 360 219 361 234 361 C343 361 355 292 355 175 L355 15 C355 5 360 0 370 0 L394 0 C404 0 409 5 409 15 L409 221 C409 349 360 411 227 411 C187 411 127 405 75 390 C68 387 65 383 65 377 L65 15 Z M183 -182 C183 -192 188 -197 198 -197 L207 -197 C234 -197 253 -101 256 -81 C256 -71 251 -66 241 -66 L218 -66 C208 -66 203 -71 203 -81 C203 -110 192 -153 186 -173 L183 -182 Z " />
<glyph glyph-name="Ncaron" unicode="&#x147;" horiz-adv-x="563" d="M80 568 C70 568 65 563 65 553 L65 15 C65 5 70 0 80 0 L104 0 C114 0 119 5 119 15 L119 504 L420 13 C427 1 438 0 441 0 L483 0 C493 0 498 5 498 15 L498 553 C498 563 493 568 483 568 L459 568 C449 568 444 563 444 553 L444 76 L151 555 C144 566 134 568 131 568 L80 568 Z M319 642 C327 642 335 646 342 659 L396 769 C396 779 391 784 381 784 L360 784 C351 784 344 779 339 769 L294 678 L249 769 C244 779 237 784 228 784 L207 784 C197 784 192 779 192 769 L246 659 C253 646 261 642 269 642 L319 642 Z " />
<glyph glyph-name="ncaron" unicode="&#x148;" horiz-adv-x="464" d="M65 15 C65 5 70 0 80 0 L104 0 C114 0 119 5 119 15 L119 341 C143 360 219 361 234 361 C343 361 355 292 355 175 L355 15 C355 5 360 0 370 0 L394 0 C404 0 409 5 409 15 L409 221 C409 349 360 411 227 411 C187 411 127 405 75 390 C68 387 65 383 65 377 L65 15 Z M254 485 C262 485 270 489 277 502 L331 612 C331 622 326 627 316 627 L295 627 C286 627 279 622 274 612 L229 521 L184 612 C179 622 172 627 163 627 L142 627 C132 627 127 622 127 612 L181 502 C188 489 196 485 204 485 L254 485 Z " />
<glyph glyph-name="Eng" unicode="&#x14a;" horiz-adv-x="563" d="M283 -198 C302 -201 327 -202 343 -202 C471 -202 498 -129 498 5 L498 553 C498 563 493 568 483 568 L459 568 C449 568 444 563 444 553 L444 76 L151 555 C144 566 134 568 131 568 L80 568 C70 568 65 563 65 553 L65 15 C65 5 70 0 80 0 L104 0 C114 0 119 5 119 15 L119 504 L420 13 C427 1 437 0 444 0 L444 -4 C444 -56 442 -152 338 -152 C334 -152 305 -149 286 -146 C281 -146 277 -150 274 -157 L271 -183 C271 -191 275 -196 283 -198 L283 -198 Z " />
<glyph glyph-name="eng" unicode="&#x14b;" horiz-adv-x="464" d="M194 -198 C213 -201 238 -202 254 -202 C382 -202 409 -129 409 5 L409 221 C409 349 360 411 227 411 C187 411 127 405 75 390 C68 387 65 383 65 377 L65 15 C65 5 70 0 80 0 L104 0 C114 0 119 5 119 15 L119 341 C143 360 219 361 234 361 C343 361 355 292 355 175 L355 -4 C355 -56 353 -152 249 -152 C245 -152 216 -149 197 -146 C192 -146 188 -150 185 -157 L182 -183 C182 -191 186 -196 194 -198 L194 -198 Z " />
<glyph glyph-name="Omacron" unicode="&#x14c;" horiz-adv-x="592" d="M296 46 C215 46 108 69 108 280 C108 517 229 522 296 522 C363 522 484 517 484 280 C484 69 377 46 296 46 L296 46 Z M296 572 C164 572 55 516 55 280 C55 59 164 -5 296 -5 C428 -5 537 59 537 280 C537 516 428 572 296 572 L296 572 Z M180 642 C170 642 165 647 165 657 L165 677 C165 687 170 692 180 692 L413 692 C423 692 428 687 428 677 L428 657 C428 647 423 642 413 642 L180 642 Z " />
<glyph glyph-name="omacron" unicode="&#x14d;" horiz-adv-x="494" d="M247 46 C118 46 104 139 104 206 C104 275 131 361 247 361 C363 361 390 275 390 206 C390 139 376 46 247 46 L247 46 Z M247 -5 C380 -5 444 74 444 207 C444 330 380 411 247 411 C114 411 50 330 50 207 C50 74 114 -5 247 -5 L247 -5 Z M132 485 C122 485 117 490 117 500 L117 520 C117 530 122 535 132 535 L365 535 C375 535 380 530 380 520 L380 500 C380 490 375 485 365 485 L132 485 Z " />
<glyph glyph-name="Ohungarumlaut" unicode="&#x150;" horiz-adv-x="592" d="M296 46 C215 46 108 69 108 280 C108 517 229 522 296 522 C363 522 484 517 484 280 C484 69 377 46 296 46 L296 46 Z M296 572 C164 572 55 516 55 280 C55 59 164 -5 296 -5 C428 -5 537 59 537 280 C537 516 428 572 296 572 L296 572 Z M208 657 C208 647 213 642 223 642 L236 642 C245 642 248 646 251 657 L280 758 C280 768 275 773 265 773 L241 773 C233 773 228 768 226 758 L208 657 Z M353 657 C353 647 358 642 368 642 L381 642 C390 642 393 646 396 657 L425 758 C425 768 420 773 410 773 L386 773 C378 773 373 768 371 758 L353 657 Z " />
<glyph glyph-name="ohungarumlaut" unicode="&#x151;" horiz-adv-x="494" d="M247 46 C118 46 104 139 104 206 C104 275 131 361 247 361 C363 361 390 275 390 206 C390 139 376 46 247 46 L247 46 Z M247 -5 C380 -5 444 74 444 207 C444 330 380 411 247 411 C114 411 50 330 50 207 C50 74 114 -5 247 -5 L247 -5 Z M154 500 C154 490 159 485 169 485 L182 485 C191 485 194 489 197 500 L226 601 C226 611 221 616 211 616 L187 616 C179 616 174 611 172 601 L154 500 Z M299 500 C299 490 304 485 314 485 L327 485 C336 485 339 489 342 500 L371 601 C371 611 366 616 356 616 L332 616 C324 616 319 611 317 601 L299 500 Z " />
<glyph glyph-name="OE" unicode="&#x152;" horiz-adv-x="728" d="M609 256 C619 256 624 261 624 271 L624 291 C624 301 619 306 609 306 L400 306 L400 518 L673 518 C683 518 688 523 688 533 L688 553 C688 563 683 568 673 568 L360 568 C339 571 320 572 301 572 C169 572 50 516 50 280 C50 67 169 -5 301 -5 C318 -5 339 -3 360 0 L673 0 C683 0 688 5 688 15 L688 35 C688 45 683 50 673 50 L400 50 L400 256 L609 256 Z M313 522 C322 522 333 521 346 519 L346 51 C327 48 312 46 301 46 C234 46 104 76 104 280 C104 522 246 522 313 522 L313 522 Z " />
<glyph glyph-name="oe" unicode="&#x153;" horiz-adv-x="790" d="M722 20 C730 23 734 28 734 35 L728 61 C726 68 721 72 714 72 C711 72 709 72 708 71 C661 52 620 46 592 46 C503 46 444 102 444 194 C511 163 559 161 590 161 C673 161 738 190 738 287 C738 375 681 411 577 411 C496 411 443 380 415 327 C384 380 330 411 247 411 C114 411 50 330 50 207 C50 74 114 -5 247 -5 C331 -5 386 26 417 82 C448 26 504 -5 588 -5 C629 -5 679 3 722 20 L722 20 Z M247 46 C118 46 104 139 104 206 C104 275 131 361 247 361 C356 361 387 284 390 216 L390 207 C390 139 376 46 247 46 L247 46 Z M577 361 C632 361 684 356 684 283 C684 223 645 211 568 211 C539 211 473 227 444 246 C463 338 512 361 577 361 L577 361 Z " />
<glyph glyph-name="Racute" unicode="&#x154;" horiz-adv-x="495" d="M435 37 C430 40 425 50 418 67 L357 233 C418 256 450 305 450 392 C450 515 385 568 258 568 L80 568 C70 568 65 563 65 553 L65 15 C65 5 70 0 80 0 L104 0 C114 0 119 5 119 15 L119 218 L258 218 C274 218 289 219 302 220 L378 22 C386 2 398 -5 413 -5 C428 -5 442 -3 442 5 L442 27 C442 28 442 30 441 31 C440 33 438 35 435 37 L435 37 Z M119 268 L119 518 L266 518 C345 518 396 480 396 392 C396 304 346 268 266 268 L119 268 Z M199 673 C197 670 196 667 196 665 C196 660 203 653 206 650 C211 645 212 642 224 642 C231 642 238 644 243 648 L335 726 C336 729 337 732 337 737 C337 743 335 748 332 753 L313 774 C310 776 305 777 299 777 C292 776 292 774 285 769 L199 673 Z " />
<glyph glyph-name="racute" unicode="&#x155;" horiz-adv-x="352" d="M306 341 C307 340 309 340 312 340 C319 340 324 344 326 351 L332 376 C332 384 328 389 320 391 C280 408 239 411 203 411 C162 411 114 402 75 385 C68 382 65 378 65 372 L65 15 C65 5 70 0 80 0 L104 0 C114 0 119 5 119 15 L119 337 C145 358 193 361 206 361 C234 361 263 358 306 341 L306 341 Z M139 516 C137 513 136 510 136 508 C136 503 143 496 146 493 C151 488 152 485 164 485 C171 485 178 487 183 491 L275 569 C276 572 277 575 277 580 C277 586 275 591 272 596 L253 617 C250 619 245 620 239 620 C232 619 232 617 225 612 L139 516 Z " />
<glyph glyph-name="uni0156" unicode="&#x156;" horiz-adv-x="495" d="M435 37 C430 40 425 50 418 67 L357 233 C418 256 450 305 450 392 C450 515 385 568 258 568 L80 568 C70 568 65 563 65 553 L65 15 C65 5 70 0 80 0 L104 0 C114 0 119 5 119 15 L119 218 L258 218 C274 218 289 219 302 220 L378 22 C386 2 398 -5 413 -5 C428 -5 442 -3 442 5 L442 27 C442 28 442 30 441 31 C440 33 438 35 435 37 L435 37 Z M119 268 L119 518 L266 518 C345 518 396 480 396 392 C396 304 346 268 266 268 L119 268 Z M206 -182 C206 -192 211 -197 221 -197 L230 -197 C257 -197 276 -101 279 -81 C279 -71 274 -66 264 -66 L241 -66 C231 -66 226 -71 226 -81 C226 -110 215 -153 209 -173 L206 -182 Z " />
<glyph glyph-name="uni0157" unicode="&#x157;" horiz-adv-x="352" d="M306 341 C307 340 309 340 312 340 C319 340 324 344 326 351 L332 376 C332 384 328 389 320 391 C280 408 239 411 203 411 C162 411 114 402 75 385 C68 382 65 378 65 372 L65 15 C65 5 70 0 80 0 L104 0 C114 0 119 5 119 15 L119 337 C145 358 193 361 206 361 C234 361 263 358 306 341 L306 341 Z M65 -182 C65 -192 70 -197 80 -197 L89 -197 C116 -197 135 -101 138 -81 C138 -71 133 -66 123 -66 L100 -66 C90 -66 85 -71 85 -81 C85 -110 74 -153 68 -173 L65 -182 Z " />
<glyph glyph-name="Rcaron" unicode="&#x158;" horiz-adv-x="495" d="M435 37 C430 40 425 50 418 67 L357 233 C418 256 450 305 450 392 C450 515 385 568 258 568 L80 568 C70 568 65 563 65 553 L65 15 C65 5 70 0 80 0 L104 0 C114 0 119 5 119 15 L119 218 L258 218 C274 218 289 219 302 220 L378 22 C386 2 398 -5 413 -5 C428 -5 442 -3 442 5 L442 27 C442 28 442 30 441 31 C440 33 438 35 435 37 L435 37 Z M119 268 L119 518 L266 518 C345 518 396 480 396 392 C396 304 346 268 266 268 L119 268 Z M263 642 C271 642 279 646 286 659 L340 769 C340 779 335 784 325 784 L304 784 C295 784 288 779 283 769 L238 678 L193 769 C188 779 181 784 172 784 L151 784 C141 784 136 779 136 769 L190 659 C197 646 205 642 213 642 L263 642 Z " />
<glyph glyph-name="rcaron" unicode="&#x159;" horiz-adv-x="352" d="M306 341 C307 340 309 340 312 340 C319 340 324 344 326 351 L332 376 C332 384 328 389 320 391 C280 408 239 411 203 411 C162 411 114 402 75 385 C68 382 65 378 65 372 L65 15 C65 5 70 0 80 0 L104 0 C114 0 119 5 119 15 L119 337 C145 358 193 361 206 361 C234 361 263 358 306 341 L306 341 Z M223 485 C231 485 239 489 246 502 L300 612 C300 622 295 627 285 627 L264 627 C255 627 248 622 243 612 L198 521 L153 612 C148 622 141 627 132 627 L111 627 C101 627 96 622 96 612 L150 502 C157 489 165 485 173 485 L223 485 Z " />
<glyph glyph-name="Sacute" unicode="&#x15a;" horiz-adv-x="501" d="M82 21 C126 7 205 -5 241 -5 C397 -5 461 48 461 152 C461 387 104 269 104 433 C104 514 156 522 271 522 C285 522 338 516 389 511 C395 511 399 514 401 521 L401 544 C401 552 397 557 389 559 C340 567 275 572 264 572 C93 572 50 518 50 430 C50 216 407 340 407 157 C407 51 286 46 249 46 C222 46 144 54 88 73 C82 73 78 70 76 63 L70 36 C70 29 74 24 82 21 L82 21 Z M198 673 C196 670 195 667 195 665 C195 660 202 653 205 650 C210 645 211 642 223 642 C230 642 237 644 242 648 L334 726 C335 729 336 732 336 737 C336 743 334 748 331 753 L312 774 C309 776 304 777 298 777 C291 776 291 774 284 769 L198 673 Z " />
<glyph glyph-name="sacute" unicode="&#x15b;" horiz-adv-x="411" d="M77 16 C117 -3 185 -5 205 -5 C321 -5 371 34 371 109 C371 257 102 198 102 305 C102 352 149 361 222 361 C253 361 281 355 314 355 C320 355 324 358 326 365 L326 385 C326 393 322 398 314 400 C276 408 228 411 214 411 C90 411 48 370 48 303 C48 140 318 211 318 105 C318 46 239 46 203 46 C181 46 125 52 83 68 C77 68 73 65 71 58 L65 31 C65 24 69 19 77 16 L77 16 Z M126 516 C124 513 123 510 123 508 C123 503 130 496 133 493 C138 488 139 485 151 485 C158 485 165 487 170 491 L262 569 C263 572 264 575 264 580 C264 586 262 591 259 596 L240 617 C237 619 232 620 226 620 C219 619 219 617 212 612 L126 516 Z " />
<glyph glyph-name="Scircumflex" unicode="&#x15c;" horiz-adv-x="501" d="M82 21 C126 7 205 -5 241 -5 C397 -5 461 48 461 152 C461 387 104 269 104 433 C104 514 156 522 271 522 C285 522 338 516 389 511 C395 511 399 514 401 521 L401 544 C401 552 397 557 389 559 C340 567 275 572 264 572 C93 572 50 518 50 430 C50 216 407 340 407 157 C407 51 286 46 249 46 C222 46 144 54 88 73 C82 73 78 70 76 63 L70 36 C70 29 74 24 82 21 L82 21 Z M224 784 C216 784 208 780 201 767 L147 657 C147 647 152 642 162 642 L183 642 C192 642 199 647 204 657 L249 748 L294 657 C299 647 306 642 315 642 L336 642 C346 642 351 647 351 657 L297 767 C290 780 282 784 274 784 L224 784 Z " />
<glyph glyph-name="scircumflex" unicode="&#x15d;" horiz-adv-x="411" d="M77 16 C117 -3 185 -5 205 -5 C321 -5 371 34 371 109 C371 257 102 198 102 305 C102 352 149 361 222 361 C253 361 281 355 314 355 C320 355 324 358 326 365 L326 385 C326 393 322 398 314 400 C276 408 228 411 214 411 C90 411 48 370 48 303 C48 140 318 211 318 105 C318 46 239 46 203 46 C181 46 125 52 83 68 C77 68 73 65 71 58 L65 31 C65 24 69 19 77 16 L77 16 Z M181 627 C173 627 165 623 158 610 L104 500 C104 490 109 485 119 485 L140 485 C149 485 156 490 161 500 L206 591 L251 500 C256 490 263 485 272 485 L293 485 C303 485 308 490 308 500 L254 610 C247 623 239 627 231 627 L181 627 Z " />
<glyph glyph-name="Scedilla" unicode="&#x15e;" horiz-adv-x="501" d="M461 152 C461 387 104 269 104 433 C104 514 156 522 271 522 C285 522 338 516 389 511 C395 511 399 514 401 521 L401 544 C401 552 397 557 389 559 C340 567 275 572 264 572 C93 572 50 518 50 430 C50 216 407 340 407 157 C407 51 286 46 249 46 C222 46 144 54 88 73 C82 73 78 70 76 63 L70 36 C70 29 74 24 82 21 C123 8 199 -5 236 -5 C239 -21 240 -40 240 -55 C240 -94 227 -109 176 -109 C169 -109 155 -108 148 -107 C136 -107 132 -111 132 -127 L132 -151 C132 -154 165 -156 200 -156 C253 -156 293 -123 293 -47 C293 -38 292 -20 289 -3 C410 8 461 60 461 152 L461 152 Z " />
<glyph glyph-name="scedilla" unicode="&#x15f;" horiz-adv-x="411" d="M77 16 C117 -3 185 -5 207 -5 C211 -21 212 -39 212 -55 C212 -94 199 -109 148 -109 C141 -109 127 -108 120 -107 C108 -107 104 -111 104 -127 L104 -151 C104 -154 137 -156 172 -156 C225 -156 265 -123 265 -47 C265 -38 264 -20 261 -1 C337 11 371 48 371 109 C371 257 102 198 102 305 C102 352 149 361 222 361 C253 361 281 355 314 355 C320 355 324 358 326 365 L326 385 C326 393 322 398 314 400 C276 408 228 411 214 411 C90 411 48 370 48 303 C48 140 318 211 318 105 C318 46 239 46 203 46 C181 46 125 52 83 68 C77 68 73 65 71 58 L65 31 C65 24 69 19 77 16 L77 16 Z " />
<glyph glyph-name="Scaron" unicode="&#x160;" horiz-adv-x="501" d="M82 21 C126 7 205 -5 241 -5 C397 -5 461 48 461 152 C461 387 104 269 104 433 C104 514 156 522 271 522 C285 522 338 516 389 511 C395 511 399 514 401 521 L401 544 C401 552 397 557 389 559 C340 567 275 572 264 572 C93 572 50 518 50 430 C50 216 407 340 407 157 C407 51 286 46 249 46 C222 46 144 54 88 73 C82 73 78 70 76 63 L70 36 C70 29 74 24 82 21 L82 21 Z M269 642 C277 642 285 646 292 659 L346 769 C346 779 341 784 331 784 L310 784 C301 784 294 779 289 769 L244 678 L199 769 C194 779 187 784 178 784 L157 784 C147 784 142 779 142 769 L196 659 C203 646 211 642 219 642 L269 642 Z " />
<glyph glyph-name="scaron" unicode="&#x161;" horiz-adv-x="411" d="M77 16 C117 -3 185 -5 205 -5 C321 -5 371 34 371 109 C371 257 102 198 102 305 C102 352 149 361 222 361 C253 361 281 355 314 355 C320 355 324 358 326 365 L326 385 C326 393 322 398 314 400 C276 408 228 411 214 411 C90 411 48 370 48 303 C48 140 318 211 318 105 C318 46 239 46 203 46 C181 46 125 52 83 68 C77 68 73 65 71 58 L65 31 C65 24 69 19 77 16 L77 16 Z M231 485 C239 485 247 489 254 502 L308 612 C308 622 303 627 293 627 L272 627 C263 627 256 622 251 612 L206 521 L161 612 C156 622 149 627 140 627 L119 627 C109 627 104 622 104 612 L158 502 C165 489 173 485 181 485 L231 485 Z " />
<glyph glyph-name="uni0162" unicode="&#x162;" horiz-adv-x="461" d="M257 518 L411 518 C421 518 426 523 426 533 L426 553 C426 563 421 568 411 568 L50 568 C40 568 35 563 35 553 L35 533 C35 523 40 518 50 518 L203 518 L203 15 C203 5 208 0 218 0 L242 0 C252 0 257 5 257 15 L257 518 Z M183 -182 C183 -192 188 -197 198 -197 L207 -197 C234 -197 253 -101 256 -81 C256 -71 251 -66 241 -66 L218 -66 C208 -66 203 -71 203 -81 C203 -110 192 -153 186 -173 L183 -182 Z " />
<glyph glyph-name="uni0163" unicode="&#x163;" horiz-adv-x="376" d="M320 48 C313 47 304 46 296 46 C180 46 176 134 176 185 L176 355 L306 355 C316 355 321 360 321 370 L321 390 C321 400 316 405 306 405 L176 405 L176 553 C176 563 171 568 161 568 L145 568 C136 568 131 563 130 553 L120 405 L45 405 C35 405 30 400 30 390 L30 370 C30 360 35 355 45 355 L120 355 L120 212 C120 103 141 24 218 0 C221 -16 222 -40 222 -55 C222 -94 209 -109 158 -109 C151 -109 137 -108 130 -107 C118 -107 114 -111 114 -127 L114 -151 C114 -154 147 -156 182 -156 C235 -156 275 -123 275 -47 C275 -39 273 -23 272 -8 L277 -8 C290 -8 318 -6 334 -3 C342 0 346 5 346 12 L340 38 C338 45 334 49 327 49 C325 49 323 49 320 48 L320 48 Z " />
<glyph glyph-name="Tcaron" unicode="&#x164;" horiz-adv-x="461" d="M257 518 L411 518 C421 518 426 523 426 533 L426 553 C426 563 421 568 411 568 L50 568 C40 568 35 563 35 553 L35 533 C35 523 40 518 50 518 L203 518 L203 15 C203 5 208 0 218 0 L242 0 C252 0 257 5 257 15 L257 518 Z M255 642 C263 642 271 646 278 659 L332 769 C332 779 327 784 317 784 L296 784 C287 784 280 779 275 769 L230 678 L185 769 C180 779 173 784 164 784 L143 784 C133 784 128 779 128 769 L182 659 C189 646 197 642 205 642 L255 642 Z " />
<glyph glyph-name="tcaron" unicode="&#x165;" horiz-adv-x="392" d="M320 48 C313 47 304 46 296 46 C180 46 176 134 176 185 L176 355 L306 355 C316 355 321 360 321 370 L321 390 C321 400 316 405 306 405 L176 405 L176 553 C176 563 171 568 161 568 L145 568 C136 568 131 563 130 553 L120 405 L45 405 C35 405 30 400 30 390 L30 370 C30 360 35 355 45 355 L120 355 L120 212 C120 80 149 -8 277 -8 C290 -8 318 -6 334 -3 C342 0 346 5 346 12 L340 38 C338 45 334 49 327 49 C325 49 323 49 320 48 L320 48 Z M279 452 C279 442 284 437 294 437 L307 437 C315 437 320 442 322 452 L362 553 C362 563 357 568 347 568 L323 568 C313 568 308 563 308 553 L279 452 Z " />
<glyph glyph-name="Tbar" unicode="&#x166;" horiz-adv-x="461" d="M345 256 C355 256 360 261 360 271 L360 291 C360 301 355 306 345 306 L257 306 L257 518 L411 518 C421 518 426 523 426 533 L426 553 C426 563 421 568 411 568 L50 568 C40 568 35 563 35 553 L35 533 C35 523 40 518 50 518 L203 518 L203 306 L115 306 C105 306 100 301 100 291 L100 271 C100 261 105 256 115 256 L203 256 L203 15 C203 5 208 0 218 0 L242 0 C252 0 257 5 257 15 L257 256 L345 256 Z " />
<glyph glyph-name="tbar" unicode="&#x167;" horiz-adv-x="386" d="M316 199 C326 199 331 204 331 214 L331 234 C331 244 326 249 316 249 L186 249 L186 355 L316 355 C326 355 331 360 331 370 L331 390 C331 400 326 405 316 405 L186 405 L186 553 C186 563 181 568 171 568 L155 568 C146 568 141 563 140 553 L130 405 L55 405 C45 405 40 400 40 390 L40 370 C40 360 45 355 55 355 L130 355 L130 249 L55 249 C45 249 40 244 40 234 L40 214 C40 204 45 199 55 199 L130 199 C133 75 164 -8 287 -8 C300 -8 328 -6 344 -3 C352 0 356 5 356 12 L350 38 C348 45 344 49 337 49 C335 49 333 49 330 48 C323 47 314 46 306 46 C190 46 186 134 186 185 L186 199 L316 199 Z " />
<glyph glyph-name="Utilde" unicode="&#x168;" horiz-adv-x="560" d="M280 -5 C412 -5 495 34 495 254 L495 553 C495 563 490 568 480 568 L456 568 C446 568 441 563 441 553 L441 260 C441 55 355 46 280 46 C205 46 119 55 119 260 L119 553 C119 563 114 568 104 568 L80 568 C70 568 65 563 65 553 L65 254 C65 34 148 -5 280 -5 L280 -5 Z M357 642 C376 642 401 648 424 663 C427 665 428 668 428 672 C428 675 427 678 426 679 L416 696 C413 699 410 701 405 701 C400 701 400 701 393 698 C382 693 368 692 357 692 C304 692 257 724 205 724 C186 724 161 718 138 703 C135 701 134 698 134 694 C134 691 135 688 136 687 L146 670 C149 667 152 665 157 665 C162 665 162 665 169 668 C180 673 194 674 205 674 C259 674 304 642 357 642 L357 642 Z " />
<glyph glyph-name="utilde" unicode="&#x169;" horiz-adv-x="464" d="M109 390 C109 400 104 405 94 405 L70 405 C60 405 55 400 55 390 L55 166 C55 36 109 -5 240 -5 C267 -5 334 2 392 42 C397 45 399 50 399 55 L399 390 C399 400 394 405 384 405 L360 405 C350 405 345 400 345 390 L345 78 C303 46 256 46 238 46 C133 46 109 65 109 194 L109 390 Z M301 485 C320 485 345 491 368 506 C371 508 372 511 372 515 C372 518 371 521 370 522 L360 539 C357 542 354 544 349 544 C344 544 344 544 337 541 C326 536 312 535 301 535 C248 535 201 567 149 567 C130 567 105 561 82 546 C79 544 78 541 78 537 C78 534 79 531 80 530 L90 513 C93 510 96 508 101 508 C106 508 106 508 113 511 C124 516 138 517 149 517 C203 517 248 485 301 485 L301 485 Z " />
<glyph glyph-name="Umacron" unicode="&#x16a;" horiz-adv-x="560" d="M280 -5 C412 -5 495 34 495 254 L495 553 C495 563 490 568 480 568 L456 568 C446 568 441 563 441 553 L441 260 C441 55 355 46 280 46 C205 46 119 55 119 260 L119 553 C119 563 114 568 104 568 L80 568 C70 568 65 563 65 553 L65 254 C65 34 148 -5 280 -5 L280 -5 Z M165 642 C155 642 150 647 150 657 L150 677 C150 687 155 692 165 692 L398 692 C408 692 413 687 413 677 L413 657 C413 647 408 642 398 642 L165 642 Z " />
<glyph glyph-name="umacron" unicode="&#x16b;" horiz-adv-x="464" d="M109 390 C109 400 104 405 94 405 L70 405 C60 405 55 400 55 390 L55 166 C55 36 109 -5 240 -5 C267 -5 334 2 392 42 C397 45 399 50 399 55 L399 390 C399 400 394 405 384 405 L360 405 C350 405 345 400 345 390 L345 78 C303 46 256 46 238 46 C133 46 109 65 109 194 L109 390 Z M118 485 C108 485 103 490 103 500 L103 520 C103 530 108 535 118 535 L351 535 C361 535 366 530 366 520 L366 500 C366 490 361 485 351 485 L118 485 Z " />
<glyph glyph-name="Ubreve" unicode="&#x16c;" horiz-adv-x="560" d="M280 -5 C412 -5 495 34 495 254 L495 553 C495 563 490 568 480 568 L456 568 C446 568 441 563 441 553 L441 260 C441 55 355 46 280 46 C205 46 119 55 119 260 L119 553 C119 563 114 568 104 568 L80 568 C70 568 65 563 65 553 L65 254 C65 34 148 -5 280 -5 L280 -5 Z M281 642 C196 642 137 672 126 759 C126 769 131 774 141 774 L165 774 C174 774 179 769 180 759 C185 706 238 692 281 692 C324 692 377 706 382 759 C383 769 388 774 397 774 L421 774 C431 774 436 769 436 759 C425 672 366 642 281 642 L281 642 Z " />
<glyph glyph-name="ubreve" unicode="&#x16d;" horiz-adv-x="464" d="M109 390 C109 400 104 405 94 405 L70 405 C60 405 55 400 55 390 L55 166 C55 36 109 -5 240 -5 C267 -5 334 2 392 42 C397 45 399 50 399 55 L399 390 C399 400 394 405 384 405 L360 405 C350 405 345 400 345 390 L345 78 C303 46 256 46 238 46 C133 46 109 65 109 194 L109 390 Z M225 485 C140 485 81 515 70 602 C70 612 75 617 85 617 L109 617 C118 617 123 612 124 602 C129 549 182 535 225 535 C268 535 321 549 326 602 C327 612 332 617 341 617 L365 617 C375 617 380 612 380 602 C369 515 310 485 225 485 L225 485 Z " />
<glyph glyph-name="Uring" unicode="&#x16e;" horiz-adv-x="560" d="M280 -5 C412 -5 495 34 495 254 L495 553 C495 563 490 568 480 568 L456 568 C446 568 441 563 441 553 L441 260 C441 55 355 46 280 46 C205 46 119 55 119 260 L119 553 C119 563 114 568 104 568 L80 568 C70 568 65 563 65 553 L65 254 C65 34 148 -5 280 -5 L280 -5 Z M281 683 C265 683 231 692 231 737 C231 780 265 791 281 791 C297 791 331 780 331 737 C331 692 297 683 281 683 L281 683 Z M281 642 C334 642 372 670 372 737 C372 801 334 832 281 832 C228 832 191 801 191 737 C191 670 228 642 281 642 L281 642 Z " />
<glyph glyph-name="uring" unicode="&#x16f;" horiz-adv-x="464" d="M109 390 C109 400 104 405 94 405 L70 405 C60 405 55 400 55 390 L55 166 C55 36 109 -5 240 -5 C267 -5 334 2 392 42 C397 45 399 50 399 55 L399 390 C399 400 394 405 384 405 L360 405 C350 405 345 400 345 390 L345 78 C303 46 256 46 238 46 C133 46 109 65 109 194 L109 390 Z M238 526 C222 526 188 535 188 580 C188 623 222 634 238 634 C254 634 288 623 288 580 C288 535 254 526 238 526 L238 526 Z M238 485 C291 485 329 513 329 580 C329 644 291 675 238 675 C185 675 148 644 148 580 C148 513 185 485 238 485 L238 485 Z " />
<glyph glyph-name="Uhungarumlaut" unicode="&#x170;" horiz-adv-x="560" d="M280 -5 C412 -5 495 34 495 254 L495 553 C495 563 490 568 480 568 L456 568 C446 568 441 563 441 553 L441 260 C441 55 355 46 280 46 C205 46 119 55 119 260 L119 553 C119 563 114 568 104 568 L80 568 C70 568 65 563 65 553 L65 254 C65 34 148 -5 280 -5 L280 -5 Z M187 657 C187 647 192 642 202 642 L215 642 C224 642 227 646 230 657 L259 758 C259 768 254 773 244 773 L220 773 C212 773 207 768 205 758 L187 657 Z M332 657 C332 647 337 642 347 642 L360 642 C369 642 372 646 375 657 L404 758 C404 768 399 773 389 773 L365 773 C357 773 352 768 350 758 L332 657 Z " />
<glyph glyph-name="uhungarumlaut" unicode="&#x171;" horiz-adv-x="464" d="M109 390 C109 400 104 405 94 405 L70 405 C60 405 55 400 55 390 L55 166 C55 36 109 -5 240 -5 C267 -5 334 2 392 42 C397 45 399 50 399 55 L399 390 C399 400 394 405 384 405 L360 405 C350 405 345 400 345 390 L345 78 C303 46 256 46 238 46 C133 46 109 65 109 194 L109 390 Z M142 500 C142 490 147 485 157 485 L170 485 C179 485 182 489 185 500 L214 601 C214 611 209 616 199 616 L175 616 C167 616 162 611 160 601 L142 500 Z M287 500 C287 490 292 485 302 485 L315 485 C324 485 327 489 330 500 L359 601 C359 611 354 616 344 616 L320 616 C312 616 307 611 305 601 L287 500 Z " />
<glyph glyph-name="Uogonek" unicode="&#x172;" horiz-adv-x="560" d="M495 254 L495 553 C495 563 490 568 480 568 L456 568 C446 568 441 563 441 553 L441 260 C441 55 355 46 280 46 C205 46 119 55 119 260 L119 553 C119 563 114 568 104 568 L80 568 C70 568 65 563 65 553 L65 254 C65 49 137 1 255 -4 C254 -20 253 -40 253 -47 C253 -123 293 -156 346 -156 C381 -156 414 -154 414 -151 L414 -127 C414 -111 410 -107 398 -107 C391 -108 377 -109 370 -109 C319 -109 306 -94 306 -55 C306 -40 306 -20 309 -4 C424 1 495 51 495 254 L495 254 Z " />
<glyph glyph-name="uogonek" unicode="&#x173;" horiz-adv-x="464" d="M208 -4 C207 -20 206 -40 206 -47 C206 -123 246 -156 299 -156 C334 -156 367 -154 367 -151 L367 -127 C367 -111 363 -107 351 -107 C344 -108 330 -109 323 -109 C272 -109 259 -94 259 -55 C259 -40 259 -20 262 -4 C294 -1 345 10 392 42 C397 45 399 50 399 55 L399 390 C399 400 394 405 384 405 L360 405 C350 405 345 400 345 390 L345 78 C303 46 256 46 238 46 C133 46 109 65 109 194 L109 390 C109 400 104 405 94 405 L70 405 C60 405 55 400 55 390 L55 166 C55 47 101 3 208 -4 L208 -4 Z " />
<glyph glyph-name="Ydieresis" unicode="&#x178;" horiz-adv-x="500" d="M161 674 C161 655 174 642 193 642 C212 642 225 655 225 674 C225 693 212 706 193 706 C174 706 161 693 161 674 L161 674 Z M279 674 C279 655 292 642 311 642 C330 642 343 655 343 674 C343 693 330 706 311 706 C292 706 279 693 279 674 L279 674 Z M278 154 L470 553 C470 563 465 568 455 568 L431 568 C423 568 417 563 412 553 L251 223 L88 553 C83 563 76 568 69 568 L45 568 C35 568 30 563 30 553 L224 154 L224 15 C224 5 229 0 239 0 L263 0 C273 0 278 5 278 15 L278 154 Z " />
<glyph glyph-name="Zacute" unicode="&#x179;" horiz-adv-x="445" d="M35 55 L35 15 C35 5 40 0 50 0 L395 0 C405 0 410 5 410 15 L410 35 C410 45 405 50 395 50 L94 50 L410 516 L410 553 C410 563 405 568 395 568 L50 568 C40 568 35 563 35 553 L35 533 C35 523 40 518 50 518 L349 518 L35 55 Z M164 673 C162 670 161 667 161 665 C161 660 168 653 171 650 C176 645 177 642 189 642 C196 642 203 644 208 648 L300 726 C301 729 302 732 302 737 C302 743 300 748 297 753 L278 774 C275 776 270 777 264 777 C257 776 257 774 250 769 L164 673 Z " />
<glyph glyph-name="zacute" unicode="&#x17a;" horiz-adv-x="396" d="M45 58 L45 15 C45 5 50 0 60 0 L336 0 C346 0 351 5 351 15 L351 35 C351 45 346 50 336 50 L104 50 L351 353 L351 390 C351 400 346 405 336 405 L60 405 C50 405 45 400 45 390 L45 370 C45 360 50 355 60 355 L285 355 L45 58 Z M152 516 C150 513 149 510 149 508 C149 503 156 496 159 493 C164 488 165 485 177 485 C184 485 191 487 196 491 L288 569 C289 572 290 575 290 580 C290 586 288 591 285 596 L266 617 C263 619 258 620 252 620 C245 619 245 617 238 612 L152 516 Z " />
<glyph glyph-name="Zdotaccent" unicode="&#x17b;" horiz-adv-x="445" d="M35 55 L35 15 C35 5 40 0 50 0 L395 0 C405 0 410 5 410 15 L410 35 C410 45 405 50 395 50 L94 50 L410 516 L410 553 C410 563 405 568 395 568 L50 568 C40 568 35 563 35 553 L35 533 C35 523 40 518 50 518 L349 518 L35 55 Z M193 674 C193 655 206 642 225 642 C244 642 257 655 257 674 C257 693 244 706 225 706 C206 706 193 693 193 674 L193 674 Z " />
<glyph glyph-name="zdotaccent" unicode="&#x17c;" horiz-adv-x="396" d="M45 58 L45 15 C45 5 50 0 60 0 L336 0 C346 0 351 5 351 15 L351 35 C351 45 346 50 336 50 L104 50 L351 353 L351 390 C351 400 346 405 336 405 L60 405 C50 405 45 400 45 390 L45 370 C45 360 50 355 60 355 L285 355 L45 58 Z M204 526 C188 526 154 535 154 580 C154 623 188 634 204 634 C220 634 254 623 254 580 C254 535 220 526 204 526 L204 526 Z M204 485 C257 485 295 513 295 580 C295 644 257 675 204 675 C151 675 114 644 114 580 C114 513 151 485 204 485 L204 485 Z " />
<glyph glyph-name="Zcaron" unicode="&#x17d;" horiz-adv-x="445" d="M35 55 L35 15 C35 5 40 0 50 0 L395 0 C405 0 410 5 410 15 L410 35 C410 45 405 50 395 50 L94 50 L410 516 L410 553 C410 563 405 568 395 568 L50 568 C40 568 35 563 35 553 L35 533 C35 523 40 518 50 518 L349 518 L35 55 Z M257 642 C265 642 273 646 280 659 L334 769 C334 779 329 784 319 784 L298 784 C289 784 282 779 277 769 L232 678 L187 769 C182 779 175 784 166 784 L145 784 C135 784 130 779 130 769 L184 659 C191 646 199 642 207 642 L257 642 Z " />
<glyph glyph-name="zcaron" unicode="&#x17e;" horiz-adv-x="396" d="M45 58 L45 15 C45 5 50 0 60 0 L336 0 C346 0 351 5 351 15 L351 35 C351 45 346 50 336 50 L104 50 L351 353 L351 390 C351 400 346 405 336 405 L60 405 C50 405 45 400 45 390 L45 370 C45 360 50 355 60 355 L285 355 L45 58 Z M240 485 C248 485 256 489 263 502 L317 612 C317 622 312 627 302 627 L281 627 C272 627 265 622 260 612 L215 521 L170 612 C165 622 158 627 149 627 L128 627 C118 627 113 622 113 612 L167 502 C174 489 182 485 190 485 L240 485 Z " />
<glyph glyph-name="florin" unicode="&#x192;" horiz-adv-x="350" d="M-41 -198 C-22 -201 3 -202 19 -202 C147 -202 174 -129 174 5 L174 355 L301 355 C311 355 316 360 316 370 L316 390 C316 400 311 405 301 405 L174 405 L174 451 C174 502 176 566 293 566 C308 566 316 563 323 563 C330 563 335 567 337 574 L340 596 C340 604 336 609 328 611 C313 614 287 616 276 616 C160 616 120 560 120 436 L120 405 L45 405 C35 405 30 400 30 390 L30 370 C30 360 35 355 45 355 L120 355 L120 -4 C120 -56 118 -152 14 -152 C10 -152 -19 -149 -38 -146 C-43 -146 -47 -150 -50 -157 L-53 -183 C-53 -191 -49 -196 -41 -198 L-41 -198 Z " />
<glyph glyph-name="uni0218" unicode="&#x218;" horiz-adv-x="501" d="M82 21 C126 7 205 -5 241 -5 C397 -5 461 48 461 152 C461 387 104 269 104 433 C104 514 156 522 271 522 C285 522 338 516 389 511 C395 511 399 514 401 521 L401 544 C401 552 397 557 389 559 C340 567 275 572 264 572 C93 572 50 518 50 430 C50 216 407 340 407 157 C407 51 286 46 249 46 C222 46 144 54 88 73 C82 73 78 70 76 63 L70 36 C70 29 74 24 82 21 L82 21 Z M239 -173 C245 -153 256 -110 256 -81 C256 -71 261 -66 271 -66 L294 -66 C304 -66 309 -71 309 -81 C306 -101 287 -197 260 -197 L251 -197 C241 -197 236 -192 236 -182 L239 -173 Z " />
<glyph glyph-name="uni0219" unicode="&#x219;" horiz-adv-x="411" d="M77 16 C117 -3 185 -5 205 -5 C321 -5 371 34 371 109 C371 257 102 198 102 305 C102 352 149 361 222 361 C253 361 281 355 314 355 C320 355 324 358 326 365 L326 385 C326 393 322 398 314 400 C276 408 228 411 214 411 C90 411 48 370 48 303 C48 140 318 211 318 105 C318 46 239 46 203 46 C181 46 125 52 83 68 C77 68 73 65 71 58 L65 31 C65 24 69 19 77 16 L77 16 Z M178 -173 C184 -153 195 -110 195 -81 C195 -71 200 -66 210 -66 L233 -66 C243 -66 248 -71 248 -81 C245 -101 226 -197 199 -197 L190 -197 C180 -197 175 -192 175 -182 L178 -173 Z " />
<glyph glyph-name="uni021A" unicode="&#x21a;" horiz-adv-x="461" d="M257 518 L411 518 C421 518 426 523 426 533 L426 553 C426 563 421 568 411 568 L50 568 C40 568 35 563 35 553 L35 533 C35 523 40 518 50 518 L203 518 L203 15 C203 5 208 0 218 0 L242 0 C252 0 257 5 257 15 L257 518 Z M185 -182 C185 -192 190 -197 200 -197 L209 -197 C236 -197 255 -101 258 -81 C258 -71 253 -66 243 -66 L220 -66 C210 -66 205 -71 205 -81 C205 -110 194 -153 188 -173 L185 -182 Z " />
<glyph glyph-name="uni021B" unicode="&#x21b;" horiz-adv-x="376" d="M320 48 C313 47 304 46 296 46 C180 46 176 134 176 185 L176 355 L306 355 C316 355 321 360 321 370 L321 390 C321 400 316 405 306 405 L176 405 L176 553 C176 563 171 568 161 568 L145 568 C136 568 131 563 130 553 L120 405 L45 405 C35 405 30 400 30 390 L30 370 C30 360 35 355 45 355 L120 355 L120 212 C120 80 149 -8 277 -8 C290 -8 318 -6 334 -3 C342 0 346 5 346 12 L340 38 C338 45 334 49 327 49 C325 49 323 49 320 48 L320 48 Z M185 -182 C185 -192 190 -197 200 -197 L209 -197 C236 -197 255 -101 258 -81 C258 -71 253 -66 243 -66 L220 -66 C210 -66 205 -71 205 -81 C205 -110 194 -153 188 -173 L185 -182 Z " />
<glyph glyph-name="circumflex" unicode="&#x2c6;" horiz-adv-x="334" d="M142 568 C134 568 126 564 119 551 L65 441 C65 431 70 426 80 426 L101 426 C110 426 117 431 122 441 L167 532 L212 441 C217 431 224 426 233 426 L254 426 C264 426 269 431 269 441 L215 551 C208 564 200 568 192 568 L142 568 Z " />
<glyph glyph-name="caron" unicode="&#x2c7;" horiz-adv-x="334" d="M192 426 C200 426 208 430 215 443 L269 553 C269 563 264 568 254 568 L233 568 C224 568 217 563 212 553 L167 462 L122 553 C117 563 110 568 101 568 L80 568 C70 568 65 563 65 553 L119 443 C126 430 134 426 142 426 L192 426 Z " />
<glyph glyph-name="breve" unicode="&#x2d8;" horiz-adv-x="440" d="M220 436 C305 436 364 466 375 553 C375 563 370 568 360 568 L336 568 C327 568 322 563 321 553 C316 500 263 486 220 486 C177 486 124 500 119 553 C118 563 113 568 104 568 L80 568 C70 568 65 563 65 553 C76 466 135 436 220 436 L220 436 Z " />
<glyph glyph-name="dotaccent" unicode="&#x2d9;" horiz-adv-x="194" d="M65 540 C65 521 78 508 97 508 C116 508 129 521 129 540 C129 559 116 572 97 572 C78 572 65 559 65 540 L65 540 Z " />
<glyph glyph-name="ring" unicode="&#x2da;" horiz-adv-x="311" d="M155 423 C139 423 105 432 105 477 C105 520 139 531 155 531 C171 531 205 520 205 477 C205 432 171 423 155 423 L155 423 Z M155 382 C208 382 246 410 246 477 C246 541 208 572 155 572 C102 572 65 541 65 477 C65 410 102 382 155 382 L155 382 Z " />
<glyph glyph-name="ogonek" unicode="&#x2db;" horiz-adv-x="291" d="M66 -20 C65 -35 65 -39 65 -46 C65 -122 105 -155 158 -155 C193 -155 226 -153 226 -150 L226 -126 C226 -110 222 -106 210 -106 C203 -107 189 -108 182 -108 C131 -108 118 -93 118 -54 L118 -20 C118 -10 113 -5 103 -5 L81 -5 C71 -5 66 -10 66 -20 L66 -20 Z " />
<glyph glyph-name="tilde" unicode="&#x2dc;" horiz-adv-x="424" d="M288 490 C307 490 332 496 355 511 C358 513 359 516 359 520 C359 523 358 526 357 527 L347 544 C344 547 341 549 336 549 C331 549 331 549 324 546 C313 541 299 540 288 540 C235 540 188 572 136 572 C117 572 92 566 69 551 C66 549 65 546 65 542 C65 539 66 536 67 535 L77 518 C80 515 83 513 88 513 C93 513 93 513 100 516 C111 521 125 522 136 522 C190 522 235 490 288 490 L288 490 Z " />
<glyph glyph-name="hungarumlaut" unicode="&#x2dd;" horiz-adv-x="347" d="M65 452 C65 442 70 437 80 437 L93 437 C102 437 105 441 108 452 L137 553 C137 563 132 568 122 568 L98 568 C90 568 85 563 83 553 L65 452 Z M210 452 C210 442 215 437 225 437 L238 437 C247 437 250 441 253 452 L282 553 C282 563 277 568 267 568 L243 568 C235 568 230 563 228 553 L210 452 Z " />
<glyph glyph-name="uni03A9" unicode="&#x3a9;" horiz-adv-x="712" d="M356 522 C408 522 547 519 547 280 C547 220 537 116 510 52 C509 49 508 47 508 45 L508 12 C508 4 511 0 518 0 L632 0 C642 0 647 5 647 15 L647 34 C647 44 642 49 632 49 L561 49 C595 139 601 248 601 280 C601 516 481 572 356 572 C231 572 111 516 111 280 C111 248 117 139 151 49 L80 49 C70 49 65 44 65 34 L65 15 C65 5 70 0 80 0 L194 0 C201 0 204 4 204 12 L204 45 C204 47 203 49 202 52 C173 115 165 221 165 280 C165 519 304 522 356 522 L356 522 Z " />
<glyph glyph-name="pi" unicode="&#x3c0;" horiz-adv-x="711" d="M480 15 C480 5 485 0 495 0 L519 0 C529 0 534 5 534 15 L534 355 L631 355 C641 355 646 360 646 370 L646 390 C646 400 641 405 631 405 L80 405 C70 405 65 400 65 390 L65 370 C65 360 70 355 80 355 L177 355 L177 15 C177 5 182 0 192 0 L216 0 C226 0 231 5 231 15 L231 355 L480 355 L480 15 Z " />
<glyph glyph-name="ZWSP" unicode="&#x200b;" d="" />
<glyph glyph-name="endash" unicode="&#x2013;" horiz-adv-x="393" d="M313 162 C323 162 328 167 328 177 L328 197 C328 207 323 212 313 212 L80 212 C70 212 65 207 65 197 L65 177 C65 167 70 162 80 162 L313 162 Z " />
<glyph glyph-name="emdash" unicode="&#x2014;" horiz-adv-x="496" d="M416 162 C426 162 431 167 431 177 L431 197 C431 207 426 212 416 212 L80 212 C70 212 65 207 65 197 L65 177 C65 167 70 162 80 162 L416 162 Z " />
<glyph glyph-name="quoteleft" unicode="&#x2018;" horiz-adv-x="204" d="M139 553 C139 563 134 568 124 568 L115 568 C88 568 68 468 65 448 C65 438 70 433 80 433 L103 433 C113 433 118 438 118 448 C118 476 131 525 136 544 L139 553 Z " />
<glyph glyph-name="quoteright" unicode="&#x2019;" horiz-adv-x="204" d="M65 448 C65 438 70 433 80 433 L89 433 C115 433 136 533 139 553 C139 563 134 568 124 568 L101 568 C91 568 86 563 86 553 C86 524 73 476 68 457 L65 448 Z " />
<glyph glyph-name="quotesinglbase" unicode="&#x201a;" horiz-adv-x="204" d="M65 -114 C65 -124 70 -129 80 -129 L89 -129 C115 -129 136 -29 139 -9 C139 1 134 6 124 6 L101 6 C91 6 86 1 86 -9 C86 -38 73 -86 68 -105 L65 -114 Z " />
<glyph glyph-name="quotedblleft" unicode="&#x201c;" horiz-adv-x="329" d="M139 553 C139 563 134 568 124 568 L115 568 C88 568 68 468 65 448 C65 438 70 433 80 433 L103 433 C113 433 118 438 118 448 C118 476 131 525 136 544 L139 553 Z M264 553 C264 563 259 568 249 568 L240 568 C213 568 193 468 190 448 C190 438 195 433 205 433 L228 433 C238 433 243 438 243 448 C243 476 256 525 261 544 L264 553 Z " />
<glyph glyph-name="quotedblright" unicode="&#x201d;" horiz-adv-x="329" d="M190 448 C190 438 195 433 205 433 L214 433 C240 433 261 533 264 553 C264 563 259 568 249 568 L226 568 C216 568 211 563 211 553 C211 524 198 476 193 457 L190 448 Z M65 448 C65 438 70 433 80 433 L89 433 C115 433 136 533 139 553 C139 563 134 568 124 568 L101 568 C91 568 86 563 86 553 C86 524 73 476 68 457 L65 448 Z " />
<glyph glyph-name="quotedblbase" unicode="&#x201e;" horiz-adv-x="329" d="M190 -114 C190 -124 195 -129 205 -129 L214 -129 C240 -129 261 -29 264 -9 C264 1 259 6 249 6 L226 6 C216 6 211 1 211 -9 C211 -38 198 -86 193 -105 L190 -114 Z M65 -114 C65 -124 70 -129 80 -129 L89 -129 C115 -129 136 -29 139 -9 C139 1 134 6 124 6 L101 6 C91 6 86 1 86 -9 C86 -38 73 -86 68 -105 L65 -114 Z " />
<glyph glyph-name="dagger" unicode="&#x2020;" horiz-adv-x="386" d="M220 553 C220 563 215 568 205 568 L181 568 C171 568 166 563 166 553 L166 405 L80 405 C70 405 65 400 65 390 L65 370 C65 360 70 355 80 355 L166 355 L166 -181 C166 -191 171 -196 181 -196 L205 -196 C215 -196 220 -191 220 -181 L220 355 L306 355 C316 355 321 360 321 370 L321 390 C321 400 316 405 306 405 L220 405 L220 553 Z " />
<glyph glyph-name="daggerdbl" unicode="&#x2021;" horiz-adv-x="386" d="M306 0 C316 0 321 5 321 15 L321 35 C321 45 316 50 306 50 L220 50 L220 355 L306 355 C316 355 321 360 321 370 L321 390 C321 400 316 405 306 405 L220 405 L220 553 C220 563 215 568 205 568 L181 568 C171 568 166 563 166 553 L166 405 L80 405 C70 405 65 400 65 390 L65 370 C65 360 70 355 80 355 L166 355 L166 50 L80 50 C70 50 65 45 65 35 L65 15 C65 5 70 0 80 0 L166 0 L166 -181 C166 -191 171 -196 181 -196 L205 -196 C215 -196 220 -191 220 -181 L220 0 L306 0 Z " />
<glyph glyph-name="bullet" unicode="&#x2022;" horiz-adv-x="194" d="M65 163 C65 144 78 131 97 131 C116 131 129 144 129 163 C129 182 116 195 97 195 C78 195 65 182 65 163 L65 163 Z " />
<glyph glyph-name="ellipsis" unicode="&#x2026;" horiz-adv-x="612" d="M65 27 C65 8 78 -5 97 -5 C116 -5 129 8 129 27 C129 46 116 59 97 59 C78 59 65 46 65 27 L65 27 Z M274 27 C274 8 287 -5 306 -5 C325 -5 338 8 338 27 C338 46 325 59 306 59 C287 59 274 46 274 27 L274 27 Z M483 27 C483 8 496 -5 515 -5 C534 -5 547 8 547 27 C547 46 534 59 515 59 C496 59 483 46 483 27 L483 27 Z " />
<glyph glyph-name="perthousand" unicode="&#x2030;" horiz-adv-x="937" d="M175 388 C154 388 111 399 111 456 C111 512 154 525 175 525 C196 525 238 512 238 456 C238 399 196 388 175 388 L175 388 Z M175 341 C239 341 285 376 285 456 C285 536 239 572 175 572 C110 572 65 536 65 456 C65 376 110 341 175 341 L175 341 Z M186 17 C186 6 192 0 203 0 L224 0 C235 0 241 8 244 17 L478 551 C478 562 472 568 461 568 L440 568 C429 568 423 560 420 551 L186 17 Z M488 38 C467 38 425 49 425 106 C425 162 467 175 488 175 C509 175 552 162 552 106 C552 49 509 38 488 38 L488 38 Z M488 -9 C553 -9 598 26 598 106 C598 186 553 222 488 222 C424 222 378 186 378 106 C378 26 424 -9 488 -9 L488 -9 Z M762 38 C741 38 699 49 699 106 C699 162 741 175 762 175 C783 175 826 162 826 106 C826 49 783 38 762 38 L762 38 Z M762 -9 C827 -9 872 26 872 106 C872 186 827 222 762 222 C698 222 652 186 652 106 C652 26 698 -9 762 -9 L762 -9 Z " />
<glyph glyph-name="guilsinglleft" unicode="&#x2039;" horiz-adv-x="401" d="M65 177 C65 169 72 162 80 158 L323 44 C332 44 336 48 336 57 L336 85 C336 93 330 98 323 101 L101 203 L323 305 C330 308 336 313 336 321 L336 349 C336 358 332 362 323 362 L80 248 C72 244 65 237 65 229 L65 177 Z " />
<glyph glyph-name="guilsinglright" unicode="&#x203a;" horiz-adv-x="401" d="M336 229 C336 237 329 244 321 248 L78 362 C69 362 65 358 65 349 L65 321 C65 313 71 308 78 305 L300 203 L78 101 C71 98 65 93 65 85 L65 57 C65 48 69 44 78 44 L321 158 C329 162 336 169 336 177 L336 229 Z " />
<glyph glyph-name="fraction" unicode="&#x2044;" horiz-adv-x="415" d="M40 -131 C40 -142 46 -148 57 -148 L75 -148 C86 -148 92 -140 95 -131 L375 691 C375 702 369 708 358 708 L340 708 C329 708 323 700 320 691 L40 -131 Z " />
<glyph glyph-name="Euro" unicode="&#x20ac;" horiz-adv-x="598" d="M527 59 C525 66 520 70 513 70 C510 70 508 70 507 69 C469 55 421 46 397 46 C343 46 254 64 216 172 L313 172 C323 172 328 177 328 187 L328 207 C328 217 323 222 313 222 L204 222 C201 241 200 259 200 280 C200 307 201 328 204 349 L313 349 C323 349 328 354 328 364 L328 384 C328 394 323 399 313 399 L216 399 C253 522 356 522 409 522 C430 522 469 514 506 501 C507 500 509 500 512 500 C519 500 524 504 526 511 L532 533 C532 541 528 546 520 548 C481 564 436 572 397 572 C289 572 194 535 159 399 L80 399 C70 399 65 394 65 384 L65 364 C65 354 70 349 80 349 L150 349 C147 328 146 305 146 280 C146 259 147 240 149 222 L80 222 C70 222 65 217 65 207 L65 187 C65 177 70 172 80 172 L158 172 C193 40 290 -5 397 -5 C433 -5 484 2 521 18 C529 20 533 25 533 33 L527 59 Z " />
<glyph glyph-name="Numero" unicode="&#x2116;" horiz-adv-x="1058" d="M80 568 C70 568 65 563 65 553 L65 15 C65 5 70 0 80 0 L104 0 C114 0 119 5 119 15 L119 504 L420 13 C427 1 438 0 441 0 L483 0 C493 0 498 5 498 15 L498 553 C498 563 493 568 483 568 L459 568 C449 568 444 563 444 553 L444 76 L151 555 C144 566 134 568 131 568 L80 568 Z M796 176 C667 176 653 269 653 336 C653 405 680 491 796 491 C912 491 939 405 939 336 C939 269 925 176 796 176 L796 176 Z M796 125 C929 125 993 204 993 337 C993 460 929 541 796 541 C663 541 599 460 599 337 C599 204 663 125 796 125 L796 125 Z M978 0 C988 0 993 5 993 15 L993 35 C993 45 988 50 978 50 L613 50 C603 50 598 45 598 35 L598 15 C598 5 603 0 613 0 L978 0 Z " />
<glyph glyph-name="trademark" unicode="&#x2122;" horiz-adv-x="692" d="M198 521 L269 521 C278 521 282 525 282 534 L282 555 C282 564 278 568 269 568 L78 568 C69 568 65 564 65 555 L65 534 C65 525 69 521 78 521 L148 521 L148 269 C148 260 152 256 161 256 L185 256 C194 256 198 260 198 269 L198 521 Z M496 371 C501 371 506 376 509 380 L571 498 L581 269 C581 260 585 256 594 256 L613 256 C620 256 627 262 627 269 L625 305 C622 341 619 412 612 555 C611 564 606 568 599 568 L558 568 C553 568 549 566 547 561 L474 419 L401 561 C398 566 395 568 390 568 L349 568 C342 568 337 564 336 555 C329 412 324 341 323 305 L321 269 C321 262 328 256 335 256 L355 256 C364 256 368 260 368 269 L378 498 L439 380 C442 376 447 371 452 371 L496 371 Z " />
<glyph glyph-name="Omega" unicode="&#x2126;" horiz-adv-x="712" d="M356 522 C408 522 547 519 547 280 C547 220 537 116 510 52 C509 49 508 47 508 45 L508 12 C508 4 511 0 518 0 L632 0 C642 0 647 5 647 15 L647 34 C647 44 642 49 632 49 L561 49 C595 139 601 248 601 280 C601 516 481 572 356 572 C231 572 111 516 111 280 C111 248 117 139 151 49 L80 49 C70 49 65 44 65 34 L65 15 C65 5 70 0 80 0 L194 0 C201 0 204 4 204 12 L204 45 C204 47 203 49 202 52 C173 115 165 221 165 280 C165 519 304 522 356 522 L356 522 Z " />
<glyph glyph-name="partialdiff" unicode="&#x2202;" horiz-adv-x="462" d="M119 155 C119 254 162 257 226 257 C242 257 304 252 343 223 L343 70 C305 46 251 46 238 46 C152 46 119 66 119 155 L119 155 Z M343 277 C276 308 227 307 214 307 C123 307 65 271 65 154 C65 34 118 -5 242 -5 C279 -5 334 1 390 24 C395 27 397 32 397 37 L397 365 C397 501 345 572 210 572 C173 572 126 567 83 552 C75 550 71 545 71 537 L77 512 C79 505 84 501 91 501 C94 501 96 501 97 502 C138 518 173 522 200 522 C301 522 343 484 343 365 L343 277 Z " />
<glyph glyph-name="Delta" unicode="&#x2206;" horiz-adv-x="728" d="M371 561 C368 566 366 569 364 569 C362 569 360 566 357 561 L65 15 C65 5 70 0 80 0 L648 0 C658 0 663 5 663 15 L371 561 Z M143 50 L364 457 L585 50 L143 50 Z " />
<glyph glyph-name="product" unicode="&#x220f;" horiz-adv-x="711" d="M480 15 C480 5 485 0 495 0 L519 0 C529 0 534 5 534 15 L534 518 L631 518 C641 518 646 523 646 533 L646 553 C646 563 641 568 631 568 L80 568 C70 568 65 563 65 553 L65 533 C65 523 70 518 80 518 L177 518 L177 15 C177 5 182 0 192 0 L216 0 C226 0 231 5 231 15 L231 518 L480 518 L480 15 Z " />
<glyph glyph-name="summation" unicode="&#x2211;" horiz-adv-x="462" d="M65 68 L65 15 C65 5 70 0 80 0 L382 0 C392 0 397 5 397 15 L397 35 C397 45 392 50 382 50 L119 50 L275 279 L275 289 L119 518 L382 518 C392 518 397 523 397 533 L397 553 C397 563 392 568 382 568 L80 568 C70 568 65 563 65 553 L65 500 L209 291 L209 277 L65 68 Z " />
<glyph glyph-name="minus" unicode="&#x2212;" horiz-adv-x="393" d="M313 162 C323 162 328 167 328 177 L328 197 C328 207 323 212 313 212 L80 212 C70 212 65 207 65 197 L65 177 C65 167 70 162 80 162 L313 162 Z " />
<glyph glyph-name="radical" unicode="&#x221a;" horiz-adv-x="708" d="M628 568 L459 568 C451 568 445 563 442 553 L252 46 L122 390 C119 400 113 405 105 405 L80 405 C70 405 65 400 65 390 C108 265 160 141 204 17 C211 4 219 0 227 0 L277 0 C285 0 293 4 300 17 C340 129 436 382 487 518 L628 518 C638 518 643 523 643 533 L643 553 C643 563 638 568 628 568 L628 568 Z " />
<glyph glyph-name="infinity" unicode="&#x221e;" horiz-adv-x="1076" d="M538 148 C581 63 705 27 796 27 C904 27 1011 68 1011 209 C1011 338 933 398 796 398 C713 398 621 373 538 240 C455 373 363 398 280 398 C143 398 65 338 65 209 C65 68 172 27 280 27 C371 27 495 63 538 148 L538 148 Z M286 348 C378 348 435 315 515 192 C456 107 382 77 286 77 C186 77 119 109 119 208 C119 342 214 348 286 348 L286 348 Z M790 348 C862 348 957 342 957 208 C957 109 890 77 790 77 C694 77 620 107 561 192 C641 315 698 348 790 348 L790 348 Z " />
<glyph glyph-name="integral" unicode="&#x222b;" horiz-adv-x="530" d="M453 613 C434 616 409 617 393 617 C265 617 238 543 238 410 L238 -4 C238 -56 236 -152 132 -152 C128 -152 99 -149 80 -146 C75 -146 71 -150 68 -157 L65 -183 C65 -191 69 -196 77 -198 C96 -201 121 -202 137 -202 C265 -202 292 -129 292 5 L292 419 C292 471 294 567 398 567 C402 567 431 564 450 561 C455 561 459 565 462 572 L465 598 C465 606 461 611 453 613 L453 613 Z " />
<glyph glyph-name="approxequal" unicode="&#x2248;" horiz-adv-x="424" d="M288 51 C307 51 332 57 355 72 C358 74 359 77 359 81 C359 84 358 87 357 88 L347 105 C344 108 341 110 336 110 C331 110 331 110 324 107 C313 102 299 101 288 101 C235 101 188 133 136 133 C117 133 92 127 69 112 C66 110 65 107 65 103 C65 100 66 97 67 96 L77 79 C80 76 83 74 88 74 C93 74 93 74 100 77 C111 82 125 83 136 83 C190 83 235 51 288 51 L288 51 Z M288 187 C307 187 332 193 355 208 C358 210 359 213 359 217 C359 220 358 223 357 224 L347 241 C344 244 341 246 336 246 C331 246 331 246 324 243 C313 238 299 237 288 237 C235 237 188 269 136 269 C117 269 92 263 69 248 C66 246 65 243 65 239 C65 236 66 233 67 232 L77 215 C80 212 83 210 88 210 C93 210 93 210 100 213 C111 218 125 219 136 219 C190 219 235 187 288 187 L288 187 Z " />
<glyph glyph-name="notequal" unicode="&#x2260;" horiz-adv-x="391" d="M115 17 C115 6 121 0 132 0 L150 0 C161 0 167 8 170 17 L190 74 L311 74 C321 74 326 79 326 89 L326 109 C326 119 321 124 311 124 L207 124 L250 249 L311 249 C321 249 326 254 326 264 L326 284 C326 294 321 299 311 299 L267 299 L287 359 C287 370 281 376 270 376 L252 376 C241 376 235 368 232 359 L212 299 L80 299 C70 299 65 294 65 284 L65 264 C65 254 70 249 80 249 L195 249 L152 124 L80 124 C70 124 65 119 65 109 L65 89 C65 79 70 74 80 74 L135 74 L115 17 Z " />
<glyph glyph-name="lessequal" unicode="&#x2264;" horiz-adv-x="334" d="M65 191 C65 183 72 176 80 172 L256 89 C265 89 269 93 269 102 L269 130 C269 138 263 143 256 146 L101 217 L256 287 C263 290 269 295 269 303 L269 331 C269 340 265 344 256 344 L80 262 C72 258 65 251 65 243 L65 191 Z M254 0 C264 0 269 5 269 15 L269 35 C269 45 264 50 254 50 L80 50 C70 50 65 45 65 35 L65 15 C65 5 70 0 80 0 L254 0 Z " />
<glyph glyph-name="greaterequal" unicode="&#x2265;" horiz-adv-x="334" d="M269 243 C269 251 262 258 254 262 L78 344 C69 344 65 340 65 331 L65 303 C65 295 71 290 78 287 L233 217 L78 146 C71 143 65 138 65 130 L65 102 C65 93 69 89 78 89 L254 172 C262 176 269 183 269 191 L269 243 Z M254 0 C264 0 269 5 269 15 L269 35 C269 45 264 50 254 50 L80 50 C70 50 65 45 65 35 L65 15 C65 5 70 0 80 0 L254 0 Z " />
<glyph glyph-name="lozenge" unicode="&#x25ca;" horiz-adv-x="494" d="M247 572 C242 572 238 570 237 567 L69 297 C66 293 65 289 65 286 C65 281 66 277 69 274 L237 5 C238 2 242 0 247 0 C252 0 255 2 257 5 L425 274 C428 277 429 281 429 286 C429 289 428 293 425 297 L257 567 C255 570 252 572 247 572 L247 572 Z M247 91 L126 286 L247 479 L368 286 L247 91 Z " />
<glyph glyph-name="uni25CC" unicode="&#x25cc;" horiz-adv-x="512" d="" />
<glyph glyph-name="fi" unicode="&#xfb01;" horiz-adv-x="523" d="M323 563 C330 563 335 567 337 574 L340 596 C340 604 336 609 328 611 C313 614 287 616 276 616 C160 616 120 560 120 436 L120 405 L45 405 C35 405 30 400 30 390 L30 370 C30 360 35 355 45 355 L120 355 L120 15 C120 5 125 0 135 0 L159 0 C169 0 174 5 174 15 L174 355 L301 355 C311 355 316 360 316 370 L316 390 C316 400 311 405 301 405 L174 405 L174 451 C174 502 176 566 293 566 C308 566 316 563 323 563 L323 563 Z M459 390 C459 400 454 405 444 405 L420 405 C410 405 405 400 405 390 L405 15 C405 5 410 0 420 0 L444 0 C454 0 459 5 459 15 L459 390 Z M400 468 C400 449 413 436 432 436 C451 436 464 449 464 468 C464 487 451 500 432 500 C413 500 400 487 400 468 L400 468 Z " />
<glyph glyph-name="fl" unicode="&#xfb02;" horiz-adv-x="546" d="M323 563 C330 563 335 567 337 574 L340 596 C340 604 336 609 328 611 C313 614 287 616 276 616 C160 616 120 560 120 436 L120 405 L45 405 C35 405 30 400 30 390 L30 370 C30 360 35 355 45 355 L120 355 L120 15 C120 5 125 0 135 0 L159 0 C169 0 174 5 174 15 L174 355 L301 355 C311 355 316 360 316 370 L316 390 C316 400 311 405 301 405 L174 405 L174 451 C174 502 176 566 293 566 C308 566 316 563 323 563 L323 563 Z M459 553 C459 563 454 568 444 568 L420 568 C410 568 405 563 405 553 L405 49 C405 28 413 -5 453 -5 C466 -5 497 -4 497 6 L497 24 C497 27 496 30 493 33 C482 41 459 43 459 70 L459 553 Z " />
</font>
</svg>
