<?xml version="1.0" encoding="UTF-8"?>
<svg xmlns="http://www.w3.org/2000/svg" xmlns:xlink="http://www.w3.org/1999/xlink" version="1.2" >
<font id="Mairy Regular">
<font-face  font-family="Mairy" units-per-em="1000" ascent="750" descent="-250" font-style="normal" font-weight="400" font-stretch="normal" cap-height="568" x-height="405" underline-position="-91" underline-thickness="35" />
<missing-glyph  horiz-adv-x="567" d="M534 0 L534 626 L23 626 L23 0 L534 0 Z M87 43 L87 64 L68 64 L66 44 C67 44 68 44 68 43 L87 43 Z M488 582 C489 582 490 581 490 580 L488 580 L488 582 Z M470 580 L470 562 L488 562 L488 580 L470 580 Z M488 64 L470 64 L470 45 L490 45 L488 64 Z M69 562 L87 562 L87 582 L68 583 C68 582 68 582 69 582 L69 562 Z M87 562 L470 562 L470 64 L87 64 L87 562 Z " />
<glyph glyph-name="space" unicode="&#x20;" horiz-adv-x="189" d="" />
<glyph glyph-name="exclam" unicode="&#x21;" horiz-adv-x="198" d="M59 168 C59 155 65 149 78 149 L118 149 C131 149 137 155 137 168 L142 549 C142 562 136 568 123 568 L73 568 C60 568 54 562 54 549 L59 168 Z M50 44 C50 17 72 -5 99 -5 C126 -5 148 17 148 44 C148 71 126 93 99 93 C72 93 50 71 50 44 L50 44 Z " />
<glyph glyph-name="quotedbl" unicode="&#x22;" horiz-adv-x="314" d="M58 406 C58 393 64 387 77 387 L109 387 C122 387 128 393 128 406 L136 549 C136 562 130 568 117 568 L69 568 C56 568 50 562 50 549 L58 406 Z M186 406 C186 393 192 387 205 387 L237 387 C250 387 256 393 256 406 L264 549 C264 562 258 568 245 568 L197 568 C184 568 178 562 178 549 L186 406 Z " />
<glyph glyph-name="numbersign" unicode="&#x23;" horiz-adv-x="764" d="M274 208 L328 364 L503 364 L449 208 L274 208 Z M235 364 L182 208 L69 208 C56 208 50 202 50 189 L50 153 C50 140 56 134 69 134 L155 134 L116 19 C116 6 122 0 135 0 L185 0 C196 0 203 6 208 19 L249 134 L423 134 L384 19 C384 6 390 0 403 0 L453 0 C464 0 471 6 476 19 L517 134 L634 134 C647 134 653 140 653 153 L653 189 C653 202 647 208 634 208 L542 208 L596 364 L695 364 C708 364 714 370 714 383 L714 419 C714 432 708 438 695 438 L619 438 L657 549 C657 562 651 568 638 568 L588 568 C577 568 570 562 565 549 L528 438 L354 438 L391 549 C391 562 385 568 372 568 L322 568 C311 568 304 562 299 549 L261 438 L129 438 C116 438 110 432 110 419 L110 383 C110 370 116 364 129 364 L235 364 Z " />
<glyph glyph-name="dollar" unicode="&#x24;" horiz-adv-x="521" d="M471 155 C471 266 390 304 308 328 L308 495 C332 493 362 489 399 484 C403 484 412 484 413 495 C414 510 417 538 417 539 C417 546 414 552 406 555 C374 562 337 567 308 570 L308 658 C308 669 303 674 292 674 L249 674 C238 674 233 669 233 658 L233 572 C84 564 50 506 50 423 C50 312 145 284 233 260 L233 71 C202 74 148 81 105 98 C100 101 99 101 96 101 C91 101 87 99 85 95 L67 51 C66 50 66 47 66 44 C66 37 69 32 75 29 C126 6 182 -4 233 -4 L233 -81 C233 -92 238 -97 249 -97 L292 -97 C303 -97 308 -92 308 -81 L308 1 C416 16 471 64 471 155 L471 155 Z M138 432 C138 484 169 494 233 497 L233 350 C179 366 138 385 138 432 L138 432 Z M308 239 C352 223 383 203 383 160 C383 112 345 90 308 79 L308 239 Z " />
<glyph glyph-name="percent" unicode="&#x25;" horiz-adv-x="627" d="M156 23 C156 10 166 0 179 0 L227 0 C240 0 247 11 254 24 L481 545 C481 558 471 568 458 568 L410 568 C397 568 390 557 383 544 L156 23 Z M160 415 C148 415 121 421 121 456 C121 489 147 498 160 498 C171 498 198 490 198 456 C198 421 171 415 160 415 L160 415 Z M160 341 C224 341 270 376 270 456 C270 536 224 572 160 572 C95 572 50 536 50 456 C50 376 95 341 160 341 L160 341 Z M467 69 C454 69 429 75 429 110 C429 144 454 152 467 152 C480 152 506 143 506 110 C506 75 479 69 467 69 L467 69 Z M467 -5 C532 -5 577 30 577 110 C577 190 532 226 467 226 C403 226 357 190 357 110 C357 30 403 -5 467 -5 L467 -5 Z " />
<glyph glyph-name="ampersand" unicode="&#x26;" horiz-adv-x="620" d="M265 70 C181 70 138 93 138 145 C138 192 157 224 230 239 L364 108 C340 84 292 70 265 70 L265 70 Z M362 365 C362 352 368 346 381 346 L421 346 C432 346 445 356 450 371 C455 386 463 410 463 421 C463 517 413 572 282 572 C161 572 112 512 112 421 C112 389 121 343 172 300 C68 279 50 204 50 143 C50 42 130 -5 263 -5 C328 -5 375 15 422 50 L442 34 C470 11 499 -5 532 -5 C553 -5 595 -1 595 31 C595 40 579 58 574 65 C571 68 564 69 561 69 C542 69 521 76 505 91 L239 354 C216 377 201 394 201 421 C201 468 229 497 282 497 C365 497 375 453 375 420 C375 401 367 380 362 365 L362 365 Z " />
<glyph glyph-name="quotesingle" unicode="&#x27;" horiz-adv-x="186" d="M58 406 C58 393 64 387 77 387 L109 387 C122 387 128 393 128 406 L136 549 C136 562 130 568 117 568 L69 568 C56 568 50 562 50 549 L58 406 Z " />
<glyph glyph-name="parenleft" unicode="&#x28;" horiz-adv-x="253" d="M193 -129 C170 -1 148 144 148 273 C148 393 169 566 193 689 C193 702 187 708 174 708 L129 708 C118 708 111 702 106 689 C74 567 60 454 60 280 C60 147 81 -1 106 -129 C111 -142 118 -148 129 -148 L174 -148 C187 -148 193 -142 193 -129 L193 -129 Z " />
<glyph glyph-name="parenright" unicode="&#x29;" horiz-adv-x="253" d="M60 -129 C60 -142 66 -148 79 -148 L124 -148 C135 -148 142 -142 147 -129 C172 -1 193 147 193 280 C193 454 179 567 147 689 C142 702 135 708 124 708 L79 708 C66 708 60 702 60 689 C84 566 105 393 105 273 C105 144 83 -1 60 -129 L60 -129 Z " />
<glyph glyph-name="asterisk" unicode="&#x2a;" horiz-adv-x="408" d="M182 568 C170 567 161 558 161 547 L170 446 L97 483 C93 485 90 486 87 486 C78 486 72 483 68 476 L52 430 C51 428 50 426 50 423 C50 416 54 408 62 405 L145 382 L83 324 C80 320 79 317 79 313 C79 304 81 297 86 293 L121 265 C126 263 130 262 134 262 C141 262 147 265 151 272 L204 356 L257 272 C261 265 267 262 274 262 C277 262 282 263 287 265 L322 293 C327 297 329 304 329 313 C329 317 328 320 325 324 L263 382 L346 405 C354 408 358 416 358 423 C358 426 357 428 356 430 L340 476 C336 483 330 486 321 486 C318 486 315 485 311 483 L238 446 L247 547 C247 558 238 567 226 568 L182 568 Z " />
<glyph glyph-name="plus" unicode="&#x2b;" horiz-adv-x="386" d="M69 236 C56 236 50 230 50 217 L50 181 C50 168 56 162 69 162 L149 162 L149 72 C149 59 155 53 168 53 L218 53 C231 53 237 59 237 72 L237 162 L317 162 C330 162 336 168 336 181 L336 217 C336 230 330 236 317 236 L237 236 L237 326 C237 339 231 345 218 345 L168 345 C155 345 149 339 149 326 L149 236 L69 236 Z " />
<glyph glyph-name="comma" unicode="&#x2c;" horiz-adv-x="154" d="M25 -102 C25 -115 31 -121 44 -121 L86 -121 C99 -121 107 -115 112 -102 C122 -71 129 -16 129 3 C129 14 129 35 126 51 C124 64 118 70 107 70 L58 70 C45 70 39 64 39 51 C43 28 44 12 44 1 C44 -38 37 -71 25 -102 L25 -102 Z " />
<glyph glyph-name="hyphen" unicode="&#x2d;" horiz-adv-x="384" d="M315 156 C328 156 334 162 334 175 L334 211 C334 224 328 230 315 230 L69 230 C56 230 50 224 50 211 L50 175 C50 162 56 156 69 156 L315 156 Z " />
<glyph glyph-name="period" unicode="&#x2e;" horiz-adv-x="200" d="M50 45 C50 18 73 -5 100 -5 C127 -5 150 18 150 45 C150 72 127 94 100 94 C73 94 50 72 50 45 L50 45 Z " />
<glyph glyph-name="slash" unicode="&#x2f;" horiz-adv-x="416" d="M391 693 C391 706 385 712 372 712 L329 712 C318 712 311 706 306 693 L25 -127 C25 -140 31 -146 44 -146 L89 -146 C100 -146 107 -140 112 -127 L391 693 Z " />
<glyph glyph-name="zero" unicode="0" horiz-adv-x="564" d="M282 70 C209 70 138 107 138 280 C138 484 224 497 282 497 C340 497 426 484 426 280 C426 107 355 70 282 70 L282 70 Z M282 -5 C415 -5 514 59 514 280 C514 515 413 572 282 572 C151 572 50 515 50 280 C50 59 149 -5 282 -5 L282 -5 Z " />
<glyph glyph-name="one" unicode="1" horiz-adv-x="342" d="M28 462 C23 459 20 453 20 446 L20 388 C20 375 26 369 39 369 L204 477 L204 19 C204 6 210 0 223 0 L273 0 C286 0 292 6 292 19 L292 549 C292 562 286 568 273 568 L188 568 L28 462 Z " />
<glyph glyph-name="two" unicode="2" horiz-adv-x="458" d="M78 554 C69 550 66 546 66 531 L69 498 C71 489 77 485 87 485 C130 490 182 497 195 497 C290 497 325 493 325 431 C325 322 40 314 40 105 L40 19 C40 6 46 0 59 0 L381 0 C394 0 400 6 400 19 L400 55 C400 68 394 74 381 74 L123 74 L123 101 C123 256 413 265 413 431 C413 509 383 572 208 572 C188 572 133 571 78 554 L78 554 Z " />
<glyph glyph-name="three" unicode="3" horiz-adv-x="430" d="M42 557 C33 553 30 549 30 534 L35 499 C37 490 42 485 50 485 L57 486 C103 491 166 497 181 497 C258 497 292 471 292 410 C292 371 268 320 181 320 L147 320 C134 320 128 314 128 301 L128 265 C128 252 134 246 147 246 L181 246 C258 246 292 196 292 159 C292 104 268 70 181 70 C170 70 127 73 59 84 L52 85 C44 85 39 80 37 71 L32 36 C32 21 35 17 44 13 C95 2 163 -5 181 -5 C310 -5 380 56 380 160 C380 203 358 250 314 283 C357 311 380 364 380 411 C380 510 310 572 181 572 C163 572 92 568 42 557 L42 557 Z " />
<glyph glyph-name="four" unicode="4" horiz-adv-x="486" d="M128 217 L309 431 L309 217 L128 217 Z M25 161 C25 148 31 142 44 142 L309 142 L309 19 C309 6 315 0 328 0 L378 0 C391 0 397 6 397 19 L397 142 L442 142 C455 142 461 148 461 161 L461 198 C461 211 455 217 442 217 L397 217 L397 549 C397 562 391 568 378 568 L331 568 C318 568 307 559 299 550 L25 224 L25 161 Z " />
<glyph glyph-name="five" unicode="5" horiz-adv-x="448" d="M68 84 C64 84 55 84 54 73 L51 26 C51 19 54 13 62 10 C113 -1 185 -5 201 -5 C334 -5 413 56 413 160 C413 203 407 320 221 320 L138 320 L138 494 L375 494 C388 494 394 500 394 513 L394 549 C394 562 388 568 375 568 L69 568 C56 568 50 562 50 549 L50 265 C50 252 56 246 69 246 L232 246 C311 246 325 192 325 159 C325 103 286 70 201 70 C190 70 141 73 68 84 L68 84 Z " />
<glyph glyph-name="six" unicode="6" horiz-adv-x="466" d="M237 268 C337 268 338 207 338 169 C338 130 329 70 237 70 C148 70 138 133 138 169 C138 207 144 268 237 268 L237 268 Z M366 477 C369 475 372 474 376 474 C381 474 385 476 387 480 L404 521 C405 522 405 525 405 528 C405 535 402 540 396 543 C355 570 304 572 260 572 C128 572 50 498 50 369 L50 178 C50 58 108 -5 237 -5 C368 -5 426 58 426 178 C426 304 339 343 254 343 C234 343 180 343 138 312 L138 383 C138 486 218 497 269 497 C294 497 327 493 366 477 L366 477 Z " />
<glyph glyph-name="seven" unicode="7" horiz-adv-x="396" d="M81 19 C81 6 87 0 100 0 L151 0 C162 0 169 6 174 19 L361 492 L361 549 C361 562 355 568 342 568 L34 568 C21 568 15 562 15 549 L15 513 C15 500 21 494 34 494 L267 494 L81 19 Z " />
<glyph glyph-name="eight" unicode="8" horiz-adv-x="472" d="M236 70 C145 70 138 124 138 159 C138 192 148 246 236 246 C324 246 334 192 334 159 C334 124 327 70 236 70 L236 70 Z M236 320 C144 320 138 376 138 410 C138 444 149 497 236 497 C323 497 334 444 334 410 C334 376 328 320 236 320 L236 320 Z M236 -5 C365 -5 422 56 422 160 C422 203 408 250 363 285 C408 309 422 365 422 411 C422 508 364 572 236 572 C108 572 50 508 50 411 C50 365 63 309 109 285 C64 250 50 203 50 160 C50 56 107 -5 236 -5 L236 -5 Z " />
<glyph glyph-name="nine" unicode="9" horiz-adv-x="466" d="M128 388 C128 441 135 497 227 497 C318 497 328 441 328 388 C328 333 321 271 227 271 C128 271 128 333 128 388 L128 388 Z M101 89 C98 91 94 92 91 92 C86 92 82 90 80 86 L63 45 C62 44 62 41 62 38 C62 31 65 26 71 23 C111 -2 164 -5 204 -5 C337 -5 416 61 416 192 L416 389 C416 509 358 572 227 572 C98 572 40 509 40 389 C40 260 98 196 227 196 C245 196 298 198 328 233 L328 181 C328 80 247 70 195 70 C171 70 137 74 101 89 L101 89 Z " />
<glyph glyph-name="colon" unicode="&#x3a;" horiz-adv-x="200" d="M50 45 C50 18 73 -5 100 -5 C127 -5 150 18 150 45 C150 72 127 94 100 94 C73 94 50 72 50 45 L50 45 Z M50 344 C50 317 73 294 100 294 C127 294 150 317 150 344 C150 371 127 393 100 393 C73 393 50 371 50 344 L50 344 Z " />
<glyph glyph-name="semicolon" unicode="&#x3b;" horiz-adv-x="207" d="M57 344 C57 317 80 294 107 294 C134 294 157 317 157 344 C157 371 134 393 107 393 C80 393 57 371 57 344 L57 344 Z M50 -102 C50 -115 56 -121 69 -121 L111 -121 C124 -121 132 -115 137 -102 C147 -71 154 -16 154 3 C154 14 154 35 151 51 C149 64 143 70 132 70 L83 70 C70 70 64 64 64 51 C68 28 69 12 69 1 C69 -38 62 -71 50 -102 L50 -102 Z " />
<glyph glyph-name="less" unicode="&#x3c;" horiz-adv-x="377" d="M137 208 L308 287 C321 292 327 299 327 310 L327 360 C327 373 321 379 308 379 L72 274 C53 266 50 251 50 244 L50 173 C50 166 53 151 72 143 L308 38 C321 38 327 44 327 57 L327 107 C327 118 321 125 308 130 L137 208 Z " />
<glyph glyph-name="equal" unicode="&#x3d;" horiz-adv-x="384" d="M315 48 C328 48 334 54 334 67 L334 103 C334 116 328 122 315 122 L69 122 C56 122 50 116 50 103 L50 67 C50 54 56 48 69 48 L315 48 Z M315 218 C328 218 334 224 334 237 L334 273 C334 286 328 292 315 292 L69 292 C56 292 50 286 50 273 L50 237 C50 224 56 218 69 218 L315 218 Z " />
<glyph glyph-name="greater" unicode="&#x3e;" horiz-adv-x="377" d="M69 130 C56 125 50 118 50 107 L50 57 C50 44 56 38 69 38 L305 143 C324 151 327 166 327 173 L327 244 C327 251 324 266 305 274 L69 379 C56 379 50 373 50 360 L50 310 C50 299 56 292 69 287 L240 208 L69 130 Z " />
<glyph glyph-name="question" unicode="&#x3f;" horiz-adv-x="439" d="M72 486 C85 487 98 489 111 491 C134 494 156 498 180 498 C274 498 301 492 301 431 C301 325 119 370 119 206 L119 171 C119 158 125 152 138 152 L188 152 C201 152 207 158 207 171 L207 189 C207 315 389 281 389 429 C389 517 362 572 187 572 C166 572 114 569 62 554 C54 551 50 550 50 535 L53 495 C57 487 61 486 72 486 L72 486 Z M115 44 C115 17 137 -5 164 -5 C191 -5 213 17 213 44 C213 71 191 93 164 93 C137 93 115 71 115 44 L115 44 Z " />
<glyph glyph-name="at" unicode="&#x40;" horiz-adv-x="627" d="M318 164 C318 244 351 252 415 252 C428 252 464 249 489 230 L489 85 C465 69 422 70 411 70 C344 70 318 84 318 164 L318 164 Z M276 -130 C259 -133 234 -135 223 -135 C139 -135 138 -61 138 -21 L138 305 C138 486 260 497 311 497 C363 497 489 496 489 307 C450 325 399 325 388 325 C293 325 230 287 230 163 C230 36 285 -5 414 -5 C453 -5 514 2 561 15 C570 19 577 23 577 32 L577 288 C577 527 445 572 311 572 C178 572 50 521 50 293 L50 -1 C50 -129 78 -212 206 -212 C230 -212 262 -209 289 -201 C295 -198 298 -193 298 -186 C298 -183 298 -180 297 -179 L287 -136 C285 -132 281 -130 276 -130 L276 -130 Z " />
<glyph glyph-name="A" unicode="A" horiz-adv-x="530" d="M265 481 L358 211 L173 211 L265 481 Z M413 51 C428 14 441 -5 480 -5 C500 -5 520 -2 520 9 L520 39 C520 40 520 50 511 54 C503 58 496 73 488 96 C438 234 366 450 331 546 C324 565 308 568 301 568 L230 568 C223 568 207 565 200 546 C156 427 59 138 15 19 C15 6 21 0 34 0 L84 0 C95 0 102 6 107 19 L148 137 L384 137 L413 51 Z " />
<glyph glyph-name="B" unicode="B" horiz-adv-x="479" d="M219 494 C278 494 332 479 332 406 C332 334 278 320 219 320 L138 320 L138 494 L219 494 Z M138 73 L138 246 L249 246 C309 246 361 235 361 161 C361 88 309 73 249 73 L138 73 Z M69 568 C56 568 50 562 50 549 L50 19 C50 6 56 0 69 0 L251 0 C379 0 449 36 449 161 C449 219 437 264 365 285 C414 320 420 367 420 406 C420 533 338 568 222 568 L69 568 Z " />
<glyph glyph-name="C" unicode="C" horiz-adv-x="458" d="M424 541 C377 566 331 572 288 572 C154 572 35 516 35 280 C35 67 154 -5 288 -5 C331 -5 381 -1 424 26 C430 29 433 34 433 41 C433 44 433 47 432 48 L415 89 C413 93 409 95 404 95 C401 95 398 94 395 92 C356 73 322 70 298 70 C243 70 123 107 123 280 C123 491 243 498 298 498 C321 498 359 491 395 476 C398 474 401 473 404 473 C409 473 413 475 415 479 L432 519 C433 520 433 523 433 526 C433 533 430 538 424 541 L424 541 Z " />
<glyph glyph-name="D" unicode="D" horiz-adv-x="486" d="M363 202 C363 110 309 74 249 74 L138 74 L138 494 L249 494 C309 494 363 458 363 366 L363 202 Z M50 19 C50 6 56 0 69 0 L253 0 C382 0 451 71 451 200 L451 368 C451 497 382 568 253 568 L69 568 C56 568 50 562 50 549 L50 19 Z " />
<glyph glyph-name="E" unicode="E" horiz-adv-x="438" d="M394 0 C407 0 413 6 413 19 L413 54 C413 67 407 73 394 73 L138 73 L138 246 L325 246 C338 246 344 252 344 265 L344 301 C344 314 338 320 325 320 L138 320 L138 494 L394 494 C407 494 413 500 413 513 L413 549 C413 562 407 568 394 568 L69 568 C56 568 50 562 50 549 L50 19 C50 6 56 0 69 0 L394 0 Z " />
<glyph glyph-name="F" unicode="F" horiz-adv-x="438" d="M138 246 L325 246 C338 246 344 252 344 265 L344 301 C344 314 338 320 325 320 L138 320 L138 494 L394 494 C407 494 413 500 413 513 L413 549 C413 562 407 568 394 568 L69 568 C56 568 50 562 50 549 L50 19 C50 6 56 0 69 0 L119 0 C132 0 138 6 138 19 L138 246 Z " />
<glyph glyph-name="G" unicode="G" horiz-adv-x="523" d="M449 538 C403 562 331 572 288 572 C154 572 35 516 35 280 C35 67 154 -5 288 -5 C327 -5 355 1 404 24 L408 21 C412 16 416 13 420 10 C427 5 436 0 444 0 L459 0 C472 0 478 6 478 19 L478 285 C478 298 472 304 459 304 L319 304 C306 304 300 298 300 285 L300 250 C300 237 306 231 319 231 L390 231 L390 93 C351 70 321 70 298 70 C243 70 123 107 123 280 C123 491 243 498 298 498 C320 498 383 486 420 473 C423 471 426 470 429 470 C434 470 438 472 440 476 L457 516 C458 517 458 520 458 523 C458 530 455 535 449 538 L449 538 Z " />
<glyph glyph-name="H" unicode="H" horiz-adv-x="520" d="M382 250 L382 19 C382 6 388 0 401 0 L451 0 C464 0 470 6 470 19 L470 549 C470 562 464 568 451 568 L401 568 C388 568 382 562 382 549 L382 326 L138 326 L138 549 C138 562 132 568 119 568 L69 568 C56 568 50 562 50 549 L50 19 C50 6 56 0 69 0 L119 0 C132 0 138 6 138 19 L138 250 L382 250 Z " />
<glyph glyph-name="I" unicode="I" horiz-adv-x="188" d="M50 19 C50 6 56 0 69 0 L119 0 C132 0 138 6 138 19 L138 549 C138 562 132 568 119 568 L69 568 C56 568 50 562 50 549 L50 19 Z " />
<glyph glyph-name="J" unicode="J" horiz-adv-x="419" d="M19 25 C60 5 117 -5 156 -5 C257 -5 369 17 369 235 L369 549 C369 562 363 568 350 568 L300 568 C287 568 281 562 281 549 L281 237 C281 82 204 70 146 70 C123 70 80 78 51 93 C48 95 45 96 42 96 C37 96 33 94 31 90 L11 47 C10 46 10 43 10 40 C10 33 13 28 19 25 L19 25 Z " />
<glyph glyph-name="K" unicode="K" horiz-adv-x="507" d="M389 21 C393 10 403 0 414 0 L468 0 C481 0 487 6 487 19 L388 225 C369 264 347 292 322 320 C394 396 440 481 457 549 C457 562 451 568 438 568 L391 568 C382 568 374 562 369 549 C337 454 210 313 138 313 L138 549 C138 562 132 568 119 568 L69 568 C56 568 50 562 50 549 L50 19 C50 6 56 0 69 0 L119 0 C132 0 138 6 138 19 L138 212 C181 225 213 241 250 268 C293 223 325 153 360 81 C369 61 378 40 389 21 L389 21 Z " />
<glyph glyph-name="L" unicode="L" horiz-adv-x="415" d="M138 549 C138 562 132 568 119 568 L69 568 C56 568 50 562 50 549 L50 19 C50 6 56 0 69 0 L376 0 C389 0 395 6 395 19 L395 54 C395 67 389 73 376 73 L138 73 L138 549 Z " />
<glyph glyph-name="M" unicode="M" horiz-adv-x="656" d="M349 104 C357 104 368 113 371 121 L501 437 L528 19 C533 6 540 0 551 0 L597 0 C610 0 616 6 616 19 L581 549 C581 562 575 568 562 568 L471 568 C464 568 459 563 455 552 L328 250 L201 552 C197 563 192 568 185 568 L94 568 C81 568 75 562 75 549 L40 19 C40 6 46 0 59 0 L105 0 C116 0 123 6 128 19 L155 437 L285 121 C288 113 299 104 307 104 L349 104 Z " />
<glyph glyph-name="N" unicode="N" horiz-adv-x="539" d="M164 546 C151 567 132 568 127 568 L69 568 C56 568 50 562 50 549 L50 19 C50 6 56 0 69 0 L119 0 C132 0 138 6 138 19 L138 421 L383 22 C396 1 415 0 420 0 L470 0 C483 0 489 6 489 19 L489 549 C489 562 483 568 470 568 L420 568 C407 568 401 562 401 549 L401 160 L164 546 Z " />
<glyph glyph-name="O" unicode="O" horiz-adv-x="570" d="M285 70 C217 70 128 91 128 280 C128 483 218 497 285 497 C351 497 442 483 442 280 C442 91 353 70 285 70 L285 70 Z M285 -5 C420 -5 530 59 530 280 C530 516 418 572 285 572 C152 572 40 516 40 280 C40 59 150 -5 285 -5 L285 -5 Z " />
<glyph glyph-name="P" unicode="P" horiz-adv-x="460" d="M138 277 L138 493 L248 493 C311 493 352 453 352 384 C352 315 312 277 248 277 L138 277 Z M138 203 L242 203 C371 203 440 256 440 384 C440 513 373 568 242 568 L69 568 C56 568 50 562 50 549 L50 19 C50 6 56 0 69 0 L119 0 C132 0 138 6 138 19 L138 203 Z " />
<glyph glyph-name="Q" unicode="Q" horiz-adv-x="570" d="M530 280 C530 516 418 572 285 572 C152 572 40 516 40 280 C40 72 134 4 257 -4 C226 -55 186 -68 157 -71 C142 -74 135 -81 135 -92 L135 -130 C135 -143 141 -149 154 -149 C227 -136 261 -130 293 -130 C328 -130 405 -140 458 -153 C471 -153 477 -147 477 -134 L477 -96 C477 -85 470 -78 455 -75 C419 -67 345 -57 317 -54 C320 -29 333 -11 344 0 C451 16 530 92 530 280 L530 280 Z M285 70 C217 70 128 91 128 280 C128 483 218 497 285 497 C351 497 442 483 442 280 C442 91 353 70 285 70 L285 70 Z " />
<glyph glyph-name="R" unicode="R" horiz-adv-x="479" d="M440 56 C428 64 424 72 412 103 L366 224 C421 250 449 303 449 384 C449 513 382 568 251 568 L69 568 C56 568 50 562 50 549 L50 19 C50 6 56 0 69 0 L119 0 C132 0 138 6 138 19 L138 203 L251 203 C262 203 269 203 280 204 L342 38 C351 15 370 -5 405 -5 C425 -5 448 -2 448 9 L448 40 C448 43 448 49 440 56 L440 56 Z M138 277 L138 493 L257 493 C320 493 361 453 361 384 C361 315 321 277 257 277 L138 277 Z " />
<glyph glyph-name="S" unicode="S" horiz-adv-x="481" d="M384 483 C388 483 397 483 398 494 C399 509 402 537 402 538 C402 545 399 551 391 554 C338 565 270 572 253 572 C74 572 35 510 35 422 C35 215 368 296 368 159 C368 78 261 70 229 70 C203 70 138 78 90 97 C85 100 84 100 81 100 C76 100 72 98 70 94 L52 50 C51 49 51 46 51 43 C51 36 54 31 60 28 C103 7 176 -5 215 -5 C374 -5 456 43 456 154 C456 379 123 302 123 431 C123 493 168 497 260 497 C275 497 324 491 384 483 L384 483 Z " />
<glyph glyph-name="T" unicode="T" horiz-adv-x="444" d="M178 494 L178 19 C178 6 184 0 197 0 L247 0 C260 0 266 6 266 19 L266 494 L405 494 C418 494 424 500 424 513 L424 549 C424 562 418 568 405 568 L39 568 C26 568 20 562 20 549 L20 513 C20 500 26 494 39 494 L178 494 Z " />
<glyph glyph-name="U" unicode="U" horiz-adv-x="536" d="M268 -5 C402 -5 486 31 486 251 L486 549 C486 562 480 568 467 568 L417 568 C404 568 398 562 398 549 L398 249 C398 82 328 70 268 70 C208 70 138 82 138 249 L138 549 C138 562 132 568 119 568 L69 568 C56 568 50 562 50 549 L50 251 C50 31 134 -5 268 -5 L268 -5 Z " />
<glyph glyph-name="V" unicode="V" horiz-adv-x="531" d="M265 87 L107 549 C102 562 95 568 84 568 L34 568 C21 568 15 562 15 549 C59 430 156 141 200 22 C207 3 223 0 230 0 L301 0 C308 0 324 3 331 22 C375 141 472 430 516 549 C516 562 510 568 497 568 L447 568 C436 568 429 562 424 549 L265 87 Z " />
<glyph glyph-name="W" unicode="W" horiz-adv-x="658" d="M509 549 C520 487 525 379 525 339 C525 121 519 70 449 70 C377 70 374 192 374 252 L374 549 C374 562 368 568 355 568 L305 568 C292 568 286 562 286 549 L286 199 C286 139 284 70 213 70 C173 70 138 79 138 245 L138 549 C138 562 132 568 119 568 L69 568 C56 568 50 562 50 549 L50 257 C50 54 78 -5 209 -5 C240 -5 300 -6 337 56 C369 -5 430 -5 457 -5 C589 -5 613 82 613 338 C613 378 607 493 596 549 C594 562 588 568 577 568 L527 568 C515 568 509 562 509 549 L509 549 Z " />
<glyph glyph-name="X" unicode="X" horiz-adv-x="502" d="M382 19 C389 8 396 0 411 0 L468 0 C481 0 487 6 487 19 L307 283 L486 549 C486 562 480 568 467 568 L410 568 C395 568 388 560 381 549 L251 354 L121 549 C114 560 107 568 92 568 L35 568 C22 568 16 562 16 549 L195 283 L15 19 C15 6 21 0 34 0 L91 0 C106 0 113 8 120 19 L251 211 L382 19 Z " />
<glyph glyph-name="Y" unicode="Y" horiz-adv-x="486" d="M287 159 L471 549 C471 562 465 568 452 568 L398 568 C387 568 380 560 375 549 L243 271 L111 549 C106 560 99 568 88 568 L34 568 C21 568 15 562 15 549 L199 159 L199 19 C199 6 205 0 218 0 L268 0 C281 0 287 6 287 19 L287 159 Z " />
<glyph glyph-name="Z" unicode="Z" horiz-adv-x="414" d="M20 19 C20 6 26 0 39 0 L375 0 C388 0 394 6 394 19 L394 57 C394 70 388 76 375 76 L114 76 L394 484 L394 549 C394 562 388 568 375 568 L39 568 C26 568 20 562 20 549 L20 511 C20 498 26 492 39 492 L297 492 L20 87 L20 19 Z " />
<glyph glyph-name="bracketleft" unicode="&#x5b;" horiz-adv-x="290" d="M148 635 L211 635 C224 635 230 641 230 654 L230 689 C230 702 224 708 211 708 L79 708 C66 708 60 702 60 689 L60 -129 C60 -142 66 -148 79 -148 L211 -148 C224 -148 230 -142 230 -129 L230 -94 C230 -81 224 -75 211 -75 L148 -75 L148 635 Z " />
<glyph glyph-name="backslash" unicode="&#x5c;" horiz-adv-x="416" d="M304 -127 C309 -140 316 -146 327 -146 L372 -146 C385 -146 391 -140 391 -127 L110 693 C105 706 98 712 87 712 L44 712 C31 712 25 706 25 693 L304 -127 Z " />
<glyph glyph-name="bracketright" unicode="&#x5d;" horiz-adv-x="290" d="M142 -75 L79 -75 C66 -75 60 -81 60 -94 L60 -129 C60 -142 66 -148 79 -148 L211 -148 C224 -148 230 -142 230 -129 L230 689 C230 702 224 708 211 708 L79 708 C66 708 60 702 60 689 L60 654 C60 641 66 635 79 635 L142 635 L142 -75 Z " />
<glyph glyph-name="asciicircum" unicode="&#x5e;" horiz-adv-x="362" d="M144 568 C131 568 120 563 112 546 L50 415 C50 402 56 396 69 396 L113 396 C124 396 132 404 139 415 L181 508 L223 415 C230 404 238 396 249 396 L293 396 C306 396 312 402 312 415 L250 546 C242 563 231 568 218 568 L144 568 Z " />
<glyph glyph-name="underscore" unicode="&#x5f;" horiz-adv-x="401" d="M332 -79 C345 -79 351 -73 351 -60 L351 -24 C351 -11 345 -5 332 -5 L69 -5 C56 -5 50 -11 50 -24 L50 -60 C50 -73 56 -79 69 -79 L332 -79 Z " />
<glyph glyph-name="grave" unicode="&#x60;" horiz-adv-x="202" d="M82 425 C85 412 92 406 101 406 L133 406 C146 406 152 412 152 425 L136 549 C136 562 130 568 117 568 L69 568 C56 568 50 562 50 549 L82 425 Z " />
<glyph glyph-name="a" unicode="a" horiz-adv-x="431" d="M292 113 C285 105 277 98 269 91 C254 80 236 70 213 70 C163 70 114 89 114 188 C114 281 151 336 292 336 L292 113 Z M365 396 C325 408 299 411 256 411 C120 411 25 338 25 198 C25 71 81 -5 185 -5 C199 -5 249 -6 287 32 L305 8 C309 3 314 0 320 0 L362 0 C375 0 381 6 381 19 L381 379 C381 387 376 393 365 396 L365 396 Z " />
<glyph glyph-name="b" unicode="b" horiz-adv-x="455" d="M331 210 C331 115 299 70 219 70 C211 70 166 70 138 88 L138 309 C164 330 204 336 215 336 C279 336 331 306 331 210 L331 210 Z M50 39 C50 30 57 26 66 22 C113 2 169 -5 216 -5 C351 -5 420 77 420 210 C420 342 341 411 242 411 C232 411 175 411 138 390 L138 549 C138 562 132 568 119 568 L69 568 C56 568 50 562 50 549 L50 39 Z " />
<glyph glyph-name="c" unicode="c" horiz-adv-x="416" d="M346 91 C307 74 275 70 248 70 C176 70 123 109 123 204 C123 299 167 336 248 336 C275 336 305 334 346 315 C349 313 352 312 355 312 C360 312 364 314 366 318 L383 360 C384 361 384 364 384 367 C384 374 381 379 375 382 C328 407 282 411 239 411 C104 411 35 339 35 204 C35 71 104 -5 239 -5 C282 -5 328 1 375 26 C381 29 384 34 384 41 C384 44 384 47 383 48 L366 88 C364 92 360 94 355 94 C352 94 349 93 346 91 L346 91 Z " />
<glyph glyph-name="d" unicode="d" horiz-adv-x="455" d="M124 210 C124 306 176 336 240 336 C251 336 291 330 317 309 L317 88 C289 70 244 70 236 70 C156 70 124 115 124 210 L124 210 Z M405 549 C405 562 399 568 386 568 L336 568 C323 568 317 562 317 549 L317 390 C280 411 223 411 213 411 C114 411 35 342 35 210 C35 77 104 -5 239 -5 C286 -5 342 2 389 22 C398 26 405 30 405 39 L405 549 Z " />
<glyph glyph-name="e" unicode="e" horiz-adv-x="426" d="M347 94 C303 75 264 70 237 70 C168 70 123 111 123 167 C176 148 208 147 235 147 C320 147 389 182 389 284 C389 353 330 411 224 411 C92 411 35 330 35 207 C35 74 100 -5 233 -5 C277 -5 333 0 376 29 C382 32 385 37 385 44 C385 47 385 50 384 51 L367 91 C365 95 361 97 356 97 C353 97 350 96 347 94 L347 94 Z M224 336 C264 336 301 324 301 275 C301 236 271 222 215 222 C194 222 150 229 123 250 C136 313 175 336 224 336 L224 336 Z " />
<glyph glyph-name="f" unicode="f" horiz-adv-x="330" d="M313 533 C318 533 321 535 323 539 L334 582 C335 583 335 586 335 589 C335 596 332 601 326 604 C305 611 277 617 254 617 C129 617 97 541 94 405 L34 405 C21 405 15 399 15 386 L15 348 C15 335 21 329 34 329 L94 329 L94 19 C94 6 100 0 113 0 L163 0 C176 0 182 6 182 19 L182 329 L291 329 C304 329 310 335 310 348 L310 386 C310 399 304 405 291 405 L182 405 L182 420 C182 459 186 537 271 537 C287 537 300 533 313 533 L313 533 Z " />
<glyph glyph-name="g" unicode="g" horiz-adv-x="431" d="M365 395 C321 410 276 411 236 411 C108 411 25 317 25 194 C25 117 53 26 145 15 C82 -21 63 -52 63 -105 C63 -209 163 -219 201 -219 C381 -219 381 -97 381 -32 L381 378 C381 386 376 392 365 395 L365 395 Z M292 -57 C292 -118 261 -144 216 -144 C149 -144 147 -116 147 -96 C147 -69 165 -45 292 16 L292 -57 Z M292 111 C285 103 277 96 269 90 C254 79 236 70 213 70 C163 70 115 95 115 193 C115 289 156 336 292 336 L292 111 Z " />
<glyph glyph-name="h" unicode="h" horiz-adv-x="439" d="M311 19 C311 6 317 0 330 0 L380 0 C393 0 399 6 399 19 L399 230 C399 331 366 411 251 411 C236 411 186 411 138 381 L138 549 C138 562 132 568 119 568 L69 568 C56 568 50 562 50 549 L50 19 C50 6 56 0 69 0 L119 0 C132 0 138 6 138 19 L138 293 C146 300 155 307 165 314 C182 325 204 336 231 336 C280 336 311 327 311 226 L311 19 Z " />
<glyph glyph-name="i" unicode="i" horiz-adv-x="188" d="M50 19 C50 6 56 0 69 0 L119 0 C132 0 138 6 138 19 L138 386 C138 399 132 405 119 405 L69 405 C56 405 50 399 50 386 L50 19 Z M46 492 C46 465 67 444 94 444 C121 444 143 465 143 492 C143 519 121 541 94 541 C67 541 46 519 46 492 L46 492 Z " />
<glyph glyph-name="j" unicode="j" horiz-adv-x="188" d="M-97 -185 C-74 -193 -44 -195 -21 -195 C110 -195 138 -115 138 19 L138 386 C138 399 132 405 119 405 L69 405 C56 405 50 399 50 386 L50 3 C50 -37 48 -114 -38 -114 C-61 -114 -71 -108 -83 -108 C-88 -108 -93 -110 -96 -118 C-107 -161 -106 -167 -106 -170 C-106 -177 -103 -182 -97 -185 L-97 -185 Z M46 492 C46 465 67 444 94 444 C121 444 143 465 143 492 C143 519 121 541 94 541 C67 541 46 519 46 492 L46 492 Z " />
<glyph glyph-name="k" unicode="k" horiz-adv-x="426" d="M311 18 C316 9 326 0 337 0 L392 0 C405 0 411 6 411 19 L363 105 C339 148 320 176 288 219 C352 275 383 337 396 386 C396 399 390 405 377 405 L327 405 C318 405 311 399 307 386 C281 315 195 256 138 256 L138 549 C138 562 132 568 119 568 L69 568 C56 568 50 562 50 549 L50 19 C50 6 56 0 69 0 L119 0 C132 0 138 6 138 19 L138 160 C162 167 191 174 211 182 C233 153 255 118 278 77 L311 18 Z " />
<glyph glyph-name="l" unicode="l" horiz-adv-x="207" d="M163 65 C151 73 138 86 138 114 L138 549 C138 562 132 568 119 568 L69 568 C56 568 50 562 50 549 L50 73 C50 44 57 -5 113 -5 C132 -5 172 -4 172 19 L172 49 C172 56 169 61 163 65 L163 65 Z " />
<glyph glyph-name="m" unicode="m" horiz-adv-x="625" d="M497 19 C497 6 503 0 516 0 L566 0 C579 0 585 6 585 19 L585 230 C585 331 553 411 452 411 C412 411 375 407 334 359 C295 399 257 410 196 411 C157 408 107 402 66 390 C55 387 50 381 50 373 L50 19 C50 6 56 0 69 0 L119 0 C132 0 138 6 138 19 L138 321 C151 329 175 333 194 336 C267 336 275 316 275 219 L275 19 C275 6 281 0 294 0 L344 0 C357 0 363 6 363 19 L363 220 C363 251 360 271 353 291 C364 312 402 336 425 336 C477 336 497 327 497 226 L497 19 Z " />
<glyph glyph-name="n" unicode="n" horiz-adv-x="439" d="M311 19 C311 6 317 0 330 0 L380 0 C393 0 399 6 399 19 L399 219 C399 348 349 411 216 411 C175 411 115 405 66 390 C55 387 50 381 50 373 L50 19 C50 6 56 0 69 0 L119 0 C132 0 138 6 138 19 L138 321 C159 334 208 336 221 336 C304 336 311 282 311 187 L311 19 Z " />
<glyph glyph-name="o" unicode="o" horiz-adv-x="464" d="M232 70 C133 70 123 154 123 206 C123 261 143 336 232 336 C321 336 341 261 341 206 C341 154 331 70 232 70 L232 70 Z M232 -5 C367 -5 429 74 429 207 C429 330 365 411 232 411 C97 411 35 330 35 207 C35 74 97 -5 232 -5 L232 -5 Z " />
<glyph glyph-name="p" unicode="p" horiz-adv-x="447" d="M219 336 C299 336 329 291 329 196 C329 85 268 70 207 70 C196 70 171 70 138 74 L138 321 C151 329 187 336 219 336 L219 336 Z M50 -177 C50 -190 56 -196 69 -196 L119 -196 C132 -196 138 -190 138 -177 L138 1 C182 -6 205 -5 216 -5 C351 -5 417 63 417 196 C417 329 351 411 216 411 C177 411 115 402 66 390 C55 387 50 381 50 373 L50 -177 Z " />
<glyph glyph-name="q" unicode="q" horiz-adv-x="447" d="M228 336 C260 336 296 329 309 321 L309 74 C276 70 251 70 240 70 C179 70 118 85 118 196 C118 291 148 336 228 336 L228 336 Z M397 373 C397 381 392 387 381 390 C332 402 270 411 231 411 C96 411 30 329 30 196 C30 63 96 -5 231 -5 C242 -5 265 -6 309 1 L309 -177 C309 -190 315 -196 328 -196 L378 -196 C391 -196 397 -190 397 -177 L397 373 Z " />
<glyph glyph-name="r" unicode="r" horiz-adv-x="332" d="M289 319 C292 317 295 316 298 316 C303 316 307 318 309 322 L326 364 C327 365 327 368 327 371 C327 378 324 383 318 386 C283 405 252 411 216 411 C170 411 109 405 66 378 C55 371 50 364 50 356 L50 19 C50 6 56 0 69 0 L119 0 C132 0 138 6 138 19 L138 305 C146 333 196 336 220 336 C241 336 264 330 289 319 L289 319 Z " />
<glyph glyph-name="s" unicode="s" horiz-adv-x="389" d="M56 16 C95 0 159 -5 184 -5 C300 -5 364 38 364 118 C364 278 123 211 123 295 C123 331 166 336 237 336 C248 336 280 332 307 329 C311 329 320 329 321 340 C322 355 325 381 325 382 C325 389 322 395 314 398 C272 406 219 411 203 411 C75 411 33 357 33 293 C33 126 274 200 274 115 C274 70 209 70 182 70 C161 70 107 78 70 86 C66 86 59 86 56 75 C52 60 45 33 45 32 C45 25 48 19 56 16 L56 16 Z " />
<glyph glyph-name="t" unicode="t" horiz-adv-x="353" d="M329 3 C335 6 338 11 338 18 C338 21 338 24 337 25 L325 69 C323 73 319 75 314 75 C309 75 306 75 304 74 C297 73 281 70 272 70 C186 70 184 147 184 187 L184 329 L296 329 C309 329 315 335 315 348 L315 386 C315 399 309 405 296 405 L184 405 L184 549 C184 562 178 568 165 568 L131 568 C120 568 113 562 112 549 L93 405 L34 405 C21 405 15 399 15 386 L15 348 C15 335 21 329 34 329 L94 329 L94 212 C94 80 125 -5 255 -5 C278 -5 308 -2 329 3 L329 3 Z " />
<glyph glyph-name="u" unicode="u" horiz-adv-x="445" d="M307 93 C280 72 239 70 227 70 C147 70 128 83 128 182 L128 386 C128 399 122 405 109 405 L59 405 C46 405 40 399 40 386 L40 177 C40 45 97 -5 229 -5 C259 -5 327 -2 389 52 C393 56 395 61 395 67 L395 386 C395 399 389 405 376 405 L326 405 C313 405 307 399 307 386 L307 93 Z " />
<glyph glyph-name="v" unicode="v" horiz-adv-x="416" d="M244 0 C249 0 266 3 273 22 C316 142 358 266 401 386 C401 399 395 405 382 405 L332 405 C321 405 314 399 309 386 L208 87 L107 386 C102 399 95 405 84 405 L34 405 C21 405 15 399 15 386 C58 266 100 142 143 22 C150 3 166 0 173 0 L244 0 Z " />
<glyph glyph-name="w" unicode="w" horiz-adv-x="586" d="M441 386 C453 341 458 284 458 240 C458 133 458 70 400 70 C366 70 341 79 341 179 L341 386 C341 399 335 405 322 405 L272 405 C259 405 253 399 253 386 L253 176 C253 153 253 126 260 95 C245 78 227 70 208 70 C155 70 138 79 138 180 L138 386 C138 399 132 405 119 405 L69 405 C56 405 50 399 50 386 L50 173 C50 72 82 -5 183 -5 C196 -5 267 -5 300 41 C328 8 354 -5 399 -5 C533 -5 546 107 546 239 C546 282 541 342 530 386 C528 399 521 405 509 405 L460 405 C447 405 441 399 441 386 L441 386 Z " />
<glyph glyph-name="x" unicode="x" horiz-adv-x="390" d="M270 19 C277 8 284 0 299 0 L356 0 C369 0 375 6 375 19 L251 203 L375 386 C375 399 369 405 356 405 L299 405 C284 405 277 397 270 386 L195 274 L120 386 C113 397 106 405 91 405 L34 405 C21 405 15 399 15 386 L139 203 L15 19 C15 6 21 0 34 0 L91 0 C106 0 113 8 120 19 L195 131 L270 19 Z " />
<glyph glyph-name="y" unicode="y" horiz-adv-x="438" d="M299 -57 C299 -118 268 -144 223 -144 C156 -144 154 -116 154 -96 C154 -69 172 -45 299 16 L299 -57 Z M300 114 C293 106 285 99 277 92 C262 81 244 70 221 70 C173 70 128 79 128 180 L128 386 C128 399 122 405 109 405 L59 405 C46 405 40 399 40 386 L40 157 C40 94 73 23 129 2 C86 -29 70 -60 70 -105 C70 -209 170 -219 208 -219 C388 -219 388 -98 388 -33 L388 386 C388 399 382 405 369 405 L319 405 C306 405 300 399 300 386 L300 114 Z " />
<glyph glyph-name="z" unicode="z" horiz-adv-x="375" d="M345 386 C345 399 339 405 326 405 L49 405 C36 405 30 399 30 386 L30 348 C30 335 36 329 49 329 L239 329 L30 103 L30 19 C30 6 36 0 49 0 L326 0 C339 0 345 6 345 19 L345 57 C345 70 339 76 326 76 L123 76 L345 318 L345 386 Z " />
<glyph glyph-name="braceleft" unicode="&#x7b;" horiz-adv-x="470" d="M271 521 C271 558 277 634 344 634 C356 634 367 633 377 631 C380 631 381 630 384 630 C391 630 395 632 398 637 L409 677 C410 678 410 681 410 684 C410 691 407 696 401 699 C377 706 351 708 328 708 C203 708 183 625 183 497 L183 397 C183 326 135 309 79 309 C66 309 60 303 60 290 L60 255 C60 242 66 236 79 236 C134 233 183 215 183 147 L183 63 C183 -65 203 -148 328 -148 C351 -148 377 -146 401 -139 C407 -136 410 -131 410 -124 C410 -121 410 -118 409 -117 L398 -77 C395 -72 391 -70 384 -70 C381 -70 380 -71 377 -71 C367 -73 356 -74 344 -74 C277 -74 271 2 271 39 L271 158 C271 196 264 243 199 270 C262 302 271 347 271 385 L271 521 Z " />
<glyph glyph-name="bar" unicode="&#x7c;" horiz-adv-x="208" d="M60 -129 C60 -142 66 -148 79 -148 L129 -148 C142 -148 148 -142 148 -129 L148 689 C148 702 142 708 129 708 L79 708 C66 708 60 702 60 689 L60 -129 Z " />
<glyph glyph-name="braceright" unicode="&#x7d;" horiz-adv-x="470" d="M199 385 C199 347 208 302 271 270 C206 243 199 196 199 158 L199 39 C199 2 193 -74 126 -74 C114 -74 103 -73 93 -71 C90 -71 89 -70 86 -70 C79 -70 74 -72 72 -77 L61 -117 C60 -118 60 -121 60 -124 C60 -131 63 -136 69 -139 C93 -146 119 -148 142 -148 C267 -148 287 -65 287 63 L287 147 C287 215 336 233 391 236 C404 236 410 242 410 255 L410 290 C410 303 404 309 391 309 C335 309 287 326 287 397 L287 497 C287 625 267 708 142 708 C119 708 93 706 69 699 C63 696 60 691 60 684 C60 681 60 678 61 677 L72 637 C74 632 79 630 86 630 C89 630 90 631 93 631 C103 633 114 634 126 634 C193 634 199 558 199 521 L199 385 Z " />
<glyph glyph-name="asciitilde" unicode="&#x7e;" horiz-adv-x="420" d="M281 159 C304 159 337 169 365 190 C368 191 370 195 370 200 C370 203 369 205 368 208 L346 240 C342 245 337 247 330 247 C323 247 317 244 312 241 C304 236 294 233 281 233 C229 233 188 269 139 269 C116 269 83 259 55 238 C52 236 50 233 50 228 C50 225 51 223 52 220 L74 188 C78 183 83 181 90 181 C97 181 103 184 108 187 C116 192 126 195 139 195 C191 195 231 159 281 159 L281 159 Z " />
<glyph glyph-name="uni00A0" unicode="&#xa0;" horiz-adv-x="190" d="" />
<glyph glyph-name="exclamdown" unicode="&#xa1;" horiz-adv-x="198" d="M54 14 C54 1 60 -5 73 -5 L123 -5 C136 -5 142 1 142 14 L137 395 C137 408 131 414 118 414 L78 414 C65 414 59 408 59 395 L54 14 Z M50 519 C50 492 72 470 99 470 C126 470 148 492 148 519 C148 546 126 568 99 568 C72 568 50 546 50 519 L50 519 Z " />
<glyph glyph-name="cent" unicode="&#xa2;" horiz-adv-x="498" d="M258 -81 C258 -92 263 -97 274 -97 L317 -97 C328 -97 333 -92 333 -81 L333 -4 C368 -1 404 6 439 26 C445 29 448 34 448 41 C448 44 448 47 447 48 L430 89 C428 93 424 95 419 95 C416 95 413 94 410 92 C381 77 354 74 333 71 L333 496 C356 493 383 487 410 476 C413 474 416 473 419 473 C424 473 428 475 430 479 L447 519 C448 520 448 523 448 526 C448 533 445 538 439 541 C403 560 368 568 333 571 L333 658 C333 669 328 674 317 674 L274 674 C263 674 258 669 258 658 L258 569 C143 556 50 491 50 280 C50 90 143 14 258 -2 L258 -81 Z M138 280 C138 436 202 480 258 493 L258 80 C202 99 138 152 138 280 L138 280 Z " />
<glyph glyph-name="sterling" unicode="&#xa3;" horiz-adv-x="520" d="M209 365 C209 460 253 497 334 497 C361 497 391 495 432 476 C435 474 438 473 441 473 C446 473 450 475 452 479 L469 521 C470 522 470 525 470 528 C470 535 467 540 461 543 C414 568 368 572 325 572 C190 572 121 500 121 365 L121 299 L69 299 C56 299 50 293 50 280 L50 244 C50 231 56 225 69 225 L121 225 L121 19 C121 6 127 0 140 0 L447 0 C460 0 466 6 466 19 L466 54 C466 67 460 73 447 73 L209 73 L209 225 L315 225 C328 225 334 231 334 244 L334 280 C334 293 328 299 315 299 L209 299 L209 365 Z " />
<glyph glyph-name="currency" unicode="&#xa4;" horiz-adv-x="488" d="M244 137 C207 137 176 167 176 203 C176 240 207 271 244 271 C280 271 311 240 311 203 C311 167 280 137 244 137 L244 137 Z M244 57 C269 57 292 63 311 74 L362 23 C368 18 374 16 379 16 C384 16 389 18 394 23 L431 60 C436 65 438 70 438 76 C438 83 436 88 431 92 L379 145 C386 164 390 183 390 203 C390 224 386 244 378 262 L431 315 C436 319 438 324 438 331 C438 338 436 343 431 347 L394 385 C389 389 384 391 379 391 C372 391 367 388 362 385 L311 333 C292 344 269 349 244 349 C219 349 196 344 177 333 L126 385 C121 388 116 391 109 391 C104 391 99 389 94 385 L57 347 C52 343 50 338 50 331 C50 324 52 319 57 315 L110 262 C102 244 98 224 98 203 C98 183 102 164 109 145 L57 92 C52 88 50 83 50 76 C50 70 52 65 57 60 L94 23 C99 18 104 16 109 16 C114 16 120 18 126 23 L177 74 C196 63 219 57 244 57 L244 57 Z " />
<glyph glyph-name="yen" unicode="&#xa5;" horiz-adv-x="556" d="M403 60 C416 60 422 66 422 79 L422 115 C422 128 416 134 403 134 L322 134 L322 159 L326 167 L403 167 C416 167 422 173 422 186 L422 222 C422 235 416 241 403 241 L361 241 L506 549 C506 562 500 568 487 568 L433 568 C422 568 415 560 410 549 L278 271 L146 549 C141 560 134 568 123 568 L69 568 C56 568 50 562 50 549 L195 241 L153 241 C140 241 134 235 134 222 L134 186 C134 173 140 167 153 167 L230 167 L234 159 L234 134 L153 134 C140 134 134 128 134 115 L134 79 C134 66 140 60 153 60 L234 60 L234 19 C234 6 240 0 253 0 L303 0 C316 0 322 6 322 19 L322 60 L403 60 Z " />
<glyph glyph-name="brokenbar" unicode="&#xa6;" horiz-adv-x="188" d="M50 402 C50 389 56 383 69 383 L119 383 C132 383 138 389 138 402 L138 701 C138 714 132 720 119 720 L69 720 C56 720 50 714 50 701 L50 402 Z M50 -116 C50 -129 56 -135 69 -135 L119 -135 C132 -135 138 -129 138 -116 L138 183 C138 196 132 202 119 202 L69 202 C56 202 50 196 50 183 L50 -116 Z " />
<glyph glyph-name="section" unicode="&#xa7;" horiz-adv-x="431" d="M73 16 C112 0 176 -5 201 -5 C317 -5 381 38 381 118 C381 157 368 182 347 199 C370 217 381 244 381 279 C381 439 140 372 140 456 C140 492 183 497 254 497 C265 497 297 493 324 490 C328 490 337 490 338 501 C339 516 342 542 342 543 C342 550 339 556 331 559 C289 567 236 572 220 572 C92 572 50 518 50 454 C50 414 64 389 85 370 C60 351 50 324 50 293 C50 126 291 200 291 115 C291 70 226 70 199 70 C178 70 124 78 87 86 C83 86 76 86 73 75 C69 60 62 33 62 32 C62 25 65 19 73 16 L73 16 Z M140 295 C140 320 163 331 191 331 C235 331 291 305 291 276 C291 249 265 242 240 242 C196 242 140 263 140 295 L140 295 Z " />
<glyph glyph-name="dieresis" unicode="&#xa8;" horiz-adv-x="369" d="M50 522 C50 494 71 473 99 473 C127 473 149 494 149 522 C149 550 127 572 99 572 C71 572 50 550 50 522 L50 522 Z M220 522 C220 494 241 473 269 473 C297 473 319 494 319 522 C319 550 297 572 269 572 C241 572 220 550 220 522 L220 522 Z " />
<glyph glyph-name="copyright" unicode="&#xa9;" horiz-adv-x="677" d="M338 572 C178 572 50 443 50 283 C50 123 178 -5 338 -5 C498 -5 627 123 627 283 C627 443 498 572 338 572 L338 572 Z M338 55 C211 55 109 155 109 283 C109 410 211 512 338 512 C466 512 566 410 566 283 C566 155 466 55 338 55 L338 55 Z M442 400 C407 421 375 429 343 429 C247 429 198 370 198 282 C198 187 247 133 343 133 C375 133 410 137 442 161 C448 166 451 171 451 176 C451 183 449 186 442 197 C434 210 429 212 422 212 C419 212 416 211 412 210 C385 195 367 196 350 196 C313 196 265 207 265 282 C265 339 302 367 350 367 C367 367 385 367 412 355 C415 353 418 352 422 352 C429 352 434 355 437 361 C448 386 449 390 449 391 C449 394 447 397 442 400 L442 400 Z " />
<glyph glyph-name="ordfeminine" unicode="&#xaa;" horiz-adv-x="365" d="M242 360 C239 355 236 350 231 346 C223 339 211 333 196 333 C166 333 123 339 123 406 C123 459 154 505 242 505 L242 360 Z M309 553 C274 572 248 572 213 572 C113 572 50 499 50 403 C50 334 82 264 159 264 C171 264 205 264 238 295 L258 275 C265 268 273 265 280 265 L300 265 C304 265 315 268 315 283 L315 544 C315 547 313 550 309 553 L309 553 Z " />
<glyph glyph-name="guillemotleft" unicode="&#xab;" horiz-adv-x="448" d="M188 382 C188 395 178 405 165 405 L125 405 C112 405 105 395 102 382 L53 232 C52 229 50 222 50 218 L50 190 C50 186 52 179 53 176 L102 23 C105 10 112 0 125 0 L165 0 C178 0 188 10 188 23 L138 176 C137 179 135 186 135 190 L135 218 C135 222 137 229 138 232 L188 382 Z M398 382 C398 395 388 405 375 405 L335 405 C322 405 315 395 312 382 L263 232 C262 229 260 222 260 218 L260 190 C260 186 262 179 263 176 L312 23 C315 10 322 0 335 0 L375 0 C388 0 398 10 398 23 L348 176 C347 179 345 186 345 190 L345 218 C345 222 347 229 348 232 L398 382 Z " />
<glyph glyph-name="logicalnot" unicode="&#xac;" horiz-adv-x="445" d="M307 65 C307 52 313 46 326 46 L376 46 C389 46 395 52 395 65 L395 214 C395 227 389 233 376 233 L69 233 C56 233 50 227 50 214 L50 179 C50 166 56 160 69 160 L307 160 L307 65 Z " />
<glyph glyph-name="uni00AD" unicode="&#xad;" horiz-adv-x="189" d="" />
<glyph glyph-name="registered" unicode="&#xae;" horiz-adv-x="677" d="M338 572 C178 572 50 443 50 283 C50 123 178 -5 338 -5 C498 -5 627 123 627 283 C627 443 498 572 338 572 L338 572 Z M338 55 C211 55 109 155 109 283 C109 410 211 512 338 512 C466 512 566 410 566 283 C566 155 466 55 338 55 L338 55 Z M250 433 C242 433 238 429 238 421 L238 153 C238 145 242 141 250 141 L293 141 C301 141 305 145 305 153 L305 215 L355 215 C374 162 373 138 406 138 C418 138 445 141 445 155 L445 173 C445 178 443 182 440 184 C435 187 433 192 428 204 L413 238 C437 253 454 284 454 325 C454 393 409 433 340 433 L250 433 Z M305 278 L305 370 L347 370 C371 370 387 361 387 326 C387 286 372 278 347 278 L305 278 Z " />
<glyph glyph-name="macron" unicode="&#xaf;" horiz-adv-x="384" d="M315 494 C328 494 334 500 334 513 L334 549 C334 562 328 568 315 568 L69 568 C56 568 50 562 50 549 L50 513 C50 500 56 494 69 494 L315 494 Z " />
<glyph glyph-name="degree" unicode="&#xb0;" horiz-adv-x="301" d="M150 428 C139 428 115 434 115 466 C115 499 139 506 150 506 C161 506 186 499 186 466 C186 434 161 428 150 428 L150 428 Z M150 361 C210 361 251 394 251 466 C251 538 210 572 150 572 C90 572 50 538 50 466 C50 394 90 361 150 361 L150 361 Z " />
<glyph glyph-name="plusminus" unicode="&#xb1;" horiz-adv-x="386" d="M69 302 C56 302 50 296 50 283 L50 247 C50 234 56 228 69 228 L149 228 L149 138 C149 125 155 119 168 119 L218 119 C231 119 237 125 237 138 L237 228 L317 228 C330 228 336 234 336 247 L336 283 C336 296 330 302 317 302 L237 302 L237 392 C237 405 231 411 218 411 L168 411 C155 411 149 405 149 392 L149 302 L69 302 Z M69 0 C56 0 50 6 50 19 L50 55 C50 68 56 74 69 74 L317 74 C330 74 336 68 336 55 L336 19 C336 6 330 0 317 0 L69 0 Z " />
<glyph glyph-name="twosuperior" unicode="&#xb2;" horiz-adv-x="319" d="M78 561 C71 560 66 553 66 548 C66 544 66 528 67 509 C68 498 75 498 83 498 C104 501 133 504 141 504 C174 504 198 501 198 477 C198 441 50 456 50 327 L50 277 C50 268 54 264 63 264 L251 264 C260 264 264 268 264 277 L264 319 C264 328 260 332 251 332 L124 332 L124 347 C124 396 269 389 269 482 C269 531 242 572 145 572 C134 572 105 569 78 561 L78 561 Z " />
<glyph glyph-name="threesuperior" unicode="&#xb3;" horiz-adv-x="309" d="M137 382 C170 381 186 370 186 350 C186 331 166 327 131 327 C124 327 89 331 67 334 C60 334 53 333 52 322 C51 303 50 284 50 280 C50 273 57 271 64 268 C91 261 126 259 137 259 C210 259 259 293 259 353 C259 378 244 400 225 415 C242 426 259 453 259 480 C259 536 233 572 141 572 C129 572 91 569 64 562 C57 559 50 557 50 550 C50 546 51 526 52 507 C53 498 60 496 67 496 C89 499 130 504 137 504 C170 504 186 496 186 479 C186 450 166 448 135 448 L112 448 C103 448 99 444 99 436 L99 394 C99 386 103 382 112 382 L137 382 Z " />
<glyph glyph-name="acute" unicode="&#xb4;" horiz-adv-x="259" d="M53 462 C51 459 50 456 50 453 C50 446 58 439 61 436 C68 429 76 418 89 418 C96 418 104 420 111 425 L206 503 C208 506 209 510 209 516 C209 524 207 530 203 534 L171 569 C168 571 163 572 156 572 C148 571 147 570 140 563 L53 462 Z " />
<glyph glyph-name="mu" unicode="&#xb5;" horiz-adv-x="455" d="M50 -187 C50 -200 56 -206 69 -206 L119 -206 C132 -206 138 -200 138 -187 L138 10 C165 0 198 -5 239 -5 C269 -5 337 -2 399 52 C403 56 405 61 405 67 L405 386 C405 399 399 405 386 405 L336 405 C323 405 317 399 317 386 L317 93 C290 72 249 70 237 70 C161 70 138 82 138 168 L138 386 C138 399 132 405 119 405 L69 405 C56 405 50 399 50 386 L50 -187 Z " />
<glyph glyph-name="paragraph" unicode="&#xb6;" horiz-adv-x="560" d="M510 549 C510 562 504 568 491 568 L208 568 C120 568 50 496 50 409 C50 326 124 258 218 253 L218 19 C218 6 224 0 237 0 L287 0 C300 0 306 6 306 19 L306 495 L422 495 L422 19 C422 6 428 0 441 0 L491 0 C504 0 510 6 510 19 L510 549 Z " />
<glyph glyph-name="periodcentered" unicode="&#xb7;" horiz-adv-x="200" d="M50 164 C50 137 73 114 100 114 C127 114 150 137 150 164 C150 191 127 213 100 213 C73 213 50 191 50 164 L50 164 Z " />
<glyph glyph-name="cedilla" unicode="&#xb8;" horiz-adv-x="273" d="M140 -18 C144 -30 152 -48 152 -71 C152 -96 129 -107 98 -107 C90 -107 80 -105 68 -102 C55 -102 50 -105 50 -124 L50 -151 C50 -164 87 -174 126 -174 C182 -174 223 -141 223 -65 C223 -48 222 -34 219 -19 C219 -6 213 0 200 0 L157 0 C150 -1 139 -3 139 -14 C139 -15 140 -15 140 -18 L140 -18 Z " />
<glyph glyph-name="onesuperior" unicode="&#xb9;" horiz-adv-x="265" d="M54 510 C51 507 50 504 50 500 L50 445 C50 436 54 432 62 432 L144 486 L144 268 C144 260 148 256 157 256 L203 256 C211 256 215 260 215 268 L215 556 C215 564 211 568 203 568 L145 568 L54 510 Z " />
<glyph glyph-name="ordmasculine" unicode="&#xba;" horiz-adv-x="301" d="M150 428 C139 428 115 434 115 466 C115 499 139 506 150 506 C161 506 186 499 186 466 C186 434 161 428 150 428 L150 428 Z M150 361 C210 361 251 394 251 466 C251 538 210 572 150 572 C90 572 50 538 50 466 C50 394 90 361 150 361 L150 361 Z " />
<glyph glyph-name="guillemotright" unicode="&#xbb;" horiz-adv-x="448" d="M310 232 C311 229 313 222 313 218 L313 190 C313 186 311 179 310 176 L260 23 C260 10 270 0 283 0 L323 0 C336 0 343 10 346 23 L395 176 C396 179 398 186 398 190 L398 218 C398 222 396 229 395 232 L346 382 C343 395 336 405 323 405 L283 405 C270 405 260 395 260 382 L310 232 Z M100 232 C101 229 103 222 103 218 L103 190 C103 186 101 179 100 176 L50 23 C50 10 60 0 73 0 L113 0 C126 0 133 10 136 23 L185 176 C186 179 188 186 188 190 L188 218 C188 222 186 229 185 232 L136 382 C133 395 126 405 113 405 L73 405 C60 405 50 395 50 382 L100 232 Z " />
<glyph glyph-name="onequarter" unicode="&#xbc;" horiz-adv-x="713" d="M432 544 C439 557 446 568 459 568 L492 568 C505 568 515 558 515 545 L261 24 C254 11 247 0 234 0 L201 0 C188 0 178 10 178 23 L432 544 Z M54 510 C51 507 50 504 50 500 L50 445 C50 436 54 432 62 432 L144 486 L144 268 C144 260 148 256 157 256 L203 256 C211 256 215 260 215 268 L215 556 C215 564 211 568 203 568 L145 568 L54 510 Z M667 66 C674 66 679 71 679 78 L679 120 C679 127 674 133 667 133 L640 133 L640 299 C640 306 635 311 626 312 L576 312 C569 312 561 306 556 299 L421 133 L421 78 C421 70 425 66 434 66 L569 66 L569 13 C569 4 573 0 582 0 L627 0 C636 0 640 4 640 13 L640 66 L667 66 Z M511 133 L569 205 L569 133 L511 133 Z " />
<glyph glyph-name="onehalf" unicode="&#xbd;" horiz-adv-x="711" d="M470 297 C463 296 458 289 458 284 C458 280 458 264 459 245 C460 234 467 234 475 234 C496 237 525 240 533 240 C566 240 590 237 590 213 C590 177 442 192 442 63 L442 13 C442 4 446 0 455 0 L643 0 C652 0 656 4 656 13 L656 55 C656 64 652 68 643 68 L516 68 L516 83 C516 132 661 125 661 218 C661 267 634 308 537 308 C526 308 497 305 470 297 L470 297 Z M54 510 C51 507 50 504 50 500 L50 445 C50 436 54 432 62 432 L144 486 L144 268 C144 260 148 256 157 256 L203 256 C211 256 215 260 215 268 L215 556 C215 564 211 568 203 568 L145 568 L54 510 Z M178 23 C178 10 188 0 201 0 L234 0 C247 0 254 11 261 24 L515 545 C515 558 505 568 492 568 L459 568 C446 568 439 557 432 544 L178 23 Z " />
<glyph glyph-name="threequarters" unicode="&#xbe;" horiz-adv-x="729" d="M458 544 C465 557 472 568 485 568 L518 568 C531 568 541 558 541 545 L287 24 C280 11 273 0 260 0 L227 0 C214 0 204 10 204 23 L458 544 Z M137 378 C170 377 186 366 186 346 C186 327 166 323 131 323 C124 323 89 327 67 330 C60 330 53 329 52 318 C51 299 50 280 50 276 C50 269 57 267 64 264 C91 257 126 255 137 255 C210 255 259 289 259 349 C259 374 244 396 225 411 C242 422 259 449 259 476 C259 532 233 568 141 568 C129 568 91 565 64 558 C57 555 50 553 50 546 C50 542 51 522 52 503 C53 494 60 492 67 492 C89 495 130 500 137 500 C170 500 186 492 186 475 C186 446 166 444 135 444 L112 444 C103 444 99 440 99 432 L99 390 C99 382 103 378 112 378 L137 378 Z M667 66 C674 66 679 71 679 78 L679 120 C679 127 674 133 667 133 L640 133 L640 299 C640 306 635 311 626 312 L576 312 C569 312 561 306 556 299 L421 133 L421 78 C421 70 425 66 434 66 L569 66 L569 13 C569 4 573 0 582 0 L627 0 C636 0 640 4 640 13 L640 66 L667 66 Z M511 133 L569 205 L569 133 L511 133 Z " />
<glyph glyph-name="questiondown" unicode="&#xbf;" horiz-adv-x="439" d="M367 81 C354 80 341 78 328 76 C305 73 283 69 259 69 C165 69 138 74 138 136 C138 242 320 196 320 361 L320 396 C320 409 314 415 301 415 L251 415 C238 415 232 409 232 396 L232 378 C232 252 50 286 50 138 C50 50 77 -5 252 -5 C273 -5 325 -2 377 13 C385 16 389 17 389 32 L386 72 C382 80 378 81 367 81 L367 81 Z M324 523 C324 550 302 572 275 572 C248 572 226 550 226 523 C226 496 248 474 275 474 C302 474 324 496 324 523 L324 523 Z " />
<glyph glyph-name="Agrave" unicode="&#xc0;" horiz-adv-x="530" d="M265 481 L358 211 L173 211 L265 481 Z M413 51 C428 14 441 -5 480 -5 C500 -5 520 -2 520 9 L520 39 C520 40 520 50 511 54 C503 58 496 73 488 96 C438 234 366 450 331 546 C324 565 308 568 301 568 L230 568 C223 568 207 565 200 546 C156 427 59 138 15 19 C15 6 21 0 34 0 L84 0 C95 0 102 6 107 19 L148 137 L384 137 L413 51 Z M236 787 C229 794 228 795 220 796 C213 796 208 795 205 793 L173 758 C169 754 167 748 167 740 C167 734 168 730 170 727 L265 649 C272 644 280 642 287 642 C300 642 308 653 315 660 C318 663 326 670 326 677 C326 680 325 683 323 686 L236 787 Z " />
<glyph glyph-name="Aacute" unicode="&#xc1;" horiz-adv-x="530" d="M265 481 L358 211 L173 211 L265 481 Z M413 51 C428 14 441 -5 480 -5 C500 -5 520 -2 520 9 L520 39 C520 40 520 50 511 54 C503 58 496 73 488 96 C438 234 366 450 331 546 C324 565 308 568 301 568 L230 568 C223 568 207 565 200 546 C156 427 59 138 15 19 C15 6 21 0 34 0 L84 0 C95 0 102 6 107 19 L148 137 L384 137 L413 51 Z M170 686 C168 683 167 680 167 677 C167 670 175 663 178 660 C185 653 193 642 206 642 C213 642 221 644 228 649 L323 727 C325 730 326 734 326 740 C326 748 324 754 320 758 L288 793 C285 795 280 796 273 796 C265 795 264 794 257 787 L170 686 Z " />
<glyph glyph-name="Acircumflex" unicode="&#xc2;" horiz-adv-x="530" d="M265 481 L358 211 L173 211 L265 481 Z M413 51 C428 14 441 -5 480 -5 C500 -5 520 -2 520 9 L520 39 C520 40 520 50 511 54 C503 58 496 73 488 96 C438 234 366 450 331 546 C324 565 308 568 301 568 L230 568 C223 568 207 565 200 546 C156 427 59 138 15 19 C15 6 21 0 34 0 L84 0 C95 0 102 6 107 19 L148 137 L384 137 L413 51 Z M223 796 C214 796 207 791 202 781 L145 656 C146 645 154 642 159 642 L209 642 C220 642 226 649 229 657 L265 742 L300 657 C303 649 309 642 320 642 L369 642 C374 642 382 645 383 656 L327 781 C324 791 317 796 306 796 L223 796 Z " />
<glyph glyph-name="Atilde" unicode="&#xc3;" horiz-adv-x="530" d="M265 481 L358 211 L173 211 L265 481 Z M413 51 C428 14 441 -5 480 -5 C500 -5 520 -2 520 9 L520 39 C520 40 520 50 511 54 C503 58 496 73 488 96 C438 234 366 450 331 546 C324 565 308 568 301 568 L230 568 C223 568 207 565 200 546 C156 427 59 138 15 19 C15 6 21 0 34 0 L84 0 C95 0 102 6 107 19 L148 137 L384 137 L413 51 Z M335 642 C358 642 391 652 419 673 C422 674 424 678 424 683 C424 686 423 688 422 691 L400 723 C396 728 391 730 384 730 C377 730 371 727 366 724 C358 719 348 716 335 716 C283 716 242 752 193 752 C170 752 137 742 109 721 C106 719 104 716 104 711 C104 708 105 706 106 703 L128 671 C132 666 137 664 144 664 C151 664 157 667 162 670 C170 675 180 678 193 678 C245 678 285 642 335 642 L335 642 Z " />
<glyph glyph-name="Adieresis" unicode="&#xc4;" horiz-adv-x="530" d="M265 481 L358 211 L173 211 L265 481 Z M413 51 C428 14 441 -5 480 -5 C500 -5 520 -2 520 9 L520 39 C520 40 520 50 511 54 C503 58 496 73 488 96 C438 234 366 450 331 546 C324 565 308 568 301 568 L230 568 C223 568 207 565 200 546 C156 427 59 138 15 19 C15 6 21 0 34 0 L84 0 C95 0 102 6 107 19 L148 137 L384 137 L413 51 Z M132 691 C132 663 153 642 181 642 C209 642 231 663 231 691 C231 719 209 741 181 741 C153 741 132 719 132 691 L132 691 Z M302 691 C302 663 323 642 351 642 C379 642 401 663 401 691 C401 719 379 741 351 741 C323 741 302 719 302 691 L302 691 Z " />
<glyph glyph-name="Aring" unicode="&#xc5;" horiz-adv-x="530" d="M265 481 L358 211 L173 211 L265 481 Z M413 51 C428 14 441 -5 480 -5 C500 -5 520 -2 520 9 L520 39 C520 40 520 50 511 54 C503 58 496 73 488 96 C438 234 366 450 331 546 C324 565 308 568 301 568 L230 568 C223 568 207 565 200 546 C156 427 59 138 15 19 C15 6 21 0 34 0 L84 0 C95 0 102 6 107 19 L148 137 L384 137 L413 51 Z M265 709 C254 709 230 715 230 747 C230 780 254 787 265 787 C276 787 301 780 301 747 C301 715 276 709 265 709 L265 709 Z M265 642 C325 642 366 675 366 747 C366 819 325 853 265 853 C205 853 165 819 165 747 C165 675 205 642 265 642 L265 642 Z " />
<glyph glyph-name="AE" unicode="&#xc6;" horiz-adv-x="816" d="M418 211 L234 211 L418 496 L418 211 Z M10 19 C10 6 16 0 29 0 L86 0 C97 0 107 8 114 19 L188 137 L418 137 L418 19 C418 6 424 0 437 0 L762 0 C775 0 781 6 781 19 L781 54 C781 67 775 73 762 73 L506 73 L506 246 L693 246 C706 246 712 252 712 265 L712 301 C712 314 706 320 693 320 L506 320 L506 494 L762 494 C775 494 781 500 781 513 L781 549 C781 562 775 568 762 568 L370 568 C365 568 356 562 349 553 L10 19 Z " />
<glyph glyph-name="Ccedilla" unicode="&#xc7;" horiz-adv-x="458" d="M424 541 C377 566 331 572 288 572 C154 572 35 516 35 280 C35 90 128 14 243 -2 C252 -10 255 -31 255 -55 C255 -80 232 -91 201 -91 C193 -91 183 -89 171 -86 C158 -86 153 -89 153 -108 L153 -135 C153 -148 190 -158 229 -158 C285 -158 326 -125 326 -49 C326 -32 325 -17 322 -4 C357 -1 392 6 424 26 C430 29 433 34 433 41 C433 44 433 47 432 48 L415 89 C413 93 409 95 404 95 C401 95 398 94 395 92 C356 73 322 70 298 70 C243 70 123 107 123 280 C123 491 243 498 298 498 C321 498 359 491 395 476 C398 474 401 473 404 473 C409 473 413 475 415 479 L432 519 C433 520 433 523 433 526 C433 533 430 538 424 541 L424 541 Z " />
<glyph glyph-name="Egrave" unicode="&#xc8;" horiz-adv-x="438" d="M394 0 C407 0 413 6 413 19 L413 54 C413 67 407 73 394 73 L138 73 L138 246 L325 246 C338 246 344 252 344 265 L344 301 C344 314 338 320 325 320 L138 320 L138 494 L394 494 C407 494 413 500 413 513 L413 549 C413 562 407 568 394 568 L69 568 C56 568 50 562 50 549 L50 19 C50 6 56 0 69 0 L394 0 Z M215 787 C208 794 207 795 199 796 C192 796 187 795 184 793 L152 758 C148 754 146 748 146 740 C146 734 147 730 149 727 L244 649 C251 644 259 642 266 642 C279 642 287 653 294 660 C297 663 305 670 305 677 C305 680 304 683 302 686 L215 787 Z " />
<glyph glyph-name="Eacute" unicode="&#xc9;" horiz-adv-x="438" d="M394 0 C407 0 413 6 413 19 L413 54 C413 67 407 73 394 73 L138 73 L138 246 L325 246 C338 246 344 252 344 265 L344 301 C344 314 338 320 325 320 L138 320 L138 494 L394 494 C407 494 413 500 413 513 L413 549 C413 562 407 568 394 568 L69 568 C56 568 50 562 50 549 L50 19 C50 6 56 0 69 0 L394 0 Z M149 686 C147 683 146 680 146 677 C146 670 154 663 157 660 C164 653 172 642 185 642 C192 642 200 644 207 649 L302 727 C304 730 305 734 305 740 C305 748 303 754 299 758 L267 793 C264 795 259 796 252 796 C244 795 243 794 236 787 L149 686 Z " />
<glyph glyph-name="Ecircumflex" unicode="&#xca;" horiz-adv-x="438" d="M394 0 C407 0 413 6 413 19 L413 54 C413 67 407 73 394 73 L138 73 L138 246 L325 246 C338 246 344 252 344 265 L344 301 C344 314 338 320 325 320 L138 320 L138 494 L394 494 C407 494 413 500 413 513 L413 549 C413 562 407 568 394 568 L69 568 C56 568 50 562 50 549 L50 19 C50 6 56 0 69 0 L394 0 Z M198 796 C189 796 182 791 177 781 L120 656 C121 645 129 642 134 642 L184 642 C195 642 201 649 204 657 L240 742 L275 657 C278 649 284 642 295 642 L344 642 C349 642 357 645 358 656 L302 781 C299 791 292 796 281 796 L198 796 Z " />
<glyph glyph-name="Edieresis" unicode="&#xcb;" horiz-adv-x="438" d="M394 0 C407 0 413 6 413 19 L413 54 C413 67 407 73 394 73 L138 73 L138 246 L325 246 C338 246 344 252 344 265 L344 301 C344 314 338 320 325 320 L138 320 L138 494 L394 494 C407 494 413 500 413 513 L413 549 C413 562 407 568 394 568 L69 568 C56 568 50 562 50 549 L50 19 C50 6 56 0 69 0 L394 0 Z M103 691 C103 663 124 642 152 642 C180 642 202 663 202 691 C202 719 180 741 152 741 C124 741 103 719 103 691 L103 691 Z M273 691 C273 663 294 642 322 642 C350 642 372 663 372 691 C372 719 350 741 322 741 C294 741 273 719 273 691 L273 691 Z " />
<glyph glyph-name="Igrave" unicode="&#xcc;" horiz-adv-x="188" d="M50 19 C50 6 56 0 69 0 L119 0 C132 0 138 6 138 19 L138 549 C138 562 132 568 119 568 L69 568 C56 568 50 562 50 549 L50 19 Z M83 787 C76 794 75 795 67 796 C60 796 55 795 52 793 L20 758 C16 754 14 748 14 740 C14 734 15 730 17 727 L112 649 C119 644 127 642 134 642 C147 642 155 653 162 660 C165 663 173 670 173 677 C173 680 172 683 170 686 L83 787 Z " />
<glyph glyph-name="Iacute" unicode="&#xcd;" horiz-adv-x="188" d="M138 549 C138 562 132 568 119 568 L69 568 C56 568 50 562 50 549 L50 19 C50 6 56 0 69 0 L119 0 C132 0 138 6 138 19 L138 549 Z M18 686 C16 683 15 680 15 677 C15 670 23 663 26 660 C33 653 41 642 54 642 C61 642 69 644 76 649 L171 727 C173 730 174 734 174 740 C174 748 172 754 168 758 L136 793 C133 795 128 796 121 796 C113 795 112 794 105 787 L18 686 Z " />
<glyph glyph-name="Icircumflex" unicode="&#xce;" horiz-adv-x="188" d="M50 19 C50 6 56 0 69 0 L119 0 C132 0 138 6 138 19 L138 549 C138 562 132 568 119 568 L69 568 C56 568 50 562 50 549 L50 19 Z M51 796 C42 796 35 791 30 781 L-27 656 C-26 645 -18 642 -13 642 L37 642 C48 642 54 649 57 657 L93 742 L128 657 C131 649 137 642 148 642 L197 642 C202 642 210 645 211 656 L155 781 C152 791 145 796 134 796 L51 796 Z " />
<glyph glyph-name="Idieresis" unicode="&#xcf;" horiz-adv-x="188" d="M50 19 C50 6 56 0 69 0 L119 0 C132 0 138 6 138 19 L138 549 C138 562 132 568 119 568 L69 568 C56 568 50 562 50 549 L50 19 Z M-30 691 C-30 663 -9 642 19 642 C47 642 69 663 69 691 C69 719 47 741 19 741 C-9 741 -30 719 -30 691 L-30 691 Z M119 691 C119 663 140 642 168 642 C196 642 218 663 218 691 C218 719 196 741 168 741 C140 741 119 719 119 691 L119 691 Z " />
<glyph glyph-name="Eth" unicode="&#xd0;" horiz-adv-x="538" d="M102 19 C102 6 108 0 121 0 L305 0 C434 0 503 71 503 200 L503 368 C503 497 434 568 305 568 L121 568 C108 568 102 562 102 549 L102 315 L34 315 C21 315 15 309 15 296 L15 260 C15 247 21 241 34 241 L102 241 L102 19 Z M280 241 C293 241 299 247 299 260 L299 296 C299 309 293 315 280 315 L190 315 L190 494 L301 494 C361 494 415 458 415 366 L415 202 C415 110 361 74 301 74 L190 74 L190 241 L280 241 Z " />
<glyph glyph-name="Ntilde" unicode="&#xd1;" horiz-adv-x="539" d="M164 546 C151 567 132 568 127 568 L69 568 C56 568 50 562 50 549 L50 19 C50 6 56 0 69 0 L119 0 C132 0 138 6 138 19 L138 421 L383 22 C396 1 415 0 420 0 L470 0 C483 0 489 6 489 19 L489 549 C489 562 483 568 470 568 L420 568 C407 568 401 562 401 549 L401 160 L164 546 Z M340 642 C363 642 396 652 424 673 C427 674 429 678 429 683 C429 686 428 688 427 691 L405 723 C401 728 396 730 389 730 C382 730 376 727 371 724 C363 719 353 716 340 716 C288 716 247 752 198 752 C175 752 142 742 114 721 C111 719 109 716 109 711 C109 708 110 706 111 703 L133 671 C137 666 142 664 149 664 C156 664 162 667 167 670 C175 675 185 678 198 678 C250 678 290 642 340 642 L340 642 Z " />
<glyph glyph-name="Ograve" unicode="&#xd2;" horiz-adv-x="570" d="M285 70 C217 70 128 91 128 280 C128 483 218 497 285 497 C351 497 442 483 442 280 C442 91 353 70 285 70 L285 70 Z M285 -5 C420 -5 530 59 530 280 C530 516 418 572 285 572 C152 572 40 516 40 280 C40 59 150 -5 285 -5 L285 -5 Z M241 787 C234 794 233 795 225 796 C218 796 213 795 210 793 L178 758 C174 754 172 748 172 740 C172 734 173 730 175 727 L270 649 C277 644 285 642 292 642 C305 642 313 653 320 660 C323 663 331 670 331 677 C331 680 330 683 328 686 L241 787 Z " />
<glyph glyph-name="Oacute" unicode="&#xd3;" horiz-adv-x="570" d="M285 70 C217 70 128 91 128 280 C128 483 218 497 285 497 C351 497 442 483 442 280 C442 91 353 70 285 70 L285 70 Z M285 -5 C420 -5 530 59 530 280 C530 516 418 572 285 572 C152 572 40 516 40 280 C40 59 150 -5 285 -5 L285 -5 Z M242 686 C240 683 239 680 239 677 C239 670 247 663 250 660 C257 653 265 642 278 642 C285 642 293 644 300 649 L395 727 C397 730 398 734 398 740 C398 748 396 754 392 758 L360 793 C357 795 352 796 345 796 C337 795 336 794 329 787 L242 686 Z " />
<glyph glyph-name="Ocircumflex" unicode="&#xd4;" horiz-adv-x="570" d="M285 70 C217 70 128 91 128 280 C128 483 218 497 285 497 C351 497 442 483 442 280 C442 91 353 70 285 70 L285 70 Z M285 -5 C420 -5 530 59 530 280 C530 516 418 572 285 572 C152 572 40 516 40 280 C40 59 150 -5 285 -5 L285 -5 Z M244 796 C235 796 228 791 223 781 L166 656 C167 645 175 642 180 642 L230 642 C241 642 247 649 250 657 L286 742 L321 657 C324 649 330 642 341 642 L390 642 C395 642 403 645 404 656 L348 781 C345 791 338 796 327 796 L244 796 Z " />
<glyph glyph-name="Otilde" unicode="&#xd5;" horiz-adv-x="570" d="M285 70 C217 70 128 91 128 280 C128 483 218 497 285 497 C351 497 442 483 442 280 C442 91 353 70 285 70 L285 70 Z M285 -5 C420 -5 530 59 530 280 C530 516 418 572 285 572 C152 572 40 516 40 280 C40 59 150 -5 285 -5 L285 -5 Z M356 642 C379 642 412 652 440 673 C443 674 445 678 445 683 C445 686 444 688 443 691 L421 723 C417 728 412 730 405 730 C398 730 392 727 387 724 C379 719 369 716 356 716 C304 716 263 752 214 752 C191 752 158 742 130 721 C127 719 125 716 125 711 C125 708 126 706 127 703 L149 671 C153 666 158 664 165 664 C172 664 178 667 183 670 C191 675 201 678 214 678 C266 678 306 642 356 642 L356 642 Z " />
<glyph glyph-name="Odieresis" unicode="&#xd6;" horiz-adv-x="570" d="M285 70 C217 70 128 91 128 280 C128 483 218 497 285 497 C351 497 442 483 442 280 C442 91 353 70 285 70 L285 70 Z M285 -5 C420 -5 530 59 530 280 C530 516 418 572 285 572 C152 572 40 516 40 280 C40 59 150 -5 285 -5 L285 -5 Z M152 691 C152 663 173 642 201 642 C229 642 251 663 251 691 C251 719 229 741 201 741 C173 741 152 719 152 691 L152 691 Z M322 691 C322 663 343 642 371 642 C399 642 421 663 421 691 C421 719 399 741 371 741 C343 741 322 719 322 691 L322 691 Z " />
<glyph glyph-name="multiply" unicode="&#xd7;" horiz-adv-x="406" d="M251 74 C258 63 265 55 280 55 L337 55 C350 55 356 61 356 74 L259 218 L356 360 C356 373 350 379 337 379 L280 379 C265 379 258 371 251 360 L203 289 L155 360 C148 371 141 379 126 379 L69 379 C56 379 50 373 50 360 L147 218 L50 74 C50 61 56 55 69 55 L126 55 C141 55 148 63 155 74 L203 146 L251 74 Z " />
<glyph glyph-name="Oslash" unicode="&#xd8;" horiz-adv-x="570" d="M457 658 C457 671 451 677 438 677 L395 677 C384 677 377 671 372 658 L341 568 C322 571 304 572 285 572 C152 572 40 516 40 280 C40 137 85 61 153 24 L114 -89 C114 -102 120 -108 133 -108 L178 -108 C189 -108 196 -102 201 -89 L231 -1 C246 -4 264 -5 285 -5 C420 -5 530 59 530 280 C530 432 484 507 418 544 L457 658 Z M128 280 C128 483 218 497 285 497 C296 497 305 498 316 495 L181 104 C150 133 128 185 128 280 L128 280 Z M285 70 C276 70 267 69 256 72 L390 463 C421 432 442 380 442 280 C442 91 353 70 285 70 L285 70 Z " />
<glyph glyph-name="Ugrave" unicode="&#xd9;" horiz-adv-x="536" d="M268 -5 C402 -5 486 31 486 251 L486 549 C486 562 480 568 467 568 L417 568 C404 568 398 562 398 549 L398 249 C398 82 328 70 268 70 C208 70 138 82 138 249 L138 549 C138 562 132 568 119 568 L69 568 C56 568 50 562 50 549 L50 251 C50 31 134 -5 268 -5 L268 -5 Z M231 787 C224 794 223 795 215 796 C208 796 203 795 200 793 L168 758 C164 754 162 748 162 740 C162 734 163 730 165 727 L260 649 C267 644 275 642 282 642 C295 642 303 653 310 660 C313 663 321 670 321 677 C321 680 320 683 318 686 L231 787 Z " />
<glyph glyph-name="Uacute" unicode="&#xda;" horiz-adv-x="536" d="M268 -5 C402 -5 486 31 486 251 L486 549 C486 562 480 568 467 568 L417 568 C404 568 398 562 398 549 L398 249 C398 82 328 70 268 70 C208 70 138 82 138 249 L138 549 C138 562 132 568 119 568 L69 568 C56 568 50 562 50 549 L50 251 C50 31 134 -5 268 -5 L268 -5 Z M218 686 C216 683 215 680 215 677 C215 670 223 663 226 660 C233 653 241 642 254 642 C261 642 269 644 276 649 L371 727 C373 730 374 734 374 740 C374 748 372 754 368 758 L336 793 C333 795 328 796 321 796 C313 795 312 794 305 787 L218 686 Z " />
<glyph glyph-name="Ucircumflex" unicode="&#xdb;" horiz-adv-x="536" d="M268 -5 C402 -5 486 31 486 251 L486 549 C486 562 480 568 467 568 L417 568 C404 568 398 562 398 549 L398 249 C398 82 328 70 268 70 C208 70 138 82 138 249 L138 549 C138 562 132 568 119 568 L69 568 C56 568 50 562 50 549 L50 251 C50 31 134 -5 268 -5 L268 -5 Z M225 796 C216 796 209 791 204 781 L147 656 C148 645 156 642 161 642 L211 642 C222 642 228 649 231 657 L267 742 L302 657 C305 649 311 642 322 642 L371 642 C376 642 384 645 385 656 L329 781 C326 791 319 796 308 796 L225 796 Z " />
<glyph glyph-name="Udieresis" unicode="&#xdc;" horiz-adv-x="536" d="M268 -5 C402 -5 486 31 486 251 L486 549 C486 562 480 568 467 568 L417 568 C404 568 398 562 398 549 L398 249 C398 82 328 70 268 70 C208 70 138 82 138 249 L138 549 C138 562 132 568 119 568 L69 568 C56 568 50 562 50 549 L50 251 C50 31 134 -5 268 -5 L268 -5 Z M134 691 C134 663 155 642 183 642 C211 642 233 663 233 691 C233 719 211 741 183 741 C155 741 134 719 134 691 L134 691 Z M304 691 C304 663 325 642 353 642 C381 642 403 663 403 691 C403 719 381 741 353 741 C325 741 304 719 304 691 L304 691 Z " />
<glyph glyph-name="Yacute" unicode="&#xdd;" horiz-adv-x="486" d="M287 159 L471 549 C471 562 465 568 452 568 L398 568 C387 568 380 560 375 549 L243 271 L111 549 C106 560 99 568 88 568 L34 568 C21 568 15 562 15 549 L199 159 L199 19 C199 6 205 0 218 0 L268 0 C281 0 287 6 287 19 L287 159 Z M197 686 C195 683 194 680 194 677 C194 670 202 663 205 660 C212 653 220 642 233 642 C240 642 248 644 255 649 L350 727 C352 730 353 734 353 740 C353 748 351 754 347 758 L315 793 C312 795 307 796 300 796 C292 795 291 794 284 787 L197 686 Z " />
<glyph glyph-name="Thorn" unicode="&#xde;" horiz-adv-x="460" d="M50 19 C50 6 56 0 69 0 L119 0 C132 0 138 6 138 19 L138 99 L242 99 C371 99 440 152 440 280 C440 409 373 464 242 464 L138 464 L138 549 C138 562 132 568 119 568 L69 568 C56 568 50 562 50 549 L50 19 Z M138 173 L138 389 L248 389 C311 389 352 349 352 280 C352 211 312 173 248 173 L138 173 Z " />
<glyph glyph-name="germandbls" unicode="&#xdf;" horiz-adv-x="504" d="M244 -1 C259 -5 275 -5 286 -5 C419 -5 469 48 469 155 C469 199 449 236 404 269 C449 298 463 357 463 408 C463 508 401 568 266 568 L238 568 C104 568 50 481 50 349 L50 19 C50 6 56 0 69 0 L119 0 C132 0 138 6 138 19 L138 355 C138 434 162 493 242 493 L266 493 C347 493 374 458 374 407 C374 371 355 307 264 307 L260 307 C247 307 241 301 241 288 L241 252 C241 239 247 233 260 233 L264 233 C341 233 380 207 380 154 C380 105 364 69 286 69 C271 69 260 73 245 78 C232 78 226 72 226 59 L224 19 C224 8 232 3 244 -1 L244 -1 Z " />
<glyph glyph-name="agrave" unicode="&#xe0;" horiz-adv-x="431" d="M292 113 C285 105 277 98 269 91 C254 80 236 70 213 70 C163 70 114 89 114 188 C114 281 151 336 292 336 L292 113 Z M365 396 C325 408 299 411 256 411 C120 411 25 338 25 198 C25 71 81 -5 185 -5 C199 -5 249 -6 287 32 L305 8 C309 3 314 0 320 0 L362 0 C375 0 381 6 381 19 L381 379 C381 387 376 393 365 396 L365 396 Z M248 630 C241 637 240 638 232 639 C225 639 220 638 217 636 L185 601 C181 597 179 591 179 583 C179 577 180 573 182 570 L277 492 C284 487 292 485 299 485 C312 485 320 496 327 503 C330 506 338 513 338 520 C338 523 337 526 335 529 L248 630 Z " />
<glyph glyph-name="aacute" unicode="&#xe1;" horiz-adv-x="431" d="M292 113 C285 105 277 98 269 91 C254 80 236 70 213 70 C163 70 114 89 114 188 C114 281 151 336 292 336 L292 113 Z M365 396 C325 408 299 411 256 411 C120 411 25 338 25 198 C25 71 81 -5 185 -5 C199 -5 249 -6 287 32 L305 8 C309 3 314 0 320 0 L362 0 C375 0 381 6 381 19 L381 379 C381 387 376 393 365 396 L365 396 Z M170 529 C168 526 167 523 167 520 C167 513 175 506 178 503 C185 496 193 485 206 485 C213 485 221 487 228 492 L323 570 C325 573 326 577 326 583 C326 591 324 597 320 601 L288 636 C285 638 280 639 273 639 C265 638 264 637 257 630 L170 529 Z " />
<glyph glyph-name="acircumflex" unicode="&#xe2;" horiz-adv-x="431" d="M292 113 C285 105 277 98 269 91 C254 80 236 70 213 70 C163 70 114 89 114 188 C114 281 151 336 292 336 L292 113 Z M365 396 C325 408 299 411 256 411 C120 411 25 338 25 198 C25 71 81 -5 185 -5 C199 -5 249 -6 287 32 L305 8 C309 3 314 0 320 0 L362 0 C375 0 381 6 381 19 L381 379 C381 387 376 393 365 396 L365 396 Z M191 639 C182 639 175 634 170 624 L113 499 C114 488 122 485 127 485 L177 485 C188 485 194 492 197 500 L233 585 L268 500 C271 492 277 485 288 485 L337 485 C342 485 350 488 351 499 L295 624 C292 634 285 639 274 639 L191 639 Z " />
<glyph glyph-name="atilde" unicode="&#xe3;" horiz-adv-x="431" d="M292 113 C285 105 277 98 269 91 C254 80 236 70 213 70 C163 70 114 89 114 188 C114 281 151 336 292 336 L292 113 Z M365 396 C325 408 299 411 256 411 C120 411 25 338 25 198 C25 71 81 -5 185 -5 C199 -5 249 -6 287 32 L305 8 C309 3 314 0 320 0 L362 0 C375 0 381 6 381 19 L381 379 C381 387 376 393 365 396 L365 396 Z M287 485 C310 485 343 495 371 516 C374 517 376 521 376 526 C376 529 375 531 374 534 L352 566 C348 571 343 573 336 573 C329 573 323 570 318 567 C310 562 300 559 287 559 C235 559 194 595 145 595 C122 595 89 585 61 564 C58 562 56 559 56 554 C56 551 57 549 58 546 L80 514 C84 509 89 507 96 507 C103 507 109 510 114 513 C122 518 132 521 145 521 C197 521 237 485 287 485 L287 485 Z " />
<glyph glyph-name="adieresis" unicode="&#xe4;" horiz-adv-x="431" d="M292 113 C285 105 277 98 269 91 C254 80 236 70 213 70 C163 70 114 89 114 188 C114 281 151 336 292 336 L292 113 Z M365 396 C325 408 299 411 256 411 C120 411 25 338 25 198 C25 71 81 -5 185 -5 C199 -5 249 -6 287 32 L305 8 C309 3 314 0 320 0 L362 0 C375 0 381 6 381 19 L381 379 C381 387 376 393 365 396 L365 396 Z M99 534 C99 506 120 485 148 485 C176 485 198 506 198 534 C198 562 176 584 148 584 C120 584 99 562 99 534 L99 534 Z M269 534 C269 506 290 485 318 485 C346 485 368 506 368 534 C368 562 346 584 318 584 C290 584 269 562 269 534 L269 534 Z " />
<glyph glyph-name="aring" unicode="&#xe5;" horiz-adv-x="431" d="M292 113 C285 105 277 98 269 91 C254 80 236 70 213 70 C163 70 114 89 114 188 C114 281 151 336 292 336 L292 113 Z M365 396 C325 408 299 411 256 411 C120 411 25 338 25 198 C25 71 81 -5 185 -5 C199 -5 249 -6 287 32 L305 8 C309 3 314 0 320 0 L362 0 C375 0 381 6 381 19 L381 379 C381 387 376 393 365 396 L365 396 Z M233 552 C222 552 198 558 198 590 C198 623 222 630 233 630 C244 630 269 623 269 590 C269 558 244 552 233 552 L233 552 Z M233 485 C293 485 334 518 334 590 C334 662 293 696 233 696 C173 696 133 662 133 590 C133 518 173 485 233 485 L233 485 Z " />
<glyph glyph-name="ae" unicode="&#xe6;" horiz-adv-x="684" d="M625 91 C623 95 619 97 614 97 C611 97 608 96 605 94 C561 75 522 70 495 70 C426 70 381 111 381 167 C434 148 466 147 493 147 C578 147 647 182 647 284 C647 353 588 411 482 411 C437 411 393 407 350 372 C313 403 266 411 227 411 C124 411 25 338 25 198 C25 71 81 -5 185 -5 C199 -5 280 -5 336 59 C369 18 419 -5 491 -5 C535 -5 591 0 634 29 C640 32 643 37 643 44 C643 47 643 50 642 51 L625 91 Z M482 336 C522 336 559 324 559 275 C559 236 529 222 473 222 C452 222 408 229 381 250 C394 313 433 336 482 336 L482 336 Z M292 113 C285 105 277 98 269 91 C254 80 236 70 213 70 C163 70 114 89 114 188 C114 268 148 336 232 336 C250 336 270 333 292 327 L292 113 Z " />
<glyph glyph-name="ccedilla" unicode="&#xe7;" horiz-adv-x="416" d="M346 91 C307 74 275 70 248 70 C176 70 123 109 123 204 C123 299 167 336 248 336 C275 336 305 334 346 315 C349 313 352 312 355 312 C360 312 364 314 366 318 L383 360 C384 361 384 364 384 367 C384 374 381 379 375 382 C328 407 282 411 239 411 C104 411 35 339 35 204 C35 84 91 11 199 -2 C208 -11 211 -32 211 -55 C211 -80 188 -91 157 -91 C149 -91 139 -89 127 -86 C114 -86 109 -89 109 -108 L109 -135 C109 -148 146 -158 185 -158 C241 -158 282 -125 282 -49 C282 -32 281 -18 278 -3 C309 0 342 7 375 26 C381 29 384 34 384 41 C384 44 384 47 383 48 L366 88 C364 92 360 94 355 94 C352 94 349 93 346 91 L346 91 Z " />
<glyph glyph-name="egrave" unicode="&#xe8;" horiz-adv-x="426" d="M347 94 C303 75 264 70 237 70 C168 70 123 111 123 167 C176 148 208 147 235 147 C320 147 389 182 389 284 C389 353 330 411 224 411 C92 411 35 330 35 207 C35 74 100 -5 233 -5 C277 -5 333 0 376 29 C382 32 385 37 385 44 C385 47 385 50 384 51 L367 91 C365 95 361 97 356 97 C353 97 350 96 347 94 L347 94 Z M224 336 C264 336 301 324 301 275 C301 236 271 222 215 222 C194 222 150 229 123 250 C136 313 175 336 224 336 L224 336 Z M213 630 C206 637 205 638 197 639 C190 639 185 638 182 636 L150 601 C146 597 144 591 144 583 C144 577 145 573 147 570 L242 492 C249 487 257 485 264 485 C277 485 285 496 292 503 C295 506 303 513 303 520 C303 523 302 526 300 529 L213 630 Z " />
<glyph glyph-name="eacute" unicode="&#xe9;" horiz-adv-x="426" d="M347 94 C303 75 264 70 237 70 C168 70 123 111 123 167 C176 148 208 147 235 147 C320 147 389 182 389 284 C389 353 330 411 224 411 C92 411 35 330 35 207 C35 74 100 -5 233 -5 C277 -5 333 0 376 29 C382 32 385 37 385 44 C385 47 385 50 384 51 L367 91 C365 95 361 97 356 97 C353 97 350 96 347 94 L347 94 Z M224 336 C264 336 301 324 301 275 C301 236 271 222 215 222 C194 222 150 229 123 250 C136 313 175 336 224 336 L224 336 Z M147 529 C145 526 144 523 144 520 C144 513 152 506 155 503 C162 496 170 485 183 485 C190 485 198 487 205 492 L300 570 C302 573 303 577 303 583 C303 591 301 597 297 601 L265 636 C262 638 257 639 250 639 C242 638 241 637 234 630 L147 529 Z " />
<glyph glyph-name="ecircumflex" unicode="&#xea;" horiz-adv-x="426" d="M347 94 C303 75 264 70 237 70 C168 70 123 111 123 167 C176 148 208 147 235 147 C320 147 389 182 389 284 C389 353 330 411 224 411 C92 411 35 330 35 207 C35 74 100 -5 233 -5 C277 -5 333 0 376 29 C382 32 385 37 385 44 C385 47 385 50 384 51 L367 91 C365 95 361 97 356 97 C353 97 350 96 347 94 L347 94 Z M224 336 C264 336 301 324 301 275 C301 236 271 222 215 222 C194 222 150 229 123 250 C136 313 175 336 224 336 L224 336 Z M187 639 C178 639 171 634 166 624 L109 499 C110 488 118 485 123 485 L173 485 C184 485 190 492 193 500 L229 585 L264 500 C267 492 273 485 284 485 L333 485 C338 485 346 488 347 499 L291 624 C288 634 281 639 270 639 L187 639 Z " />
<glyph glyph-name="edieresis" unicode="&#xeb;" horiz-adv-x="426" d="M347 94 C303 75 264 70 237 70 C168 70 123 111 123 167 C176 148 208 147 235 147 C320 147 389 182 389 284 C389 353 330 411 224 411 C92 411 35 330 35 207 C35 74 100 -5 233 -5 C277 -5 333 0 376 29 C382 32 385 37 385 44 C385 47 385 50 384 51 L367 91 C365 95 361 97 356 97 C353 97 350 96 347 94 L347 94 Z M224 336 C264 336 301 324 301 275 C301 236 271 222 215 222 C194 222 150 229 123 250 C136 313 175 336 224 336 L224 336 Z M90 534 C90 506 111 485 139 485 C167 485 189 506 189 534 C189 562 167 584 139 584 C111 584 90 562 90 534 L90 534 Z M260 534 C260 506 281 485 309 485 C337 485 359 506 359 534 C359 562 337 584 309 584 C281 584 260 562 260 534 L260 534 Z " />
<glyph glyph-name="igrave" unicode="&#xec;" horiz-adv-x="188" d="M49 19 C49 6 55 0 68 0 L118 0 C131 0 137 6 137 19 L137 386 C137 399 131 405 118 405 L68 405 C55 405 49 399 49 386 L49 19 Z M82 630 C75 637 74 638 66 639 C59 639 54 638 51 636 L19 601 C15 597 13 591 13 583 C13 577 14 573 16 570 L111 492 C118 487 126 485 133 485 C146 485 154 496 161 503 C164 506 172 513 172 520 C172 523 171 526 169 529 L82 630 Z " />
<glyph glyph-name="iacute" unicode="&#xed;" horiz-adv-x="188" d="M138 386 C138 399 132 405 119 405 L69 405 C56 405 50 399 50 386 L50 19 C50 6 56 0 69 0 L119 0 C132 0 138 6 138 19 L138 386 Z M18 529 C16 526 15 523 15 520 C15 513 23 506 26 503 C33 496 41 485 54 485 C61 485 69 487 76 492 L171 570 C173 573 174 577 174 583 C174 591 172 597 168 601 L136 636 C133 638 128 639 121 639 C113 638 112 637 105 630 L18 529 Z " />
<glyph glyph-name="icircumflex" unicode="&#xee;" horiz-adv-x="188" d="M138 386 C138 399 132 405 119 405 L69 405 C56 405 50 399 50 386 L50 19 C50 6 56 0 69 0 L119 0 C132 0 138 6 138 19 L138 386 Z M51 639 C42 639 35 634 30 624 L-27 499 C-26 488 -18 485 -13 485 L37 485 C48 485 54 492 57 500 L93 585 L128 500 C131 492 137 485 148 485 L197 485 C202 485 210 488 211 499 L155 624 C152 634 145 639 134 639 L51 639 Z " />
<glyph glyph-name="idieresis" unicode="&#xef;" horiz-adv-x="188" d="M138 386 C138 399 132 405 119 405 L69 405 C56 405 50 399 50 386 L50 19 C50 6 56 0 69 0 L119 0 C132 0 138 6 138 19 L138 386 Z M-30 534 C-30 506 -9 485 19 485 C47 485 69 506 69 534 C69 562 47 584 19 584 C-9 584 -30 562 -30 534 L-30 534 Z M119 534 C119 506 140 485 168 485 C196 485 218 506 218 534 C218 562 196 584 168 584 C140 584 119 562 119 534 L119 534 Z " />
<glyph glyph-name="eth" unicode="&#xf0;" horiz-adv-x="446" d="M364 616 C364 627 358 633 347 633 L309 633 C286 633 278 623 271 614 L242 569 C229 571 215 572 201 572 C157 572 106 570 65 543 C59 540 56 535 56 528 C56 525 56 522 57 521 L74 480 C76 476 80 474 85 474 C88 474 92 475 95 477 C134 493 167 497 194 497 L142 417 C142 408 150 400 159 400 L197 400 C220 400 228 411 235 420 L274 480 C302 464 323 436 323 383 L323 312 C282 343 227 343 207 343 C122 343 35 304 35 178 C35 58 93 -5 224 -5 C353 -5 411 58 411 178 L411 369 C411 453 378 514 318 546 L364 616 Z M224 268 C317 268 323 207 323 169 C323 133 313 70 224 70 C132 70 123 130 123 169 C123 207 124 268 224 268 L224 268 Z " />
<glyph glyph-name="ntilde" unicode="&#xf1;" horiz-adv-x="439" d="M311 19 C311 6 317 0 330 0 L380 0 C393 0 399 6 399 19 L399 219 C399 348 349 411 216 411 C175 411 115 405 66 390 C55 387 50 381 50 373 L50 19 C50 6 56 0 69 0 L119 0 C132 0 138 6 138 19 L138 321 C159 334 208 336 221 336 C304 336 311 282 311 187 L311 19 Z M296 485 C319 485 352 495 380 516 C383 517 385 521 385 526 C385 529 384 531 383 534 L361 566 C357 571 352 573 345 573 C338 573 332 570 327 567 C319 562 309 559 296 559 C244 559 203 595 154 595 C131 595 98 585 70 564 C67 562 65 559 65 554 C65 551 66 549 67 546 L89 514 C93 509 98 507 105 507 C112 507 118 510 123 513 C131 518 141 521 154 521 C206 521 246 485 296 485 L296 485 Z " />
<glyph glyph-name="ograve" unicode="&#xf2;" horiz-adv-x="464" d="M232 70 C133 70 123 154 123 206 C123 261 143 336 232 336 C321 336 341 261 341 206 C341 154 331 70 232 70 L232 70 Z M232 -5 C367 -5 429 74 429 207 C429 330 365 411 232 411 C97 411 35 330 35 207 C35 74 97 -5 232 -5 L232 -5 Z M235 630 C228 637 227 638 219 639 C212 639 207 638 204 636 L172 601 C168 597 166 591 166 583 C166 577 167 573 169 570 L264 492 C271 487 279 485 286 485 C299 485 307 496 314 503 C317 506 325 513 325 520 C325 523 324 526 322 529 L235 630 Z " />
<glyph glyph-name="oacute" unicode="&#xf3;" horiz-adv-x="464" d="M232 70 C133 70 123 154 123 206 C123 261 143 336 232 336 C321 336 341 261 341 206 C341 154 331 70 232 70 L232 70 Z M232 -5 C367 -5 429 74 429 207 C429 330 365 411 232 411 C97 411 35 330 35 207 C35 74 97 -5 232 -5 L232 -5 Z M142 529 C140 526 139 523 139 520 C139 513 147 506 150 503 C157 496 165 485 178 485 C185 485 193 487 200 492 L295 570 C297 573 298 577 298 583 C298 591 296 597 292 601 L260 636 C257 638 252 639 245 639 C237 638 236 637 229 630 L142 529 Z " />
<glyph glyph-name="ocircumflex" unicode="&#xf4;" horiz-adv-x="464" d="M232 70 C133 70 123 154 123 206 C123 261 143 336 232 336 C321 336 341 261 341 206 C341 154 331 70 232 70 L232 70 Z M232 -5 C367 -5 429 74 429 207 C429 330 365 411 232 411 C97 411 35 330 35 207 C35 74 97 -5 232 -5 L232 -5 Z M190 639 C181 639 174 634 169 624 L112 499 C113 488 121 485 126 485 L176 485 C187 485 193 492 196 500 L232 585 L267 500 C270 492 276 485 287 485 L336 485 C341 485 349 488 350 499 L294 624 C291 634 284 639 273 639 L190 639 Z " />
<glyph glyph-name="otilde" unicode="&#xf5;" horiz-adv-x="464" d="M232 70 C133 70 123 154 123 206 C123 261 143 336 232 336 C321 336 341 261 341 206 C341 154 331 70 232 70 L232 70 Z M232 -5 C367 -5 429 74 429 207 C429 330 365 411 232 411 C97 411 35 330 35 207 C35 74 97 -5 232 -5 L232 -5 Z M304 485 C327 485 360 495 388 516 C391 517 393 521 393 526 C393 529 392 531 391 534 L369 566 C365 571 360 573 353 573 C346 573 340 570 335 567 C327 562 317 559 304 559 C252 559 211 595 162 595 C139 595 106 585 78 564 C75 562 73 559 73 554 C73 551 74 549 75 546 L97 514 C101 509 106 507 113 507 C120 507 126 510 131 513 C139 518 149 521 162 521 C214 521 254 485 304 485 L304 485 Z " />
<glyph glyph-name="odieresis" unicode="&#xf6;" horiz-adv-x="464" d="M232 70 C133 70 123 154 123 206 C123 261 143 336 232 336 C321 336 341 261 341 206 C341 154 331 70 232 70 L232 70 Z M232 -5 C367 -5 429 74 429 207 C429 330 365 411 232 411 C97 411 35 330 35 207 C35 74 97 -5 232 -5 L232 -5 Z M99 534 C99 506 120 485 148 485 C176 485 198 506 198 534 C198 562 176 584 148 584 C120 584 99 562 99 534 L99 534 Z M269 534 C269 506 290 485 318 485 C346 485 368 506 368 534 C368 562 346 584 318 584 C290 584 269 562 269 534 L269 534 Z " />
<glyph glyph-name="divide" unicode="&#xf7;" horiz-adv-x="384" d="M315 138 C328 138 334 144 334 157 L334 193 C334 206 328 212 315 212 L69 212 C56 212 50 206 50 193 L50 157 C50 144 56 138 69 138 L315 138 Z M139 45 C139 18 162 -5 189 -5 C216 -5 239 18 239 45 C239 72 216 94 189 94 C162 94 139 72 139 45 L139 45 Z M139 305 C139 278 162 256 189 256 C216 256 239 278 239 305 C239 332 216 355 189 355 C162 355 139 332 139 305 L139 305 Z " />
<glyph glyph-name="oslash" unicode="&#xf8;" horiz-adv-x="464" d="M374 488 C374 501 368 507 355 507 L312 507 C301 507 294 501 289 488 L262 410 C251 410 243 411 232 411 C97 411 35 330 35 207 C35 115 65 50 126 18 L90 -88 C90 -101 96 -107 109 -107 L154 -107 C165 -107 172 -101 177 -88 L206 -4 C214 -5 223 -5 232 -5 C367 -5 429 74 429 207 C429 291 400 354 339 387 L374 488 Z M123 206 C123 282 161 336 236 336 L154 99 C127 127 123 173 123 206 L123 206 Z M311 304 C334 277 341 238 341 206 C341 129 314 70 231 70 L311 304 Z " />
<glyph glyph-name="ugrave" unicode="&#xf9;" horiz-adv-x="445" d="M307 93 C280 72 239 70 227 70 C147 70 128 83 128 182 L128 386 C128 399 122 405 109 405 L59 405 C46 405 40 399 40 386 L40 177 C40 45 97 -5 229 -5 C259 -5 327 -2 389 52 C393 56 395 61 395 67 L395 386 C395 399 389 405 376 405 L326 405 C313 405 307 399 307 386 L307 93 Z M208 630 C201 637 200 638 192 639 C185 639 180 638 177 636 L145 601 C141 597 139 591 139 583 C139 577 140 573 142 570 L237 492 C244 487 252 485 259 485 C272 485 280 496 287 503 C290 506 298 513 298 520 C298 523 297 526 295 529 L208 630 Z " />
<glyph glyph-name="uacute" unicode="&#xfa;" horiz-adv-x="445" d="M307 93 C280 72 239 70 227 70 C147 70 128 83 128 182 L128 386 C128 399 122 405 109 405 L59 405 C46 405 40 399 40 386 L40 177 C40 45 97 -5 229 -5 C259 -5 327 -2 389 52 C393 56 395 61 395 67 L395 386 C395 399 389 405 376 405 L326 405 C313 405 307 399 307 386 L307 93 Z M142 529 C140 526 139 523 139 520 C139 513 147 506 150 503 C157 496 165 485 178 485 C185 485 193 487 200 492 L295 570 C297 573 298 577 298 583 C298 591 296 597 292 601 L260 636 C257 638 252 639 245 639 C237 638 236 637 229 630 L142 529 Z " />
<glyph glyph-name="ucircumflex" unicode="&#xfb;" horiz-adv-x="445" d="M307 93 C280 72 239 70 227 70 C147 70 128 83 128 182 L128 386 C128 399 122 405 109 405 L59 405 C46 405 40 399 40 386 L40 177 C40 45 97 -5 229 -5 C259 -5 327 -2 389 52 C393 56 395 61 395 67 L395 386 C395 399 389 405 376 405 L326 405 C313 405 307 399 307 386 L307 93 Z M178 639 C169 639 162 634 157 624 L100 499 C101 488 109 485 114 485 L164 485 C175 485 181 492 184 500 L220 585 L255 500 C258 492 264 485 275 485 L324 485 C329 485 337 488 338 499 L282 624 C279 634 272 639 261 639 L178 639 Z " />
<glyph glyph-name="udieresis" unicode="&#xfc;" horiz-adv-x="445" d="M307 93 C280 72 239 70 227 70 C147 70 128 83 128 182 L128 386 C128 399 122 405 109 405 L59 405 C46 405 40 399 40 386 L40 177 C40 45 97 -5 229 -5 C259 -5 327 -2 389 52 C393 56 395 61 395 67 L395 386 C395 399 389 405 376 405 L326 405 C313 405 307 399 307 386 L307 93 Z M83 534 C83 506 104 485 132 485 C160 485 182 506 182 534 C182 562 160 584 132 584 C104 584 83 562 83 534 L83 534 Z M253 534 C253 506 274 485 302 485 C330 485 352 506 352 534 C352 562 330 584 302 584 C274 584 253 562 253 534 L253 534 Z " />
<glyph glyph-name="yacute" unicode="&#xfd;" horiz-adv-x="438" d="M299 -57 C299 -118 268 -144 223 -144 C156 -144 154 -116 154 -96 C154 -69 172 -45 299 16 L299 -57 Z M300 114 C293 106 285 99 277 92 C262 81 244 70 221 70 C173 70 128 79 128 180 L128 386 C128 399 122 405 109 405 L59 405 C46 405 40 399 40 386 L40 157 C40 94 73 23 129 2 C86 -29 70 -60 70 -105 C70 -209 170 -219 208 -219 C388 -219 388 -98 388 -33 L388 386 C388 399 382 405 369 405 L319 405 C306 405 300 399 300 386 L300 114 Z M138 529 C136 526 135 523 135 520 C135 513 143 506 146 503 C153 496 161 485 174 485 C181 485 189 487 196 492 L291 570 C293 573 294 577 294 583 C294 591 292 597 288 601 L256 636 C253 638 248 639 241 639 C233 638 232 637 225 630 L138 529 Z " />
<glyph glyph-name="thorn" unicode="&#xfe;" horiz-adv-x="447" d="M50 -177 C50 -190 56 -196 69 -196 L119 -196 C132 -196 138 -190 138 -177 L138 1 C182 -6 205 -5 216 -5 C351 -5 417 63 417 196 C417 329 351 411 216 411 C195 411 167 408 138 404 L138 549 C138 562 132 568 119 568 L69 568 C56 568 50 562 50 549 L50 -177 Z M219 336 C299 336 329 291 329 196 C329 85 268 70 207 70 C196 70 171 70 138 74 L138 321 C151 329 187 336 219 336 L219 336 Z " />
<glyph glyph-name="ydieresis" unicode="&#xff;" horiz-adv-x="438" d="M299 -57 C299 -118 268 -144 223 -144 C156 -144 154 -116 154 -96 C154 -69 172 -45 299 16 L299 -57 Z M300 114 C293 106 285 99 277 92 C262 81 244 70 221 70 C173 70 128 79 128 180 L128 386 C128 399 122 405 109 405 L59 405 C46 405 40 399 40 386 L40 157 C40 94 73 23 129 2 C86 -29 70 -60 70 -105 C70 -209 170 -219 208 -219 C388 -219 388 -98 388 -33 L388 386 C388 399 382 405 369 405 L319 405 C306 405 300 399 300 386 L300 114 Z M80 534 C80 506 101 485 129 485 C157 485 179 506 179 534 C179 562 157 584 129 584 C101 584 80 562 80 534 L80 534 Z M250 534 C250 506 271 485 299 485 C327 485 349 506 349 534 C349 562 327 584 299 584 C271 584 250 562 250 534 L250 534 Z " />
<glyph glyph-name="Amacron" unicode="&#x100;" horiz-adv-x="530" d="M265 481 L358 211 L173 211 L265 481 Z M413 51 C428 14 441 -5 480 -5 C500 -5 520 -2 520 9 L520 39 C520 40 520 50 511 54 C503 58 496 73 488 96 C438 234 366 450 331 546 C324 565 308 568 301 568 L230 568 C223 568 207 565 200 546 C156 427 59 138 15 19 C15 6 21 0 34 0 L84 0 C95 0 102 6 107 19 L148 137 L384 137 L413 51 Z M388 642 C401 642 407 648 407 661 L407 697 C407 710 401 716 388 716 L142 716 C129 716 123 710 123 697 L123 661 C123 648 129 642 142 642 L388 642 Z " />
<glyph glyph-name="amacron" unicode="&#x101;" horiz-adv-x="431" d="M292 113 C285 105 277 98 269 91 C254 80 236 70 213 70 C163 70 114 89 114 188 C114 281 151 336 292 336 L292 113 Z M365 396 C325 408 299 411 256 411 C120 411 25 338 25 198 C25 71 81 -5 185 -5 C199 -5 249 -6 287 32 L305 8 C309 3 314 0 320 0 L362 0 C375 0 381 6 381 19 L381 379 C381 387 376 393 365 396 L365 396 Z M331 485 C344 485 350 491 350 504 L350 540 C350 553 344 559 331 559 L85 559 C72 559 66 553 66 540 L66 504 C66 491 72 485 85 485 L331 485 Z " />
<glyph glyph-name="Abreve" unicode="&#x102;" horiz-adv-x="530" d="M265 481 L358 211 L173 211 L265 481 Z M413 51 C428 14 441 -5 480 -5 C500 -5 520 -2 520 9 L520 39 C520 40 520 50 511 54 C503 58 496 73 488 96 C438 234 366 450 331 546 C324 565 308 568 301 568 L230 568 C223 568 207 565 200 546 C156 427 59 138 15 19 C15 6 21 0 34 0 L84 0 C95 0 102 6 107 19 L148 137 L384 137 L413 51 Z M265 642 C166 642 103 668 103 784 C103 797 109 803 122 803 L167 803 C180 803 186 797 186 784 C186 722 230 712 265 712 C300 712 344 722 344 784 C344 797 350 803 363 803 L408 803 C421 803 427 797 427 784 C427 668 364 642 265 642 L265 642 Z " />
<glyph glyph-name="abreve" unicode="&#x103;" horiz-adv-x="431" d="M292 113 C285 105 277 98 269 91 C254 80 236 70 213 70 C163 70 114 89 114 188 C114 281 151 336 292 336 L292 113 Z M365 396 C325 408 299 411 256 411 C120 411 25 338 25 198 C25 71 81 -5 185 -5 C199 -5 249 -6 287 32 L305 8 C309 3 314 0 320 0 L362 0 C375 0 381 6 381 19 L381 379 C381 387 376 393 365 396 L365 396 Z M204 485 C105 485 42 511 42 627 C42 640 48 646 61 646 L106 646 C119 646 125 640 125 627 C125 565 169 555 204 555 C239 555 283 565 283 627 C283 640 289 646 302 646 L347 646 C360 646 366 640 366 627 C366 511 303 485 204 485 L204 485 Z " />
<glyph glyph-name="Aogonek" unicode="&#x104;" horiz-adv-x="530" d="M413 51 C414 46 415 43 418 39 C354 31 347 -32 347 -49 C347 -125 389 -146 444 -146 C483 -146 511 -136 511 -123 L511 -96 C511 -77 506 -74 493 -74 C481 -77 471 -79 463 -79 C432 -79 418 -71 418 -46 C418 -23 419 -5 474 -5 L480 -5 C500 -5 520 -2 520 9 L520 39 C520 40 520 50 511 54 C503 58 496 73 488 96 C438 234 366 450 331 546 C324 565 308 568 301 568 L230 568 C223 568 207 565 200 546 C156 427 59 138 15 19 C15 6 21 0 34 0 L84 0 C95 0 102 6 107 19 L148 137 L384 137 L413 51 Z M265 481 L358 211 L173 211 L265 481 Z " />
<glyph glyph-name="aogonek" unicode="&#x105;" horiz-adv-x="431" d="M365 396 C325 408 299 411 256 411 C120 411 25 338 25 198 C25 71 81 -5 185 -5 C199 -5 249 -6 287 32 L300 14 C236 -7 229 -47 229 -66 C229 -127 270 -137 305 -137 C344 -137 381 -127 381 -114 L381 -87 C381 -68 376 -65 363 -65 C351 -68 336 -70 328 -70 C301 -70 300 -64 300 -56 C300 -25 350 -25 371 -9 C378 -6 381 0 381 8 L381 379 C381 387 376 393 365 396 L365 396 Z M292 113 C285 105 277 98 269 91 C254 80 236 70 213 70 C163 70 114 89 114 188 C114 281 151 336 292 336 L292 113 Z " />
<glyph glyph-name="Cacute" unicode="&#x106;" horiz-adv-x="458" d="M424 541 C377 566 331 572 288 572 C154 572 35 516 35 280 C35 67 154 -5 288 -5 C331 -5 381 -1 424 26 C430 29 433 34 433 41 C433 44 433 47 432 48 L415 89 C413 93 409 95 404 95 C401 95 398 94 395 92 C356 73 322 70 298 70 C243 70 123 107 123 280 C123 491 243 498 298 498 C321 498 359 491 395 476 C398 474 401 473 404 473 C409 473 413 475 415 479 L432 519 C433 520 433 523 433 526 C433 533 430 538 424 541 L424 541 Z M183 686 C181 683 180 680 180 677 C180 670 188 663 191 660 C198 653 206 642 219 642 C226 642 234 644 241 649 L336 727 C338 730 339 734 339 740 C339 748 337 754 333 758 L301 793 C298 795 293 796 286 796 C278 795 277 794 270 787 L183 686 Z " />
<glyph glyph-name="cacute" unicode="&#x107;" horiz-adv-x="416" d="M346 91 C307 74 275 70 248 70 C176 70 123 109 123 204 C123 299 167 336 248 336 C275 336 305 334 346 315 C349 313 352 312 355 312 C360 312 364 314 366 318 L383 360 C384 361 384 364 384 367 C384 374 381 379 375 382 C328 407 282 411 239 411 C104 411 35 339 35 204 C35 71 104 -5 239 -5 C282 -5 328 1 375 26 C381 29 384 34 384 41 C384 44 384 47 383 48 L366 88 C364 92 360 94 355 94 C352 94 349 93 346 91 L346 91 Z M145 529 C143 526 142 523 142 520 C142 513 150 506 153 503 C160 496 168 485 181 485 C188 485 196 487 203 492 L298 570 C300 573 301 577 301 583 C301 591 299 597 295 601 L263 636 C260 638 255 639 248 639 C240 638 239 637 232 630 L145 529 Z " />
<glyph glyph-name="Ccircumflex" unicode="&#x108;" horiz-adv-x="458" d="M424 541 C377 566 331 572 288 572 C154 572 35 516 35 280 C35 67 154 -5 288 -5 C331 -5 381 -1 424 26 C430 29 433 34 433 41 C433 44 433 47 432 48 L415 89 C413 93 409 95 404 95 C401 95 398 94 395 92 C356 73 322 70 298 70 C243 70 123 107 123 280 C123 491 243 498 298 498 C321 498 359 491 395 476 C398 474 401 473 404 473 C409 473 413 475 415 479 L432 519 C433 520 433 523 433 526 C433 533 430 538 424 541 L424 541 Z M211 796 C202 796 195 791 190 781 L133 656 C134 645 142 642 147 642 L197 642 C208 642 214 649 217 657 L253 742 L288 657 C291 649 297 642 308 642 L357 642 C362 642 370 645 371 656 L315 781 C312 791 305 796 294 796 L211 796 Z " />
<glyph glyph-name="ccircumflex" unicode="&#x109;" horiz-adv-x="416" d="M346 91 C307 74 275 70 248 70 C176 70 123 109 123 204 C123 299 167 336 248 336 C275 336 305 334 346 315 C349 313 352 312 355 312 C360 312 364 314 366 318 L383 360 C384 361 384 364 384 367 C384 374 381 379 375 382 C328 407 282 411 239 411 C104 411 35 339 35 204 C35 71 104 -5 239 -5 C282 -5 328 1 375 26 C381 29 384 34 384 41 C384 44 384 47 383 48 L366 88 C364 92 360 94 355 94 C352 94 349 93 346 91 L346 91 Z M180 639 C171 639 164 634 159 624 L102 499 C103 488 111 485 116 485 L166 485 C177 485 183 492 186 500 L222 585 L257 500 C260 492 266 485 277 485 L326 485 C331 485 339 488 340 499 L284 624 C281 634 274 639 263 639 L180 639 Z " />
<glyph glyph-name="Cdotaccent" unicode="&#x10a;" horiz-adv-x="458" d="M424 541 C377 566 331 572 288 572 C154 572 35 516 35 280 C35 67 154 -5 288 -5 C331 -5 381 -1 424 26 C430 29 433 34 433 41 C433 44 433 47 432 48 L415 89 C413 93 409 95 404 95 C401 95 398 94 395 92 C356 73 322 70 298 70 C243 70 123 107 123 280 C123 491 243 498 298 498 C321 498 359 491 395 476 C398 474 401 473 404 473 C409 473 413 475 415 479 L432 519 C433 520 433 523 433 526 C433 533 430 538 424 541 L424 541 Z M233 692 C233 665 256 642 283 642 C310 642 333 665 333 692 C333 719 310 741 283 741 C256 741 233 719 233 692 L233 692 Z " />
<glyph glyph-name="cdotaccent" unicode="&#x10b;" horiz-adv-x="416" d="M346 91 C307 74 275 70 248 70 C176 70 123 109 123 204 C123 299 167 336 248 336 C275 336 305 334 346 315 C349 313 352 312 355 312 C360 312 364 314 366 318 L383 360 C384 361 384 364 384 367 C384 374 381 379 375 382 C328 407 282 411 239 411 C104 411 35 339 35 204 C35 71 104 -5 239 -5 C282 -5 328 1 375 26 C381 29 384 34 384 41 C384 44 384 47 383 48 L366 88 C364 92 360 94 355 94 C352 94 349 93 346 91 L346 91 Z M173 535 C173 508 196 485 223 485 C250 485 273 508 273 535 C273 562 250 584 223 584 C196 584 173 562 173 535 L173 535 Z " />
<glyph glyph-name="Ccaron" unicode="&#x10c;" horiz-adv-x="458" d="M424 541 C377 566 331 572 288 572 C154 572 35 516 35 280 C35 67 154 -5 288 -5 C331 -5 381 -1 424 26 C430 29 433 34 433 41 C433 44 433 47 432 48 L415 89 C413 93 409 95 404 95 C401 95 398 94 395 92 C356 73 322 70 298 70 C243 70 123 107 123 280 C123 491 243 498 298 498 C321 498 359 491 395 476 C398 474 401 473 404 473 C409 473 413 475 415 479 L432 519 C433 520 433 523 433 526 C433 533 430 538 424 541 L424 541 Z M321 642 C332 642 339 647 342 657 L398 782 C397 793 389 796 384 796 L335 796 C324 796 318 789 315 781 L280 696 L244 781 C241 789 235 796 224 796 L174 796 C169 796 161 793 160 782 L217 657 C222 647 229 642 238 642 L321 642 Z " />
<glyph glyph-name="ccaron" unicode="&#x10d;" horiz-adv-x="416" d="M346 91 C307 74 275 70 248 70 C176 70 123 109 123 204 C123 299 167 336 248 336 C275 336 305 334 346 315 C349 313 352 312 355 312 C360 312 364 314 366 318 L383 360 C384 361 384 364 384 367 C384 374 381 379 375 382 C328 407 282 411 239 411 C104 411 35 339 35 204 C35 71 104 -5 239 -5 C282 -5 328 1 375 26 C381 29 384 34 384 41 C384 44 384 47 383 48 L366 88 C364 92 360 94 355 94 C352 94 349 93 346 91 L346 91 Z M269 485 C280 485 287 490 290 500 L346 625 C345 636 337 639 332 639 L283 639 C272 639 266 632 263 624 L228 539 L192 624 C189 632 183 639 172 639 L122 639 C117 639 109 636 108 625 L165 500 C170 490 177 485 186 485 L269 485 Z " />
<glyph glyph-name="Dcaron" unicode="&#x10e;" horiz-adv-x="486" d="M363 202 C363 110 309 74 249 74 L138 74 L138 494 L249 494 C309 494 363 458 363 366 L363 202 Z M50 19 C50 6 56 0 69 0 L253 0 C382 0 451 71 451 200 L451 368 C451 497 382 568 253 568 L69 568 C56 568 50 562 50 549 L50 19 Z M268 642 C279 642 286 647 289 657 L345 782 C344 793 336 796 331 796 L282 796 C271 796 265 789 262 781 L227 696 L191 781 C188 789 182 796 171 796 L121 796 C116 796 108 793 107 782 L164 657 C169 647 176 642 185 642 L268 642 Z " />
<glyph glyph-name="dcaron" unicode="&#x10f;" horiz-adv-x="563" d="M124 210 C124 306 176 336 240 336 C251 336 291 330 317 309 L317 88 C289 70 244 70 236 70 C156 70 124 115 124 210 L124 210 Z M405 549 C405 562 399 568 386 568 L336 568 C323 568 317 562 317 549 L317 390 C280 411 223 411 213 411 C114 411 35 342 35 210 C35 77 104 -5 239 -5 C286 -5 342 2 389 22 C398 26 405 30 405 39 L405 549 Z M558 549 C558 562 552 568 539 568 L491 568 C478 568 472 562 472 549 L448 425 C448 412 454 406 467 406 L499 406 C508 406 515 412 518 425 L558 549 Z " />
<glyph glyph-name="Dcroat" unicode="&#x110;" horiz-adv-x="538" d="M102 19 C102 6 108 0 121 0 L305 0 C434 0 503 71 503 200 L503 368 C503 497 434 568 305 568 L121 568 C108 568 102 562 102 549 L102 315 L34 315 C21 315 15 309 15 296 L15 260 C15 247 21 241 34 241 L102 241 L102 19 Z M280 241 C293 241 299 247 299 260 L299 296 C299 309 293 315 280 315 L190 315 L190 494 L301 494 C361 494 415 458 415 366 L415 202 C415 110 361 74 301 74 L190 74 L190 241 L280 241 Z " />
<glyph glyph-name="dcroat" unicode="&#x111;" horiz-adv-x="498" d="M474 456 C487 456 493 462 493 475 L493 511 C493 524 487 530 474 530 L405 530 L405 549 C405 562 399 568 386 568 L336 568 C323 568 317 562 317 549 L317 530 L228 530 C215 530 209 524 209 511 L209 475 C209 462 215 456 228 456 L317 456 L317 390 C280 411 223 411 213 411 C114 411 35 342 35 210 C35 77 104 -5 239 -5 C286 -5 342 2 389 22 C398 26 405 30 405 39 L405 456 L474 456 Z M124 210 C124 306 176 336 240 336 C251 336 291 330 317 309 L317 88 C289 70 244 70 236 70 C156 70 124 115 124 210 L124 210 Z " />
<glyph glyph-name="Emacron" unicode="&#x112;" horiz-adv-x="438" d="M394 0 C407 0 413 6 413 19 L413 54 C413 67 407 73 394 73 L138 73 L138 246 L325 246 C338 246 344 252 344 265 L344 301 C344 314 338 320 325 320 L138 320 L138 494 L394 494 C407 494 413 500 413 513 L413 549 C413 562 407 568 394 568 L69 568 C56 568 50 562 50 549 L50 19 C50 6 56 0 69 0 L394 0 Z M353 642 C366 642 372 648 372 661 L372 697 C372 710 366 716 353 716 L107 716 C94 716 88 710 88 697 L88 661 C88 648 94 642 107 642 L353 642 Z " />
<glyph glyph-name="emacron" unicode="&#x113;" horiz-adv-x="426" d="M347 94 C303 75 264 70 237 70 C168 70 123 111 123 167 C176 148 208 147 235 147 C320 147 389 182 389 284 C389 353 330 411 224 411 C92 411 35 330 35 207 C35 74 100 -5 233 -5 C277 -5 333 0 376 29 C382 32 385 37 385 44 C385 47 385 50 384 51 L367 91 C365 95 361 97 356 97 C353 97 350 96 347 94 L347 94 Z M224 336 C264 336 301 324 301 275 C301 236 271 222 215 222 C194 222 150 229 123 250 C136 313 175 336 224 336 L224 336 Z M328 485 C341 485 347 491 347 504 L347 540 C347 553 341 559 328 559 L82 559 C69 559 63 553 63 540 L63 504 C63 491 69 485 82 485 L328 485 Z " />
<glyph glyph-name="Edotaccent" unicode="&#x116;" horiz-adv-x="438" d="M394 0 C407 0 413 6 413 19 L413 54 C413 67 407 73 394 73 L138 73 L138 246 L325 246 C338 246 344 252 344 265 L344 301 C344 314 338 320 325 320 L138 320 L138 494 L394 494 C407 494 413 500 413 513 L413 549 C413 562 407 568 394 568 L69 568 C56 568 50 562 50 549 L50 19 C50 6 56 0 69 0 L394 0 Z M182 692 C182 665 205 642 232 642 C259 642 282 665 282 692 C282 719 259 741 232 741 C205 741 182 719 182 692 L182 692 Z " />
<glyph glyph-name="edotaccent" unicode="&#x117;" horiz-adv-x="426" d="M347 94 C303 75 264 70 237 70 C168 70 123 111 123 167 C176 148 208 147 235 147 C320 147 389 182 389 284 C389 353 330 411 224 411 C92 411 35 330 35 207 C35 74 100 -5 233 -5 C277 -5 333 0 376 29 C382 32 385 37 385 44 C385 47 385 50 384 51 L367 91 C365 95 361 97 356 97 C353 97 350 96 347 94 L347 94 Z M224 336 C264 336 301 324 301 275 C301 236 271 222 215 222 C194 222 150 229 123 250 C136 313 175 336 224 336 L224 336 Z M174 535 C174 508 197 485 224 485 C251 485 274 508 274 535 C274 562 251 584 224 584 C197 584 174 562 174 535 L174 535 Z " />
<glyph glyph-name="Eogonek" unicode="&#x118;" horiz-adv-x="438" d="M394 0 C407 0 413 6 413 19 L413 54 C413 67 407 73 394 73 L138 73 L138 246 L325 246 C338 246 344 252 344 265 L344 301 C344 314 338 320 325 320 L138 320 L138 494 L394 494 C407 494 413 500 413 513 L413 549 C413 562 407 568 394 568 L69 568 C56 568 50 562 50 549 L50 19 C50 6 56 0 69 0 L242 0 C241 -13 240 -31 240 -39 C240 -115 281 -148 337 -148 C376 -148 413 -138 413 -125 L413 -98 C413 -79 408 -76 395 -76 C383 -79 373 -81 365 -81 C334 -81 311 -70 311 -45 C311 -30 313 -11 317 0 L394 0 Z " />
<glyph glyph-name="eogonek" unicode="&#x119;" horiz-adv-x="426" d="M347 94 C303 75 264 70 237 70 C168 70 123 111 123 167 C176 148 208 147 235 147 C320 147 389 182 389 284 C389 353 330 411 224 411 C92 411 35 330 35 207 C35 82 92 3 213 -4 C212 -17 211 -30 211 -39 C211 -115 252 -148 308 -148 C347 -148 384 -138 384 -125 L384 -98 C384 -79 379 -76 366 -76 C354 -79 344 -81 336 -81 C305 -81 282 -70 282 -45 C282 -28 283 -13 288 -2 C319 2 349 10 376 29 C382 32 385 37 385 44 C385 47 385 50 384 51 L367 91 C365 95 361 97 356 97 C353 97 350 96 347 94 L347 94 Z M224 336 C264 336 301 324 301 275 C301 236 271 222 215 222 C194 222 150 229 123 250 C136 313 175 336 224 336 L224 336 Z " />
<glyph glyph-name="Ecaron" unicode="&#x11a;" horiz-adv-x="438" d="M394 0 C407 0 413 6 413 19 L413 54 C413 67 407 73 394 73 L138 73 L138 246 L325 246 C338 246 344 252 344 265 L344 301 C344 314 338 320 325 320 L138 320 L138 494 L394 494 C407 494 413 500 413 513 L413 549 C413 562 407 568 394 568 L69 568 C56 568 50 562 50 549 L50 19 C50 6 56 0 69 0 L394 0 Z M268 642 C279 642 286 647 289 657 L345 782 C344 793 336 796 331 796 L282 796 C271 796 265 789 262 781 L227 696 L191 781 C188 789 182 796 171 796 L121 796 C116 796 108 793 107 782 L164 657 C169 647 176 642 185 642 L268 642 Z " />
<glyph glyph-name="ecaron" unicode="&#x11b;" horiz-adv-x="426" d="M347 94 C303 75 264 70 237 70 C168 70 123 111 123 167 C176 148 208 147 235 147 C320 147 389 182 389 284 C389 353 330 411 224 411 C92 411 35 330 35 207 C35 74 100 -5 233 -5 C277 -5 333 0 376 29 C382 32 385 37 385 44 C385 47 385 50 384 51 L367 91 C365 95 361 97 356 97 C353 97 350 96 347 94 L347 94 Z M224 336 C264 336 301 324 301 275 C301 236 271 222 215 222 C194 222 150 229 123 250 C136 313 175 336 224 336 L224 336 Z M270 485 C281 485 288 490 291 500 L347 625 C346 636 338 639 333 639 L284 639 C273 639 267 632 264 624 L229 539 L193 624 C190 632 184 639 173 639 L123 639 C118 639 110 636 109 625 L166 500 C171 490 178 485 187 485 L270 485 Z " />
<glyph glyph-name="Gcircumflex" unicode="&#x11c;" horiz-adv-x="523" d="M449 538 C403 562 331 572 288 572 C154 572 35 516 35 280 C35 67 154 -5 288 -5 C327 -5 355 1 404 24 L408 21 C412 16 416 13 420 10 C427 5 436 0 444 0 L459 0 C472 0 478 6 478 19 L478 285 C478 298 472 304 459 304 L319 304 C306 304 300 298 300 285 L300 250 C300 237 306 231 319 231 L390 231 L390 93 C351 70 321 70 298 70 C243 70 123 107 123 280 C123 491 243 498 298 498 C320 498 383 486 420 473 C423 471 426 470 429 470 C434 470 438 472 440 476 L457 516 C458 517 458 520 458 523 C458 530 455 535 449 538 L449 538 Z M224 796 C215 796 208 791 203 781 L146 656 C147 645 155 642 160 642 L210 642 C221 642 227 649 230 657 L266 742 L301 657 C304 649 310 642 321 642 L370 642 C375 642 383 645 384 656 L328 781 C325 791 318 796 307 796 L224 796 Z " />
<glyph glyph-name="gcircumflex" unicode="&#x11d;" horiz-adv-x="431" d="M365 395 C321 410 276 411 236 411 C108 411 25 317 25 194 C25 117 53 26 145 15 C82 -21 63 -52 63 -105 C63 -209 163 -219 201 -219 C381 -219 381 -97 381 -32 L381 378 C381 386 376 392 365 395 L365 395 Z M292 -57 C292 -118 261 -144 216 -144 C149 -144 147 -116 147 -96 C147 -69 165 -45 292 16 L292 -57 Z M292 111 C285 103 277 96 269 90 C254 79 236 70 213 70 C163 70 115 95 115 193 C115 289 156 336 292 336 L292 111 Z M190 639 C181 639 174 634 169 624 L112 499 C113 488 121 485 126 485 L176 485 C187 485 193 492 196 500 L232 585 L267 500 C270 492 276 485 287 485 L336 485 C341 485 349 488 350 499 L294 624 C291 634 284 639 273 639 L190 639 Z " />
<glyph glyph-name="Gbreve" unicode="&#x11e;" horiz-adv-x="523" d="M449 538 C403 562 331 572 288 572 C154 572 35 516 35 280 C35 67 154 -5 288 -5 C327 -5 355 1 404 24 L408 21 C412 16 416 13 420 10 C427 5 436 0 444 0 L459 0 C472 0 478 6 478 19 L478 285 C478 298 472 304 459 304 L319 304 C306 304 300 298 300 285 L300 250 C300 237 306 231 319 231 L390 231 L390 93 C351 70 321 70 298 70 C243 70 123 107 123 280 C123 491 243 498 298 498 C320 498 383 486 420 473 C423 471 426 470 429 470 C434 470 438 472 440 476 L457 516 C458 517 458 520 458 523 C458 530 455 535 449 538 L449 538 Z M274 642 C175 642 112 668 112 784 C112 797 118 803 131 803 L176 803 C189 803 195 797 195 784 C195 722 239 712 274 712 C309 712 353 722 353 784 C353 797 359 803 372 803 L417 803 C430 803 436 797 436 784 C436 668 373 642 274 642 L274 642 Z " />
<glyph glyph-name="gbreve" unicode="&#x11f;" horiz-adv-x="431" d="M365 395 C321 410 276 411 236 411 C108 411 25 317 25 194 C25 117 53 26 145 15 C82 -21 63 -52 63 -105 C63 -209 163 -219 201 -219 C381 -219 381 -97 381 -32 L381 378 C381 386 376 392 365 395 L365 395 Z M292 -57 C292 -118 261 -144 216 -144 C149 -144 147 -116 147 -96 C147 -69 165 -45 292 16 L292 -57 Z M292 111 C285 103 277 96 269 90 C254 79 236 70 213 70 C163 70 115 95 115 193 C115 289 156 336 292 336 L292 111 Z M203 485 C104 485 41 511 41 627 C41 640 47 646 60 646 L105 646 C118 646 124 640 124 627 C124 565 168 555 203 555 C238 555 282 565 282 627 C282 640 288 646 301 646 L346 646 C359 646 365 640 365 627 C365 511 302 485 203 485 L203 485 Z " />
<glyph glyph-name="Gdotaccent" unicode="&#x120;" horiz-adv-x="523" d="M449 538 C403 562 331 572 288 572 C154 572 35 516 35 280 C35 67 154 -5 288 -5 C327 -5 355 1 404 24 L408 21 C412 16 416 13 420 10 C427 5 436 0 444 0 L459 0 C472 0 478 6 478 19 L478 285 C478 298 472 304 459 304 L319 304 C306 304 300 298 300 285 L300 250 C300 237 306 231 319 231 L390 231 L390 93 C351 70 321 70 298 70 C243 70 123 107 123 280 C123 491 243 498 298 498 C320 498 383 486 420 473 C423 471 426 470 429 470 C434 470 438 472 440 476 L457 516 C458 517 458 520 458 523 C458 530 455 535 449 538 L449 538 Z M234 692 C234 665 257 642 284 642 C311 642 334 665 334 692 C334 719 311 741 284 741 C257 741 234 719 234 692 L234 692 Z " />
<glyph glyph-name="gdotaccent" unicode="&#x121;" horiz-adv-x="431" d="M365 395 C321 410 276 411 236 411 C108 411 25 317 25 194 C25 117 53 26 145 15 C82 -21 63 -52 63 -105 C63 -209 163 -219 201 -219 C381 -219 381 -97 381 -32 L381 378 C381 386 376 392 365 395 L365 395 Z M292 -57 C292 -118 261 -144 216 -144 C149 -144 147 -116 147 -96 C147 -69 165 -45 292 16 L292 -57 Z M292 111 C285 103 277 96 269 90 C254 79 236 70 213 70 C163 70 115 95 115 193 C115 289 156 336 292 336 L292 111 Z M177 535 C177 508 200 485 227 485 C254 485 277 508 277 535 C277 562 254 584 227 584 C200 584 177 562 177 535 L177 535 Z " />
<glyph glyph-name="uni0122" unicode="&#x122;" horiz-adv-x="523" d="M449 538 C403 562 331 572 288 572 C154 572 35 516 35 280 C35 67 154 -5 288 -5 C327 -5 355 1 404 24 L408 21 C412 16 416 13 420 10 C427 5 436 0 444 0 L459 0 C472 0 478 6 478 19 L478 285 C478 298 472 304 459 304 L319 304 C306 304 300 298 300 285 L300 250 C300 237 306 231 319 231 L390 231 L390 93 C351 70 321 70 298 70 C243 70 123 107 123 280 C123 491 243 498 298 498 C320 498 383 486 420 473 C423 471 426 470 429 470 C434 470 438 472 440 476 L457 516 C458 517 458 520 458 523 C458 530 455 535 449 538 L449 538 Z M256 -228 C287 -228 307 -138 320 -87 C318 -73 311 -66 299 -66 L258 -66 C246 -66 237 -75 237 -87 C229 -148 219 -170 208 -206 C208 -225 221 -228 228 -228 L256 -228 Z " />
<glyph glyph-name="uni0123" unicode="&#x123;" horiz-adv-x="431" d="M365 395 C321 410 276 411 236 411 C108 411 25 317 25 194 C25 117 53 26 145 15 C82 -21 63 -52 63 -105 C63 -209 163 -219 201 -219 C381 -219 381 -97 381 -32 L381 378 C381 386 376 392 365 395 L365 395 Z M292 -57 C292 -118 261 -144 216 -144 C149 -144 147 -116 147 -96 C147 -69 165 -45 292 16 L292 -57 Z M292 111 C285 103 277 96 269 90 C254 79 236 70 213 70 C163 70 115 95 115 193 C115 289 156 336 292 336 L292 111 Z M249 647 C220 647 195 556 185 506 C187 492 194 485 206 485 L247 485 C259 485 268 494 268 506 C276 568 284 589 297 625 C297 644 284 647 277 647 L249 647 Z " />
<glyph glyph-name="Hcircumflex" unicode="&#x124;" horiz-adv-x="520" d="M382 250 L382 19 C382 6 388 0 401 0 L451 0 C464 0 470 6 470 19 L470 549 C470 562 464 568 451 568 L401 568 C388 568 382 562 382 549 L382 326 L138 326 L138 549 C138 562 132 568 119 568 L69 568 C56 568 50 562 50 549 L50 19 C50 6 56 0 69 0 L119 0 C132 0 138 6 138 19 L138 250 L382 250 Z M218 796 C209 796 202 791 197 781 L140 656 C141 645 149 642 154 642 L204 642 C215 642 221 649 224 657 L260 742 L295 657 C298 649 304 642 315 642 L364 642 C369 642 377 645 378 656 L322 781 C319 791 312 796 301 796 L218 796 Z " />
<glyph glyph-name="hcircumflex" unicode="&#x125;" horiz-adv-x="439" d="M311 19 C311 6 317 0 330 0 L380 0 C393 0 399 6 399 19 L399 230 C399 331 366 411 251 411 C236 411 186 411 138 381 L138 549 C138 562 132 568 119 568 L69 568 C56 568 50 562 50 549 L50 19 C50 6 56 0 69 0 L119 0 C132 0 138 6 138 19 L138 293 C146 300 155 307 165 314 C182 325 204 336 231 336 C280 336 311 327 311 226 L311 19 Z M128 796 C119 796 112 791 107 781 L50 656 C51 645 59 642 64 642 L114 642 C125 642 131 649 134 657 L170 742 L205 657 C208 649 214 642 225 642 L274 642 C279 642 287 645 288 656 L232 781 C229 791 222 796 211 796 L128 796 Z " />
<glyph glyph-name="Hbar" unicode="&#x126;" horiz-adv-x="596" d="M562 434 C575 434 581 440 581 453 L581 489 C581 502 575 508 562 508 L508 508 L508 549 C508 562 502 568 489 568 L439 568 C426 568 420 562 420 549 L420 508 L176 508 L176 549 C176 562 170 568 157 568 L107 568 C94 568 88 562 88 549 L88 508 L34 508 C21 508 15 502 15 489 L15 453 C15 440 21 434 34 434 L88 434 L88 19 C88 6 94 0 107 0 L157 0 C170 0 176 6 176 19 L176 250 L420 250 L420 19 C420 6 426 0 439 0 L489 0 C502 0 508 6 508 19 L508 434 L562 434 Z M176 326 L176 434 L420 434 L420 326 L176 326 Z " />
<glyph glyph-name="hbar" unicode="&#x127;" horiz-adv-x="482" d="M93 19 C93 6 99 0 112 0 L162 0 C175 0 181 6 181 19 L181 293 C189 300 198 307 208 314 C225 325 247 336 274 336 C323 336 354 327 354 226 L354 19 C354 6 360 0 373 0 L423 0 C436 0 442 6 442 19 L442 230 C442 331 409 411 294 411 C279 411 229 411 181 381 L181 456 L270 456 C283 456 289 462 289 475 L289 511 C289 524 283 530 270 530 L181 530 L181 549 C181 562 175 568 162 568 L112 568 C99 568 93 562 93 549 L93 530 L24 530 C11 530 5 524 5 511 L5 475 C5 462 11 456 24 456 L93 456 L93 19 Z " />
<glyph glyph-name="Itilde" unicode="&#x128;" horiz-adv-x="188" d="M50 19 C50 6 56 0 69 0 L119 0 C132 0 138 6 138 19 L138 549 C138 562 132 568 119 568 L69 568 C56 568 50 562 50 549 L50 19 Z M146 642 C169 642 202 652 230 673 C233 674 235 678 235 683 C235 686 234 688 233 691 L211 723 C207 728 202 730 195 730 C188 730 182 727 177 724 C169 719 159 716 146 716 C94 716 90 738 41 738 C18 738 -15 728 -43 707 C-46 705 -48 702 -48 697 C-48 694 -47 692 -46 689 L-24 657 C-20 652 -15 650 -8 650 C-1 650 5 653 10 656 C18 661 28 664 41 664 C93 664 96 642 146 642 L146 642 Z " />
<glyph glyph-name="itilde" unicode="&#x129;" horiz-adv-x="188" d="M50 19 C50 6 56 0 69 0 L119 0 C132 0 138 6 138 19 L138 386 C138 399 132 405 119 405 L69 405 C56 405 50 399 50 386 L50 19 Z M146 485 C169 485 202 495 230 516 C233 517 235 521 235 526 C235 529 234 531 233 534 L211 566 C207 571 202 573 195 573 C188 573 182 570 177 567 C169 562 159 559 146 559 C94 559 90 581 41 581 C18 581 -15 571 -43 550 C-46 548 -48 545 -48 540 C-48 537 -47 535 -46 532 L-24 500 C-20 495 -15 493 -8 493 C-1 493 5 496 10 499 C18 504 28 507 41 507 C93 507 96 485 146 485 L146 485 Z " />
<glyph glyph-name="Imacron" unicode="&#x12a;" horiz-adv-x="188" d="M50 19 C50 6 56 0 69 0 L119 0 C132 0 138 6 138 19 L138 549 C138 562 132 568 119 568 L69 568 C56 568 50 562 50 549 L50 19 Z M171 642 C184 642 190 648 190 661 L190 697 C190 710 184 716 171 716 L17 716 C4 716 -2 710 -2 697 L-2 661 C-2 648 4 642 17 642 L171 642 Z " />
<glyph glyph-name="imacron" unicode="&#x12b;" horiz-adv-x="188" d="M50 19 C50 6 56 0 69 0 L119 0 C132 0 138 6 138 19 L138 386 C138 399 132 405 119 405 L69 405 C56 405 50 399 50 386 L50 19 Z M171 485 C184 485 190 491 190 504 L190 540 C190 553 184 559 171 559 L17 559 C4 559 -2 553 -2 540 L-2 504 C-2 491 4 485 17 485 L171 485 Z " />
<glyph glyph-name="Iogonek" unicode="&#x12e;" horiz-adv-x="188" d="M50 19 C50 14 32 0 32 -53 C32 -129 74 -147 129 -147 C168 -147 190 -137 190 -124 L190 -97 C190 -78 185 -75 172 -75 C160 -78 150 -80 142 -80 C111 -80 100 -72 100 -47 C100 -5 138 1 138 19 L138 549 C138 562 132 568 119 568 L69 568 C56 568 50 562 50 549 L50 19 Z " />
<glyph glyph-name="iogonek" unicode="&#x12f;" horiz-adv-x="188" d="M46 492 C46 465 67 444 94 444 C121 444 143 465 143 492 C143 519 121 541 94 541 C67 541 46 519 46 492 L46 492 Z M50 19 C50 14 32 0 32 -53 C32 -129 74 -147 129 -147 C168 -147 190 -137 190 -124 L190 -97 C190 -78 185 -75 172 -75 C160 -78 150 -80 142 -80 C111 -80 100 -72 100 -47 C100 -5 138 1 138 19 L138 386 C138 399 132 405 119 405 L69 405 C56 405 50 399 50 386 L50 19 Z " />
<glyph glyph-name="Idotaccent" unicode="&#x130;" horiz-adv-x="188" d="M50 19 C50 6 56 0 69 0 L119 0 C132 0 138 6 138 19 L138 549 C138 562 132 568 119 568 L69 568 C56 568 50 562 50 549 L50 19 Z M46 690 C46 663 67 642 94 642 C121 642 143 663 143 690 C143 717 121 739 94 739 C67 739 46 717 46 690 L46 690 Z " />
<glyph glyph-name="dotlessi" unicode="&#x131;" horiz-adv-x="188" d="M50 19 C50 6 56 0 69 0 L119 0 C132 0 138 6 138 19 L138 386 C138 399 132 405 119 405 L69 405 C56 405 50 399 50 386 L50 19 Z " />
<glyph glyph-name="Jcircumflex" unicode="&#x134;" horiz-adv-x="419" d="M19 25 C60 5 117 -5 156 -5 C257 -5 369 17 369 235 L369 549 C369 562 363 568 350 568 L300 568 C287 568 281 562 281 549 L281 237 C281 82 204 70 146 70 C123 70 80 78 51 93 C48 95 45 96 42 96 C37 96 33 94 31 90 L11 47 C10 46 10 43 10 40 C10 33 13 28 19 25 L19 25 Z M208 796 C199 796 192 791 187 781 L130 656 C131 645 139 642 144 642 L194 642 C205 642 211 649 214 657 L250 742 L285 657 C288 649 294 642 305 642 L354 642 C359 642 367 645 368 656 L312 781 C309 791 302 796 291 796 L208 796 Z " />
<glyph glyph-name="jcircumflex" unicode="&#x135;" horiz-adv-x="188" d="M-97 -185 C-74 -193 -44 -195 -21 -195 C110 -195 138 -115 138 19 L138 386 C138 399 132 405 119 405 L69 405 C56 405 50 399 50 386 L50 3 C50 -37 48 -114 -38 -114 C-61 -114 -71 -108 -83 -108 C-88 -108 -93 -110 -96 -118 C-107 -161 -106 -167 -106 -170 C-106 -177 -103 -182 -97 -185 L-97 -185 Z M51 639 C42 639 35 634 30 624 L-27 499 C-26 488 -18 485 -13 485 L37 485 C48 485 54 492 57 500 L93 585 L128 500 C131 492 137 485 148 485 L197 485 C202 485 210 488 211 499 L155 624 C152 634 145 639 134 639 L51 639 Z " />
<glyph glyph-name="uni0136" unicode="&#x136;" horiz-adv-x="507" d="M389 21 C393 10 403 0 414 0 L468 0 C481 0 487 6 487 19 L388 225 C369 264 347 292 322 320 C394 396 440 481 457 549 C457 562 451 568 438 568 L391 568 C382 568 374 562 369 549 C337 454 210 313 138 313 L138 549 C138 562 132 568 119 568 L69 568 C56 568 50 562 50 549 L50 19 C50 6 56 0 69 0 L119 0 C132 0 138 6 138 19 L138 212 C181 225 213 241 250 268 C293 223 325 153 360 81 C369 61 378 40 389 21 L389 21 Z M256 -228 C287 -228 307 -138 320 -87 C318 -73 311 -66 299 -66 L258 -66 C246 -66 237 -75 237 -87 C229 -148 219 -170 208 -206 C208 -225 221 -228 228 -228 L256 -228 Z " />
<glyph glyph-name="uni0137" unicode="&#x137;" horiz-adv-x="426" d="M311 18 C316 9 326 0 337 0 L392 0 C405 0 411 6 411 19 L363 105 C339 148 320 176 288 219 C352 275 383 337 396 386 C396 399 390 405 377 405 L327 405 C318 405 311 399 307 386 C281 315 195 256 138 256 L138 549 C138 562 132 568 119 568 L69 568 C56 568 50 562 50 549 L50 19 C50 6 56 0 69 0 L119 0 C132 0 138 6 138 19 L138 160 C162 167 191 174 211 182 C233 153 255 118 278 77 L311 18 Z M204 -228 C235 -228 255 -138 268 -87 C266 -73 259 -66 247 -66 L206 -66 C194 -66 185 -75 185 -87 C177 -148 167 -170 156 -206 C156 -225 169 -228 176 -228 L204 -228 Z " />
<glyph glyph-name="kgreenlandic" unicode="&#x138;" horiz-adv-x="426" d="M311 18 C316 9 326 0 337 0 L392 0 C405 0 411 6 411 19 L363 105 C339 148 320 176 288 219 C352 275 383 337 396 386 C396 399 390 405 377 405 L327 405 C318 405 311 399 307 386 C281 315 195 256 138 256 L138 386 C138 399 132 405 119 405 L69 405 C56 405 50 399 50 386 L50 19 C50 6 56 0 69 0 L119 0 C132 0 138 6 138 19 L138 160 C162 167 191 174 211 182 C233 153 255 118 278 77 L311 18 Z " />
<glyph glyph-name="Lacute" unicode="&#x139;" horiz-adv-x="415" d="M138 549 C138 562 132 568 119 568 L69 568 C56 568 50 562 50 549 L50 19 C50 6 56 0 69 0 L376 0 C389 0 395 6 395 19 L395 54 C395 67 389 73 376 73 L138 73 L138 549 Z M53 686 C51 683 50 680 50 677 C50 670 58 663 61 660 C68 653 76 642 89 642 C96 642 104 644 111 649 L206 727 C208 730 209 734 209 740 C209 748 207 754 203 758 L171 793 C168 795 163 796 156 796 C148 795 147 794 140 787 L53 686 Z " />
<glyph glyph-name="lacute" unicode="&#x13a;" horiz-adv-x="188" d="M138 549 C138 562 132 568 119 568 L69 568 C56 568 50 562 50 549 L50 19 C50 6 56 0 69 0 L119 0 C132 0 138 6 138 19 L138 549 Z M18 686 C16 683 15 680 15 677 C15 670 23 663 26 660 C33 653 41 642 54 642 C61 642 69 644 76 649 L171 727 C173 730 174 734 174 740 C174 748 172 754 168 758 L136 793 C133 795 128 796 121 796 C113 795 112 794 105 787 L18 686 Z " />
<glyph glyph-name="uni013B" unicode="&#x13b;" horiz-adv-x="415" d="M138 549 C138 562 132 568 119 568 L69 568 C56 568 50 562 50 549 L50 19 C50 6 56 0 69 0 L376 0 C389 0 395 6 395 19 L395 54 C395 67 389 73 376 73 L138 73 L138 549 Z M220 -228 C251 -228 271 -138 284 -87 C282 -73 275 -66 263 -66 L222 -66 C210 -66 201 -75 201 -87 C193 -148 183 -170 172 -206 C172 -225 185 -228 192 -228 L220 -228 Z " />
<glyph glyph-name="uni013C" unicode="&#x13c;" horiz-adv-x="188" d="M50 19 C50 6 56 0 69 0 L119 0 C132 0 138 6 138 19 L138 549 C138 562 132 568 119 568 L69 568 C56 568 50 562 50 549 L50 19 Z M73 -228 C104 -228 124 -138 137 -87 C135 -73 128 -66 116 -66 L75 -66 C63 -66 54 -75 54 -87 C46 -148 36 -170 25 -206 C25 -225 38 -228 45 -228 L73 -228 Z " />
<glyph glyph-name="Lcaron" unicode="&#x13d;" horiz-adv-x="415" d="M138 549 C138 562 132 568 119 568 L69 568 C56 568 50 562 50 549 L50 19 C50 6 56 0 69 0 L376 0 C389 0 395 6 395 19 L395 54 C395 67 389 73 376 73 L138 73 L138 549 Z M376 549 C376 562 370 568 357 568 L309 568 C296 568 290 562 290 549 L266 425 C266 412 272 406 285 406 L317 406 C326 406 333 412 336 425 L376 549 Z " />
<glyph glyph-name="lcaron" unicode="&#x13e;" horiz-adv-x="296" d="M50 19 C50 6 56 0 69 0 L119 0 C132 0 138 6 138 19 L138 549 C138 562 132 568 119 568 L69 568 C56 568 50 562 50 549 L50 19 Z M291 549 C291 562 285 568 272 568 L224 568 C211 568 205 562 205 549 L181 425 C181 412 187 406 200 406 L232 406 C241 406 248 412 251 425 L291 549 Z " />
<glyph glyph-name="Lslash" unicode="&#x141;" horiz-adv-x="461" d="M286 302 C297 305 302 311 302 321 L302 362 C302 375 292 378 287 381 L184 354 L184 549 C184 562 178 568 165 568 L115 568 C102 568 96 562 96 549 L96 330 L21 311 C10 308 5 302 5 292 L5 251 C5 238 15 235 20 232 L96 252 L96 19 C96 6 102 0 115 0 L422 0 C435 0 441 6 441 19 L441 54 C441 67 435 73 422 73 L184 73 L184 275 L286 302 Z " />
<glyph glyph-name="lslash" unicode="&#x142;" horiz-adv-x="307" d="M108 19 C108 6 114 0 127 0 L177 0 C190 0 196 6 196 19 L196 278 L286 302 C297 305 302 311 302 321 L302 362 C302 375 292 378 287 381 L196 357 L196 549 C196 562 190 568 177 568 L127 568 C114 568 108 562 108 549 L108 334 L21 311 C10 308 5 302 5 292 L5 251 C5 238 15 235 20 232 L108 255 L108 19 Z " />
<glyph glyph-name="Nacute" unicode="&#x143;" horiz-adv-x="539" d="M164 546 C151 567 132 568 127 568 L69 568 C56 568 50 562 50 549 L50 19 C50 6 56 0 69 0 L119 0 C132 0 138 6 138 19 L138 421 L383 22 C396 1 415 0 420 0 L470 0 C483 0 489 6 489 19 L489 549 C489 562 483 568 470 568 L420 568 C407 568 401 562 401 549 L401 160 L164 546 Z M221 686 C219 683 218 680 218 677 C218 670 226 663 229 660 C236 653 244 642 257 642 C264 642 272 644 279 649 L374 727 C376 730 377 734 377 740 C377 748 375 754 371 758 L339 793 C336 795 331 796 324 796 C316 795 315 794 308 787 L221 686 Z " />
<glyph glyph-name="nacute" unicode="&#x144;" horiz-adv-x="439" d="M311 19 C311 6 317 0 330 0 L380 0 C393 0 399 6 399 19 L399 219 C399 348 349 411 216 411 C175 411 115 405 66 390 C55 387 50 381 50 373 L50 19 C50 6 56 0 69 0 L119 0 C132 0 138 6 138 19 L138 321 C159 334 208 336 221 336 C304 336 311 282 311 187 L311 19 Z M136 529 C134 526 133 523 133 520 C133 513 141 506 144 503 C151 496 159 485 172 485 C179 485 187 487 194 492 L289 570 C291 573 292 577 292 583 C292 591 290 597 286 601 L254 636 C251 638 246 639 239 639 C231 638 230 637 223 630 L136 529 Z " />
<glyph glyph-name="uni0145" unicode="&#x145;" horiz-adv-x="539" d="M164 546 C151 567 132 568 127 568 L69 568 C56 568 50 562 50 549 L50 19 C50 6 56 0 69 0 L119 0 C132 0 138 6 138 19 L138 421 L383 22 C396 1 415 0 420 0 L470 0 C483 0 489 6 489 19 L489 549 C489 562 483 568 470 568 L420 568 C407 568 401 562 401 549 L401 160 L164 546 Z M256 -228 C287 -228 307 -138 320 -87 C318 -73 311 -66 299 -66 L258 -66 C246 -66 237 -75 237 -87 C229 -148 219 -170 208 -206 C208 -225 221 -228 228 -228 L256 -228 Z " />
<glyph glyph-name="uni0146" unicode="&#x146;" horiz-adv-x="439" d="M311 19 C311 6 317 0 330 0 L380 0 C393 0 399 6 399 19 L399 219 C399 348 349 411 216 411 C175 411 115 405 66 390 C55 387 50 381 50 373 L50 19 C50 6 56 0 69 0 L119 0 C132 0 138 6 138 19 L138 321 C159 334 208 336 221 336 C304 336 311 282 311 187 L311 19 Z M205 -228 C236 -228 256 -138 269 -87 C267 -73 260 -66 248 -66 L207 -66 C195 -66 186 -75 186 -87 C178 -148 168 -170 157 -206 C157 -225 170 -228 177 -228 L205 -228 Z " />
<glyph glyph-name="Ncaron" unicode="&#x147;" horiz-adv-x="539" d="M164 546 C151 567 132 568 127 568 L69 568 C56 568 50 562 50 549 L50 19 C50 6 56 0 69 0 L119 0 C132 0 138 6 138 19 L138 421 L383 22 C396 1 415 0 420 0 L470 0 C483 0 489 6 489 19 L489 549 C489 562 483 568 470 568 L420 568 C407 568 401 562 401 549 L401 160 L164 546 Z M316 642 C327 642 334 647 337 657 L393 782 C392 793 384 796 379 796 L330 796 C319 796 313 789 310 781 L275 696 L239 781 C236 789 230 796 219 796 L169 796 C164 796 156 793 155 782 L212 657 C217 647 224 642 233 642 L316 642 Z " />
<glyph glyph-name="ncaron" unicode="&#x148;" horiz-adv-x="439" d="M311 19 C311 6 317 0 330 0 L380 0 C393 0 399 6 399 19 L399 219 C399 348 349 411 216 411 C175 411 115 405 66 390 C55 387 50 381 50 373 L50 19 C50 6 56 0 69 0 L119 0 C132 0 138 6 138 19 L138 321 C159 334 208 336 221 336 C304 336 311 282 311 187 L311 19 Z M269 485 C280 485 287 490 290 500 L346 625 C345 636 337 639 332 639 L283 639 C272 639 266 632 263 624 L228 539 L192 624 C189 632 183 639 172 639 L122 639 C117 639 109 636 108 625 L165 500 C170 490 177 485 186 485 L269 485 Z " />
<glyph glyph-name="Eng" unicode="&#x14a;" horiz-adv-x="539" d="M254 -185 C277 -193 307 -195 330 -195 C461 -195 489 -115 489 19 L489 549 C489 562 483 568 470 568 L420 568 C407 568 401 562 401 549 L401 160 L164 546 C151 567 132 568 127 568 L69 568 C56 568 50 562 50 549 L50 19 C50 6 56 0 69 0 L119 0 C132 0 138 6 138 19 L138 421 L383 22 C388 14 394 8 401 4 C401 -37 399 -114 313 -114 C290 -114 280 -108 268 -108 C263 -108 258 -110 255 -118 C244 -161 245 -167 245 -170 C245 -177 248 -182 254 -185 L254 -185 Z " />
<glyph glyph-name="eng" unicode="&#x14b;" horiz-adv-x="439" d="M164 -185 C187 -193 217 -195 240 -195 C371 -195 399 -115 399 19 L399 219 C399 348 349 411 216 411 C175 411 115 405 66 390 C55 387 50 381 50 373 L50 19 C50 6 56 0 69 0 L119 0 C132 0 138 6 138 19 L138 321 C159 334 208 336 221 336 C304 336 311 282 311 187 L311 3 C311 -37 309 -114 223 -114 C200 -114 190 -108 178 -108 C173 -108 168 -110 165 -118 C154 -161 155 -167 155 -170 C155 -177 158 -182 164 -185 L164 -185 Z " />
<glyph glyph-name="Omacron" unicode="&#x14c;" horiz-adv-x="570" d="M285 70 C217 70 128 91 128 280 C128 483 218 497 285 497 C351 497 442 483 442 280 C442 91 353 70 285 70 L285 70 Z M285 -5 C420 -5 530 59 530 280 C530 516 418 572 285 572 C152 572 40 516 40 280 C40 59 150 -5 285 -5 L285 -5 Z M408 642 C421 642 427 648 427 661 L427 697 C427 710 421 716 408 716 L162 716 C149 716 143 710 143 697 L143 661 C143 648 149 642 162 642 L408 642 Z " />
<glyph glyph-name="omacron" unicode="&#x14d;" horiz-adv-x="464" d="M232 70 C133 70 123 154 123 206 C123 261 143 336 232 336 C321 336 341 261 341 206 C341 154 331 70 232 70 L232 70 Z M232 -5 C367 -5 429 74 429 207 C429 330 365 411 232 411 C97 411 35 330 35 207 C35 74 97 -5 232 -5 L232 -5 Z M355 485 C368 485 374 491 374 504 L374 540 C374 553 368 559 355 559 L109 559 C96 559 90 553 90 540 L90 504 C90 491 96 485 109 485 L355 485 Z " />
<glyph glyph-name="Ohungarumlaut" unicode="&#x150;" horiz-adv-x="570" d="M285 70 C217 70 128 91 128 280 C128 483 218 497 285 497 C351 497 442 483 442 280 C442 91 353 70 285 70 L285 70 Z M285 -5 C420 -5 530 59 530 280 C530 516 418 572 285 572 C152 572 40 516 40 280 C40 59 150 -5 285 -5 L285 -5 Z M291 770 C291 783 285 789 272 789 L224 789 C211 789 205 783 205 770 L184 661 C184 648 190 642 203 642 L235 642 C244 642 251 648 254 661 L291 770 Z M434 770 C434 783 428 789 415 789 L367 789 C354 789 348 783 348 770 L327 661 C327 648 333 642 346 642 L378 642 C387 642 394 648 397 661 L434 770 Z " />
<glyph glyph-name="ohungarumlaut" unicode="&#x151;" horiz-adv-x="464" d="M232 70 C133 70 123 154 123 206 C123 261 143 336 232 336 C321 336 341 261 341 206 C341 154 331 70 232 70 L232 70 Z M232 -5 C367 -5 429 74 429 207 C429 330 365 411 232 411 C97 411 35 330 35 207 C35 74 97 -5 232 -5 L232 -5 Z M226 613 C226 626 220 632 207 632 L159 632 C146 632 140 626 140 613 L119 504 C119 491 125 485 138 485 L170 485 C179 485 186 491 189 504 L226 613 Z M369 613 C369 626 363 632 350 632 L302 632 C289 632 283 626 283 613 L262 504 C262 491 268 485 281 485 L313 485 C322 485 329 491 332 504 L369 613 Z " />
<glyph glyph-name="OE" unicode="&#x152;" horiz-adv-x="710" d="M666 0 C679 0 685 6 685 19 L685 54 C685 67 679 73 666 73 L410 73 L410 246 L597 246 C610 246 616 252 616 265 L616 301 C616 314 610 320 597 320 L410 320 L410 494 L666 494 C679 494 685 500 685 513 L685 549 C685 562 679 568 666 568 L346 568 C326 571 307 572 288 572 C154 572 35 516 35 280 C35 67 154 -5 288 -5 C307 -5 328 -3 349 0 L666 0 Z M298 70 C243 70 123 107 123 280 C123 491 243 498 298 498 C305 498 313 497 322 496 L322 71 C313 70 305 70 298 70 L298 70 Z " />
<glyph glyph-name="oe" unicode="&#x153;" horiz-adv-x="732" d="M653 94 C609 75 570 70 543 70 C474 70 429 111 429 167 C482 148 514 147 541 147 C626 147 695 182 695 284 C695 353 636 411 530 411 C461 411 414 389 383 352 C350 389 300 411 232 411 C97 411 35 330 35 207 C35 74 97 -5 232 -5 C303 -5 353 17 385 57 C419 16 470 -5 539 -5 C583 -5 639 0 682 29 C688 32 691 37 691 44 C691 47 691 50 690 51 L673 91 C671 95 667 97 662 97 C659 97 656 96 653 94 L653 94 Z M232 70 C133 70 123 154 123 206 C123 261 143 336 232 336 C317 336 338 267 341 214 L341 207 C341 154 331 70 232 70 L232 70 Z M530 336 C570 336 607 324 607 275 C607 236 577 222 521 222 C500 222 456 229 429 250 C442 313 481 336 530 336 L530 336 Z " />
<glyph glyph-name="Racute" unicode="&#x154;" horiz-adv-x="479" d="M440 56 C428 64 424 72 412 103 L366 224 C421 250 449 303 449 384 C449 513 382 568 251 568 L69 568 C56 568 50 562 50 549 L50 19 C50 6 56 0 69 0 L119 0 C132 0 138 6 138 19 L138 203 L251 203 C262 203 269 203 280 204 L342 38 C351 15 370 -5 405 -5 C425 -5 448 -2 448 9 L448 40 C448 43 448 49 440 56 L440 56 Z M138 277 L138 493 L257 493 C320 493 361 453 361 384 C361 315 321 277 257 277 L138 277 Z M163 686 C161 683 160 680 160 677 C160 670 168 663 171 660 C178 653 186 642 199 642 C206 642 214 644 221 649 L316 727 C318 730 319 734 319 740 C319 748 317 754 313 758 L281 793 C278 795 273 796 266 796 C258 795 257 794 250 787 L163 686 Z " />
<glyph glyph-name="racute" unicode="&#x155;" horiz-adv-x="332" d="M289 319 C292 317 295 316 298 316 C303 316 307 318 309 322 L326 364 C327 365 327 368 327 371 C327 378 324 383 318 386 C283 405 252 411 216 411 C170 411 109 405 66 378 C55 371 50 364 50 356 L50 19 C50 6 56 0 69 0 L119 0 C132 0 138 6 138 19 L138 305 C146 333 196 336 220 336 C241 336 264 330 289 319 L289 319 Z M121 529 C119 526 118 523 118 520 C118 513 126 506 129 503 C136 496 144 485 157 485 C164 485 172 487 179 492 L274 570 C276 573 277 577 277 583 C277 591 275 597 271 601 L239 636 C236 638 231 639 224 639 C216 638 215 637 208 630 L121 529 Z " />
<glyph glyph-name="uni0156" unicode="&#x156;" horiz-adv-x="479" d="M440 56 C428 64 424 72 412 103 L366 224 C421 250 449 303 449 384 C449 513 382 568 251 568 L69 568 C56 568 50 562 50 549 L50 19 C50 6 56 0 69 0 L119 0 C132 0 138 6 138 19 L138 203 L251 203 C262 203 269 203 280 204 L342 38 C351 15 370 -5 405 -5 C425 -5 448 -2 448 9 L448 40 C448 43 448 49 440 56 L440 56 Z M138 277 L138 493 L257 493 C320 493 361 453 361 384 C361 315 321 277 257 277 L138 277 Z M234 -228 C265 -228 285 -138 298 -87 C296 -73 289 -66 277 -66 L236 -66 C224 -66 215 -75 215 -87 C207 -148 197 -170 186 -206 C186 -225 199 -228 206 -228 L234 -228 Z " />
<glyph glyph-name="uni0157" unicode="&#x157;" horiz-adv-x="332" d="M289 319 C292 317 295 316 298 316 C303 316 307 318 309 322 L326 364 C327 365 327 368 327 371 C327 378 324 383 318 386 C283 405 252 411 216 411 C170 411 109 405 66 378 C55 371 50 364 50 356 L50 19 C50 6 56 0 69 0 L119 0 C132 0 138 6 138 19 L138 305 C146 333 196 336 220 336 C241 336 264 330 289 319 L289 319 Z M102 -228 C133 -228 153 -138 166 -87 C164 -73 157 -66 145 -66 L104 -66 C92 -66 83 -75 83 -87 C75 -148 65 -170 54 -206 C54 -225 67 -228 74 -228 L102 -228 Z " />
<glyph glyph-name="Rcaron" unicode="&#x158;" horiz-adv-x="479" d="M440 56 C428 64 424 72 412 103 L366 224 C421 250 449 303 449 384 C449 513 382 568 251 568 L69 568 C56 568 50 562 50 549 L50 19 C50 6 56 0 69 0 L119 0 C132 0 138 6 138 19 L138 203 L251 203 C262 203 269 203 280 204 L342 38 C351 15 370 -5 405 -5 C425 -5 448 -2 448 9 L448 40 C448 43 448 49 440 56 L440 56 Z M138 277 L138 493 L257 493 C320 493 361 453 361 384 C361 315 321 277 257 277 L138 277 Z M285 642 C296 642 303 647 306 657 L362 782 C361 793 353 796 348 796 L299 796 C288 796 282 789 279 781 L244 696 L208 781 C205 789 199 796 188 796 L138 796 C133 796 125 793 124 782 L181 657 C186 647 193 642 202 642 L285 642 Z " />
<glyph glyph-name="rcaron" unicode="&#x159;" horiz-adv-x="332" d="M289 319 C292 317 295 316 298 316 C303 316 307 318 309 322 L326 364 C327 365 327 368 327 371 C327 378 324 383 318 386 C283 405 252 411 216 411 C170 411 109 405 66 378 C55 371 50 364 50 356 L50 19 C50 6 56 0 69 0 L119 0 C132 0 138 6 138 19 L138 305 C146 333 196 336 220 336 C241 336 264 330 289 319 L289 319 Z M236 485 C247 485 254 490 257 500 L313 625 C312 636 304 639 299 639 L250 639 C239 639 233 632 230 624 L195 539 L159 624 C156 632 150 639 139 639 L89 639 C84 639 76 636 75 625 L132 500 C137 490 144 485 153 485 L236 485 Z " />
<glyph glyph-name="Sacute" unicode="&#x15a;" horiz-adv-x="481" d="M384 483 C388 483 397 483 398 494 C399 509 402 537 402 538 C402 545 399 551 391 554 C338 565 270 572 253 572 C74 572 35 510 35 422 C35 215 368 296 368 159 C368 78 261 70 229 70 C203 70 138 78 90 97 C85 100 84 100 81 100 C76 100 72 98 70 94 L52 50 C51 49 51 46 51 43 C51 36 54 31 60 28 C103 7 176 -5 215 -5 C374 -5 456 43 456 154 C456 379 123 302 123 431 C123 493 168 497 260 497 C275 497 324 491 384 483 L384 483 Z M164 686 C162 683 161 680 161 677 C161 670 169 663 172 660 C179 653 187 642 200 642 C207 642 215 644 222 649 L317 727 C319 730 320 734 320 740 C320 748 318 754 314 758 L282 793 C279 795 274 796 267 796 C259 795 258 794 251 787 L164 686 Z " />
<glyph glyph-name="sacute" unicode="&#x15b;" horiz-adv-x="389" d="M56 16 C95 0 159 -5 184 -5 C300 -5 364 38 364 118 C364 278 123 211 123 295 C123 331 166 336 237 336 C248 336 280 332 307 329 C311 329 320 329 321 340 C322 355 325 381 325 382 C325 389 322 395 314 398 C272 406 219 411 203 411 C75 411 33 357 33 293 C33 126 274 200 274 115 C274 70 209 70 182 70 C161 70 107 78 70 86 C66 86 59 86 56 75 C52 60 45 33 45 32 C45 25 48 19 56 16 L56 16 Z M119 529 C117 526 116 523 116 520 C116 513 124 506 127 503 C134 496 142 485 155 485 C162 485 170 487 177 492 L272 570 C274 573 275 577 275 583 C275 591 273 597 269 601 L237 636 C234 638 229 639 222 639 C214 638 213 637 206 630 L119 529 Z " />
<glyph glyph-name="Scircumflex" unicode="&#x15c;" horiz-adv-x="481" d="M384 483 C388 483 397 483 398 494 C399 509 402 537 402 538 C402 545 399 551 391 554 C338 565 270 572 253 572 C74 572 35 510 35 422 C35 215 368 296 368 159 C368 78 261 70 229 70 C203 70 138 78 90 97 C85 100 84 100 81 100 C76 100 72 98 70 94 L52 50 C51 49 51 46 51 43 C51 36 54 31 60 28 C103 7 176 -5 215 -5 C374 -5 456 43 456 154 C456 379 123 302 123 431 C123 493 168 497 260 497 C275 497 324 491 384 483 L384 483 Z M197 796 C188 796 181 791 176 781 L119 656 C120 645 128 642 133 642 L183 642 C194 642 200 649 203 657 L239 742 L274 657 C277 649 283 642 294 642 L343 642 C348 642 356 645 357 656 L301 781 C298 791 291 796 280 796 L197 796 Z " />
<glyph glyph-name="scircumflex" unicode="&#x15d;" horiz-adv-x="389" d="M56 16 C95 0 159 -5 184 -5 C300 -5 364 38 364 118 C364 278 123 211 123 295 C123 331 166 336 237 336 C248 336 280 332 307 329 C311 329 320 329 321 340 C322 355 325 381 325 382 C325 389 322 395 314 398 C272 406 219 411 203 411 C75 411 33 357 33 293 C33 126 274 200 274 115 C274 70 209 70 182 70 C161 70 107 78 70 86 C66 86 59 86 56 75 C52 60 45 33 45 32 C45 25 48 19 56 16 L56 16 Z M169 639 C160 639 153 634 148 624 L91 499 C92 488 100 485 105 485 L155 485 C166 485 172 492 175 500 L211 585 L246 500 C249 492 255 485 266 485 L315 485 C320 485 328 488 329 499 L273 624 C270 634 263 639 252 639 L169 639 Z " />
<glyph glyph-name="Scedilla" unicode="&#x15e;" horiz-adv-x="481" d="M384 483 C388 483 397 483 398 494 C399 509 402 537 402 538 C402 545 399 551 391 554 C338 565 270 572 253 572 C74 572 35 510 35 422 C35 215 368 296 368 159 C368 78 261 70 229 70 C203 70 138 78 90 97 C85 100 84 100 81 100 C76 100 72 98 70 94 L52 50 C51 49 51 46 51 43 C51 36 54 31 60 28 C103 7 176 -5 215 -5 C222 -5 225 -4 232 -4 C239 -15 242 -32 242 -55 C242 -80 219 -91 188 -91 C180 -91 170 -89 158 -86 C145 -86 140 -89 140 -108 L140 -135 C140 -148 177 -158 216 -158 C272 -158 313 -125 313 -49 C313 -34 310 -13 307 2 C406 19 456 67 456 154 C456 379 123 302 123 431 C123 493 168 497 260 497 C275 497 324 491 384 483 L384 483 Z " />
<glyph glyph-name="scedilla" unicode="&#x15f;" horiz-adv-x="389" d="M364 118 C364 278 123 211 123 295 C123 331 166 336 237 336 C248 336 280 332 307 329 C311 329 320 329 321 340 C322 355 325 381 325 382 C325 389 322 395 314 398 C272 406 219 411 203 411 C75 411 33 357 33 293 C33 126 274 200 274 115 C274 70 209 70 182 70 C161 70 107 78 70 86 C66 86 59 86 56 75 C52 60 45 33 45 32 C45 25 48 19 56 16 C103 1 145 -5 188 -5 C196 -16 198 -34 198 -55 C198 -80 175 -91 144 -91 C136 -91 126 -89 114 -86 C101 -86 96 -89 96 -108 L96 -135 C96 -148 133 -158 172 -158 C228 -158 269 -125 269 -49 C269 -34 268 -11 265 4 C329 21 364 58 364 118 L364 118 Z " />
<glyph glyph-name="Scaron" unicode="&#x160;" horiz-adv-x="481" d="M384 483 C388 483 397 483 398 494 C399 509 402 537 402 538 C402 545 399 551 391 554 C338 565 270 572 253 572 C74 572 35 510 35 422 C35 215 368 296 368 159 C368 78 261 70 229 70 C203 70 138 78 90 97 C85 100 84 100 81 100 C76 100 72 98 70 94 L52 50 C51 49 51 46 51 43 C51 36 54 31 60 28 C103 7 176 -5 215 -5 C374 -5 456 43 456 154 C456 379 123 302 123 431 C123 493 168 497 260 497 C275 497 324 491 384 483 L384 483 Z M269 642 C280 642 287 647 290 657 L346 782 C345 793 337 796 332 796 L283 796 C272 796 266 789 263 781 L228 696 L192 781 C189 789 183 796 172 796 L122 796 C117 796 109 793 108 782 L165 657 C170 647 177 642 186 642 L269 642 Z " />
<glyph glyph-name="scaron" unicode="&#x161;" horiz-adv-x="389" d="M56 16 C95 0 159 -5 184 -5 C300 -5 364 38 364 118 C364 278 123 211 123 295 C123 331 166 336 237 336 C248 336 280 332 307 329 C311 329 320 329 321 340 C322 355 325 381 325 382 C325 389 322 395 314 398 C272 406 219 411 203 411 C75 411 33 357 33 293 C33 126 274 200 274 115 C274 70 209 70 182 70 C161 70 107 78 70 86 C66 86 59 86 56 75 C52 60 45 33 45 32 C45 25 48 19 56 16 L56 16 Z M236 485 C247 485 254 490 257 500 L313 625 C312 636 304 639 299 639 L250 639 C239 639 233 632 230 624 L195 539 L159 624 C156 632 150 639 139 639 L89 639 C84 639 76 636 75 625 L132 500 C137 490 144 485 153 485 L236 485 Z " />
<glyph glyph-name="uni0162" unicode="&#x162;" horiz-adv-x="444" d="M178 494 L178 19 C178 6 184 0 197 0 L247 0 C260 0 266 6 266 19 L266 494 L405 494 C418 494 424 500 424 513 L424 549 C424 562 418 568 405 568 L39 568 C26 568 20 562 20 549 L20 513 C20 500 26 494 39 494 L178 494 Z M198 -228 C229 -228 249 -138 262 -87 C260 -73 253 -66 241 -66 L200 -66 C188 -66 179 -75 179 -87 C171 -148 161 -170 150 -206 C150 -225 163 -228 170 -228 L198 -228 Z " />
<glyph glyph-name="uni0163" unicode="&#x163;" horiz-adv-x="353" d="M329 3 C335 6 338 11 338 18 C338 21 338 24 337 25 L325 69 C323 73 319 75 314 75 C309 75 306 75 304 74 C297 73 281 70 272 70 C186 70 184 147 184 187 L184 329 L296 329 C309 329 315 335 315 348 L315 386 C315 399 309 405 296 405 L184 405 L184 549 C184 562 178 568 165 568 L131 568 C120 568 113 562 112 549 L93 405 L34 405 C21 405 15 399 15 386 L15 348 C15 335 21 329 34 329 L94 329 L94 212 C94 95 117 15 213 -1 C217 -16 218 -38 218 -55 C218 -80 195 -91 164 -91 C156 -91 146 -89 134 -86 C121 -86 116 -89 116 -108 L116 -135 C116 -148 153 -158 192 -158 C248 -158 289 -125 289 -49 C289 -37 287 -18 286 -3 C302 -2 316 0 329 3 L329 3 Z " />
<glyph glyph-name="Tcaron" unicode="&#x164;" horiz-adv-x="444" d="M178 494 L178 19 C178 6 184 0 197 0 L247 0 C260 0 266 6 266 19 L266 494 L405 494 C418 494 424 500 424 513 L424 549 C424 562 418 568 405 568 L39 568 C26 568 20 562 20 549 L20 513 C20 500 26 494 39 494 L178 494 Z M264 642 C275 642 282 647 285 657 L341 782 C340 793 332 796 327 796 L278 796 C267 796 261 789 258 781 L223 696 L187 781 C184 789 178 796 167 796 L117 796 C112 796 104 793 103 782 L160 657 C165 647 172 642 181 642 L264 642 Z " />
<glyph glyph-name="tcaron" unicode="&#x165;" horiz-adv-x="373" d="M329 3 C335 6 338 11 338 18 C338 21 338 24 337 25 L325 69 C323 73 319 75 314 75 C309 75 306 75 304 74 C297 73 281 70 272 70 C186 70 184 147 184 187 L184 329 L296 329 C309 329 315 335 315 348 L315 386 C315 399 309 405 296 405 L184 405 L184 549 C184 562 178 568 165 568 L131 568 C120 568 113 562 112 549 L93 405 L34 405 C21 405 15 399 15 386 L15 348 C15 335 21 329 34 329 L94 329 L94 212 C94 80 125 -5 255 -5 C278 -5 308 -2 329 3 L329 3 Z M358 549 C358 562 352 568 339 568 L291 568 C280 568 274 562 272 549 L257 470 C257 457 263 451 276 451 L308 451 C317 451 324 457 327 470 L358 549 Z " />
<glyph glyph-name="Tbar" unicode="&#x166;" horiz-adv-x="444" d="M345 244 C358 244 364 250 364 263 L364 299 C364 312 358 318 345 318 L266 318 L266 494 L405 494 C418 494 424 500 424 513 L424 549 C424 562 418 568 405 568 L39 568 C26 568 20 562 20 549 L20 513 C20 500 26 494 39 494 L178 494 L178 318 L99 318 C86 318 80 312 80 299 L80 263 C80 250 86 244 99 244 L178 244 L178 19 C178 6 184 0 197 0 L247 0 C260 0 266 6 266 19 L266 244 L345 244 Z " />
<glyph glyph-name="tbar" unicode="&#x167;" horiz-adv-x="363" d="M306 180 C319 180 325 186 325 199 L325 237 C325 250 319 256 306 256 L194 256 L194 329 L306 329 C319 329 325 335 325 348 L325 386 C325 399 319 405 306 405 L194 405 L194 549 C194 562 188 568 175 568 L141 568 C130 568 123 562 122 549 L103 405 L44 405 C31 405 25 399 25 386 L25 348 C25 335 31 329 44 329 L104 329 L104 256 L44 256 C31 256 25 250 25 237 L25 199 C25 186 31 180 44 180 L104 180 C109 66 145 -5 265 -5 C288 -5 318 -2 339 3 C345 6 348 11 348 18 C348 21 348 24 347 25 L335 69 C333 73 329 75 324 75 C319 75 316 75 314 74 C307 73 291 70 282 70 C199 70 194 138 194 180 L306 180 Z " />
<glyph glyph-name="Utilde" unicode="&#x168;" horiz-adv-x="536" d="M268 -5 C402 -5 486 31 486 251 L486 549 C486 562 480 568 467 568 L417 568 C404 568 398 562 398 549 L398 249 C398 82 328 70 268 70 C208 70 138 82 138 249 L138 549 C138 562 132 568 119 568 L69 568 C56 568 50 562 50 549 L50 251 C50 31 134 -5 268 -5 L268 -5 Z M339 642 C362 642 395 652 423 673 C426 674 428 678 428 683 C428 686 427 688 426 691 L404 723 C400 728 395 730 388 730 C381 730 375 727 370 724 C362 719 352 716 339 716 C287 716 246 752 197 752 C174 752 141 742 113 721 C110 719 108 716 108 711 C108 708 109 706 110 703 L132 671 C136 666 141 664 148 664 C155 664 161 667 166 670 C174 675 184 678 197 678 C249 678 289 642 339 642 L339 642 Z " />
<glyph glyph-name="utilde" unicode="&#x169;" horiz-adv-x="445" d="M307 93 C280 72 239 70 227 70 C147 70 128 83 128 182 L128 386 C128 399 122 405 109 405 L59 405 C46 405 40 399 40 386 L40 177 C40 45 97 -5 229 -5 C259 -5 327 -2 389 52 C393 56 395 61 395 67 L395 386 C395 399 389 405 376 405 L326 405 C313 405 307 399 307 386 L307 93 Z M266 485 C289 485 322 495 350 516 C353 517 355 521 355 526 C355 529 354 531 353 534 L331 566 C327 571 322 573 315 573 C308 573 302 570 297 567 C289 562 279 559 266 559 C214 559 210 581 161 581 C138 581 105 571 77 550 C74 548 72 545 72 540 C72 537 73 535 74 532 L96 500 C100 495 105 493 112 493 C119 493 125 496 130 499 C138 504 148 507 161 507 C213 507 216 485 266 485 L266 485 Z " />
<glyph glyph-name="Umacron" unicode="&#x16a;" horiz-adv-x="536" d="M268 -5 C402 -5 486 31 486 251 L486 549 C486 562 480 568 467 568 L417 568 C404 568 398 562 398 549 L398 249 C398 82 328 70 268 70 C208 70 138 82 138 249 L138 549 C138 562 132 568 119 568 L69 568 C56 568 50 562 50 549 L50 251 C50 31 134 -5 268 -5 L268 -5 Z M391 642 C404 642 410 648 410 661 L410 697 C410 710 404 716 391 716 L145 716 C132 716 126 710 126 697 L126 661 C126 648 132 642 145 642 L391 642 Z " />
<glyph glyph-name="umacron" unicode="&#x16b;" horiz-adv-x="445" d="M307 93 C280 72 239 70 227 70 C147 70 128 83 128 182 L128 386 C128 399 122 405 109 405 L59 405 C46 405 40 399 40 386 L40 177 C40 45 97 -5 229 -5 C259 -5 327 -2 389 52 C393 56 395 61 395 67 L395 386 C395 399 389 405 376 405 L326 405 C313 405 307 399 307 386 L307 93 Z M338 485 C351 485 357 491 357 504 L357 540 C357 553 351 559 338 559 L92 559 C79 559 73 553 73 540 L73 504 C73 491 79 485 92 485 L338 485 Z " />
<glyph glyph-name="Ubreve" unicode="&#x16c;" horiz-adv-x="536" d="M268 -5 C402 -5 486 31 486 251 L486 549 C486 562 480 568 467 568 L417 568 C404 568 398 562 398 549 L398 249 C398 82 328 70 268 70 C208 70 138 82 138 249 L138 549 C138 562 132 568 119 568 L69 568 C56 568 50 562 50 549 L50 251 C50 31 134 -5 268 -5 L268 -5 Z M267 642 C168 642 105 668 105 784 C105 797 111 803 124 803 L169 803 C182 803 188 797 188 784 C188 722 232 712 267 712 C302 712 346 722 346 784 C346 797 352 803 365 803 L410 803 C423 803 429 797 429 784 C429 668 366 642 267 642 L267 642 Z " />
<glyph glyph-name="ubreve" unicode="&#x16d;" horiz-adv-x="445" d="M307 93 C280 72 239 70 227 70 C147 70 128 83 128 182 L128 386 C128 399 122 405 109 405 L59 405 C46 405 40 399 40 386 L40 177 C40 45 97 -5 229 -5 C259 -5 327 -2 389 52 C393 56 395 61 395 67 L395 386 C395 399 389 405 376 405 L326 405 C313 405 307 399 307 386 L307 93 Z M217 485 C118 485 55 511 55 627 C55 640 61 646 74 646 L119 646 C132 646 138 640 138 627 C138 565 182 555 217 555 C252 555 296 565 296 627 C296 640 302 646 315 646 L360 646 C373 646 379 640 379 627 C379 511 316 485 217 485 L217 485 Z " />
<glyph glyph-name="Uring" unicode="&#x16e;" horiz-adv-x="536" d="M268 -5 C402 -5 486 31 486 251 L486 549 C486 562 480 568 467 568 L417 568 C404 568 398 562 398 549 L398 249 C398 82 328 70 268 70 C208 70 138 82 138 249 L138 549 C138 562 132 568 119 568 L69 568 C56 568 50 562 50 549 L50 251 C50 31 134 -5 268 -5 L268 -5 Z M267 709 C256 709 232 715 232 747 C232 780 256 787 267 787 C278 787 303 780 303 747 C303 715 278 709 267 709 L267 709 Z M267 642 C327 642 368 675 368 747 C368 819 327 853 267 853 C207 853 167 819 167 747 C167 675 207 642 267 642 L267 642 Z " />
<glyph glyph-name="uring" unicode="&#x16f;" horiz-adv-x="445" d="M307 93 C280 72 239 70 227 70 C147 70 128 83 128 182 L128 386 C128 399 122 405 109 405 L59 405 C46 405 40 399 40 386 L40 177 C40 45 97 -5 229 -5 C259 -5 327 -2 389 52 C393 56 395 61 395 67 L395 386 C395 399 389 405 376 405 L326 405 C313 405 307 399 307 386 L307 93 Z M217 552 C206 552 182 558 182 590 C182 623 206 630 217 630 C228 630 253 623 253 590 C253 558 228 552 217 552 L217 552 Z M217 485 C277 485 318 518 318 590 C318 662 277 696 217 696 C157 696 117 662 117 590 C117 518 157 485 217 485 L217 485 Z " />
<glyph glyph-name="Uhungarumlaut" unicode="&#x170;" horiz-adv-x="536" d="M268 -5 C402 -5 486 31 486 251 L486 549 C486 562 480 568 467 568 L417 568 C404 568 398 562 398 549 L398 249 C398 82 328 70 268 70 C208 70 138 82 138 249 L138 549 C138 562 132 568 119 568 L69 568 C56 568 50 562 50 549 L50 251 C50 31 134 -5 268 -5 L268 -5 Z M268 770 C268 783 262 789 249 789 L201 789 C188 789 182 783 182 770 L161 661 C161 648 167 642 180 642 L212 642 C221 642 228 648 231 661 L268 770 Z M411 770 C411 783 405 789 392 789 L344 789 C331 789 325 783 325 770 L304 661 C304 648 310 642 323 642 L355 642 C364 642 371 648 374 661 L411 770 Z " />
<glyph glyph-name="uhungarumlaut" unicode="&#x171;" horiz-adv-x="445" d="M307 93 C280 72 239 70 227 70 C147 70 128 83 128 182 L128 386 C128 399 122 405 109 405 L59 405 C46 405 40 399 40 386 L40 177 C40 45 97 -5 229 -5 C259 -5 327 -2 389 52 C393 56 395 61 395 67 L395 386 C395 399 389 405 376 405 L326 405 C313 405 307 399 307 386 L307 93 Z M216 613 C216 626 210 632 197 632 L149 632 C136 632 130 626 130 613 L109 504 C109 491 115 485 128 485 L160 485 C169 485 176 491 179 504 L216 613 Z M359 613 C359 626 353 632 340 632 L292 632 C279 632 273 626 273 613 L252 504 C252 491 258 485 271 485 L303 485 C312 485 319 491 322 504 L359 613 Z " />
<glyph glyph-name="Uogonek" unicode="&#x172;" horiz-adv-x="536" d="M486 251 L486 549 C486 562 480 568 467 568 L417 568 C404 568 398 562 398 549 L398 249 C398 82 328 70 268 70 C208 70 138 82 138 249 L138 549 C138 562 132 568 119 568 L69 568 C56 568 50 562 50 549 L50 251 C50 54 119 4 228 -4 C225 -16 225 -33 225 -49 C225 -125 266 -158 322 -158 C361 -158 398 -148 398 -135 L398 -108 C398 -89 393 -86 380 -86 C368 -89 358 -91 350 -91 C319 -91 296 -80 296 -55 C296 -32 298 -13 306 -4 C417 4 486 51 486 251 L486 251 Z " />
<glyph glyph-name="uogonek" unicode="&#x173;" horiz-adv-x="445" d="M307 93 C280 72 239 70 227 70 C147 70 128 83 128 182 L128 386 C128 399 122 405 109 405 L59 405 C46 405 40 399 40 386 L40 177 C40 46 97 -5 225 -5 C222 -13 221 -22 221 -33 C221 -109 262 -142 318 -142 C357 -142 394 -132 394 -119 L394 -92 C394 -73 389 -70 376 -70 C364 -73 354 -75 346 -75 C315 -75 292 -64 292 -39 C292 -22 293 -8 297 3 C325 10 358 25 389 52 C393 56 395 61 395 67 L395 386 C395 399 389 405 376 405 L326 405 C313 405 307 399 307 386 L307 93 Z " />
<glyph glyph-name="Ydieresis" unicode="&#x178;" horiz-adv-x="486" d="M287 159 L471 549 C471 562 465 568 452 568 L398 568 C387 568 380 560 375 549 L243 271 L111 549 C106 560 99 568 88 568 L34 568 C21 568 15 562 15 549 L199 159 L199 19 C199 6 205 0 218 0 L268 0 C281 0 287 6 287 19 L287 159 Z M109 691 C109 663 130 642 158 642 C186 642 208 663 208 691 C208 719 186 741 158 741 C130 741 109 719 109 691 L109 691 Z M279 691 C279 663 300 642 328 642 C356 642 378 663 378 691 C378 719 356 741 328 741 C300 741 279 719 279 691 L279 691 Z " />
<glyph glyph-name="Zacute" unicode="&#x179;" horiz-adv-x="414" d="M20 19 C20 6 26 0 39 0 L375 0 C388 0 394 6 394 19 L394 57 C394 70 388 76 375 76 L114 76 L394 484 L394 549 C394 562 388 568 375 568 L39 568 C26 568 20 562 20 549 L20 511 C20 498 26 492 39 492 L297 492 L20 87 L20 19 Z M150 686 C148 683 147 680 147 677 C147 670 155 663 158 660 C165 653 173 642 186 642 C193 642 201 644 208 649 L303 727 C305 730 306 734 306 740 C306 748 304 754 300 758 L268 793 C265 795 260 796 253 796 C245 795 244 794 237 787 L150 686 Z " />
<glyph glyph-name="zacute" unicode="&#x17a;" horiz-adv-x="375" d="M345 386 C345 399 339 405 326 405 L49 405 C36 405 30 399 30 386 L30 348 C30 335 36 329 49 329 L239 329 L30 103 L30 19 C30 6 36 0 49 0 L326 0 C339 0 345 6 345 19 L345 57 C345 70 339 76 326 76 L123 76 L345 318 L345 386 Z M128 529 C126 526 125 523 125 520 C125 513 133 506 136 503 C143 496 151 485 164 485 C171 485 179 487 186 492 L281 570 C283 573 284 577 284 583 C284 591 282 597 278 601 L246 636 C243 638 238 639 231 639 C223 638 222 637 215 630 L128 529 Z " />
<glyph glyph-name="Zdotaccent" unicode="&#x17b;" horiz-adv-x="414" d="M20 19 C20 6 26 0 39 0 L375 0 C388 0 394 6 394 19 L394 57 C394 70 388 76 375 76 L114 76 L394 484 L394 549 C394 562 388 568 375 568 L39 568 C26 568 20 562 20 549 L20 511 C20 498 26 492 39 492 L297 492 L20 87 L20 19 Z M162 692 C162 665 185 642 212 642 C239 642 262 665 262 692 C262 719 239 741 212 741 C185 741 162 719 162 692 L162 692 Z " />
<glyph glyph-name="zdotaccent" unicode="&#x17c;" horiz-adv-x="375" d="M345 386 C345 399 339 405 326 405 L49 405 C36 405 30 399 30 386 L30 348 C30 335 36 329 49 329 L239 329 L30 103 L30 19 C30 6 36 0 49 0 L326 0 C339 0 345 6 345 19 L345 57 C345 70 339 76 326 76 L123 76 L345 318 L345 386 Z M195 552 C184 552 160 558 160 590 C160 623 184 630 195 630 C206 630 231 623 231 590 C231 558 206 552 195 552 L195 552 Z M195 485 C255 485 296 518 296 590 C296 662 255 696 195 696 C135 696 95 662 95 590 C95 518 135 485 195 485 L195 485 Z " />
<glyph glyph-name="Zcaron" unicode="&#x17d;" horiz-adv-x="414" d="M20 19 C20 6 26 0 39 0 L375 0 C388 0 394 6 394 19 L394 57 C394 70 388 76 375 76 L114 76 L394 484 L394 549 C394 562 388 568 375 568 L39 568 C26 568 20 562 20 549 L20 511 C20 498 26 492 39 492 L297 492 L20 87 L20 19 Z M263 642 C274 642 281 647 284 657 L340 782 C339 793 331 796 326 796 L277 796 C266 796 260 789 257 781 L222 696 L186 781 C183 789 177 796 166 796 L116 796 C111 796 103 793 102 782 L159 657 C164 647 171 642 180 642 L263 642 Z " />
<glyph glyph-name="zcaron" unicode="&#x17e;" horiz-adv-x="375" d="M345 386 C345 399 339 405 326 405 L49 405 C36 405 30 399 30 386 L30 348 C30 335 36 329 49 329 L239 329 L30 103 L30 19 C30 6 36 0 49 0 L326 0 C339 0 345 6 345 19 L345 57 C345 70 339 76 326 76 L123 76 L345 318 L345 386 Z M230 485 C241 485 248 490 251 500 L307 625 C306 636 298 639 293 639 L244 639 C233 639 227 632 224 624 L189 539 L153 624 C150 632 144 639 133 639 L83 639 C78 639 70 636 69 625 L126 500 C131 490 138 485 147 485 L230 485 Z " />
<glyph glyph-name="florin" unicode="&#x192;" horiz-adv-x="330" d="M-53 -185 C-30 -193 0 -195 23 -195 C154 -195 182 -116 182 17 L182 329 L291 329 C304 329 310 335 310 348 L310 386 C310 399 304 405 291 405 L182 405 L182 420 C182 459 186 537 271 537 C287 537 300 533 313 533 C318 533 321 535 323 539 L334 582 C335 583 335 586 335 589 C335 596 332 601 326 604 C305 611 277 617 254 617 C129 617 97 541 94 405 L34 405 C21 405 15 399 15 386 L15 348 C15 335 21 329 34 329 L94 329 L94 3 C94 -37 92 -114 6 -114 C-17 -114 -27 -108 -39 -108 C-44 -108 -49 -110 -52 -118 C-63 -161 -62 -167 -62 -170 C-62 -177 -59 -182 -53 -185 L-53 -185 Z " />
<glyph glyph-name="uni0218" unicode="&#x218;" horiz-adv-x="481" d="M384 483 C388 483 397 483 398 494 C399 509 402 537 402 538 C402 545 399 551 391 554 C338 565 270 572 253 572 C74 572 35 510 35 422 C35 215 368 296 368 159 C368 78 261 70 229 70 C203 70 138 78 90 97 C85 100 84 100 81 100 C76 100 72 98 70 94 L52 50 C51 49 51 46 51 43 C51 36 54 31 60 28 C103 7 176 -5 215 -5 C374 -5 456 43 456 154 C456 379 123 302 123 431 C123 493 168 497 260 497 C275 497 324 491 384 483 L384 483 Z M196 -228 C189 -228 176 -225 176 -206 C187 -170 197 -148 205 -87 C205 -75 214 -66 226 -66 L267 -66 C279 -66 286 -73 288 -87 C275 -138 255 -228 224 -228 L196 -228 Z " />
<glyph glyph-name="uni0219" unicode="&#x219;" horiz-adv-x="389" d="M56 16 C95 0 159 -5 184 -5 C300 -5 364 38 364 118 C364 278 123 211 123 295 C123 331 166 336 237 336 C248 336 280 332 307 329 C311 329 320 329 321 340 C322 355 325 381 325 382 C325 389 322 395 314 398 C272 406 219 411 203 411 C75 411 33 357 33 293 C33 126 274 200 274 115 C274 70 209 70 182 70 C161 70 107 78 70 86 C66 86 59 86 56 75 C52 60 45 33 45 32 C45 25 48 19 56 16 L56 16 Z M165 -228 C158 -228 145 -225 145 -206 C156 -170 166 -148 174 -87 C174 -75 183 -66 195 -66 L236 -66 C248 -66 255 -73 257 -87 C244 -138 224 -228 193 -228 L165 -228 Z " />
<glyph glyph-name="uni021A" unicode="&#x21a;" horiz-adv-x="444" d="M178 494 L178 19 C178 6 184 0 197 0 L247 0 C260 0 266 6 266 19 L266 494 L405 494 C418 494 424 500 424 513 L424 549 C424 562 418 568 405 568 L39 568 C26 568 20 562 20 549 L20 513 C20 500 26 494 39 494 L178 494 Z M198 -228 C229 -228 249 -138 262 -87 C260 -73 253 -66 241 -66 L200 -66 C188 -66 179 -75 179 -87 C171 -148 161 -170 150 -206 C150 -225 163 -228 170 -228 L198 -228 Z " />
<glyph glyph-name="uni021B" unicode="&#x21b;" horiz-adv-x="353" d="M329 3 C335 6 338 11 338 18 C338 21 338 24 337 25 L325 69 C323 73 319 75 314 75 C309 75 306 75 304 74 C297 73 281 70 272 70 C186 70 184 147 184 187 L184 329 L296 329 C309 329 315 335 315 348 L315 386 C315 399 309 405 296 405 L184 405 L184 549 C184 562 178 568 165 568 L131 568 C120 568 113 562 112 549 L93 405 L34 405 C21 405 15 399 15 386 L15 348 C15 335 21 329 34 329 L94 329 L94 212 C94 80 125 -5 255 -5 C278 -5 308 -2 329 3 L329 3 Z M191 -228 C222 -228 242 -138 255 -87 C253 -73 246 -66 234 -66 L193 -66 C181 -66 172 -75 172 -87 C164 -148 154 -170 143 -206 C143 -225 156 -228 163 -228 L191 -228 Z " />
<glyph glyph-name="circumflex" unicode="&#x2c6;" horiz-adv-x="338" d="M128 568 C119 568 112 563 107 553 L50 428 C51 417 59 414 64 414 L114 414 C125 414 131 421 134 429 L170 514 L205 429 C208 421 214 414 225 414 L274 414 C279 414 287 417 288 428 L232 553 C229 563 222 568 211 568 L128 568 Z " />
<glyph glyph-name="caron" unicode="&#x2c7;" horiz-adv-x="338" d="M211 414 C222 414 229 419 232 429 L288 554 C287 565 279 568 274 568 L225 568 C214 568 208 561 205 553 L170 468 L134 553 C131 561 125 568 114 568 L64 568 C59 568 51 565 50 554 L107 429 C112 419 119 414 128 414 L211 414 Z " />
<glyph glyph-name="breve" unicode="&#x2d8;" horiz-adv-x="424" d="M212 407 C311 407 374 433 374 549 C374 562 368 568 355 568 L310 568 C297 568 291 562 291 549 C291 487 247 477 212 477 C177 477 133 487 133 549 C133 562 127 568 114 568 L69 568 C56 568 50 562 50 549 C50 433 113 407 212 407 L212 407 Z " />
<glyph glyph-name="dotaccent" unicode="&#x2d9;" horiz-adv-x="200" d="M50 523 C50 496 73 473 100 473 C127 473 150 496 150 523 C150 550 127 572 100 572 C73 572 50 550 50 523 L50 523 Z " />
<glyph glyph-name="ring" unicode="&#x2da;" horiz-adv-x="301" d="M150 428 C139 428 115 434 115 466 C115 499 139 506 150 506 C161 506 186 499 186 466 C186 434 161 428 150 428 L150 428 Z M150 361 C210 361 251 394 251 466 C251 538 210 572 150 572 C90 572 50 538 50 466 C50 394 90 361 150 361 L150 361 Z " />
<glyph glyph-name="ogonek" unicode="&#x2db;" horiz-adv-x="273" d="M133 -18 C133 -15 134 -15 134 -14 C134 -3 123 -1 116 0 L73 0 C60 0 54 -6 54 -19 C51 -34 50 -48 50 -65 C50 -141 91 -174 147 -174 C186 -174 223 -164 223 -151 L223 -124 C223 -105 218 -102 205 -102 C193 -105 183 -107 175 -107 C144 -107 121 -96 121 -71 C121 -48 129 -30 133 -18 L133 -18 Z " />
<glyph glyph-name="tilde" unicode="&#x2dc;" horiz-adv-x="420" d="M281 462 C304 462 337 472 365 493 C368 494 370 498 370 503 C370 506 369 508 368 511 L346 543 C342 548 337 550 330 550 C323 550 317 547 312 544 C304 539 294 536 281 536 C229 536 188 572 139 572 C116 572 83 562 55 541 C52 539 50 536 50 531 C50 528 51 526 52 523 L74 491 C78 486 83 484 90 484 C97 484 103 487 108 490 C116 495 126 498 139 498 C191 498 231 462 281 462 L281 462 Z " />
<glyph glyph-name="hungarumlaut" unicode="&#x2dd;" horiz-adv-x="350" d="M157 549 C157 562 151 568 138 568 L90 568 C77 568 71 562 71 549 L50 440 C50 427 56 421 69 421 L101 421 C110 421 117 427 120 440 L157 549 Z M300 549 C300 562 294 568 281 568 L233 568 C220 568 214 562 214 549 L193 440 C193 427 199 421 212 421 L244 421 C253 421 260 427 263 440 L300 549 Z " />
<glyph glyph-name="uni03A9" unicode="&#x3a9;" horiz-adv-x="682" d="M341 497 C400 497 500 492 500 280 C500 226 494 130 467 76 C464 69 463 64 463 61 L463 31 C463 12 474 0 493 0 L613 0 C626 0 632 6 632 19 L632 54 C632 67 626 73 613 73 L543 73 C570 127 588 247 588 280 C588 516 474 572 341 572 C207 572 94 516 94 280 C94 248 110 126 139 73 L69 73 C56 73 50 67 50 54 L50 19 C50 6 56 0 69 0 L189 0 C208 0 219 12 219 31 L219 61 C219 64 218 69 215 76 C188 130 182 226 182 280 C182 492 282 497 341 497 L341 497 Z " />
<glyph glyph-name="pi" unicode="&#x3c0;" horiz-adv-x="674" d="M605 331 C618 331 624 337 624 350 L624 386 C624 399 618 405 605 405 L69 405 C56 405 50 399 50 386 L50 350 C50 337 56 331 69 331 L155 331 L155 19 C155 6 161 0 174 0 L224 0 C237 0 243 6 243 19 L243 331 L431 331 L431 19 C431 6 437 0 450 0 L500 0 C513 0 519 6 519 19 L519 331 L605 331 Z " />
<glyph glyph-name="ZWSP" unicode="&#x200b;" d="" />
<glyph glyph-name="endash" unicode="&#x2013;" horiz-adv-x="384" d="M315 156 C328 156 334 162 334 175 L334 211 C334 224 328 230 315 230 L69 230 C56 230 50 224 50 211 L50 175 C50 162 56 156 69 156 L315 156 Z " />
<glyph glyph-name="emdash" unicode="&#x2014;" horiz-adv-x="473" d="M404 156 C417 156 423 162 423 175 L423 211 C423 224 417 230 404 230 L69 230 C56 230 50 224 50 211 L50 175 C50 162 56 156 69 156 L404 156 Z " />
<glyph glyph-name="quoteleft" unicode="&#x2018;" horiz-adv-x="218" d="M120 568 C91 568 61 474 50 423 C52 409 59 402 71 402 L112 402 C124 402 133 411 133 423 C141 484 155 510 168 546 C168 565 155 568 148 568 L120 568 Z " />
<glyph glyph-name="quoteright" unicode="&#x2019;" horiz-adv-x="218" d="M98 402 C129 402 155 496 168 547 C166 561 159 568 147 568 L106 568 C94 568 85 559 85 547 C77 486 61 460 50 424 C50 405 63 402 70 402 L98 402 Z " />
<glyph glyph-name="quotesinglbase" unicode="&#x201a;" horiz-adv-x="218" d="M98 -155 C129 -155 155 -61 168 -10 C166 4 159 11 147 11 L106 11 C94 11 85 2 85 -10 C77 -71 61 -97 50 -133 C50 -152 63 -155 70 -155 L98 -155 Z " />
<glyph glyph-name="quotedblleft" unicode="&#x201c;" horiz-adv-x="374" d="M120 568 C91 568 61 474 50 423 C52 409 59 402 71 402 L112 402 C124 402 133 411 133 423 C141 484 155 510 168 546 C168 565 155 568 148 568 L120 568 Z M276 568 C247 568 217 474 206 423 C208 409 215 402 227 402 L268 402 C280 402 289 411 289 423 C297 484 311 510 324 546 C324 565 311 568 304 568 L276 568 Z " />
<glyph glyph-name="quotedblright" unicode="&#x201d;" horiz-adv-x="374" d="M254 402 C285 402 311 496 324 547 C322 561 315 568 303 568 L262 568 C250 568 241 559 241 547 C233 486 217 460 206 424 C206 405 219 402 226 402 L254 402 Z M98 402 C129 402 155 496 168 547 C166 561 159 568 147 568 L106 568 C94 568 85 559 85 547 C77 486 61 460 50 424 C50 405 63 402 70 402 L98 402 Z " />
<glyph glyph-name="quotedblbase" unicode="&#x201e;" horiz-adv-x="374" d="M254 -155 C285 -155 311 -61 324 -10 C322 4 315 11 303 11 L262 11 C250 11 241 2 241 -10 C233 -71 217 -97 206 -133 C206 -152 219 -155 226 -155 L254 -155 Z M98 -155 C129 -155 155 -61 168 -10 C166 4 159 11 147 11 L106 11 C94 11 85 2 85 -10 C77 -71 61 -97 50 -133 C50 -152 63 -155 70 -155 L98 -155 Z " />
<glyph glyph-name="dagger" unicode="&#x2020;" horiz-adv-x="414" d="M163 331 L163 -177 C163 -190 169 -196 182 -196 L232 -196 C245 -196 251 -190 251 -177 L251 331 L345 331 C358 331 364 337 364 350 L364 386 C364 399 358 405 345 405 L251 405 L251 549 C251 562 245 568 232 568 L182 568 C169 568 163 562 163 549 L163 405 L69 405 C56 405 50 399 50 386 L50 350 C50 337 56 331 69 331 L163 331 Z " />
<glyph glyph-name="daggerdbl" unicode="&#x2021;" horiz-adv-x="414" d="M69 74 C56 74 50 68 50 55 L50 19 C50 6 56 0 69 0 L163 0 L163 -177 C163 -190 169 -196 182 -196 L232 -196 C245 -196 251 -190 251 -177 L251 0 L345 0 C358 0 364 6 364 19 L364 55 C364 68 358 74 345 74 L251 74 L251 331 L345 331 C358 331 364 337 364 350 L364 386 C364 399 358 405 345 405 L251 405 L251 549 C251 562 245 568 232 568 L182 568 C169 568 163 562 163 549 L163 405 L69 405 C56 405 50 399 50 386 L50 350 C50 337 56 331 69 331 L163 331 L163 74 L69 74 Z " />
<glyph glyph-name="bullet" unicode="&#x2022;" horiz-adv-x="200" d="M50 171 C50 144 73 121 100 121 C127 121 150 144 150 171 C150 198 127 220 100 220 C73 220 50 198 50 171 L50 171 Z " />
<glyph glyph-name="ellipsis" unicode="&#x2026;" horiz-adv-x="598" d="M50 45 C50 18 73 -5 100 -5 C127 -5 150 18 150 45 C150 72 127 94 100 94 C73 94 50 72 50 45 L50 45 Z M249 45 C249 18 272 -5 299 -5 C326 -5 349 18 349 45 C349 72 326 94 299 94 C272 94 249 72 249 45 L249 45 Z M448 45 C448 18 471 -5 498 -5 C525 -5 548 18 548 45 C548 72 525 94 498 94 C471 94 448 72 448 45 L448 45 Z " />
<glyph glyph-name="perthousand" unicode="&#x2030;" horiz-adv-x="888" d="M156 23 C156 10 166 0 179 0 L227 0 C240 0 247 11 254 24 L481 545 C481 558 471 568 458 568 L410 568 C397 568 390 557 383 544 L156 23 Z M160 415 C148 415 121 421 121 456 C121 489 147 498 160 498 C171 498 198 490 198 456 C198 421 171 415 160 415 L160 415 Z M160 341 C224 341 270 376 270 456 C270 536 224 572 160 572 C95 572 50 536 50 456 C50 376 95 341 160 341 L160 341 Z M467 69 C454 69 429 75 429 110 C429 144 454 152 467 152 C480 152 506 143 506 110 C506 75 479 69 467 69 L467 69 Z M467 -5 C532 -5 577 30 577 110 C577 190 532 226 467 226 C403 226 357 190 357 110 C357 30 403 -5 467 -5 L467 -5 Z M728 69 C715 69 690 75 690 110 C690 144 715 152 728 152 C741 152 767 143 767 110 C767 75 740 69 728 69 L728 69 Z M728 -5 C793 -5 838 30 838 110 C838 190 793 226 728 226 C664 226 618 190 618 110 C618 30 664 -5 728 -5 L728 -5 Z " />
<glyph glyph-name="guilsinglleft" unicode="&#x2039;" horiz-adv-x="377" d="M137 208 L308 287 C321 292 327 299 327 310 L327 360 C327 373 321 379 308 379 L72 274 C53 266 50 251 50 244 L50 173 C50 166 53 151 72 143 L308 38 C321 38 327 44 327 57 L327 107 C327 118 321 125 308 130 L137 208 Z " />
<glyph glyph-name="guilsinglright" unicode="&#x203a;" horiz-adv-x="377" d="M69 130 C56 125 50 118 50 107 L50 57 C50 44 56 38 69 38 L305 143 C324 151 327 166 327 173 L327 244 C327 251 324 266 305 274 L69 379 C56 379 50 373 50 360 L50 310 C50 299 56 292 69 287 L240 208 L69 130 Z " />
<glyph glyph-name="fraction" unicode="&#x2044;" horiz-adv-x="416" d="M391 693 C391 706 385 712 372 712 L329 712 C318 712 311 706 306 693 L25 -127 C25 -140 31 -146 44 -146 L89 -146 C100 -146 107 -140 112 -127 L391 693 Z " />
<glyph glyph-name="Euro" unicode="&#x20ac;" horiz-adv-x="573" d="M315 164 C328 164 334 170 334 183 L334 219 C334 232 328 238 315 238 L215 238 C214 251 213 265 213 280 C213 299 214 315 215 331 L315 331 C328 331 334 337 334 350 L334 386 C334 399 328 405 315 405 L233 405 C268 494 347 498 388 498 C411 498 449 491 485 476 C488 474 491 473 494 473 C499 473 503 475 505 479 L522 519 C523 520 523 523 523 526 C523 533 520 538 514 541 C467 566 421 572 378 572 C271 572 174 537 139 405 L69 405 C56 405 50 399 50 386 L50 350 C50 337 56 331 69 331 L127 331 C124 315 125 299 125 280 C125 265 125 251 126 238 L69 238 C56 238 50 232 50 219 L50 183 C50 170 56 164 69 164 L139 164 C173 39 273 -5 378 -5 C421 -5 471 -1 514 26 C520 29 523 34 523 41 C523 44 523 47 522 48 L505 89 C503 93 499 95 494 95 C491 95 488 94 485 92 C446 73 412 70 388 70 C349 70 274 87 237 164 L315 164 Z " />
<glyph glyph-name="Numero" unicode="&#x2116;" horiz-adv-x="1015" d="M164 546 C151 567 132 568 127 568 L69 568 C56 568 50 562 50 549 L50 19 C50 6 56 0 69 0 L119 0 C132 0 138 6 138 19 L138 421 L383 22 C396 1 415 0 420 0 L470 0 C483 0 489 6 489 19 L489 549 C489 562 483 568 470 568 L420 568 C407 568 401 562 401 549 L401 160 L164 546 Z M768 231 C669 231 659 315 659 367 C659 422 679 497 768 497 C857 497 877 422 877 367 C877 315 867 231 768 231 L768 231 Z M768 156 C903 156 965 235 965 368 C965 491 901 572 768 572 C633 572 571 491 571 368 C571 235 633 156 768 156 L768 156 Z M946 0 C959 0 965 6 965 19 L965 55 C965 68 959 74 946 74 L590 74 C577 74 571 68 571 55 L571 19 C571 6 577 0 590 0 L946 0 Z " />
<glyph glyph-name="trademark" unicode="&#x2122;" horiz-adv-x="697" d="M200 500 L265 500 C274 500 278 504 278 513 L278 555 C278 564 274 568 265 568 L63 568 C54 568 50 564 50 555 L50 513 C50 504 54 500 63 500 L127 500 L127 269 C127 260 131 256 140 256 L187 256 C196 256 200 260 200 269 L200 500 Z M502 340 C507 340 512 345 515 349 L569 442 L579 269 C579 260 583 256 592 256 L633 256 C640 256 647 262 647 269 L645 305 C642 341 639 412 632 555 C631 564 626 568 619 568 L556 568 C551 568 547 566 545 561 L480 423 L414 561 C411 566 408 568 403 568 L340 568 C333 568 328 564 327 555 C320 412 315 341 314 305 L312 269 C312 262 319 256 326 256 L368 256 C377 256 381 260 381 269 L391 442 L445 349 C448 345 453 340 458 340 L502 340 Z " />
<glyph glyph-name="Omega" unicode="&#x2126;" horiz-adv-x="682" d="M341 497 C400 497 500 492 500 280 C500 226 494 130 467 76 C464 69 463 64 463 61 L463 31 C463 12 474 0 493 0 L613 0 C626 0 632 6 632 19 L632 54 C632 67 626 73 613 73 L543 73 C570 127 588 247 588 280 C588 516 474 572 341 572 C207 572 94 516 94 280 C94 248 110 126 139 73 L69 73 C56 73 50 67 50 54 L50 19 C50 6 56 0 69 0 L189 0 C208 0 219 12 219 31 L219 61 C219 64 218 69 215 76 C188 130 182 226 182 280 C182 492 282 497 341 497 L341 497 Z " />
<glyph glyph-name="partialdiff" unicode="&#x2202;" horiz-adv-x="434" d="M180 572 C137 572 91 568 44 543 C38 540 35 535 35 528 C35 525 35 522 36 521 L53 479 C55 475 59 473 64 473 C67 473 70 474 73 476 C114 495 144 497 171 497 C252 497 296 460 296 365 L296 307 C257 325 206 325 195 325 C100 325 37 287 37 163 C37 36 92 -5 221 -5 C260 -5 321 2 368 15 C377 19 384 23 384 32 L384 365 C384 500 315 572 180 572 L180 572 Z M296 85 C272 69 229 70 218 70 C151 70 125 84 125 164 C125 244 158 252 222 252 C235 252 271 249 296 230 L296 85 Z " />
<glyph glyph-name="Delta" unicode="&#x2206;" horiz-adv-x="730" d="M375 567 C373 570 370 572 365 572 C360 572 356 570 355 567 L54 17 C51 12 50 9 50 8 C50 5 50 0 57 0 L673 0 C680 0 680 5 680 8 C680 9 679 12 676 17 L375 567 Z M184 73 L365 400 L546 73 L184 73 Z " />
<glyph glyph-name="product" unicode="&#x220f;" horiz-adv-x="674" d="M605 494 C618 494 624 500 624 513 L624 549 C624 562 618 568 605 568 L69 568 C56 568 50 562 50 549 L50 513 C50 500 56 494 69 494 L155 494 L155 19 C155 6 161 0 174 0 L224 0 C237 0 243 6 243 19 L243 494 L431 494 L431 19 C431 6 437 0 450 0 L500 0 C513 0 519 6 519 19 L519 494 L605 494 Z " />
<glyph glyph-name="summation" unicode="&#x2211;" horiz-adv-x="444" d="M176 274 L50 92 L50 19 C50 6 56 0 69 0 L375 0 C388 0 394 6 394 19 L394 54 C394 67 388 73 375 73 L145 73 L286 277 L286 291 L145 495 L375 495 C388 495 394 501 394 514 L394 549 C394 562 388 568 375 568 L69 568 C56 568 50 562 50 549 L50 476 L176 294 L176 274 Z " />
<glyph glyph-name="minus" unicode="&#x2212;" horiz-adv-x="384" d="M315 156 C328 156 334 162 334 175 L334 211 C334 224 328 230 315 230 L69 230 C56 230 50 224 50 211 L50 175 C50 162 56 156 69 156 L315 156 Z " />
<glyph glyph-name="radical" unicode="&#x221a;" horiz-adv-x="694" d="M625 494 C638 494 644 500 644 513 L644 549 C644 562 638 568 625 568 L425 568 C414 568 407 562 402 549 L243 87 L142 386 C137 399 130 405 119 405 L69 405 C56 405 50 399 50 386 C93 266 135 142 178 22 C185 3 201 0 208 0 L279 0 C284 0 301 3 308 22 C345 125 426 357 474 494 L625 494 Z " />
<glyph glyph-name="infinity" unicode="&#x221e;" horiz-adv-x="1022" d="M511 128 C566 60 659 25 748 25 C859 25 972 85 972 215 C972 338 888 410 748 410 C665 410 600 384 511 277 C422 384 357 410 274 410 C134 410 50 338 50 215 C50 85 163 25 274 25 C363 25 456 60 511 128 L511 128 Z M274 336 C353 336 412 300 476 200 C429 132 357 99 274 99 C194 99 138 134 138 214 C138 321 215 336 274 336 L274 336 Z M748 336 C807 336 884 321 884 214 C884 134 828 99 748 99 C665 99 593 132 546 200 C610 300 669 336 748 336 L748 336 Z " />
<glyph glyph-name="integral" unicode="&#x222b;" horiz-adv-x="500" d="M441 606 C418 614 388 616 365 616 C234 616 206 536 206 402 L206 3 C206 -37 204 -114 118 -114 C95 -114 85 -108 73 -108 C68 -108 63 -110 60 -118 C49 -161 50 -167 50 -170 C50 -177 53 -182 59 -185 C82 -193 112 -195 135 -195 C266 -195 294 -115 294 19 L294 418 C294 458 296 535 382 535 C405 535 415 529 427 529 C434 529 438 532 440 539 C451 582 450 588 450 591 C450 598 447 603 441 606 L441 606 Z " />
<glyph glyph-name="approxequal" unicode="&#x2248;" horiz-adv-x="420" d="M281 47 C304 47 337 57 365 78 C368 79 370 83 370 88 C370 91 369 93 368 96 L346 128 C342 133 337 135 330 135 C323 135 317 132 312 129 C304 124 294 121 281 121 C229 121 188 157 139 157 C116 157 83 147 55 126 C52 124 50 121 50 116 C50 113 51 111 52 108 L74 76 C78 71 83 69 90 69 C97 69 103 72 108 75 C116 80 126 83 139 83 C191 83 231 47 281 47 L281 47 Z M281 180 C304 180 337 190 365 211 C368 212 370 216 370 221 C370 224 369 226 368 229 L346 261 C342 266 337 268 330 268 C323 268 317 265 312 262 C304 257 294 254 281 254 C229 254 188 290 139 290 C116 290 83 280 55 259 C52 257 50 254 50 249 C50 246 51 244 52 241 L74 209 C78 204 83 202 90 202 C97 202 103 205 108 208 C116 213 126 216 139 216 C191 216 231 180 281 180 L281 180 Z " />
<glyph glyph-name="notequal" unicode="&#x2260;" horiz-adv-x="384" d="M315 255 C328 255 334 261 334 274 L334 310 C334 323 328 329 315 329 L271 329 L290 384 C290 395 285 400 274 400 L237 400 C228 400 221 395 218 384 L199 329 L69 329 C56 329 50 323 50 310 L50 274 C50 261 56 255 69 255 L173 255 L140 159 L69 159 C56 159 50 153 50 140 L50 104 C50 91 56 85 69 85 L115 85 L91 16 C91 5 96 0 107 0 L145 0 C155 0 162 5 165 16 L188 85 L315 85 C328 85 334 91 334 104 L334 140 C334 153 328 159 315 159 L214 159 L246 255 L315 255 Z " />
<glyph glyph-name="lessequal" unicode="&#x2264;" horiz-adv-x="332" d="M50 211 C50 204 53 188 72 181 L263 103 C276 103 282 109 282 122 L282 172 C282 183 276 190 263 195 L137 242 L263 290 C276 295 282 302 282 313 L282 363 C282 376 276 382 263 382 L72 303 C53 296 50 279 50 274 L50 211 Z M263 0 C276 0 282 6 282 19 L282 55 C282 68 276 74 263 74 L78 74 C65 74 59 68 59 55 L59 19 C59 6 65 0 78 0 L263 0 Z " />
<glyph glyph-name="greaterequal" unicode="&#x2265;" horiz-adv-x="332" d="M282 274 C282 279 279 296 260 303 L69 382 C56 382 50 376 50 363 L50 313 C50 302 56 295 69 290 L195 242 L69 195 C56 190 50 183 50 172 L50 122 C50 109 56 103 69 103 L260 181 C279 188 282 204 282 211 L282 274 Z M254 0 C267 0 273 6 273 19 L273 55 C273 68 267 74 254 74 L69 74 C56 74 50 68 50 55 L50 19 C50 6 56 0 69 0 L254 0 Z " />
<glyph glyph-name="lozenge" unicode="&#x25ca;" horiz-adv-x="472" d="M236 572 C234 572 232 571 231 570 C230 569 230 569 230 568 L54 300 C51 295 50 296 50 285 C50 278 52 276 56 269 L227 4 C230 1 233 0 236 0 C239 0 242 1 245 4 L416 269 C420 276 422 278 422 285 C422 296 421 295 418 300 L242 568 L240 570 C239 571 237 572 236 572 L236 572 Z M236 419 L322 286 L236 150 L150 286 L236 419 Z " />
<glyph glyph-name="uni25CC" unicode="&#x25cc;" horiz-adv-x="512" d="" />
<glyph glyph-name="fi" unicode="&#xfb01;" horiz-adv-x="518" d="M313 533 C318 533 321 535 323 539 L334 582 C335 583 335 586 335 589 C335 596 332 601 326 604 C305 611 277 617 254 617 C129 617 97 541 94 405 L34 405 C21 405 15 399 15 386 L15 348 C15 335 21 329 34 329 L94 329 L94 19 C94 6 100 0 113 0 L163 0 C176 0 182 6 182 19 L182 329 L291 329 C304 329 310 335 310 348 L310 386 C310 399 304 405 291 405 L182 405 L182 420 C182 459 186 537 271 537 C287 537 300 533 313 533 L313 533 Z M380 19 C380 6 386 0 399 0 L449 0 C462 0 468 6 468 19 L468 386 C468 399 462 405 449 405 L399 405 C386 405 380 399 380 386 L380 19 Z M376 492 C376 465 397 444 424 444 C451 444 473 465 473 492 C473 519 451 541 424 541 C397 541 376 519 376 492 L376 492 Z " />
<glyph glyph-name="fl" unicode="&#xfb02;" horiz-adv-x="537" d="M313 533 C318 533 321 535 323 539 L334 582 C335 583 335 586 335 589 C335 596 332 601 326 604 C305 611 277 617 254 617 C129 617 97 541 94 405 L34 405 C21 405 15 399 15 386 L15 348 C15 335 21 329 34 329 L94 329 L94 19 C94 6 100 0 113 0 L163 0 C176 0 182 6 182 19 L182 329 L291 329 C304 329 310 335 310 348 L310 386 C310 399 304 405 291 405 L182 405 L182 420 C182 459 186 537 271 537 C287 537 300 533 313 533 L313 533 Z M493 65 C481 73 468 86 468 114 L468 549 C468 562 462 568 449 568 L399 568 C386 568 380 562 380 549 L380 73 C380 44 387 -5 443 -5 C462 -5 502 -4 502 19 L502 49 C502 56 499 61 493 65 L493 65 Z " />
</font>
</svg>
